<svg xmlns="http://www.w3.org/2000/svg" xmlns:xlink="http://www.w3.org/1999/xlink" width="190" height="169.181" viewBox="0 0 190 169.181">
  <defs>
    <linearGradient id="linear-gradient" x1="0.211" y1="0.901" x2="0.777" y2="0.116" gradientUnits="objectBoundingBox">
      <stop offset="0" stop-color="#fff" stop-opacity="0"/>
      <stop offset="1" stop-color="#95ffd0"/>
    </linearGradient>
  </defs>
  <g id="Grupo_1158200" data-name="Grupo 1158200" transform="translate(-180 -1938)">
    <g id="Grupo_1149677" data-name="Grupo 1149677" transform="translate(-1050 1663.296)">
      <rect id="Rect치ngulo_407965" data-name="Rect치ngulo 407965" width="190" height="112" rx="7" transform="translate(1230 304.704)" fill="#5a1a8a"/>
      <rect id="Rect치ngulo_407966" data-name="Rect치ngulo 407966" width="126" height="154" rx="7" transform="translate(1262 283.704)" fill="#a530fe"/>
    </g>
    <g id="tutoria" transform="translate(180 1919.068)">
      <g id="Grupo_1158158" data-name="Grupo 1158158" transform="translate(0 34.994)">
        <path id="Trazado_992419" data-name="Trazado 992419" d="M29.62,67.061c44.312-16.991,37.59,41.8,94.871,25.594,59.075-16.719,84.16,86.683,22.327,101.072-44.957,10.461-46.161-24.462-81.992-32.292-11.9-2.6-23.835,8.783-35.685,5.964-34.052-8.1-43.559-83.451.478-100.338Z" transform="translate(0 -63.945)" fill="url(#linear-gradient)"/>
      </g>
      <g id="Grupo_1158198" data-name="Grupo 1158198" transform="translate(12.766 18.932)">
        <g id="Grupo_1158197" data-name="Grupo 1158197" transform="translate(0 2.709)">
          <g id="Grupo_1158192" data-name="Grupo 1158192">
            <path id="Trazado_992420" data-name="Trazado 992420" d="M180.349,94.182V55.839a3.314,3.314,0,0,0-3.314-3.314h-47.95a3.314,3.314,0,0,0-3.314,3.314V95.076H39.346a3.568,3.568,0,0,0-3.568,3.568v82.284a3.568,3.568,0,0,0,3.568,3.568H79.393V201.53H72.826a1.784,1.784,0,0,0-1.784,1.784v4.621a1.784,1.784,0,0,0,1.784,1.784h52.831a1.784,1.784,0,0,0,1.784-1.784v-4.621a1.784,1.784,0,0,0-1.784-1.784H119.09V184.5h40.047a3.568,3.568,0,0,0,3.568-3.568V163.448H150.8V147.982h11.908V130.338a20.163,20.163,0,1,0,17.644-36.156Z" transform="translate(-35.778 -43.248)" fill="#2626bb" opacity="0.1"/>
            <g id="Grupo_1158175" data-name="Grupo 1158175" transform="translate(0.001 9.171)">
              <g id="Grupo_1158166" data-name="Grupo 1158166" transform="translate(0 33.38)">
                <g id="Grupo_1158160" data-name="Grupo 1158160" transform="translate(43.614 87.379)">
                  <g id="Grupo_1158159" data-name="Grupo 1158159">
                    <path id="Trazado_992421" data-name="Trazado 992421" d="M158.012,390.66h39.7v20.5h-39.7Z" transform="translate(-158.012 -390.66)" fill="#b6c4ff"/>
                  </g>
                  <path id="Trazado_992422" data-name="Trazado 992422" d="M158.012,390.66h39.7v11.319h-39.7Z" transform="translate(-158.012 -390.66)" fill="#9eaffd"/>
                </g>
                <g id="Grupo_1158162" data-name="Grupo 1158162" transform="translate(35.263 106.454)">
                  <g id="Grupo_1158161" data-name="Grupo 1158161">
                    <path id="Trazado_992423" data-name="Trazado 992423" d="M189.222,444.118H136.39a1.784,1.784,0,0,0-1.784,1.784v4.621a1.784,1.784,0,0,0,1.784,1.784h52.831a1.784,1.784,0,0,0,1.784-1.784V445.9A1.784,1.784,0,0,0,189.222,444.118Z" transform="translate(-134.606 -444.118)" fill="#4369fc"/>
                  </g>
                </g>
                <g id="Grupo_1158165" data-name="Grupo 1158165">
                  <path id="Trazado_992424" data-name="Trazado 992424" d="M162.709,149.347V231.63a3.567,3.567,0,0,1-3.568,3.568H39.349a3.565,3.565,0,0,1-3.568-3.568V149.347a3.567,3.567,0,0,1,3.568-3.568H159.141A3.569,3.569,0,0,1,162.709,149.347Z" transform="translate(-35.781 -145.778)" fill="#4369fc"/>
                  <path id="Trazado_992425" data-name="Trazado 992425" d="M373.3,172.668v34.95a20.17,20.17,0,0,1,0-34.95Z" transform="translate(-246.371 -163.073)" fill="#2d58df"/>
                  <g id="Grupo_1158163" data-name="Grupo 1158163" transform="translate(7.956 79.764)">
                    <path id="Trazado_992426" data-name="Trazado 992426" d="M62.5,372.887H59.861a1.784,1.784,0,1,1,0-3.568H62.5a1.784,1.784,0,1,1,0,3.568Z" transform="translate(-58.077 -369.319)" fill="#2d58df"/>
                  </g>
                  <path id="Trazado_992427" data-name="Trazado 992427" d="M321.353,145.777H287.987V158.52a3.314,3.314,0,0,0,3.314,3.314h33.621V149.345a3.568,3.568,0,0,0-3.568-3.568Z" transform="translate(-197.995 -145.777)" fill="#2d58df"/>
                  <path id="Trazado_992428" data-name="Trazado 992428" d="M168.146,229.106V168.345a3.568,3.568,0,0,0-3.568-3.568H58.346a3.568,3.568,0,0,0-3.568,3.568v60.761a3.568,3.568,0,0,0,3.568,3.568H164.578A3.568,3.568,0,0,0,168.146,229.106Z" transform="translate(-48 -157.997)" fill="#96ffd1"/>
                  <path id="Trazado_992429" data-name="Trazado 992429" d="M366.518,212.748V190.586a20.168,20.168,0,0,0,0,22.162Z" transform="translate(-246.371 -174.597)" fill="#02ffb2"/>
                  <path id="Trazado_992430" data-name="Trazado 992430" d="M318.142,168.345a3.568,3.568,0,0,0-3.568-3.568H287.987v5.963a3.314,3.314,0,0,0,3.314,3.314h26.841Z" transform="translate(-197.995 -157.997)" fill="#02ffb2"/>
                  <path id="Trazado_992431" data-name="Trazado 992431" d="M157.1,256.778l-3.339-29.412a13.368,13.368,0,0,0-10.538-11.575l-18.862-3.956v-9.582H109.042v9.582L90.18,215.79a13.367,13.367,0,0,0-10.538,11.575L76.3,256.778Z" transform="translate(-61.844 -182.101)" fill="#b6c4ff"/>
                  <path id="Trazado_992432" data-name="Trazado 992432" d="M177.522,248.519l-6.658,4.068,2.75,6.686h7.817l2.75-6.686Z" transform="translate(-122.664 -211.859)" fill="#4369fc"/>
                  <path id="Trazado_992433" data-name="Trazado 992433" d="M184.18,305.92l-2.75-27.263h-7.817l-2.75,27.263Z" transform="translate(-122.664 -231.243)" fill="#6582fd"/>
                  <path id="Trazado_992434" data-name="Trazado 992434" d="M183.375,211.834v-9.582H168.054v9.582l7.661,8.993Z" transform="translate(-120.856 -182.101)" fill="#ffa7ce"/>
                  <g id="Grupo_1158164" data-name="Grupo 1158164" transform="translate(36.69 29.733)">
                    <path id="Trazado_992435" data-name="Trazado 992435" d="M149.114,229.106l-10.508,2.2,7.5,10.175a1.784,1.784,0,0,0,2.189.559l8.479-3.945Z" transform="translate(-138.606 -229.106)" fill="#d1ddff"/>
                    <path id="Trazado_992436" data-name="Trazado 992436" d="M197.185,229.106l10.508,2.2-7.5,10.175a1.784,1.784,0,0,1-2.189.559l-8.479-3.945Z" transform="translate(-171.355 -229.106)" fill="#d1ddff"/>
                  </g>
                </g>
              </g>
              <g id="Grupo_1158174" data-name="Grupo 1158174" transform="translate(26.011)">
                <g id="Grupo_1158173" data-name="Grupo 1158173" transform="translate(0)">
                  <path id="Trazado_992437" data-name="Trazado 992437" d="M168.479,85.786a64.678,64.678,0,0,0,.436-7.879c0-15.862-11.5-25.68-25.68-25.68s-25.68,9.818-25.68,25.68a64.608,64.608,0,0,0,.436,7.879Z" transform="translate(-114.388 -52.228)" fill="#4369fc"/>
                  <g id="Grupo_1158169" data-name="Grupo 1158169" transform="translate(0 28.469)">
                    <g id="Grupo_1158167" data-name="Grupo 1158167" transform="translate(42.531 0)">
                      <ellipse id="Elipse_11780" data-name="Elipse 11780" cx="6.982" cy="6.277" rx="6.982" ry="6.277" transform="translate(0 13.642) rotate(-77.589)" fill="#ffa7ce"/>
                    </g>
                    <g id="Grupo_1158168" data-name="Grupo 1158168" transform="translate(0 0.001)">
                      <ellipse id="Elipse_11781" data-name="Elipse 11781" cx="6.277" cy="6.982" rx="6.277" ry="6.982" transform="translate(0 2.699) rotate(-12.411)" fill="#ffa7ce"/>
                    </g>
                  </g>
                  <g id="Grupo_1158172" data-name="Grupo 1158172" transform="translate(9.639 18.584)">
                    <g id="Grupo_1158171" data-name="Grupo 1158171">
                      <g id="Grupo_1158170" data-name="Grupo 1158170">
                        <path id="Trazado_992438" data-name="Trazado 992438" d="M166.193,104.311H143.606a20.519,20.519,0,0,0-7.915,16.341c0,16.077,8.6,23.641,19.209,23.641s19.209-7.563,19.209-23.641A20.521,20.521,0,0,0,166.193,104.311Z" transform="translate(-135.691 -104.311)" fill="#ffa7ce"/>
                      </g>
                    </g>
                  </g>
                  <path id="Trazado_992439" data-name="Trazado 992439" d="M138.472,95.29c2.873,5.125,12.186,17.1,36.646,17.606a1.577,1.577,0,0,0,1.607-1.576V95.29Z" transform="translate(-127.841 -79.925)" fill="#4369fc"/>
                </g>
                <path id="Trazado_992440" data-name="Trazado 992440" d="M173.155,181.252a9.091,9.091,0,0,1-9.08-9.08,1.784,1.784,0,1,1,3.568,0,5.512,5.512,0,1,0,11.024,0,1.784,1.784,0,1,1,3.568,0A9.09,9.09,0,0,1,173.155,181.252Z" transform="translate(-144.308 -128.226)" fill="#ff7eb7"/>
              </g>
            </g>
            <g id="Grupo_1158178" data-name="Grupo 1158178" transform="translate(83.917 54.117)">
              <path id="Trazado_992441" data-name="Trazado 992441" d="M270.964,279.314h15.021l3.642-19.575a13.453,13.453,0,0,0,8.042-9.959l1.407-7.561-26.482-4.928-1.407,7.561a13.454,13.454,0,0,0,3.921,12.185Z" transform="translate(-270.958 -216.202)" fill="#ffa7ce"/>
              <g id="Grupo_1158177" data-name="Grupo 1158177" transform="translate(0.326)">
                <g id="Grupo_1158176" data-name="Grupo 1158176" transform="translate(5.209)">
                  <path id="Trazado_992442" data-name="Trazado 992442" d="M292.6,200.225c0-.006,0-.011,0-.017l3.411-18.332a3.117,3.117,0,1,0-6.128-1.14l-3.411,18.332c0,.006,0,.011,0,.017Z" transform="translate(-286.472 -178.189)" fill="#ffc3de"/>
                  <path id="Trazado_992443" data-name="Trazado 992443" d="M305.2,227.49a2.818,2.818,0,0,1-2.255-3.286l1.539-8.268a2.818,2.818,0,1,1,5.54,1.031l-1.539,8.268A2.818,2.818,0,0,1,305.2,227.49Z" transform="translate(-297.033 -200.986)" fill="#ffc3de"/>
                  <path id="Trazado_992444" data-name="Trazado 992444" d="M320.721,230.38a2.818,2.818,0,0,1-2.255-3.286L320,218.826a2.818,2.818,0,1,1,5.54,1.031l-1.539,8.268A2.818,2.818,0,0,1,320.721,230.38Z" transform="translate(-307.019 -202.845)" fill="#ffc3de"/>
                  <path id="Trazado_992445" data-name="Trazado 992445" d="M336.248,233.269a2.818,2.818,0,0,1-2.255-3.286l1.539-8.268a2.818,2.818,0,1,1,5.54,1.031l-1.539,8.268A2.818,2.818,0,0,1,336.248,233.269Z" transform="translate(-317.006 -204.703)" fill="#ffc3de"/>
                </g>
                <path id="Trazado_992446" data-name="Trazado 992446" d="M287.432,230.611l-8.4-1.563a5.222,5.222,0,0,0-6.089,4.178l-1.069,5.745,7.466,1.389.635-3.413,6.069,1.129a3.8,3.8,0,0,0,1.389-7.466Z" transform="translate(-271.873 -210.843)" fill="#ffa7ce"/>
                <path id="Trazado_992447" data-name="Trazado 992447" d="M294.585,269.856a1.785,1.785,0,0,1-1.756-2.111c1.04-5.59-1.745-8.507-3.5-9.748a3.842,3.842,0,0,1,2.943-6.9l3.752.7a1.784,1.784,0,0,1-.653,3.508l-3.752-.7a.275.275,0,0,0-.319.219.261.261,0,0,0,.091.259c1.972,1.4,6.4,5.488,4.943,13.314a1.784,1.784,0,0,1-1.751,1.458Z" transform="translate(-282.072 -225.041)" fill="#ff7eb7"/>
              </g>
            </g>
            <g id="Grupo_1158179" data-name="Grupo 1158179" transform="translate(67.06 94.251)">
              <path id="Trazado_992448" data-name="Trazado 992448" d="M232.7,306.763h-2.958a6.025,6.025,0,0,1-6.025-6.025V292.45a1.784,1.784,0,0,1,1.784-1.784h11.44a1.784,1.784,0,0,1,1.784,1.784v8.288A6.025,6.025,0,0,1,232.7,306.763Z" transform="translate(-223.717 -290.666)" fill="#d1ddff"/>
            </g>
            <g id="Grupo_1158180" data-name="Grupo 1158180" transform="translate(34.153 97.341)">
              <path id="Trazado_992449" data-name="Trazado 992449" d="M135.073,319.215l1.395-17.965a1.784,1.784,0,1,0-3.557-.276l-1.416,18.241Z" transform="translate(-131.494 -299.328)" fill="#9eaffd"/>
            </g>
            <g id="Grupo_1158191" data-name="Grupo 1158191" transform="translate(89.993)">
              <g id="Grupo_1158188" data-name="Grupo 1158188">
                <g id="Grupo_1158187" data-name="Grupo 1158187">
                  <g id="Grupo_1158181" data-name="Grupo 1158181">
                    <path id="Trazado_992450" data-name="Trazado 992450" d="M339.251,75.856H291.3a3.314,3.314,0,0,1-3.314-3.314v-42.7a3.314,3.314,0,0,1,3.314-3.314h47.95a3.314,3.314,0,0,1,3.314,3.314v42.7A3.314,3.314,0,0,1,339.251,75.856Z" transform="translate(-287.987 -26.525)" fill="#ffdaec"/>
                  </g>
                  <g id="Grupo_1158182" data-name="Grupo 1158182" transform="translate(0 0)">
                    <path id="Trazado_992451" data-name="Trazado 992451" d="M342.565,41.5V29.839a3.314,3.314,0,0,0-3.314-3.314H291.3a3.314,3.314,0,0,0-3.314,3.314V41.5h54.578Z" transform="translate(-287.987 -26.525)" fill="#ff7eb7"/>
                  </g>
                  <g id="Grupo_1158186" data-name="Grupo 1158186" transform="translate(19.452 5.943)">
                    <g id="Grupo_1158183" data-name="Grupo 1158183">
                      <path id="Trazado_992452" data-name="Trazado 992452" d="M345.188,46.538h-2.015a.672.672,0,0,1-.672-.672V43.852a.672.672,0,0,1,.672-.672h2.015a.672.672,0,0,1,.672.672v2.015A.672.672,0,0,1,345.188,46.538Z" transform="translate(-342.502 -43.18)" fill="#fff"/>
                    </g>
                    <g id="Grupo_1158184" data-name="Grupo 1158184" transform="translate(6.158)">
                      <path id="Trazado_992453" data-name="Trazado 992453" d="M362.447,46.538h-2.015a.672.672,0,0,1-.672-.672V43.852a.672.672,0,0,1,.672-.672h2.015a.672.672,0,0,1,.672.672v2.015A.672.672,0,0,1,362.447,46.538Z" transform="translate(-359.761 -43.18)" fill="#fff"/>
                    </g>
                    <g id="Grupo_1158185" data-name="Grupo 1158185" transform="translate(12.316)">
                      <path id="Trazado_992454" data-name="Trazado 992454" d="M379.705,46.538h-2.015a.672.672,0,0,1-.672-.672V43.852a.672.672,0,0,1,.672-.672h2.015a.672.672,0,0,1,.672.672v2.015A.672.672,0,0,1,379.705,46.538Z" transform="translate(-377.019 -43.18)" fill="#fff"/>
                    </g>
                  </g>
                </g>
              </g>
              <g id="Grupo_1158190" data-name="Grupo 1158190" transform="translate(8.071 21.168)">
                <path id="Trazado_992455" data-name="Trazado 992455" d="M329.372,100.242a2.652,2.652,0,0,1-2.142-.944c-1.032-1.184-1.658-3.546-1.763-6.649a31.6,31.6,0,0,1,.065-3.233h1.954a1.784,1.784,0,1,0,0-3.568H315.771a4.961,4.961,0,0,0-3.532,1.463l-1.109,1.109a1.784,1.784,0,1,0,2.523,2.523l1.109-1.109a1.417,1.417,0,0,1,1.009-.418h.1c-.034,2.623-.418,7.821-2.718,11.7a1.784,1.784,0,1,0,3.069,1.82c2.749-4.635,3.192-10.534,3.222-13.52h2.5c-.21,3.155-.17,9.05,2.591,12.223a6.229,6.229,0,0,0,4.836,2.171,1.784,1.784,0,1,0,0-3.568Z" transform="translate(-310.608 -85.848)" fill="#6582fd"/>
                <g id="Grupo_1158189" data-name="Grupo 1158189" transform="translate(21.768 3.693)">
                  <path id="Trazado_992456" data-name="Trazado 992456" d="M375.889,99.765H373.4a1.784,1.784,0,1,1,0-3.568h2.492a1.784,1.784,0,0,1,0,3.568Z" transform="translate(-371.613 -96.197)" fill="#6582fd"/>
                  <path id="Trazado_992457" data-name="Trazado 992457" d="M375.889,116.284H373.4a1.784,1.784,0,1,1,0-3.568h2.492a1.784,1.784,0,0,1,0,3.568Z" transform="translate(-371.613 -106.822)" fill="#6582fd"/>
                  <path id="Trazado_992458" data-name="Trazado 992458" d="M402.827,100.98l1.736-1.736a1.784,1.784,0,0,0-2.523-2.523L400.3,98.457l-1.736-1.736a1.784,1.784,0,0,0-2.523,2.523l1.736,1.736-1.736,1.736a1.784,1.784,0,1,0,2.523,2.523L400.3,103.5l1.736,1.736a1.784,1.784,0,0,0,2.523-2.523Z" transform="translate(-386.992 -96.198)" fill="#6582fd"/>
                </g>
              </g>
            </g>
          </g>
          <g id="Grupo_1158196" data-name="Grupo 1158196" transform="translate(116.829 40.18)">
            <g id="Grupo_1158193" data-name="Grupo 1158193">
              <circle id="Elipse_11782" data-name="Elipse 11782" cx="20.165" cy="20.165" r="20.165" fill="#6582fd"/>
              <circle id="Elipse_11783" data-name="Elipse 11783" cx="15.474" cy="15.474" r="15.474" transform="translate(4.691 4.691)" fill="#fff"/>
            </g>
            <g id="Grupo_1158195" data-name="Grupo 1158195" transform="translate(8.103 12.546)">
              <path id="Trazado_992459" data-name="Trazado 992459" d="M413.614,187.025l1.736-1.736a1.784,1.784,0,1,0-2.523-2.523l-1.736,1.736-1.736-1.736a1.784,1.784,0,0,0-2.523,2.523l1.736,1.736-1.736,1.736a1.784,1.784,0,1,0,2.523,2.523l1.736-1.736,1.736,1.736a1.784,1.784,0,1,0,2.523-2.523Z" transform="translate(-399.03 -179.406)" fill="#6582fd"/>
              <g id="Grupo_1158194" data-name="Grupo 1158194">
                <path id="Trazado_992460" data-name="Trazado 992460" d="M389.938,189.528a1.779,1.779,0,0,1-1.3-.566,10.482,10.482,0,0,1,0-14.106,1.784,1.784,0,1,1,2.606,2.437,6.86,6.86,0,0,0,0,9.232,1.784,1.784,0,0,1-1.3,3Z" transform="translate(-385.906 -174.291)" fill="#6582fd"/>
                <path id="Trazado_992461" data-name="Trazado 992461" d="M439,189.528a1.784,1.784,0,0,1-1.3-3,6.859,6.859,0,0,0,0-9.232,1.784,1.784,0,1,1,2.606-2.437,10.481,10.481,0,0,1,0,14.106,1.777,1.777,0,0,1-1.3.566Z" transform="translate(-418.907 -174.291)" fill="#6582fd"/>
              </g>
            </g>
          </g>
        </g>
        <path id="Trazado_992462" data-name="Trazado 992462" d="M323.918,439.679a1.784,1.784,0,0,1-1.784-1.784,1.965,1.965,0,0,0-1.962-1.963,1.784,1.784,0,1,1,0-3.568,1.965,1.965,0,0,0,1.962-1.963,1.784,1.784,0,1,1,3.568,0,1.965,1.965,0,0,0,1.963,1.963,1.784,1.784,0,1,1,0,3.568A1.965,1.965,0,0,0,325.7,437.9,1.784,1.784,0,0,1,323.918,439.679Z" transform="translate(-217.547 -282.434)" fill="#01eba4"/>
        <path id="Trazado_992463" data-name="Trazado 992463" d="M78.811,70.973a1.778,1.778,0,0,1-1.262-.523L73.8,66.7a1.783,1.783,0,0,1,0-2.523l3.747-3.747a1.784,1.784,0,0,1,2.523,0l3.747,3.747a1.783,1.783,0,0,1,0,2.523L80.073,70.45A1.777,1.777,0,0,1,78.811,70.973Zm-1.223-5.531,1.224,1.224,1.224-1.224-1.224-1.224Z" transform="translate(-59.899 -45.289)" fill="#8298fd"/>
        <path id="Trazado_992464" data-name="Trazado 992464" d="M75.013,437.915a1.778,1.778,0,0,1-1.262-.523L70,433.645a1.783,1.783,0,0,1,0-2.523l3.747-3.747a1.784,1.784,0,0,1,2.523,0l3.747,3.747a1.783,1.783,0,0,1,0,2.523l-3.747,3.747A1.778,1.778,0,0,1,75.013,437.915Zm-1.223-5.531,1.224,1.224,1.224-1.224-1.224-1.224Z" transform="translate(-57.456 -281.299)" fill="#ff7eb7"/>
        <path id="Trazado_992465" data-name="Trazado 992465" d="M438.581,291.739a1.778,1.778,0,0,1-1.262-.523l-3.747-3.747a1.783,1.783,0,0,1,0-2.523l3.747-3.747a1.784,1.784,0,0,1,2.523,0l3.747,3.747a1.783,1.783,0,0,1,0,2.523l-3.747,3.747A1.778,1.778,0,0,1,438.581,291.739Zm-1.224-5.531,1.224,1.223,1.224-1.223-1.224-1.224Z" transform="translate(-291.296 -187.282)" fill="#ff7eb7"/>
        <path id="Trazado_992466" data-name="Trazado 992466" d="M114.34,29.994a1.778,1.778,0,0,1-1.262-.523l-3.747-3.747a1.783,1.783,0,0,1,0-2.523l3.747-3.747a1.784,1.784,0,0,1,2.523,0l3.747,3.747a1.783,1.783,0,0,1,0,2.523L115.6,29.471A1.778,1.778,0,0,1,114.34,29.994Zm-1.224-5.531,1.224,1.224,1.224-1.224-1.224-1.224Z" transform="translate(-82.75 -18.932)" fill="#01eba4"/>
      </g>
      <g id="Grupo_1158199" data-name="Grupo 1158199" transform="translate(10.982 19.857)">
        <path id="Trazado_992467" data-name="Trazado 992467" d="M159.489,214.238a1.784,1.784,0,0,0-1.784,1.784v12.392a1.786,1.786,0,0,1-1.784,1.784H36.13a1.786,1.786,0,0,1-1.784-1.784V146.129a1.786,1.786,0,0,1,1.784-1.784H51.754a1.784,1.784,0,1,0,0-3.568H36.13a5.358,5.358,0,0,0-5.352,5.352v82.284a5.358,5.358,0,0,0,5.352,5.352H74.393V247.23H69.61a3.572,3.572,0,0,0-3.568,3.568v4.621a3.572,3.572,0,0,0,3.568,3.568h52.831a3.572,3.572,0,0,0,3.568-3.568V250.8a3.572,3.572,0,0,0-3.568-3.568h-4.784V233.765h38.263a5.358,5.358,0,0,0,5.352-5.352V216.022a1.784,1.784,0,0,0-1.784-1.784ZM122.442,255.42H69.61V250.8h52.831v4.621Zm-8.352-8.189H77.962V233.766H114.09Z" transform="translate(-30.778 -98.226)" fill="#2626bc"/>
        <path id="Trazado_992468" data-name="Trazado 992468" d="M228.118,63.806V26.623a5.1,5.1,0,0,0-5.1-5.1H175.07a5.1,5.1,0,0,0-5.1,5.1V64.076h-5.317a8.32,8.32,0,0,0-.726-1q.154-2.329.157-4.921c0-8.092-2.792-15.035-8.073-20.079a29.148,29.148,0,0,0-38.781,0c-5.282,5.043-8.073,11.986-8.073,20.079,0,1.731.053,3.382.156,4.939a8.343,8.343,0,0,0-.889,1.275,9.129,9.129,0,0,0-.927,6.479,8.63,8.63,0,0,0,8.155,7.005,7.433,7.433,0,0,0,1.371-.13,22.709,22.709,0,0,0,4.683,8.714,20.6,20.6,0,0,0,29.829,0,22.7,22.7,0,0,0,4.684-8.717,7.428,7.428,0,0,0,1.384.133,8.63,8.63,0,0,0,8.155-7.005,9.441,9.441,0,0,0,.147-3.208h4.065v1.682a5.1,5.1,0,0,0,5.1,5.1h23.78a21.91,21.91,0,0,0,8.056,27.689V131.2a1.784,1.784,0,0,0,3.568,0V103.974a21.944,21.944,0,0,0,17.644-40.168Zm-91.5-29.541c14.069,0,23.9,9.826,23.9,23.9,0,.891-.017,1.753-.046,2.594-.23-.074-.464-.14-.7-.192a7.522,7.522,0,0,0-1.325-.165V55.1a1.784,1.784,0,0,0-3.568,0v8.566c-8.885-.212-24.832-2.4-33.492-14.466a1.784,1.784,0,1,0-2.9,2.081c.5.7,1.114,1.484,1.838,2.31a22.513,22.513,0,0,0-3.635,6.976,7.449,7.449,0,0,0-3.2,0c-.244.054-.483.12-.717.2-.03-.842-.047-1.705-.047-2.6C112.727,44.091,122.553,34.265,136.622,34.265ZM110.984,70.087a5.57,5.57,0,0,1,.546-3.953,4.176,4.176,0,0,1,2.728-2.087,3.89,3.89,0,0,1,.84-.091,3.977,3.977,0,0,1,.789.082,22.72,22.72,0,0,0-.256,3.368,39.327,39.327,0,0,0,.573,6.839C113.878,74.577,111.575,72.777,110.984,70.087Zm37.889,13.981a17.044,17.044,0,0,1-24.5,0c-3.385-3.8-5.174-9.56-5.174-16.662a19.144,19.144,0,0,1,3.641-11.247,36.669,36.669,0,0,0,7.413,5.246c6.572,3.546,14.574,5.491,23.791,5.8,0,.067.005.134.005.2C154.047,74.508,152.258,80.27,148.873,84.068Zm13.4-13.981c-.592,2.7-2.9,4.5-5.233,4.155a39.339,39.339,0,0,0,.573-6.837c0-.429-.017-.856-.041-1.281a3.326,3.326,0,0,0,.864-2.154,3.888,3.888,0,0,1,.564.076,4.173,4.173,0,0,1,2.728,2.087A5.575,5.575,0,0,1,162.276,70.087Zm12.794.769a1.531,1.531,0,0,1-1.53-1.53v-42.7a1.531,1.531,0,0,1,1.53-1.53h47.95a1.531,1.531,0,0,1,1.53,1.53V62.486a21.9,21.9,0,0,0-23.607,8.37Zm43.687,31.178a18.381,18.381,0,1,1,18.38-18.38A18.4,18.4,0,0,1,218.757,102.034Z" transform="translate(-79.979 -21.525)" fill="#2626bc"/>
      </g>
    </g>
  </g>
</svg>
