<svg xmlns="http://www.w3.org/2000/svg" xmlns:xlink="http://www.w3.org/1999/xlink" width="108" height="108" viewBox="0 0 108 108">
  <defs>
    <filter id="Trazado_982547" x="0" y="0" width="108" height="108" filterUnits="userSpaceOnUse">
      <feOffset dy="3" input="SourceAlpha"/>
      <feGaussianBlur stdDeviation="3" result="blur"/>
      <feFlood flood-opacity="0.161"/>
      <feComposite operator="in" in2="blur"/>
      <feComposite in="SourceGraphic"/>
    </filter>
  </defs>
  <g id="Grupo_1158281" data-name="Grupo 1158281" transform="translate(-171 -6580)">
    <g id="Grupo_1153365" data-name="Grupo 1153365" transform="translate(-21 -3606)">
      <g id="Grupo_1149261" data-name="Grupo 1149261" transform="translate(-83 6759)">
        <g id="Grupo_1147065" data-name="Grupo 1147065" transform="translate(-341 -556)">
          <g transform="matrix(1, 0, 0, 1, 616, 3983)" filter="url(#Trazado_982547)">
            <g id="Trazado_982547-2" data-name="Trazado 982547" transform="translate(9 6)" fill="#f5e9fe">
              <path d="M 45 88.5 C 39.12687683105469 88.5 33.43022537231445 87.35007476806641 28.06830024719238 85.08217620849609 C 22.88852500915527 82.89131164550781 18.23629951477051 79.75458526611328 14.2408504486084 75.75914764404297 C 10.24541282653809 71.76370239257812 7.108687400817871 67.11147308349609 4.917825222015381 61.93170166015625 C 2.649924993515015 56.56977462768555 1.5 50.87312316894531 1.5 45 C 1.5 39.12687683105469 2.649924993515015 33.43022537231445 4.917825222015381 28.06830024719238 C 7.108687400817871 22.88852500915527 10.24541282653809 18.23629951477051 14.2408504486084 14.2408504486084 C 18.23629951477051 10.24541282653809 22.88852500915527 7.108687400817871 28.06830024719238 4.917825222015381 C 33.43022537231445 2.649924993515015 39.12687683105469 1.5 45 1.5 C 50.87312316894531 1.5 56.56977462768555 2.649924993515015 61.93170166015625 4.917825222015381 C 67.11147308349609 7.108687400817871 71.76370239257812 10.24541282653809 75.75914764404297 14.2408504486084 C 79.75458526611328 18.23629951477051 82.89131164550781 22.88852500915527 85.08217620849609 28.06830024719238 C 87.35007476806641 33.43022537231445 88.5 39.12687683105469 88.5 45 C 88.5 50.87312316894531 87.35007476806641 56.56977462768555 85.08217620849609 61.93170166015625 C 82.89131164550781 67.11147308349609 79.75458526611328 71.76370239257812 75.75914764404297 75.75914764404297 C 71.76370239257812 79.75458526611328 67.11147308349609 82.89131164550781 61.93170166015625 85.08217620849609 C 56.56977462768555 87.35007476806641 50.87312316894531 88.5 45 88.5 Z" stroke="none"/>
              <path d="M 45 3 C 39.32871246337891 3 33.82865524291992 4.110054016113281 28.65262985229492 6.299339294433594 C 23.65165710449219 8.414573669433594 19.15968322753906 11.44334411621094 15.301513671875 15.301513671875 C 11.44334411621094 19.15968322753906 8.414573669433594 23.65165710449219 6.299339294433594 28.65262985229492 C 4.110054016113281 33.82865524291992 3 39.32871246337891 3 45 C 3 50.67128753662109 4.110054016113281 56.17134475708008 6.299339294433594 61.34737396240234 C 8.414573669433594 66.34834289550781 11.44334411621094 70.84031677246094 15.301513671875 74.698486328125 C 19.15968322753906 78.55665588378906 23.65165710449219 81.58542633056641 28.65262985229492 83.70066070556641 C 33.82865524291992 85.88994598388672 39.32871246337891 87 45 87 C 50.67128753662109 87 56.17134475708008 85.88994598388672 61.34737396240234 83.70066070556641 C 66.34834289550781 81.58542633056641 70.84031677246094 78.55665588378906 74.698486328125 74.698486328125 C 78.55665588378906 70.84031677246094 81.58542633056641 66.34834289550781 83.70066070556641 61.34737396240234 C 85.88994598388672 56.17134475708008 87 50.67128753662109 87 45 C 87 39.32871246337891 85.88994598388672 33.82865524291992 83.70066070556641 28.65262985229492 C 81.58542633056641 23.65165710449219 78.55665588378906 19.15968322753906 74.698486328125 15.301513671875 C 70.84031677246094 11.44334411621094 66.34834289550781 8.414573669433594 61.34737396240234 6.299339294433594 C 56.17134475708008 4.110054016113281 50.67128753662109 3 45 3 M 45 0 C 69.85281372070312 0 90 20.14718627929688 90 45 C 90 69.85281372070312 69.85281372070312 90 45 90 C 20.14718627929688 90 0 69.85281372070312 0 45 C 0 20.14718627929688 20.14718627929688 0 45 0 Z" stroke="none" fill="#a530fe"/>
            </g>
          </g>
        </g>
      </g>
    </g>
    <g id="ciencias" transform="translate(194 6605.087)">
      <path id="Trazado_992559" data-name="Trazado 992559" d="M30.273,195.611v-4.5h7.551l-9.465-16.394a3.468,3.468,0,0,1-.465-1.734V157.195H18.76v15.793a3.468,3.468,0,0,1-.465,1.734L8.05,192.466a3.946,3.946,0,0,0,3.417,5.918H33.046A2.774,2.774,0,0,1,30.273,195.611Z" transform="translate(-6.602 -142.58)" fill="#c8effe"/>
      <g id="Grupo_1158255" data-name="Grupo 1158255" transform="translate(0.913 14.615)">
        <path id="Trazado_992560" data-name="Trazado 992560" d="M13.154,192.466,23.4,174.721a3.466,3.466,0,0,0,.465-1.734V157.195h-5.1v15.793a3.468,3.468,0,0,1-.465,1.734L8.05,192.466a3.946,3.946,0,0,0,3.417,5.918h5.1A3.946,3.946,0,0,1,13.154,192.466Z" transform="translate(-7.515 -157.195)" fill="#99e6fc"/>
      </g>
      <path id="Trazado_992561" data-name="Trazado 992561" d="M30.273,361.4v-4.5h7.551l-6.357-11.011H15.187L8.05,358.254a3.946,3.946,0,0,0,3.417,5.918H33.046a2.774,2.774,0,0,1-2.773-2.774Z" transform="translate(-6.603 -308.367)" fill="#01d0fb"/>
      <g id="Grupo_1158256" data-name="Grupo 1158256" transform="translate(0.913 37.525)">
        <path id="Trazado_992562" data-name="Trazado 992562" d="M11.467,364.171h5.1a3.946,3.946,0,0,1-3.417-5.918l7.137-12.362h-5.1L8.05,358.253a3.946,3.946,0,0,0,3.417,5.918Z" transform="translate(-7.515 -345.891)" fill="#01c0fa"/>
      </g>
      <g id="Grupo_1158279" data-name="Grupo 1158279" transform="translate(3.913 -5.088)">
        <g id="Grupo_1158268" data-name="Grupo 1158268" transform="translate(0 0)">
          <g id="Grupo_1158259" data-name="Grupo 1158259" transform="translate(10.301)">
            <g id="Grupo_1158257" data-name="Grupo 1158257">
              <ellipse id="Elipse_11798" data-name="Elipse 11798" cx="7.045" cy="3.787" rx="7.045" ry="3.787" transform="translate(0 9.962) rotate(-45)" fill="#05e39c"/>
            </g>
            <g id="Grupo_1158258" data-name="Grupo 1158258" transform="translate(2.51 2.506)">
              <path id="Trazado_992563" data-name="Trazado 992563" d="M140.223,18.024a8.439,8.439,0,0,0-2.3,7.659l9.964-9.964A8.439,8.439,0,0,0,140.223,18.024Z" transform="translate(-137.749 -15.55)" fill="#0ed290"/>
            </g>
          </g>
          <g id="Grupo_1158262" data-name="Grupo 1158262" transform="translate(0 2.456)">
            <g id="Grupo_1158260" data-name="Grupo 1158260" transform="translate(0 0)">
              <ellipse id="Elipse_11799" data-name="Elipse 11799" cx="3.787" cy="7.045" rx="3.787" ry="7.045" transform="translate(0 5.354) rotate(-45)" fill="#05e39c"/>
            </g>
            <g id="Grupo_1158261" data-name="Grupo 1158261" transform="translate(2.509 2.676)">
              <path id="Trazado_992564" data-name="Trazado 992564" d="M55.37,44.84a8.439,8.439,0,0,0,7.659,2.3l-9.964-9.964A8.438,8.438,0,0,0,55.37,44.84Z" transform="translate(-52.896 -37.181)" fill="#0ed290"/>
            </g>
          </g>
          <g id="Grupo_1158265" data-name="Grupo 1158265" transform="translate(19.757 53.623)">
            <g id="Grupo_1158263" data-name="Grupo 1158263">
              <path id="Trazado_992565" data-name="Trazado 992565" d="M197.733,443.853H226a2.774,2.774,0,0,0,2.774-2.774v-4.5H194.959v4.5A2.774,2.774,0,0,0,197.733,443.853Z" transform="translate(-194.959 -436.584)" fill="#05e39c"/>
            </g>
            <g id="Grupo_1158264" data-name="Grupo 1158264">
              <path id="Trazado_992566" data-name="Trazado 992566" d="M200.672,441.08v-4.5h-5.713v4.5a2.774,2.774,0,0,0,2.774,2.774h5.713A2.774,2.774,0,0,1,200.672,441.08Z" transform="translate(-194.959 -436.584)" fill="#0ed290"/>
            </g>
          </g>
          <g id="Grupo_1158266" data-name="Grupo 1158266" transform="translate(4.671 38.31)">
            <path id="Trazado_992567" data-name="Trazado 992567" d="M70.7,314.757h16.28l-2.484-4.3H73.187Z" transform="translate(-70.703 -310.455)" fill="#f9f3f1"/>
          </g>
          <g id="Grupo_1158267" data-name="Grupo 1158267" transform="translate(4.671 38.31)">
            <path id="Trazado_992568" data-name="Trazado 992568" d="M73.187,310.455l-2.484,4.3h5.1l2.484-4.3Z" transform="translate(-70.703 -310.455)" fill="#f3eae6"/>
          </g>
        </g>
        <g id="Grupo_1158278" data-name="Grupo 1158278" transform="translate(24.4 7.459)">
          <g id="Grupo_1158269" data-name="Grupo 1158269" transform="translate(9.89 14.171)">
            <circle id="Elipse_11800" data-name="Elipse 11800" cx="4.468" cy="4.468" r="4.468" fill="#ffd15b"/>
          </g>
          <g id="Grupo_1158270" data-name="Grupo 1158270" transform="translate(9.89 14.171)">
            <path id="Trazado_992569" data-name="Trazado 992569" d="M318.761,177.538a4.467,4.467,0,0,1,2.421-3.971,4.468,4.468,0,1,0,0,7.943,4.467,4.467,0,0,1-2.421-3.971Z" transform="translate(-314.666 -173.07)" fill="#ffc344"/>
          </g>
          <g id="Grupo_1158271" data-name="Grupo 1158271" transform="translate(15.703)">
            <circle id="Elipse_11801" data-name="Elipse 11801" cx="2.298" cy="2.298" r="2.298" fill="#fd6930"/>
          </g>
          <g id="Grupo_1158272" data-name="Grupo 1158272" transform="translate(15.703 0)">
            <path id="Trazado_992570" data-name="Trazado 992570" d="M364.558,58.647a2.3,2.3,0,0,1,1.29-2.063,2.3,2.3,0,1,0,0,4.126,2.3,2.3,0,0,1-1.29-2.063Z" transform="translate(-362.542 -56.349)" fill="#ef4424"/>
          </g>
          <g id="Grupo_1158273" data-name="Grupo 1158273" transform="translate(0 27.832)">
            <circle id="Elipse_11802" data-name="Elipse 11802" cx="2.298" cy="2.298" r="2.298" transform="translate(0 0)" fill="#fd6930"/>
          </g>
          <g id="Grupo_1158274" data-name="Grupo 1158274" transform="translate(0 27.832)">
            <circle id="Elipse_11803" data-name="Elipse 11803" cx="2.298" cy="2.298" r="2.298" transform="translate(0 0)" fill="#05e39c"/>
          </g>
          <g id="Grupo_1158275" data-name="Grupo 1158275" transform="translate(0 27.832)">
            <path id="Trazado_992571" data-name="Trazado 992571" d="M235.26,287.883a2.3,2.3,0,0,1,1.27-2.053,2.3,2.3,0,1,0,0,4.106A2.3,2.3,0,0,1,235.26,287.883Z" transform="translate(-233.203 -285.585)" fill="#0ed290"/>
          </g>
          <g id="Grupo_1158276" data-name="Grupo 1158276" transform="translate(28.342 21.448)">
            <circle id="Elipse_11804" data-name="Elipse 11804" cx="2.298" cy="2.298" r="2.298" fill="#01d0fb"/>
          </g>
          <g id="Grupo_1158277" data-name="Grupo 1158277" transform="translate(28.342 21.448)">
            <path id="Trazado_992572" data-name="Trazado 992572" d="M468.648,235.306a2.3,2.3,0,0,1,1.3-2.066,2.3,2.3,0,1,0,0,4.132A2.3,2.3,0,0,1,468.648,235.306Z" transform="translate(-466.645 -233.008)" fill="#01c0fa"/>
          </g>
        </g>
      </g>
      <g id="Grupo_1158280" data-name="Grupo 1158280" transform="translate(0.001 -3.493)">
        <path id="Trazado_992573" data-name="Trazado 992573" d="M56.782,53.92H28.721l-6.177-10.7a2.56,2.56,0,0,1-.342-1.278v-5.5a.911.911,0,1,0-1.821,0v5.5a4.384,4.384,0,0,0,.437,1.9H17.635V27.062h2.746V32.2a.911.911,0,1,0,1.821,0V27.062h.762a.911.911,0,1,0,0-1.821H17.635V20.119A9.358,9.358,0,0,0,27.75,8.942a.911.911,0,0,0-.711-.711,9.358,9.358,0,0,0-9.469,3.713.91.91,0,0,0-1.755.339V14.31a9.359,9.359,0,0,0-9.4-3.622A.911.911,0,0,0,5.7,11.4,9.351,9.351,0,0,0,15.814,22.576v2.664H10.485a.911.911,0,1,0,0,1.821h.762V41.944a2.56,2.56,0,0,1-.342,1.278L.659,60.967a4.856,4.856,0,0,0,4.206,7.284H54.708a3.689,3.689,0,0,0,3.684-3.684l-.052-9.088a1.561,1.561,0,0,0-1.559-1.559ZM26.108,11.16a7.536,7.536,0,0,1-7.177,7.177Zm-6.266.911a7.517,7.517,0,0,1,4.978-2.2L17.643,17.05a7.518,7.518,0,0,1,2.2-4.978ZM9.54,18.6a7.519,7.519,0,0,1-2.2-4.978l7.177,7.177A7.518,7.518,0,0,1,9.54,18.6ZM8.629,12.33a7.535,7.535,0,0,1,7.177,7.177ZM29.644,59.161H24.581v-3.42H27.67Zm-13.83-32.1V43.848H12.631a4.384,4.384,0,0,0,.437-1.9V38.928h.613a.911.911,0,1,0,0-1.821h-.613V34.969h.613a.911.911,0,0,0,0-1.821h-.613V31.009h.613a.911.911,0,1,0,0-1.821h-.613V27.062Zm-4.22,18.607h10.26l1.433,2.481H10.162ZM23.268,66.43H4.864a3.035,3.035,0,0,1-2.628-4.553L9.11,49.971H24.338l2.28,3.949h-2.3a1.561,1.561,0,0,0-1.559,1.559v9.088a3.661,3.661,0,0,0,.508,1.863Zm33.3-1.863a1.865,1.865,0,0,1-1.863,1.863H26.444a1.865,1.865,0,0,1-1.863-1.863V60.982H48.2a.911.911,0,1,0,0-1.821H31.747l-1.974-3.42H56.519v3.42H52.452a.911.911,0,1,0,0,1.821h4.119v3.585Z" transform="translate(-0.001 -8.042)"/>
        <path id="Trazado_992574" data-name="Trazado 992574" d="M312.545,165.57a5.379,5.379,0,1,0,4.4,8.468.911.911,0,0,0-1.49-1.047,3.557,3.557,0,1,1,.383-3.382.911.911,0,1,0,1.687-.687A5.36,5.36,0,0,0,312.545,165.57Z" transform="translate(-269.873 -146.445)"/>
        <path id="Trazado_992575" data-name="Trazado 992575" d="M244.68,73.507a3.212,3.212,0,0,0-3.209-3.209c-.091,0-.181,0-.27.012a18.068,18.068,0,0,0-1.214-1.91c2.567-3.545,3.4-7.066,1.913-9.647s-4.958-3.618-9.311-3.167a18.189,18.189,0,0,0-.988-1.908,3.206,3.206,0,0,0-4.595-4.255,5.409,5.409,0,0,0-1.816-.317c-2.981,0-5.612,2.485-7.4,6.48-4.353-.45-7.821.586-9.311,3.167-1.374,2.38-.824,5.616,1.548,9.114.121.178.246.356.375.533-.129.177-.254.355-.375.533-2.372,3.5-2.922,6.735-1.548,9.114a5.475,5.475,0,0,0,1.449,1.625c0,.072-.008.144-.008.217A3.208,3.208,0,0,0,216,81.316q.865-.006,1.789-.1c1.787,3.995,4.418,6.48,7.4,6.48s5.612-2.485,7.4-6.48a18.578,18.578,0,0,0,1.908.1c3.447,0,6.138-1.079,7.4-3.27a5.372,5.372,0,0,0,.584-1.5A3.213,3.213,0,0,0,244.68,73.507ZM232.491,61.392q-1.144-.774-2.391-1.5t-2.491-1.323a26.912,26.912,0,0,1,3.817-.973A26.927,26.927,0,0,1,232.491,61.392Zm-2.271-9.334a1.387,1.387,0,1,1-1.387-1.387A1.389,1.389,0,0,1,230.22,52.059Zm-5.03-1.132a3.537,3.537,0,0,1,.62.056,3.208,3.208,0,0,0,4.418,3.965q.244.439.472.917A30.033,30.033,0,0,0,225.19,57.5a30.038,30.038,0,0,0-5.509-1.639C221.127,52.824,223.079,50.926,225.19,50.926ZM218.955,57.6a26.914,26.914,0,0,1,3.816.973q-1.242.6-2.491,1.322t-2.392,1.5A26.916,26.916,0,0,1,218.955,57.6Zm-5.826,23.677a1.387,1.387,0,1,1,1.387-1.387,1.389,1.389,0,0,1-1.387,1.387Zm3.182-1.795a3.206,3.206,0,0,0-5.68-1.6,3.593,3.593,0,0,1-.573-.744c-.991-1.717-.452-4.335,1.478-7.182l.047-.068a30.175,30.175,0,0,0,4.169,3.955,30.055,30.055,0,0,0,1.336,5.6Q216.692,79.47,216.311,79.483Zm-.84-8.247a26.207,26.207,0,0,1-2.763-2.835,26.206,26.206,0,0,1,2.763-2.835q-.1,1.386-.1,2.836t.1,2.835Zm.28-8.278a30.182,30.182,0,0,0-4.169,3.955l-.047-.068c-1.931-2.847-2.47-5.465-1.478-7.182.917-1.587,3.012-2.356,5.745-2.356.414,0,.844.019,1.286.054A30.052,30.052,0,0,0,215.752,62.958Zm2.137,12.449q1.152.782,2.392,1.5t2.491,1.323a26.911,26.911,0,0,1-3.817.973A26.948,26.948,0,0,1,217.888,75.406Zm7.3,10.467c-2.111,0-4.062-1.9-5.509-4.938A30.05,30.05,0,0,0,225.19,79.3a30.04,30.04,0,0,0,5.509,1.639C229.252,83.976,227.3,85.873,225.19,85.873Zm6.235-6.674a26.928,26.928,0,0,1-3.817-.973q1.242-.6,2.491-1.323t2.391-1.5A26.928,26.928,0,0,1,231.425,79.2Zm1.487-6.341a36.173,36.173,0,0,1-7.722,4.459,35.845,35.845,0,0,1-4-1.99,36.538,36.538,0,0,1-3.722-2.459,36.126,36.126,0,0,1,0-8.937,36.523,36.523,0,0,1,3.722-2.459,35.863,35.863,0,0,1,4-1.99,36.164,36.164,0,0,1,7.722,4.459,36.132,36.132,0,0,1,0,8.917Zm7.41-13.2c1.056,1.828.388,4.467-1.521,7.24a30.039,30.039,0,0,0-4.174-3.952,30.045,30.045,0,0,0-1.336-5.591C236.648,57.094,239.267,57.835,240.322,59.663Zm-5.413,5.918A26.924,26.924,0,0,1,237.66,68.4a26.921,26.921,0,0,1-2.751,2.819q.1-1.378.1-2.819T234.909,65.581Zm-1.618,13.858a30.046,30.046,0,0,0,1.336-5.59A30.046,30.046,0,0,0,238.8,69.9c.252.366.48.73.688,1.09a3.206,3.206,0,0,0,1.089,5.6,3.542,3.542,0,0,1-.256.549C239.267,78.965,236.648,79.706,233.292,79.439Zm8.18-4.545a1.387,1.387,0,1,1,1.387-1.387A1.389,1.389,0,0,1,241.471,74.894Z" transform="translate(-182.518 -43.896)"/>
        <circle id="Elipse_11805" data-name="Elipse 11805" cx="0.911" cy="0.911" r="0.911" transform="translate(10.681 46.323)"/>
        <circle id="Elipse_11806" data-name="Elipse 11806" cx="0.911" cy="0.911" r="0.911" transform="translate(13.454 52.147)"/>
        <circle id="Elipse_11807" data-name="Elipse 11807" cx="0.911" cy="0.911" r="0.911" transform="translate(7.907 50.76)"/>
      </g>
    </g>
  </g>
</svg>
