<svg xmlns="http://www.w3.org/2000/svg" xmlns:xlink="http://www.w3.org/1999/xlink" width="98" height="98" viewBox="0 0 98 98">
  <defs>
    <filter id="Trazado_982548" x="0" y="0" width="98" height="98" filterUnits="userSpaceOnUse">
      <feOffset dy="3" input="SourceAlpha"/>
      <feGaussianBlur stdDeviation="3" result="blur"/>
      <feFlood flood-opacity="0.161"/>
      <feComposite operator="in" in2="blur"/>
      <feComposite in="SourceGraphic"/>
    </filter>
  </defs>
  <g id="Grupo_1154380" data-name="Grupo 1154380" transform="translate(-192 -2096)">
    <g id="Grupo_1149886" data-name="Grupo 1149886" transform="translate(0 -2463)">
      <g id="Grupo_1149694" data-name="Grupo 1149694" transform="translate(-9 4104)">
        <g id="Grupo_1149263" data-name="Grupo 1149263" transform="translate(210 461)">
          <g transform="matrix(1, 0, 0, 1, -9, -6)" filter="url(#Trazado_982548)">
            <g id="Trazado_982548-2" data-name="Trazado 982548" transform="translate(9 6)" fill="#f6f9fc">
              <path d="M 40 78.5 C 34.80187606811523 78.5 29.76003265380859 77.48227691650391 25.01452255249023 75.47509765625 C 20.43014526367188 73.53606414794922 16.31264495849609 70.75986480712891 12.77638912200928 67.22360992431641 C 9.240133285522461 63.68735504150391 6.46393346786499 59.56985473632812 4.524899959564209 54.98547744750977 C 2.517722129821777 50.23996734619141 1.5 45.19812393188477 1.5 40 C 1.5 34.80187606811523 2.517722129821777 29.76003265380859 4.524899959564209 25.01452255249023 C 6.46393346786499 20.43014526367188 9.240133285522461 16.31264495849609 12.77638912200928 12.77638912200928 C 16.31264495849609 9.240133285522461 20.43014526367188 6.46393346786499 25.01452255249023 4.524899959564209 C 29.76003265380859 2.517722129821777 34.80187606811523 1.5 40 1.5 C 45.19812393188477 1.5 50.23996734619141 2.517722129821777 54.98547744750977 4.524899959564209 C 59.56985473632812 6.46393346786499 63.68735504150391 9.240133285522461 67.22360992431641 12.77638912200928 C 70.75986480712891 16.31264495849609 73.53606414794922 20.43014526367188 75.47509765625 25.01452255249023 C 77.48227691650391 29.76003265380859 78.5 34.80187606811523 78.5 40 C 78.5 45.19812393188477 77.48227691650391 50.23996734619141 75.47509765625 54.98547744750977 C 73.53606414794922 59.56985473632812 70.75986480712891 63.68735504150391 67.22360992431641 67.22360992431641 C 63.68735504150391 70.75986480712891 59.56985473632812 73.53606414794922 54.98547744750977 75.47509765625 C 50.23996734619141 77.48227691650391 45.19812393188477 78.5 40 78.5 Z" stroke="none"/>
              <path d="M 40 3 C 35.00370788574219 3 30.15846633911133 3.977851867675781 25.59885406494141 5.906410217285156 C 21.19326782226562 7.769813537597656 17.23602676391602 10.43806457519531 13.83704376220703 13.83705139160156 C 10.43806457519531 17.23603820800781 7.769813537597656 21.19327926635742 5.906410217285156 25.59885406494141 C 3.977851867675781 30.15846633911133 3 35.00370788574219 3 40 C 3 44.99629211425781 3.977851867675781 49.84153366088867 5.906410217285156 54.40114593505859 C 7.769813537597656 58.80672073364258 10.43806457519531 62.76396179199219 13.83704376220703 66.16294860839844 C 17.23602676391602 69.56193542480469 21.19326782226562 72.23018646240234 25.59885406494141 74.09358978271484 C 30.15846633911133 76.02214813232422 35.00370788574219 77 40 77 C 44.99629211425781 77 49.84153366088867 76.02214813232422 54.40114593505859 74.09358978271484 C 58.80672073364258 72.23018646240234 62.76396179199219 69.56193542480469 66.16294860839844 66.16294860839844 C 69.56193542480469 62.76396179199219 72.23018646240234 58.80672073364258 74.09358978271484 54.40114593505859 C 76.02214813232422 49.84153366088867 77 44.99629211425781 77 40 C 77 35.00370788574219 76.02214813232422 30.15846633911133 74.09358978271484 25.59885406494141 C 72.23018646240234 21.19327926635742 69.56193542480469 17.23603820800781 66.16294860839844 13.83705139160156 C 62.76396179199219 10.43806457519531 58.80672073364258 7.769813537597656 54.40114593505859 5.906410217285156 C 49.84153366088867 3.977851867675781 44.99629211425781 3 40 3 M 40 0 C 62.09138488769531 0 80 17.90861511230469 80 40 C 80 62.09138488769531 62.09138488769531 80 40 80 C 17.90859985351562 80 0 62.09138488769531 0 40 C 0 17.90861511230469 17.90859985351562 0 40 0 Z" stroke="none" fill="#15da7e"/>
            </g>
          </g>
        </g>
      </g>
    </g>
    <g id="seguro" transform="translate(211.999 2117)">
      <path id="Trazado_990973" data-name="Trazado 990973" d="M17,50.486H51.321a.8.8,0,0,0,.8-.8V1.8a.8.8,0,0,0-.8-.8H17.8a.8.8,0,0,0-.8.8Z" transform="translate(-3.027 -0.202)" fill="#ff593f"/>
      <path id="Trazado_990974" data-name="Trazado 990974" d="M21,48.5H40.954l8.78-7.982V7H21Z" transform="translate(-3.835 -1.413)" fill="#fffefe"/>
      <path id="Trazado_990975" data-name="Trazado 990975" d="M27.8,8.982H45.358a.8.8,0,0,0,.8-.8V1H27V8.183A.8.8,0,0,0,27.8,8.982Z" transform="translate(-5.046 -0.202)" fill="#ffde66"/>
      <path id="Trazado_990976" data-name="Trazado 990976" d="M46,49h8.78L46,56.982Z" transform="translate(-8.881 -9.89)" fill="#ebebeb"/>
      <path id="Trazado_990977" data-name="Trazado 990977" d="M28,17H46.358V29.771H28Z" transform="translate(-5.248 -3.431)" fill="#ff9c8c"/>
      <path id="Trazado_990978" data-name="Trazado 990978" d="M26.945,25.385,25.866,31.5a19.155,19.155,0,0,1-7.371,12l-3.522,2.642-3.626-2.755A19.157,19.157,0,0,1,4.07,31.456L3,25.385,14.972,19Z" transform="translate(-0.202 -3.835)" fill="#bde660"/>
      <path id="Trazado_990979" data-name="Trazado 990979" d="M14.175,41.755a15.921,15.921,0,0,1-6.063-9.938l-.668-3.79,8.425-4.494,8.425,4.494-.676,3.833a15.91,15.91,0,0,1-6.143,10l-1.595,1.2Z" transform="translate(-1.099 -4.75)" fill="#fdfefc"/>
      <path id="Trazado_990980" data-name="Trazado 990980" d="M51.119,0H17.6A1.6,1.6,0,0,0,16,1.6V12.771h1.6V1.6h6.385V4.789H19.991a.8.8,0,0,0-.8.8v7.183h1.6V6.385h3.193v1.6a1.6,1.6,0,0,0,1.6,1.6H43.137a1.6,1.6,0,0,0,1.6-1.6v-1.6h3.193V25.541h1.6V5.587a.8.8,0,0,0-.8-.8H44.734V1.6h6.385V49.486H17.6V44.7H16v5.587a.8.8,0,0,0,.8.8H51.119a1.6,1.6,0,0,0,1.6-1.6V1.6A1.6,1.6,0,0,0,51.119,0ZM43.137,7.982H25.578V1.6H43.137Z" transform="translate(-2.826)"/>
      <path id="Trazado_990981" data-name="Trazado 990981" d="M50.33,34h-1.6V45.174H40.752a.8.8,0,0,0-.8.8v7.183H21.6v-1.6H20v2.394a.8.8,0,0,0,.8.8H40.752a.829.829,0,0,0,.109-.007l.024,0,.013,0,.015,0,.021,0,.006,0c.022-.006.043-.011.065-.018h0a.666.666,0,0,0,.066-.026h0a.682.682,0,0,0,.064-.032h0l.03-.018.012-.008.019-.013.01-.007.02-.014.018-.014.011-.009.029-.025,8.78-7.982c.014-.012.026-.025.038-.038l.01-.011.03-.035.006-.006c.011-.014.022-.028.031-.042l.009-.013c.008-.011.015-.023.022-.035a.079.079,0,0,0,.006-.011.493.493,0,0,0,.024-.045l.006-.013.017-.038.006-.014c.006-.016.012-.033.018-.049l0-.007c0-.015.009-.03.013-.045a.066.066,0,0,1,0-.012.794.794,0,0,0,.017-.106s0-.009,0-.013l0-.045V34ZM41.55,46.771h5.917l-3.876,3.524L41.55,52.149Z" transform="translate(-3.633 -6.863)"/>
      <path id="Trazado_990982" data-name="Trazado 990982" d="M30,5h1.6V6.6H30Z" transform="translate(-5.651 -1.009)"/>
      <path id="Trazado_990983" data-name="Trazado 990983" d="M46,5h1.6V6.6H46Z" transform="translate(-8.881 -1.009)"/>
      <path id="Trazado_990984" data-name="Trazado 990984" d="M46.156,16H27.8a.8.8,0,0,0-.8.8v3.193h1.6V17.6H45.358V28.771H33.385v1.6H46.156a.8.8,0,0,0,.8-.8V16.8A.8.8,0,0,0,46.156,16Z" transform="translate(-5.046 -3.229)"/>
      <path id="Trazado_990985" data-name="Trazado 990985" d="M34,38h8.78v1.6H34Z" transform="translate(-6.459 -7.67)"/>
      <path id="Trazado_990986" data-name="Trazado 990986" d="M47,38h4.789v1.6H47Z" transform="translate(-9.083 -7.67)"/>
      <path id="Trazado_990987" data-name="Trazado 990987" d="M31,44h8.78v1.6H31Z" transform="translate(-5.853 -8.881)"/>
      <path id="Trazado_990988" data-name="Trazado 990988" d="M44,44h7.183v1.6H44Z" transform="translate(-8.477 -8.881)"/>
      <path id="Trazado_990989" data-name="Trazado 990989" d="M26,50H39.569v1.6H26Z" transform="translate(-4.844 -10.092)"/>
      <path id="Trazado_990990" data-name="Trazado 990990" d="M34,5h7.982V6.6H34Z" transform="translate(-6.459 -1.009)"/>
      <path id="Trazado_990991" data-name="Trazado 990991" d="M14.771,46.734a.794.794,0,0,0,.479-.16l3.522-2.642a19.883,19.883,0,0,0,7.678-12.5l1.079-6.115a.8.8,0,0,0-.41-.843L15.147,18.094a.8.8,0,0,0-.751,0L2.423,24.479a.8.8,0,0,0-.41.843l1.07,6.072a19.9,19.9,0,0,0,7.579,12.423l3.626,2.755a.8.8,0,0,0,.482.162ZM4.655,31.116l-.97-5.5L14.771,19.7l11.086,5.913-.979,5.544a18.294,18.294,0,0,1-7.064,11.5l-3.04,2.28-3.146-2.39A18.306,18.306,0,0,1,4.655,31.116Z" transform="translate(0 -3.633)"/>
      <path id="Trazado_990992" data-name="Trazado 990992" d="M18.639,42.508a14.8,14.8,0,0,0,5.712-9.3l.792-4.484a.8.8,0,0,0-.41-.843L20.74,25.755l-.751,1.409,3.482,1.857-.691,3.913a13.206,13.206,0,0,1-5.1,8.3l-2.1,1.576L13.4,41.151A13.21,13.21,0,0,1,8.37,32.9L7.684,29.02l3.481-1.857-.751-1.409L6.422,27.884a.8.8,0,0,0-.41.843L6.8,33.179a14.807,14.807,0,0,0,5.639,9.243l2.659,2.02a.8.8,0,0,0,.962,0Z" transform="translate(-0.807 -5.198)"/>
      <path id="Trazado_990993" data-name="Trazado 990993" d="M17.1,24.141l2.818,1.5.751-1.409-3.194-1.7a.8.8,0,0,0-.751,0l-3.192,1.7.751,1.409Z" transform="translate(-2.327 -4.529)"/>
      <path id="Trazado_990994" data-name="Trazado 990994" d="M16.2,38.051h.03a.8.8,0,0,0,.6-.272l5.587-6.385-1.2-1.051L16.28,35.987l-1.8-2.406-1.277.958,2.394,3.193a.8.8,0,0,0,.608.319Z" transform="translate(-2.26 -6.124)"/>
      <path id="Trazado_990995" data-name="Trazado 990995" d="M17,28h1.6v1.6H17Z" transform="translate(-3.027 -5.652)"/>
      <path id="Trazado_990996" data-name="Trazado 990996" d="M17,42h1.6v1.6H17Z" transform="translate(-3.027 -8.477)"/>
    </g>
  </g>
</svg>
