<svg xmlns="http://www.w3.org/2000/svg" xmlns:xlink="http://www.w3.org/1999/xlink" width="505" height="458" viewBox="0 0 505 458">
  <defs>
    <clipPath id="clip-path">
      <rect id="Rectángulo_409543" data-name="Rectángulo 409543" width="505" height="458" transform="translate(-2066 -713)" fill="#fff" stroke="#707070" stroke-width="1" opacity="0.43"/>
    </clipPath>
    <filter id="Trazado_989100" x="7.115" y="7.384" width="462.338" height="471.841" filterUnits="userSpaceOnUse">
      <feOffset dy="3" input="SourceAlpha"/>
      <feGaussianBlur stdDeviation="3" result="blur"/>
      <feFlood flood-opacity="0.161"/>
      <feComposite operator="in" in2="blur"/>
      <feComposite in="SourceGraphic"/>
    </filter>
    <clipPath id="clip-path-2">
      <rect id="Rectángulo_409539" data-name="Rectángulo 409539" width="543.272" height="481.392"/>
    </clipPath>
    <linearGradient id="linear-gradient" x1="0.5" y1="-1.396" x2="0.5" y2="8.996" gradientUnits="objectBoundingBox">
      <stop offset="0" stop-color="#fff"/>
      <stop offset="1" stop-color="#fff" stop-opacity="0"/>
    </linearGradient>
    <clipPath id="clip-path-3">
      <path id="Trazado_989563" data-name="Trazado 989563" d="M429,277.382c-40.237,7.019-83.2,6.633-128.648-.485a23.422,23.422,0,0,1-19.817-23.129V237.1a20.5,20.5,0,0,1,20.437-20.437H427.844A20.5,20.5,0,0,1,448.281,237.1v17.245A23.356,23.356,0,0,1,429,277.382Z" transform="translate(-280.538 -216.663)"/>
    </clipPath>
    <linearGradient id="linear-gradient-2" x1="0.5" y1="-2.44" x2="0.5" y2="3.476" xlink:href="#linear-gradient"/>
    <linearGradient id="linear-gradient-3" x1="0.5" y1="-4.091" x2="0.5" y2="1.825" xlink:href="#linear-gradient"/>
  </defs>
  <g id="Enmascarar_grupo_1098774" data-name="Enmascarar grupo 1098774" transform="translate(2066 713)" clip-path="url(#clip-path)">
    <g id="Grupo_1153398" data-name="Grupo 1153398" transform="translate(-2084.476 -713.391)">
      <g transform="matrix(1, 0, 0, 1, 18.48, 0.39)" filter="url(#Trazado_989100)">
        <path id="Trazado_989100-2" data-name="Trazado 989100" d="M345.792,264.652c-22.8,95.493-130.156,147.37-186.434,50.036-37.679-65.042-72.844-60.609-122.024-101.581C-47.377,127.6,23.773-6.613,133.81.253c128.049.778,248.763,123.515,211.982,264.4" transform="matrix(0.96, 0.29, -0.29, 0.96, 123.36, 13.38)" fill="#f5e9fe"/>
      </g>
      <g id="Grupo_1153397" data-name="Grupo 1153397" transform="translate(0)">
        <g id="Grupo_1153371" data-name="Grupo 1153371" transform="translate(0)">
          <g id="Grupo_1153370" data-name="Grupo 1153370" clip-path="url(#clip-path-2)">
            <g id="Grupo_1153369" data-name="Grupo 1153369" transform="translate(88.667 398.343)">
              <ellipse id="Elipse_11678" data-name="Elipse 11678" cx="183.821" cy="29.085" rx="183.821" ry="29.085" fill="#ff65ff" opacity="0.23"/>
              <ellipse id="Elipse_11679" data-name="Elipse 11679" cx="138.368" cy="21.894" rx="138.368" ry="21.894" transform="translate(45.453 7.192)" fill="#ff65ff" opacity="0.52"/>
              <path id="Trazado_989515" data-name="Trazado 989515" d="M364.11,573.009c-46.06,0-86.865-3.561-112.015-9.038" transform="translate(-180.289 -522.03)" fill="none" stroke="#ff65ff" stroke-linecap="round" stroke-linejoin="round" stroke-miterlimit="10" stroke-width="3.222"/>
              <path id="Trazado_989516" data-name="Trazado 989516" d="M443.019,574.086c-10.4.554-21.355.919-32.7,1.066" transform="translate(-214.991 -524.249)" fill="none" stroke="#ff65ff" stroke-linecap="round" stroke-linejoin="round" stroke-miterlimit="10" stroke-width="3.222"/>
              <path id="Trazado_989517" data-name="Trazado 989517" d="M500.778,569.646q-6.113.753-12.753,1.4" transform="translate(-232.032 -523.275)" fill="none" stroke="#ff65ff" stroke-linecap="round" stroke-linejoin="round" stroke-miterlimit="10" stroke-width="3.222"/>
              <path id="Trazado_989518" data-name="Trazado 989518" d="M218.339,543.666c0-5.167,11.311-9.915,30.23-13.66" transform="translate(-172.886 -514.581)" fill="none" stroke="#ff65ff" stroke-linecap="round" stroke-linejoin="round" stroke-miterlimit="10" stroke-width="3.222"/>
              <ellipse id="Elipse_11680" data-name="Elipse 11680" cx="101.677" cy="16.088" rx="101.677" ry="16.088" transform="translate(82.144 12.997)" fill="#ff65ff" opacity="0.54"/>
              <path id="Trazado_989519" data-name="Trazado 989519" d="M288.078,557.645c-14.219-2.768-22.741-6.3-22.741-10.141" transform="translate(-183.193 -518.419)" fill="none" stroke="#ff65ff" stroke-linecap="round" stroke-linejoin="round" stroke-miterlimit="10" stroke-width="3.222"/>
              <path id="Trazado_989520" data-name="Trazado 989520" d="M355.955,567.013c-8.685-.356-16.92-.888-24.541-1.572" transform="translate(-197.685 -522.353)" fill="none" stroke="#ff65ff" stroke-linecap="round" stroke-linejoin="round" stroke-miterlimit="10" stroke-width="3.222"/>
              <path id="Trazado_989521" data-name="Trazado 989521" d="M390.121,568.029c-6.644,0-13.138-.1-19.426-.293" transform="translate(-206.3 -522.856)" fill="none" stroke="#ff65ff" stroke-linecap="round" stroke-linejoin="round" stroke-miterlimit="10" stroke-width="3.222"/>
              <path id="Trazado_989522" data-name="Trazado 989522" d="M395.578,526.9c56.155,0,101.677,7.2,101.677,16.088" transform="translate(-211.757 -513.899)" fill="none" stroke="#ff65ff" stroke-linecap="round" stroke-linejoin="round" stroke-miterlimit="10" stroke-width="3.222"/>
              <path id="Trazado_989523" data-name="Trazado 989523" d="M378.75,567.982" transform="translate(-208.066 -522.91)" fill="none" stroke="#ff65ff" stroke-linecap="round" stroke-linejoin="round" stroke-miterlimit="10" stroke-width="3.222"/>
            </g>
            <path id="Trazado_989524" data-name="Trazado 989524" d="M40.588-130.069,177.463,398.784h.808c0-.052-.012-.1-.012-.155,0-12.091,61.95-21.894,138.369-21.894S455,386.537,455,398.628c0,.052-.01.1-.013.155h.2L592.057-130.069H40.588Z" transform="translate(-45.235 28.526)" fill="#ff65ff" opacity="0.16"/>
          </g>
        </g>
        <g id="Grupo_1153375" data-name="Grupo 1153375" transform="translate(78.775 65.781)">
          <g id="Grupo_1153372" data-name="Grupo 1153372" transform="translate(0 235.96)">
            <path id="Trazado_989525" data-name="Trazado 989525" d="M161.739,450.04H176.69a7.871,7.871,0,0,0,6.817-3.936l7.476-12.948a7.872,7.872,0,0,0,0-7.872l-7.476-12.948a7.871,7.871,0,0,0-6.817-3.936H161.739a7.872,7.872,0,0,0-6.817,3.936l-7.476,12.948" transform="translate(-147.446 -391.309)" fill="none" stroke="#ff65ff" stroke-linecap="round" stroke-linejoin="round" stroke-miterlimit="10" stroke-width="3.222" opacity="0.32"/>
            <path id="Trazado_989526" data-name="Trazado 989526" d="M222.837,434.7H207.886a7.871,7.871,0,0,0-6.817,3.936l-7.475,12.948a7.872,7.872,0,0,0,0,7.872l7.475,12.948a7.871,7.871,0,0,0,6.817,3.936h14.951a7.872,7.872,0,0,0,6.817-3.936l7.475-12.948a7.872,7.872,0,0,0,0-7.872l-7.475-12.948A7.871,7.871,0,0,0,222.837,434.7Z" transform="translate(-157.336 -397.077)" fill="none" stroke="#ff65ff" stroke-linecap="round" stroke-linejoin="round" stroke-miterlimit="10" stroke-width="3.222" opacity="0.58"/>
            <path id="Trazado_989527" data-name="Trazado 989527" d="M201.069,386.507l-7.475,12.948a7.872,7.872,0,0,0,0,7.872l7.475,12.948a7.871,7.871,0,0,0,6.817,3.936h14.951a7.871,7.871,0,0,0,6.817-3.936l7.475-12.948" transform="translate(-157.336 -386.507)" fill="none" stroke="#ff65ff" stroke-linecap="round" stroke-linejoin="round" stroke-miterlimit="10" stroke-width="3.222" opacity="0.35"/>
          </g>
          <g id="Grupo_1153373" data-name="Grupo 1153373" transform="translate(242.537)">
            <path id="Trazado_989528" data-name="Trazado 989528" d="M484.421,98.553V113.5a7.871,7.871,0,0,0,3.936,6.817L501.3,127.8a7.872,7.872,0,0,0,7.872,0l12.948-7.475a7.871,7.871,0,0,0,3.936-6.817V98.553a7.871,7.871,0,0,0-3.936-6.817L509.177,84.26" transform="translate(-463.887 -84.26)" fill="none" stroke="#ff65ff" stroke-linecap="round" stroke-linejoin="round" stroke-miterlimit="10" stroke-width="3.222" opacity="0.32"/>
            <path id="Trazado_989529" data-name="Trazado 989529" d="M499.757,159.651V144.7a7.871,7.871,0,0,0-3.936-6.817l-12.948-7.475a7.872,7.872,0,0,0-7.872,0l-12.948,7.475a7.872,7.872,0,0,0-3.936,6.817v14.951a7.872,7.872,0,0,0,3.936,6.817L475,173.943a7.872,7.872,0,0,0,7.872,0l12.948-7.475A7.871,7.871,0,0,0,499.757,159.651Z" transform="translate(-458.118 -94.15)" fill="none" stroke="#ff65ff" stroke-linecap="round" stroke-linejoin="round" stroke-miterlimit="10" stroke-width="3.222" opacity="0.58"/>
            <path id="Trazado_989530" data-name="Trazado 989530" d="M549.06,137.883l-12.948-7.475a7.872,7.872,0,0,0-7.872,0l-12.948,7.475a7.871,7.871,0,0,0-3.935,6.817v14.951a7.873,7.873,0,0,0,3.935,6.817l12.948,7.475" transform="translate(-469.794 -94.15)" fill="none" stroke="#ff65ff" stroke-linecap="round" stroke-linejoin="round" stroke-miterlimit="10" stroke-width="3.222" opacity="0.35"/>
          </g>
          <g id="Grupo_1153374" data-name="Grupo 1153374" transform="translate(298.368 144.711)">
            <path id="Trazado_989531" data-name="Trazado 989531" d="M543.926,333.157h14.951a7.872,7.872,0,0,0,6.817-3.936l7.475-12.948a7.872,7.872,0,0,0,0-7.872l-7.475-12.948a7.871,7.871,0,0,0-6.817-3.936H543.926a7.871,7.871,0,0,0-6.817,3.936L529.634,308.4" transform="translate(-529.634 -274.426)" fill="none" stroke="#ff65ff" stroke-linecap="round" stroke-linejoin="round" stroke-miterlimit="10" stroke-width="3.222" opacity="0.32"/>
            <path id="Trazado_989532" data-name="Trazado 989532" d="M605.023,317.822H590.072a7.871,7.871,0,0,0-6.817,3.936l-7.476,12.948a7.873,7.873,0,0,0,0,7.872l7.476,12.948a7.871,7.871,0,0,0,6.817,3.936h14.951a7.872,7.872,0,0,0,6.817-3.936l7.476-12.948a7.872,7.872,0,0,0,0-7.872l-7.476-12.948A7.87,7.87,0,0,0,605.023,317.822Z" transform="translate(-539.523 -280.195)" fill="none" stroke="#ff65ff" stroke-linecap="round" stroke-linejoin="round" stroke-miterlimit="10" stroke-width="3.222" opacity="0.58"/>
            <path id="Trazado_989533" data-name="Trazado 989533" d="M583.255,269.624l-7.476,12.948a7.872,7.872,0,0,0,0,7.872l7.476,12.948a7.872,7.872,0,0,0,6.817,3.936h14.951a7.871,7.871,0,0,0,6.817-3.936l7.476-12.948" transform="translate(-539.523 -269.624)" fill="none" stroke="#ff65ff" stroke-linecap="round" stroke-linejoin="round" stroke-miterlimit="10" stroke-width="3.222" opacity="0.35"/>
          </g>
        </g>
        <g id="Grupo_1153391" data-name="Grupo 1153391" transform="translate(75.534 91.286)">
          <g id="Grupo_1153390" data-name="Grupo 1153390">
            <ellipse id="Elipse_11681" data-name="Elipse 11681" cx="59.7" cy="9.446" rx="59.7" ry="9.446" transform="translate(137.255 326.696)" fill="#5b00b6" opacity="0.21"/>
            <g id="Grupo_1153389" data-name="Grupo 1153389">
              <path id="Trazado_989534" data-name="Trazado 989534" d="M468.353,208.5c.274-8.771-58.928-112.651-115.939-87.708C291.842,97.49,236.2,199.724,236.476,208.5s12.06,14.253,12.06,14.253-4.934,15.349-.548,27.683S273.2,270.439,273.2,270.439l79.211-3.233,79.211,3.233s20.831-7.674,25.216-20.008-.548-27.683-.548-27.683S468.079,217.266,468.353,208.5Z" transform="translate(-163.73 -116.931)" fill="#00e3ff"/>
              <path id="Trazado_989535" data-name="Trazado 989535" d="M297.855,167.3c-25.49,12.882-46.6,64.685-46.6,64.685h0c0,.005-4.932,15.351-.548,27.683s25.216,20.008,25.216,20.008l79.211-3.233,79.211,3.233S455.18,272,459.565,259.665s-.547-27.679-.548-27.683h0C423.658,145.1,323.345,154.414,297.855,167.3Z" transform="translate(-166.454 -126.164)" fill="#5b00b6" opacity="0.14"/>
              <path id="Trazado_989536" data-name="Trazado 989536" d="M421.148,397.867s68.767,31.759,92.916-3.7c21.653-31.794-12.334-96.753-12.334-96.753" transform="translate(-204.232 -156.513)" fill="none" stroke="#e19cb1" stroke-linecap="round" stroke-linejoin="round" stroke-miterlimit="10" stroke-width="38.661"/>
              <g id="Grupo_1153380" data-name="Grupo 1153380" transform="translate(0 18.645)">
                <path id="Trazado_989537" data-name="Trazado 989537" d="M319.078,394.943s-118,21.79-147.752-103.363" transform="translate(-149.442 -173.879)" fill="none" stroke="#e19cb1" stroke-linecap="round" stroke-linejoin="round" stroke-miterlimit="10" stroke-width="38.661"/>
                <g id="Grupo_1153376" data-name="Grupo 1153376" transform="translate(0 54.042)">
                  <path id="Trazado_989538" data-name="Trazado 989538" d="M149.677,252.086s-10.314,22.772,3.532,41.138c5.025,6.666,32.778-6.383,32.778-6.383s10.323-7.338,16.5-29.25a5.014,5.014,0,0,0-3.106-6.068h0a5,5,0,0,0-5.726,1.719l-8.374,11.277s-13.845-18.79-14.552-18.649S149.677,252.086,149.677,252.086Z" transform="translate(-143.884 -217.896)" fill="#e19cb1"/>
                  <path id="Trazado_989539" data-name="Trazado 989539" d="M191.836,266.305h0a5.651,5.651,0,0,1-5.651-5.651V221.66a5.651,5.651,0,0,1,5.651-5.651h0a5.651,5.651,0,0,1,5.651,5.651v38.994A5.652,5.652,0,0,1,191.836,266.305Z" transform="translate(-152.701 -211.347)" fill="#e19cb1"/>
                  <path id="Trazado_989540" data-name="Trazado 989540" d="M177.358,260.333h0a5.651,5.651,0,0,1-5.651-5.651V215.688a5.651,5.651,0,0,1,5.651-5.651h0a5.651,5.651,0,0,1,5.651,5.651v38.994A5.651,5.651,0,0,1,177.358,260.333Z" transform="translate(-149.525 -210.037)" fill="#e19cb1"/>
                  <path id="Trazado_989541" data-name="Trazado 989541" d="M162.88,252.954h0a5.651,5.651,0,0,1-5.651-5.651V236.681a5.651,5.651,0,0,1,5.651-5.651h0a5.651,5.651,0,0,1,5.651,5.651V247.3A5.651,5.651,0,0,1,162.88,252.954Z" transform="translate(-146.35 -214.641)" fill="#ffb2b9"/>
                  <path id="Trazado_989542" data-name="Trazado 989542" d="M148.945,256.03h0a5.651,5.651,0,0,1-5.651-5.651V239.757a5.651,5.651,0,0,1,5.651-5.651h0a5.651,5.651,0,0,1,5.651,5.651v10.621A5.651,5.651,0,0,1,148.945,256.03Z" transform="translate(-143.294 -215.316)" fill="#ffb2b9"/>
                </g>
                <path id="Trazado_989543" data-name="Trazado 989543" d="M386.009,405.189h0a17.373,17.373,0,0,1-17.373-17.373V359.6a17.372,17.372,0,0,1,17.372-17.372h0A17.372,17.372,0,0,1,403.38,359.6v28.216A17.37,17.37,0,0,1,386.009,405.189Z" transform="translate(-192.715 -184.987)" fill="#e19cb1"/>
                <path id="Trazado_989544" data-name="Trazado 989544" d="M294.2,284.557H278.7a19.027,19.027,0,0,1-19.028-19.028h0A19.027,19.027,0,0,1,278.7,246.5h15.5a19.027,19.027,0,0,1,19.028,19.028h0A19.027,19.027,0,0,1,294.2,284.557Z" transform="translate(-168.817 -163.993)" fill="#e19cb1"/>
                <path id="Trazado_989545" data-name="Trazado 989545" d="M299.667,246.5H284.594v38.055h15.073A19.027,19.027,0,0,0,318.7,265.53h0A19.027,19.027,0,0,0,299.667,246.5Z" transform="translate(-174.283 -163.993)" fill="#5b00b6" opacity="0.14"/>
                <path id="Trazado_989546" data-name="Trazado 989546" d="M467.1,284.557h15.074V246.5H467.1a19.027,19.027,0,0,0-19.028,19.028h0A19.027,19.027,0,0,0,467.1,284.557Z" transform="translate(-210.136 -163.993)" fill="#5b00b6" opacity="0.14"/>
                <path id="Trazado_989547" data-name="Trazado 989547" d="M367.319,327.182h0A76.509,76.509,0,0,1,291.034,250.9v-33.79a76.509,76.509,0,0,1,76.285-76.285h0A76.509,76.509,0,0,1,443.6,217.106V250.9A76.509,76.509,0,0,1,367.319,327.182Z" transform="translate(-175.696 -140.815)" fill="#e19cb1"/>
                <path id="Trazado_989548" data-name="Trazado 989548" d="M303.333,197.014s25.216-4.659,27.683-11.786c0,0,21.927,1.645,36.728-.822s20.008-30.972,20.008-30.972-.274,25.764,9.319,30.7,25.216,9.319,30.15,3.563S425.3,157,425.3,157s-58.807-15.91-59.554-16.177-48.712,9.051-50.9,10.422-23.846,21.653-25.49,23.3-5.482,24.394-5.482,24.394,9.319,9.867,9.867,9.045S303.333,197.014,303.333,197.014Z" transform="translate(-174.125 -140.814)" fill="#5b00b6" opacity="0.14"/>
                <g id="Grupo_1153377" data-name="Grupo 1153377" transform="translate(115.338 79.7)" opacity="0.07">
                  <path id="Trazado_989549" data-name="Trazado 989549" d="M383.606,270.693c-.583,0-1.18,0-1.786.011A12.447,12.447,0,0,0,383.606,270.693Z" transform="translate(-310.945 -248.997)" fill="#5b00b6"/>
                  <path id="Trazado_989550" data-name="Trazado 989550" d="M321.346,310.148c-13.066-43.227,19.914-52.831,40.564-53.212-2.118-.128-7-1.289-7.514-4.447-1.287-7.869,7.3-9.586,7.3-9.586l-70.659,8.54v21.844a76.51,76.51,0,0,0,76.285,76.283h0a75.606,75.606,0,0,0,26.8-4.893C371.267,345.247,330.857,341.614,321.346,310.148Z" transform="translate(-291.034 -242.903)" fill="#5b00b6"/>
                </g>
                <g id="Grupo_1153378" data-name="Grupo 1153378" transform="translate(174.174 133.124)">
                  <path id="Trazado_989551" data-name="Trazado 989551" d="M366.4,311.336v9.612A18.055,18.055,0,0,0,384.454,339h.67a18.055,18.055,0,0,0,18.056-18.056v-9.612Z" transform="translate(-366.398 -311.336)" fill="#5b00b6"/>
                  <path id="Trazado_989552" data-name="Trazado 989552" d="M369.733,311.336v2.17c0,.254.007,2.305.02,4.422a4.94,4.94,0,0,0,4.939,4.909h21.655a4.94,4.94,0,0,0,4.939-4.909c.013-2.116.02-4.167.02-4.422v-2.17Z" transform="translate(-367.129 -311.336)" fill="#fff"/>
                  <path id="Trazado_989553" data-name="Trazado 989553" d="M386.135,328.152h-.67a18.009,18.009,0,0,0-14.455,7.269,18.01,18.01,0,0,0,14.455,7.27h.67a18.009,18.009,0,0,0,14.455-7.27A18.011,18.011,0,0,0,386.135,328.152Z" transform="translate(-367.41 -315.024)" fill="#ff439a"/>
                </g>
                <path id="Trazado_989554" data-name="Trazado 989554" d="M266.261,271.378" transform="translate(-170.262 -169.448)" fill="none" stroke="#5b00b6" stroke-linecap="round" stroke-linejoin="round" stroke-miterlimit="10" stroke-width="3.024"/>
                <path id="Trazado_989555" data-name="Trazado 989555" d="M418.013,395.752" transform="translate(-203.544 -196.726)" fill="#4f37e9"/>
                <path id="Trazado_989556" data-name="Trazado 989556" d="M196.259,287.07" transform="translate(-154.91 -172.89)" fill="#e19cb1"/>
              </g>
              <path id="Trazado_989557" data-name="Trazado 989557" d="M360.072,128.387s-57.558-9.045-79.211,46.321c-18.922,48.383.041,112.255,5.125,127.6a4.823,4.823,0,0,0,5.054,3.28c4-.39,10.365-1.711,15.448-6.007a4.77,4.77,0,0,0,1.237-5.591c-5.856-13.083-28.062-66.755-17.546-106.67h0A4.82,4.82,0,0,0,296,190.895c6.932-1.685,19.687-5.182,25.758-9.379a4.852,4.852,0,0,0,1.536-1.724l11.833-22.351-3.11,16.172a4.815,4.815,0,0,0,4.386,5.715c7.211.509,20.178.816,29.531-2.408a10.616,10.616,0,0,0,6.379-6.023l6.942-17.019,10.811,15.1A33.1,33.1,0,0,0,410.247,182.2q.357.074.718.144A4.82,4.82,0,0,0,416.437,176l-3.192-8.969s6.852-.822,16.719,43.306c8.225,36.786-5.453,71.287-10.232,81.749a4.791,4.791,0,0,0,1.429,5.793c3.37,2.586,9.222,6.155,15.6,5.885a4.777,4.777,0,0,0,4.313-3.331c2.921-9.038,11.266-38.924,8.078-76.939C445.314,177.722,431.884,135.513,360.072,128.387Z" transform="translate(-171.661 -119.323)" fill="#00e3ff"/>
              <path id="Trazado_989558" data-name="Trazado 989558" d="M385.843,277.392h-6.059a4.431,4.431,0,0,1-4.418-4.418h0a4.431,4.431,0,0,1,4.418-4.418h6.059a4.431,4.431,0,0,1,4.418,4.418h0A4.431,4.431,0,0,1,385.843,277.392Z" transform="translate(-194.191 -150.184)" opacity="0.48" fill="url(#linear-gradient)"/>
              <ellipse id="Elipse_11682" data-name="Elipse 11682" cx="17.405" cy="8.634" rx="17.405" ry="8.634" transform="translate(174.433 130.76)" fill="#5b00b6" opacity="0.14"/>
              <path id="Trazado_989559" data-name="Trazado 989559" d="M492.811,271.461l2.558-18.455-6.578-10.963,7.309-12.973s11.695,8.771,12.06,9.867,6.4,10.415,3.289,14.8-8.406,15.166-8.406,15.166Z" transform="translate(-219.067 -141.524)" fill="#e18cb0"/>
              <path id="Trazado_989560" data-name="Trazado 989560" d="M503.452,299.766c-1.461-.731-16.262,3.472-26.13-16.445l7.857-7.674,7.309,4.2,10.78-2.01Z" transform="translate(-216.551 -151.739)" fill="#e19cb1"/>
              <g id="Grupo_1153388" data-name="Grupo 1153388" transform="translate(107.144 65.25)">
                <g id="Grupo_1153383" data-name="Grupo 1153383">
                  <path id="Trazado_989561" data-name="Trazado 989561" d="M427.843,263.69H300.974a20.5,20.5,0,0,1-20.437-20.437V227.391a20.507,20.507,0,0,1,18.6-20.354c1.832-.166,3.655-.43,5.465-.759,41.106-7.466,81.169-7.908,119.994-.005a48.3,48.3,0,0,0,5.146.77,20.507,20.507,0,0,1,18.54,20.349v15.863A20.5,20.5,0,0,1,427.843,263.69Z" transform="translate(-280.537 -200.511)" fill="#b100ff"/>
                  <path id="Trazado_989562" data-name="Trazado 989562" d="M429,277.382c-40.237,7.019-83.2,6.633-128.648-.485a23.422,23.422,0,0,1-19.817-23.129V237.1a20.5,20.5,0,0,1,20.437-20.437H427.844A20.5,20.5,0,0,1,448.281,237.1v17.245A23.356,23.356,0,0,1,429,277.382Z" transform="translate(-280.537 -204.053)" fill="#ff65ff"/>
                  <g id="Grupo_1153382" data-name="Grupo 1153382" transform="translate(0.001 12.61)">
                    <g id="Grupo_1153381" data-name="Grupo 1153381" clip-path="url(#clip-path-3)">
                      <rect id="Rectángulo_409540" data-name="Rectángulo 409540" width="42.827" height="111.006" transform="translate(66.315 -28.504)" fill="#fff" opacity="0.44"/>
                      <rect id="Rectángulo_409541" data-name="Rectángulo 409541" width="19.359" height="111.006" transform="translate(117.001 -28.504)" fill="#fff" opacity="0.44"/>
                      <rect id="Rectángulo_409542" data-name="Rectángulo 409542" width="19.359" height="111.006" transform="translate(30.561 -28.504)" fill="#fff" opacity="0.44"/>
                    </g>
                  </g>
                </g>
                <g id="Grupo_1153384" data-name="Grupo 1153384" transform="translate(7.49 18.221)">
                  <path id="Trazado_989564" data-name="Trazado 989564" d="M297.508,239.526l-4.847-3.725a6.513,6.513,0,0,1-1.192-9.107l.242-.315a6.513,6.513,0,0,1,9.107-1.192l4.847,3.725a6.513,6.513,0,0,1,1.192,9.107l-.242.315A6.513,6.513,0,0,1,297.508,239.526Z" transform="translate(-290.131 -223.85)" fill="url(#linear-gradient-2)"/>
                  <path id="Trazado_989565" data-name="Trazado 989565" d="M299.39,238.393,294.6,234.71a4.546,4.546,0,0,1-.832-6.356h0a4.545,4.545,0,0,1,6.356-.832l4.792,3.682a4.545,4.545,0,0,1,.832,6.356h0A4.545,4.545,0,0,1,299.39,238.393Z" transform="translate(-290.724 -224.451)" fill="#b100ff"/>
                  <circle id="Elipse_11683" data-name="Elipse 11683" cx="2.838" cy="2.838" r="2.838" transform="translate(8.813 7.54)" fill="#fff" opacity="0.4"/>
                </g>
                <g id="Grupo_1153385" data-name="Grupo 1153385" transform="translate(7.49 46.315)">
                  <path id="Trazado_989566" data-name="Trazado 989566" d="M300.818,275.513l4.847-3.725a6.513,6.513,0,0,0,1.192-9.107l-.242-.315a6.513,6.513,0,0,0-9.107-1.192l-4.847,3.725a6.513,6.513,0,0,0-1.192,9.107l.242.315A6.513,6.513,0,0,0,300.818,275.513Z" transform="translate(-290.131 -259.837)" fill="url(#linear-gradient-3)"/>
                  <path id="Trazado_989567" data-name="Trazado 989567" d="M300.121,274.379l4.792-3.683a4.545,4.545,0,0,0,.832-6.356h0a4.545,4.545,0,0,0-6.356-.832l-4.792,3.682a4.546,4.546,0,0,0-.832,6.356h0A4.545,4.545,0,0,0,300.121,274.379Z" transform="translate(-290.724 -260.438)" fill="#b100ff"/>
                  <path id="Trazado_989568" data-name="Trazado 989568" d="M294.711,272.333a2.837,2.837,0,1,0,2.838-2.838A2.838,2.838,0,0,0,294.711,272.333Z" transform="translate(-291.136 -261.955)" fill="#fff" opacity="0.4"/>
                </g>
                <g id="Grupo_1153386" data-name="Grupo 1153386" transform="translate(142.753 18.221)">
                  <path id="Trazado_989569" data-name="Trazado 989569" d="M474.08,239.526l4.847-3.725a6.513,6.513,0,0,0,1.192-9.107l-.242-.315a6.513,6.513,0,0,0-9.107-1.192l-4.847,3.725a6.513,6.513,0,0,0-1.192,9.107l.242.315A6.512,6.512,0,0,0,474.08,239.526Z" transform="translate(-463.393 -223.85)" fill="url(#linear-gradient-2)"/>
                  <path id="Trazado_989570" data-name="Trazado 989570" d="M473.383,238.393l4.792-3.682a4.545,4.545,0,0,0,.832-6.356h0a4.545,4.545,0,0,0-6.356-.832l-4.792,3.682a4.545,4.545,0,0,0-.832,6.356h0A4.545,4.545,0,0,0,473.383,238.393Z" transform="translate(-463.986 -224.451)" fill="#b100ff"/>
                  <circle id="Elipse_11684" data-name="Elipse 11684" cx="2.838" cy="2.838" r="2.838" transform="translate(3.575 7.54)" fill="#fff" opacity="0.4"/>
                </g>
                <g id="Grupo_1153387" data-name="Grupo 1153387" transform="translate(142.753 46.315)">
                  <path id="Trazado_989571" data-name="Trazado 989571" d="M470.77,275.513l-4.847-3.725a6.513,6.513,0,0,1-1.192-9.107l.242-.315a6.513,6.513,0,0,1,9.107-1.192l4.847,3.725a6.513,6.513,0,0,1,1.192,9.107l-.242.315A6.513,6.513,0,0,1,470.77,275.513Z" transform="translate(-463.393 -259.837)" fill="url(#linear-gradient-3)"/>
                  <path id="Trazado_989572" data-name="Trazado 989572" d="M472.651,274.379l-4.792-3.683a4.545,4.545,0,0,1-.832-6.356h0a4.546,4.546,0,0,1,6.356-.832l4.792,3.682a4.545,4.545,0,0,1,.832,6.356h0A4.545,4.545,0,0,1,472.651,274.379Z" transform="translate(-463.985 -260.438)" fill="#b100ff"/>
                  <path id="Trazado_989573" data-name="Trazado 989573" d="M480.357,272.333a2.838,2.838,0,1,1-2.838-2.838A2.838,2.838,0,0,1,480.357,272.333Z" transform="translate(-465.869 -261.955)" fill="#fff" opacity="0.4"/>
                </g>
              </g>
              <path id="Trazado_989574" data-name="Trazado 989574" d="M359.142,125.752s-12.608-6.852-32.068,2.467-28.231,15.623-21.379,19.46S370.653,132.879,359.142,125.752Z" transform="translate(-178.404 -118.333)" fill="aqua"/>
              <path id="Trazado_989575" data-name="Trazado 989575" d="M395.6,127.507s18.09-7.126,35.631,3.015S457,146.967,452.612,149.708,386.283,132.988,395.6,127.507Z" transform="translate(-198.42 -118.717)" fill="aqua"/>
              <path id="Trazado_989576" data-name="Trazado 989576" d="M501.331,285.358s-3.962-11.381-2.128-21.729,4.017-18.515,4.017-18.515l-14.913-18.323a5.5,5.5,0,0,1,.208-7.18h0a5.5,5.5,0,0,1,7.717-.389l19.444,17.367,14.238,38.723Z" transform="translate(-218.69 -139.058)" fill="#e19cb1"/>
              <path id="Trazado_989577" data-name="Trazado 989577" d="M419.379,512.94v-72.4c0-26.36-14.877-47.729-33.229-47.729H371.327c-18.352,0-33.229,21.369-33.229,47.729v72.4Z" transform="translate(-186.017 -177.436)" fill="#e19cb1"/>
              <path id="Trazado_989578" data-name="Trazado 989578" d="M419.379,530.285V471.9H338.1v58.38C366.509,536.058,393.7,536.5,419.379,530.285Z" transform="translate(-186.018 -194.782)" fill="#be72ff"/>
              <path id="Trazado_989579" data-name="Trazado 989579" d="M419.379,507.08v-24.09c-8.65-2.745-20.681-6.523-21.379-6.523-.959,0-47.239,1.678-59.9,2.1v52.72h0q7.181,1.459,14.257,2.454a82.725,82.725,0,0,1,2.887-9.032C365.819,501.714,406.29,504.954,419.379,507.08Z" transform="translate(-186.017 -195.783)" fill="#5b00b6" opacity="0.21"/>
              <path id="Trazado_989580" data-name="Trazado 989580" d="M404.045,458.2h-55.5a23.479,23.479,0,0,1-23.41-23.41V433.34a23.478,23.478,0,0,1,23.41-23.41h55.5a23.479,23.479,0,0,1,23.41,23.41v1.452A23.479,23.479,0,0,1,404.045,458.2Z" transform="translate(-183.174 -181.19)" fill="#e19cb1"/>
              <path id="Trazado_989581" data-name="Trazado 989581" d="M442.162,414.281c-14.273-6.193-29.139-10.449-44.928-11.681,0,0-4.751,16.81-26.5,16.81-26.13,0-31.612-16.81-31.612-16.81a130.669,130.669,0,0,0-43.05-6.315A4.681,4.681,0,0,0,291.5,400.5c-.92,8.879-.173,29.648,25.047,37.235l-5.014,38.685c62.492,20.008,119.777,0,119.777,0l-4.927-27.3c12.638-5.448,17.122-22.2,18.523-29.682A4.686,4.686,0,0,0,442.162,414.281Z" transform="translate(-175.749 -178.194)" fill="#ffa4ff"/>
              <path id="Trazado_989582" data-name="Trazado 989582" d="M157.558,306.566c7.016-.23,17.967-1.282,27.2-5.214a5.738,5.738,0,0,1,7.926,4.58c1.073,8.317,4.578,21.448,15.429,34.781a5.746,5.746,0,0,1-.775,8.06c-5.484,4.541-15.845,11.441-28.993,12.345a5.732,5.732,0,0,1-4.808-2.069c-4.162-5.033-14.175-19.117-21.308-45.215A5.74,5.74,0,0,1,157.558,306.566Z" transform="translate(-145.209 -157.276)" fill="#b100ff"/>
              <path id="Trazado_989583" data-name="Trazado 989583" d="M165.056,307.588c2.093,9.9,8.819,37.378,21.9,54.015a47.48,47.48,0,0,0,7.863-2.358c-12.884-14.262-19.939-42.092-22.223-52.529C169.948,307.131,167.393,307.409,165.056,307.588Z" transform="translate(-148.067 -158.553)" fill="#dba4ff"/>
              <path id="Trazado_989584" data-name="Trazado 989584" d="M510.195,305.181c5.69-2.082,16.492-6.774,22.055-14.014a3.631,3.631,0,0,1,6.174.689c4.361,9.431,12.145,27.825,16.233,46.9a3.639,3.639,0,0,1-2.257,4.163c-5.481,2.091-17.79,6.36-27.906,6.8a3.639,3.639,0,0,1-3.668-2.647c-1.812-6.441-6.79-23.367-12.716-37.036A3.628,3.628,0,0,1,510.195,305.181Z" transform="translate(-223.237 -154.832)" fill="#b100ff"/>
              <path id="Trazado_989585" data-name="Trazado 989585" d="M515.874,306.591l14.394,45.736a75.239,75.239,0,0,0,7.481-1.364l-15.02-47.725A70.78,70.78,0,0,1,515.874,306.591Z" transform="translate(-225.006 -157.791)" fill="#dba4ff"/>
              <path id="Trazado_989586" data-name="Trazado 989586" d="M433.665,458.633c-4.855,4.593-14.458,11.293-27.909,9.451-20.008-2.741-25.49-8.223-40.565-5.482s-35.357-4.934-29.6-27.683c3.226-12.751,13.857-17.063,22.579-18.391-10.649-4.938-13.351-13.221-13.351-13.221a121.337,121.337,0,0,0-14.539-3.811c2.294,7.076,5.653,24.424-8.037,38.946l-5.014,38.685c62.492,20.008,119.777,0,119.777,0Z" transform="translate(-181.44 -178.902)" fill="#5b00b6" opacity="0.21"/>
              <path id="Trazado_989587" data-name="Trazado 989587" d="M438,413.272s12.06.548,26.587,7.674" transform="translate(-207.927 -181.923)" fill="none" stroke="#fff" stroke-linecap="round" stroke-linejoin="round" stroke-miterlimit="10" stroke-width="7.088" opacity="0.38"/>
              <path id="Trazado_989588" data-name="Trazado 989588" d="M311.96,402.737s9.867-.274,16.719,1.919" transform="translate(-180.285 -179.61)" fill="none" stroke="#fff" stroke-linecap="round" stroke-linejoin="round" stroke-miterlimit="10" stroke-width="7.088" opacity="0.38"/>
            </g>
          </g>
          <path id="Trazado_989589" data-name="Trazado 989589" d="M228.041,377.954s13.7,16.445,38.646,20.831" transform="translate(-161.88 -174.177)" fill="none" stroke="#fff" stroke-linecap="round" stroke-linejoin="round" stroke-miterlimit="10" stroke-width="7.088" opacity="0.38"/>
          <path id="Trazado_989590" data-name="Trazado 989590" d="M501.538,428.616s12.334.548,19.46-7.126" transform="translate(-221.862 -183.725)" fill="none" stroke="#fff" stroke-linecap="round" stroke-linejoin="round" stroke-miterlimit="10" stroke-width="7.088" opacity="0.38"/>
          <path id="Trazado_989591" data-name="Trazado 989591" d="M535.944,402.851s2.467-4.66,2.193-12.608" transform="translate(-229.408 -176.872)" fill="none" stroke="#fff" stroke-linecap="round" stroke-linejoin="round" stroke-miterlimit="10" stroke-width="7.088" opacity="0.38"/>
        </g>
        <g id="Grupo_1153392" data-name="Grupo 1153392" transform="translate(56.397 124.251)">
          <circle id="Elipse_11685" data-name="Elipse 11685" cx="51.31" cy="51.31" r="51.31" fill="none" stroke="#ff65ff" stroke-linecap="round" stroke-linejoin="round" stroke-miterlimit="10" stroke-width="3.222" opacity="0.4"/>
          <path id="Trazado_989592" data-name="Trazado 989592" d="M118.782,210.466a51.309,51.309,0,0,1,51.309-51.31" transform="translate(-118.782 -159.156)" fill="none" stroke="#ff65ff" stroke-linecap="round" stroke-linejoin="round" stroke-miterlimit="10" stroke-width="3.222"/>
          <circle id="Elipse_11686" data-name="Elipse 11686" cx="41.023" cy="41.023" r="41.023" transform="translate(10.287 10.287)" fill="none" stroke="#00e3ff" stroke-linecap="round" stroke-linejoin="round" stroke-miterlimit="10" stroke-width="3.222" opacity="0.56"/>
          <path id="Trazado_989593" data-name="Trazado 989593" d="M184.506,172.333a41.023,41.023,0,0,1,41.023,41.023" transform="translate(-133.196 -162.046)" fill="none" stroke="#00e3ff" stroke-linecap="round" stroke-linejoin="round" stroke-miterlimit="10" stroke-width="3.222"/>
          <circle id="Elipse_11687" data-name="Elipse 11687" cx="31.693" cy="31.693" r="31.693" transform="translate(19.616 19.616)" fill="#ff65ff" opacity="0.56"/>
          <path id="Trazado_989594" data-name="Trazado 989594" d="M149.392,217.179A27.413,27.413,0,0,1,176.8,189.766" transform="translate(-125.495 -165.869)" fill="none" stroke="#ff65ff" stroke-linecap="round" stroke-linejoin="round" stroke-miterlimit="10" stroke-width="3.222"/>
          <path id="Trazado_989595" data-name="Trazado 989595" d="M211.919,224.88a27.413,27.413,0,0,1-27.413,27.413" transform="translate(-133.196 -173.57)" fill="none" stroke="#ff65ff" stroke-linecap="round" stroke-linejoin="round" stroke-miterlimit="10" stroke-width="3.222"/>
        </g>
        <g id="Grupo_1153395" data-name="Grupo 1153395" transform="translate(384.555 98.573)">
          <path id="Trazado_989596" data-name="Trazado 989596" d="M552.533,225.672h46.43a13.445,13.445,0,0,0,13.405-13.405v-72.6a13.445,13.445,0,0,0-13.405-13.405h-46.43a13.445,13.445,0,0,0-13.405,13.405v72.6A13.445,13.445,0,0,0,552.533,225.672Z" transform="translate(-539.128 -126.265)" fill="#ff65ff" opacity="0.25"/>
          <g id="Grupo_1153394" data-name="Grupo 1153394" transform="translate(17.371 35.853)">
            <g id="Grupo_1153393" data-name="Grupo 1153393">
              <path id="Trazado_989597" data-name="Trazado 989597" d="M567.18,175.09v85.017a2.9,2.9,0,0,1-2.9,2.9h0a2.9,2.9,0,0,1-2.9-2.9V175.09a2.9,2.9,0,0,1,2.9-2.9h0A2.9,2.9,0,0,1,567.18,175.09Z" transform="translate(-561.379 -172.19)" fill="#5b00b6" opacity="0.49"/>
              <path id="Trazado_989598" data-name="Trazado 989598" d="M588.938,175.09v85.017a2.9,2.9,0,0,1-2.9,2.9h0a2.9,2.9,0,0,1-2.9-2.9V175.09a2.9,2.9,0,0,1,2.9-2.9h0A2.9,2.9,0,0,1,588.938,175.09Z" transform="translate(-566.151 -172.19)" fill="#5b00b6" opacity="0.49"/>
              <path id="Trazado_989599" data-name="Trazado 989599" d="M608.042,175.09v85.017a2.9,2.9,0,0,1-2.9,2.9h0a2.9,2.9,0,0,1-2.9-2.9V175.09a2.9,2.9,0,0,1,2.9-2.9h0A2.9,2.9,0,0,1,608.042,175.09Z" transform="translate(-570.341 -172.19)" fill="#5b00b6" opacity="0.49"/>
              <path id="Trazado_989600" data-name="Trazado 989600" d="M608.042,203.031V222.05a2.9,2.9,0,0,1-2.9,2.9h0a2.9,2.9,0,0,1-2.9-2.9V203.031a2.9,2.9,0,0,1,2.9-2.9h0A2.9,2.9,0,0,1,608.042,203.031Z" transform="translate(-570.341 -178.318)" fill="#3affaa"/>
              <path id="Trazado_989601" data-name="Trazado 989601" d="M588.938,224.524v19.019a2.9,2.9,0,0,1-2.9,2.9h0a2.9,2.9,0,0,1-2.9-2.9V224.524a2.9,2.9,0,0,1,2.9-2.9h0A2.9,2.9,0,0,1,588.938,224.524Z" transform="translate(-566.151 -183.032)" fill="aqua"/>
              <path id="Trazado_989602" data-name="Trazado 989602" d="M567.18,205.95v19.019a2.9,2.9,0,0,1-2.9,2.9h0a2.9,2.9,0,0,1-2.9-2.9V205.95a2.9,2.9,0,0,1,2.9-2.9h0A2.9,2.9,0,0,1,567.18,205.95Z" transform="translate(-561.379 -178.958)" fill="#3affaa"/>
            </g>
          </g>
        </g>
        <g id="Grupo_1153396" data-name="Grupo 1153396" transform="translate(87.44 51.201)">
          <path id="Trazado_989603" data-name="Trazado 989603" d="M174.78,386.053h0a8.931,8.931,0,0,0,6.036,6.036h0a.578.578,0,0,1,0,1.108h0a8.931,8.931,0,0,0-6.036,6.036h0a.578.578,0,0,1-1.108,0h0a8.931,8.931,0,0,0-6.036-6.036h0a.578.578,0,0,1,0-1.108h0a8.931,8.931,0,0,0,6.036-6.036h0A.578.578,0,0,1,174.78,386.053Z" transform="translate(-160.448 -135.777)" fill="#ff65ff"/>
          <path id="Trazado_989604" data-name="Trazado 989604" d="M204.038,422.342h0a6.181,6.181,0,0,0,4.177,4.177h0a.4.4,0,0,1,0,.767h0a6.179,6.179,0,0,0-4.177,4.177h0a.4.4,0,0,1-.767,0h0a6.179,6.179,0,0,0-4.177-4.177h0a.4.4,0,0,1,0-.767h0a6.179,6.179,0,0,0,4.177-4.177h0A.4.4,0,0,1,204.038,422.342Z" transform="translate(-167.376 -143.764)" fill="#ff65ff"/>
          <path id="Trazado_989605" data-name="Trazado 989605" d="M163.986,425.969h0a6.429,6.429,0,0,0,4.346,4.346h0a.416.416,0,0,1,0,.8h0a6.43,6.43,0,0,0-4.346,4.346h0a.415.415,0,0,1-.8,0h0a6.429,6.429,0,0,0-4.346-4.346h0a.416.416,0,0,1,0-.8h0a6.43,6.43,0,0,0,4.346-4.346h0A.416.416,0,0,1,163.986,425.969Z" transform="translate(-158.545 -144.557)" fill="#ff65ff"/>
          <path id="Trazado_989606" data-name="Trazado 989606" d="M294.921,488.324h0a6.493,6.493,0,0,0,4.431,4.346h0a.42.42,0,0,1,.008.806h0a6.494,6.494,0,0,0-4.346,4.431h0a.42.42,0,0,1-.8.008h0a6.494,6.494,0,0,0-4.431-4.346h0a.42.42,0,0,1-.008-.806h0a6.494,6.494,0,0,0,4.346-4.431h0A.419.419,0,0,1,294.921,488.324Z" transform="translate(-187.26 -158.232)" fill="#ff65ff"/>
          <path id="Trazado_989607" data-name="Trazado 989607" d="M536.3,187.8h0a8.931,8.931,0,0,0,6.036,6.036h0a.578.578,0,0,1,0,1.108h0a8.931,8.931,0,0,0-6.036,6.036h0a.578.578,0,0,1-1.108,0h0a8.931,8.931,0,0,0-6.036-6.036h0a.578.578,0,0,1,0-1.108h0a8.931,8.931,0,0,0,6.036-6.036h0A.578.578,0,0,1,536.3,187.8Z" transform="translate(-239.735 -92.298)" fill="#ff65ff"/>
          <path id="Trazado_989608" data-name="Trazado 989608" d="M297.609,459.973h0a4.494,4.494,0,0,0,3.066,3.007h0a.291.291,0,0,1,.005.557h0a4.494,4.494,0,0,0-3.007,3.066h0a.291.291,0,0,1-.557.005h0a4.494,4.494,0,0,0-3.066-3.007h0a.291.291,0,0,1-.005-.557h0a4.494,4.494,0,0,0,3.007-3.066h0A.291.291,0,0,1,297.609,459.973Z" transform="translate(-188.217 -152.035)" fill="#ff65ff"/>
          <path id="Trazado_989609" data-name="Trazado 989609" d="M534.755,156.338h0a6.179,6.179,0,0,0,4.177,4.177h0a.4.4,0,0,1,0,.767h0a6.181,6.181,0,0,0-4.177,4.177h0a.4.4,0,0,1-.767,0h0a6.179,6.179,0,0,0-4.177-4.177h0a.4.4,0,0,1,0-.767h0a6.179,6.179,0,0,0,4.177-4.177h0A.4.4,0,0,1,534.755,156.338Z" transform="translate(-239.907 -85.425)" fill="#ff65ff"/>
          <path id="Trazado_989610" data-name="Trazado 989610" d="M471.04,96.8h0a5.684,5.684,0,0,0,3.842,3.842h0a.368.368,0,0,1,0,.7h0a5.684,5.684,0,0,0-3.842,3.842h0a.368.368,0,0,1-.7,0h0a5.682,5.682,0,0,0-3.842-3.842h0a.368.368,0,0,1,0-.7h0a5.684,5.684,0,0,0,3.842-3.842h0A.368.368,0,0,1,471.04,96.8Z" transform="translate(-226.025 -72.374)" fill="#ff65ff"/>
          <path id="Trazado_989611" data-name="Trazado 989611" d="M241.69,109.085h0a5.684,5.684,0,0,0,3.842,3.842h0a.368.368,0,0,1,0,.7h0a5.684,5.684,0,0,0-3.842,3.842h0a.367.367,0,0,1-.7,0h0a5.682,5.682,0,0,0-3.842-3.842h0a.368.368,0,0,1,0-.7h0a5.682,5.682,0,0,0,3.842-3.842h0A.368.368,0,0,1,241.69,109.085Z" transform="translate(-175.725 -75.067)" fill="#ff65ff"/>
          <path id="Trazado_989612" data-name="Trazado 989612" d="M492.94,65.848h0a5.684,5.684,0,0,0,3.842,3.842h0a.368.368,0,0,1,0,.7h0a5.684,5.684,0,0,0-3.842,3.842h0a.368.368,0,0,1-.7,0h0a5.684,5.684,0,0,0-3.842-3.842h0a.368.368,0,0,1,0-.7h0a5.684,5.684,0,0,0,3.842-3.842h0A.368.368,0,0,1,492.94,65.848Z" transform="translate(-230.828 -65.584)" fill="#ff65ff"/>
          <path id="Trazado_989613" data-name="Trazado 989613" d="M626.846,491.584h0a5.684,5.684,0,0,0,3.842,3.842h0a.368.368,0,0,1,0,.7h0a5.684,5.684,0,0,0-3.842,3.842h0a.368.368,0,0,1-.7,0h0a5.684,5.684,0,0,0-3.842-3.842h0a.368.368,0,0,1,0-.7h0a5.684,5.684,0,0,0,3.842-3.842h0A.368.368,0,0,1,626.846,491.584Z" transform="translate(-260.195 -158.955)" fill="#ff65ff"/>
          <path id="Trazado_989614" data-name="Trazado 989614" d="M535.737,466.295h0a5.684,5.684,0,0,0,3.842,3.842h0a.368.368,0,0,1,0,.7h0a5.684,5.684,0,0,0-3.842,3.842h0a.368.368,0,0,1-.705,0h0a5.684,5.684,0,0,0-3.842-3.842h0a.368.368,0,0,1,0-.7h0a5.684,5.684,0,0,0,3.842-3.842h0A.368.368,0,0,1,535.737,466.295Z" transform="translate(-240.214 -153.409)" fill="#ff65ff"/>
          <path id="Trazado_989615" data-name="Trazado 989615" d="M569.743,457.168h0a10.184,10.184,0,0,0,6.883,6.883h0a.659.659,0,0,1,0,1.263h0a10.184,10.184,0,0,0-6.883,6.883h0a.659.659,0,0,1-1.263,0h0a10.184,10.184,0,0,0-6.883-6.883h0a.659.659,0,0,1,0-1.263h0a10.186,10.186,0,0,0,6.883-6.883h0A.659.659,0,0,1,569.743,457.168Z" transform="translate(-246.837 -151.361)" fill="#ff65ff"/>
          <path id="Trazado_989616" data-name="Trazado 989616" d="M275.462,85h0a7.036,7.036,0,0,0,4.755,4.755h0a.455.455,0,0,1,0,.873h0a7.036,7.036,0,0,0-4.755,4.755h0a.455.455,0,0,1-.873,0h0a7.036,7.036,0,0,0-4.755-4.755h0a.455.455,0,0,1,0-.873h0A7.036,7.036,0,0,0,274.59,85h0A.455.455,0,0,1,275.462,85Z" transform="translate(-182.881 -69.77)" fill="#ff65ff"/>
          <path id="Trazado_989617" data-name="Trazado 989617" d="M501.953,157.824h0A6.179,6.179,0,0,0,506.13,162h0a.4.4,0,0,1,0,.767h0a6.181,6.181,0,0,0-4.177,4.177h0a.4.4,0,0,1-.767,0h0a6.181,6.181,0,0,0-4.177-4.177h0a.4.4,0,0,1,0-.767h0a6.179,6.179,0,0,0,4.177-4.177h0A.4.4,0,0,1,501.953,157.824Z" transform="translate(-232.713 -85.751)" fill="#ff65ff"/>
          <path id="Trazado_989618" data-name="Trazado 989618" d="M270.514,476.543h0a4.675,4.675,0,0,0,3.19,3.129h0a.3.3,0,0,1,.005.58h0a4.674,4.674,0,0,0-3.129,3.19h0a.3.3,0,0,1-.58.005h0a4.675,4.675,0,0,0-3.19-3.129h0a.3.3,0,0,1-.005-.58h0a4.674,4.674,0,0,0,3.129-3.19h0A.3.3,0,0,1,270.514,476.543Z" transform="translate(-182.241 -155.667)" fill="#ff65ff"/>
          <path id="Trazado_989619" data-name="Trazado 989619" d="M466.273,356.938h0a6.43,6.43,0,0,0,4.346,4.346h0a.416.416,0,0,1,0,.8h0a6.429,6.429,0,0,0-4.346,4.346h0a.416.416,0,0,1-.8,0h0a6.429,6.429,0,0,0-4.346-4.346h0a.416.416,0,0,1,0-.8h0a6.43,6.43,0,0,0,4.346-4.346h0A.416.416,0,0,1,466.273,356.938Z" transform="translate(-224.841 -129.417)" fill="#ff65ff"/>
          <path id="Trazado_989620" data-name="Trazado 989620" d="M448.185,379.547h0a6.43,6.43,0,0,0,4.346,4.346h0a.416.416,0,0,1,0,.8h0a6.429,6.429,0,0,0-4.346,4.346h0a.415.415,0,0,1-.8,0h0a6.429,6.429,0,0,0-4.346-4.346h0a.416.416,0,0,1,0-.8h0a6.43,6.43,0,0,0,4.346-4.346h0A.415.415,0,0,1,448.185,379.547Z" transform="translate(-220.874 -134.376)" fill="#ff65ff"/>
          <path id="Trazado_989621" data-name="Trazado 989621" d="M471.27,385.677h0a6.429,6.429,0,0,0,4.346,4.346h0a.416.416,0,0,1,0,.8h0a6.429,6.429,0,0,0-4.346,4.346h0a.416.416,0,0,1-.8,0h0a6.43,6.43,0,0,0-4.346-4.346h0a.416.416,0,0,1,0-.8h0a6.43,6.43,0,0,0,4.346-4.346h0A.416.416,0,0,1,471.27,385.677Z" transform="translate(-225.937 -135.72)" fill="#ff65ff"/>
        </g>
      </g>
    </g>
  </g>
</svg>
