<svg xmlns="http://www.w3.org/2000/svg" xmlns:xlink="http://www.w3.org/1999/xlink" width="108" height="108" viewBox="0 0 108 108">
  <defs>
    <filter id="Trazado_982547" x="0" y="0" width="108" height="108" filterUnits="userSpaceOnUse">
      <feOffset dy="3" input="SourceAlpha"/>
      <feGaussianBlur stdDeviation="3" result="blur"/>
      <feFlood flood-opacity="0.161"/>
      <feComposite operator="in" in2="blur"/>
      <feComposite in="SourceGraphic"/>
    </filter>
  </defs>
  <g id="Grupo_1154412" data-name="Grupo 1154412" transform="translate(-171 -3319)">
    <g id="Grupo_1153304" data-name="Grupo 1153304" transform="translate(-21 -6867)">
      <g id="Grupo_1149261" data-name="Grupo 1149261" transform="translate(-83 6759)">
        <g id="Grupo_1147065" data-name="Grupo 1147065" transform="translate(-341 -556)">
          <g transform="matrix(1, 0, 0, 1, 616, 3983)" filter="url(#Trazado_982547)">
            <g id="Trazado_982547-2" data-name="Trazado 982547" transform="translate(9 6)" fill="#eff4fa">
              <path d="M 45 88.5 C 39.12687683105469 88.5 33.43022537231445 87.35007476806641 28.06830024719238 85.08217620849609 C 22.88852500915527 82.89131164550781 18.23629951477051 79.75458526611328 14.2408504486084 75.75914764404297 C 10.24541282653809 71.76370239257812 7.108687400817871 67.11147308349609 4.917825222015381 61.93170166015625 C 2.649924993515015 56.56977462768555 1.5 50.87312316894531 1.5 45 C 1.5 39.12687683105469 2.649924993515015 33.43022537231445 4.917825222015381 28.06830024719238 C 7.108687400817871 22.88852500915527 10.24541282653809 18.23629951477051 14.2408504486084 14.2408504486084 C 18.23629951477051 10.24541282653809 22.88852500915527 7.108687400817871 28.06830024719238 4.917825222015381 C 33.43022537231445 2.649924993515015 39.12687683105469 1.5 45 1.5 C 50.87312316894531 1.5 56.56977462768555 2.649924993515015 61.93170166015625 4.917825222015381 C 67.11147308349609 7.108687400817871 71.76370239257812 10.24541282653809 75.75914764404297 14.2408504486084 C 79.75458526611328 18.23629951477051 82.89131164550781 22.88852500915527 85.08217620849609 28.06830024719238 C 87.35007476806641 33.43022537231445 88.5 39.12687683105469 88.5 45 C 88.5 50.87312316894531 87.35007476806641 56.56977462768555 85.08217620849609 61.93170166015625 C 82.89131164550781 67.11147308349609 79.75458526611328 71.76370239257812 75.75914764404297 75.75914764404297 C 71.76370239257812 79.75458526611328 67.11147308349609 82.89131164550781 61.93170166015625 85.08217620849609 C 56.56977462768555 87.35007476806641 50.87312316894531 88.5 45 88.5 Z" stroke="none"/>
              <path d="M 45 3 C 39.32871246337891 3 33.82865524291992 4.110054016113281 28.65262985229492 6.299339294433594 C 23.65165710449219 8.414573669433594 19.15968322753906 11.44334411621094 15.301513671875 15.301513671875 C 11.44334411621094 19.15968322753906 8.414573669433594 23.65165710449219 6.299339294433594 28.65262985229492 C 4.110054016113281 33.82865524291992 3 39.32871246337891 3 45 C 3 50.67128753662109 4.110054016113281 56.17134475708008 6.299339294433594 61.34737396240234 C 8.414573669433594 66.34834289550781 11.44334411621094 70.84031677246094 15.301513671875 74.698486328125 C 19.15968322753906 78.55665588378906 23.65165710449219 81.58542633056641 28.65262985229492 83.70066070556641 C 33.82865524291992 85.88994598388672 39.32871246337891 87 45 87 C 50.67128753662109 87 56.17134475708008 85.88994598388672 61.34737396240234 83.70066070556641 C 66.34834289550781 81.58542633056641 70.84031677246094 78.55665588378906 74.698486328125 74.698486328125 C 78.55665588378906 70.84031677246094 81.58542633056641 66.34834289550781 83.70066070556641 61.34737396240234 C 85.88994598388672 56.17134475708008 87 50.67128753662109 87 45 C 87 39.32871246337891 85.88994598388672 33.82865524291992 83.70066070556641 28.65262985229492 C 81.58542633056641 23.65165710449219 78.55665588378906 19.15968322753906 74.698486328125 15.301513671875 C 70.84031677246094 11.44334411621094 66.34834289550781 8.414573669433594 61.34737396240234 6.299339294433594 C 56.17134475708008 4.110054016113281 50.67128753662109 3 45 3 M 45 0 C 69.85281372070312 0 90 20.14718627929688 90 45 C 90 69.85281372070312 69.85281372070312 90 45 90 C 20.14718627929688 90 0 69.85281372070312 0 45 C 0 20.14718627929688 20.14718627929688 0 45 0 Z" stroke="none" fill="#3ad1e9"/>
            </g>
          </g>
        </g>
      </g>
    </g>
    <g id="ley_1_" data-name="ley (1)" transform="translate(196.001 3326.807)">
      <g id="Grupo_1154403" data-name="Grupo 1154403" transform="translate(12.531 47.248)">
        <g id="Grupo_1154398" data-name="Grupo 1154398" transform="translate(0 3.072)">
          <path id="Trazado_991065" data-name="Trazado 991065" d="M146.874,357.026a9.781,9.781,0,0,0,2.348,6.441H113.83a1.12,1.12,0,0,1-.914-.468,11.4,11.4,0,0,1,0-11.947,1.12,1.12,0,0,1,.914-.468h35.392A9.781,9.781,0,0,0,146.874,357.026Z" transform="translate(-111.226 -350.585)" fill="#fb3a82"/>
          <path id="Trazado_991066" data-name="Trazado 991066" d="M122.027,350.587l-9.98,10.811a11.31,11.31,0,0,1-.817-4.369,10.222,10.222,0,0,1,1.69-5.974,1.118,1.118,0,0,1,.914-.467Z" transform="translate(-111.23 -350.587)" fill="#fb1466"/>
          <path id="Trazado_991067" data-name="Trazado 991067" d="M181.439,357.026a9.781,9.781,0,0,0,2.348,6.441H147.856s-2.065-2.091-2.065-6.441,2.065-6.441,2.065-6.441h35.931A9.781,9.781,0,0,0,181.439,357.026Z" transform="translate(-141.896 -350.585)" fill="#e0d3ce"/>
          <g id="Grupo_1154397" data-name="Grupo 1154397" transform="translate(3.894 0)">
            <path id="Trazado_991068" data-name="Trazado 991068" d="M152.693,350.587l-6.866,7.437c-.024-.318-.037-.65-.037-1,0-4.35,2.065-6.441,2.065-6.441Z" transform="translate(-145.79 -350.587)" fill="#cdbfbb"/>
            <path id="Trazado_991069" data-name="Trazado 991069" d="M428.656,357.033A9.779,9.779,0,0,0,431,363.474h-4.258a10.007,10.007,0,0,1,0-12.881H431A9.776,9.776,0,0,0,428.656,357.033Z" transform="translate(-393.008 -350.591)" fill="#cdbfbb"/>
          </g>
        </g>
        <g id="Grupo_1154402" data-name="Grupo 1154402" transform="translate(4.848 0)">
          <g id="Grupo_1154400" data-name="Grupo 1154400" transform="translate(0)">
            <path id="Trazado_991070" data-name="Trazado 991070" d="M193.721,325.187a1.869,1.869,0,0,1-1.869,1.869H156.129a1.87,1.87,0,0,1,0-3.74h35.722A1.87,1.87,0,0,1,193.721,325.187Z" transform="translate(-154.26 -323.317)" fill="#fb3a82"/>
            <g id="Grupo_1154399" data-name="Grupo 1154399">
              <path id="Trazado_991071" data-name="Trazado 991071" d="M163.045,323.317l-3.451,3.74h-3.465a1.87,1.87,0,0,1,0-3.74Z" transform="translate(-154.26 -323.317)" fill="#fb1466"/>
              <path id="Trazado_991072" data-name="Trazado 991072" d="M461.21,325.19a1.871,1.871,0,0,1-1.871,1.871h-3.626a1.87,1.87,0,0,0,0-3.74h3.626A1.87,1.87,0,0,1,461.21,325.19Z" transform="translate(-421.748 -323.321)" fill="#fb1466"/>
            </g>
          </g>
          <g id="Grupo_1154401" data-name="Grupo 1154401" transform="translate(0 15.287)">
            <path id="Trazado_991073" data-name="Trazado 991073" d="M191.849,462.735H156.127a1.87,1.87,0,1,1,0-3.739h35.722a1.87,1.87,0,0,1,0,3.739Z" transform="translate(-154.257 -458.996)" fill="#fb3a82"/>
            <path id="Trazado_991074" data-name="Trazado 991074" d="M461.21,460.869a1.869,1.869,0,0,1-1.871,1.869h-3.626a1.869,1.869,0,1,0,0-3.738h3.626A1.87,1.87,0,0,1,461.21,460.869Z" transform="translate(-421.748 -459)" fill="#fb1466"/>
          </g>
        </g>
      </g>
      <g id="Grupo_1154411" data-name="Grupo 1154411" transform="translate(-0.001 12.193)">
        <g id="Grupo_1154406" data-name="Grupo 1154406" transform="translate(0.845 22.33)">
          <g id="Grupo_1154404" data-name="Grupo 1154404" transform="translate(0 7.152)">
            <path id="Trazado_991075" data-name="Trazado 991075" d="M32.112,276.875l-3.018-3.018L8.547,292.825a3.254,3.254,0,1,0,4.6,4.6Z" transform="translate(-7.5 -273.857)" fill="#873f30"/>
            <path id="Trazado_991076" data-name="Trazado 991076" d="M14.312,304.828a3.255,3.255,0,0,1-4.6,0,3.222,3.222,0,0,1-.794-1.3,3.249,3.249,0,0,0,3.3-.791c.031-.031.062-.064.093-.1L31.281,282.1l2.09,2.09L14.4,304.733C14.372,304.766,14.342,304.8,14.312,304.828Z" transform="translate(-8.758 -281.168)" fill="#6c3328"/>
          </g>
          <path id="Trazado_991077" data-name="Trazado 991077" d="M197.586,210.382l-6.95,8.291,2.839,2.839,8.291-6.95Z" transform="translate(-170.002 -210.382)" fill="#873f30"/>
          <path id="Trazado_991078" data-name="Trazado 991078" d="M206.394,210.382l-2.246,2.679.674.674a1.27,1.27,0,0,1,0,1.8l-4.26,4.26,1.721,1.721,8.291-6.95Z" transform="translate(-178.81 -210.382)" fill="#6c3328"/>
          <g id="Grupo_1154405" data-name="Grupo 1154405" transform="translate(18.334 6.593)">
            <path id="Trazado_991079" data-name="Trazado 991079" d="M173.576,275.138l-2.756-2.756a2.04,2.04,0,0,1,2.885-2.885l2.756,2.756a2.04,2.04,0,0,1-2.886,2.886Z" transform="translate(-170.222 -268.899)" fill="#ba5d4f"/>
            <path id="Trazado_991080" data-name="Trazado 991080" d="M186.415,285.1a2.04,2.04,0,0,1-2.885,0l-2.089-2.089a2.04,2.04,0,0,0,2.885-2.885l2.089,2.089A2.039,2.039,0,0,1,186.415,285.1Z" transform="translate(-180.177 -278.858)" fill="#a34f41"/>
          </g>
        </g>
        <g id="Grupo_1154407" data-name="Grupo 1154407" transform="translate(22.423 3.381)">
          <path id="Trazado_991081" data-name="Trazado 991081" d="M0,0H8.656V13.589H0Z" transform="translate(9.608 0) rotate(45)" fill="#ba5d4f"/>
          <path id="Trazado_991082" data-name="Trazado 991082" d="M0,0H8.656V13.589H0Z" transform="translate(19.525 29.141) rotate(-135)" fill="#a34f41"/>
        </g>
        <g id="Grupo_1154410" data-name="Grupo 1154410" transform="translate(0 0)">
          <path id="Trazado_991083" data-name="Trazado 991083" d="M177.3,33.946l-.213-.213a2.064,2.064,0,0,1,0-2.919L187.6,20.3a2.064,2.064,0,0,1,2.919,0l.213.213a2.064,2.064,0,0,1,0,2.919L180.216,33.946a2.064,2.064,0,0,1-2.919,0Z" transform="translate(-156.596 -18.849)" fill="#873f30"/>
          <path id="Trazado_991084" data-name="Trazado 991084" d="M348.848,205.5l.213.213a2.064,2.064,0,0,0,2.919,0L362.5,195.193a2.064,2.064,0,0,0,0-2.919l-.213-.213a2.064,2.064,0,0,0-2.919,0l-10.516,10.516A2.064,2.064,0,0,0,348.848,205.5Z" transform="translate(-309.006 -171.259)" fill="#6c3328"/>
          <g id="Grupo_1154409" data-name="Grupo 1154409">
            <path id="Trazado_991085" data-name="Trazado 991085" d="M0,0H9.721V20.524H0Z" transform="translate(40.806 7.253) rotate(45)" fill="#fcc16d"/>
            <path id="Trazado_991086" data-name="Trazado 991086" d="M0,0H20.524V4.92H0Z" transform="translate(29.686 25.165) rotate(-45)" fill="#fca62f"/>
            <path id="Trazado_991087" data-name="Trazado 991087" d="M239.293,67.669l-1.684-.688a1.548,1.548,0,0,0-1.681.338L224.106,79.142a1.548,1.548,0,0,0-.338,1.681l.688,1.684a1.032,1.032,0,0,0,1.685.339l13.491-13.491A1.032,1.032,0,0,0,239.293,67.669Z" transform="translate(-198.453 -60.706)" fill="#873f30"/>
            <path id="Trazado_991088" data-name="Trazado 991088" d="M303.9,132.277l.688,1.684a1.548,1.548,0,0,1-.338,1.681l-11.823,11.823a1.548,1.548,0,0,1-1.681.338l-1.684-.688a1.032,1.032,0,0,1-.339-1.685l13.491-13.491a1.032,1.032,0,0,1,1.685.339Z" transform="translate(-255.924 -118.178)" fill="#6c3328"/>
            <g id="Grupo_1154408" data-name="Grupo 1154408">
              <path id="Trazado_991089" data-name="Trazado 991089" d="M54.972,61.69h-.629a8.74,8.74,0,0,1-.728-1.387.845.845,0,0,0-1.562.647c.1.252.221.5.344.741H19.249a2.7,2.7,0,0,0-.737.1,9.823,9.823,0,0,1-1.242-5.031c0-.368.016-.732.048-1.088h16.19a.845.845,0,1,0,0-1.69H18.031l1.986-2.151H52.393a10.549,10.549,0,0,0-.813,2.151H40.472a.845.845,0,1,0,0,1.69H51.284c-.033.343-.052.69-.054,1.04a.845.845,0,0,0,.842.849h0a.845.845,0,0,0,.845-.841,9.042,9.042,0,0,1,1.421-4.888h.63a2.715,2.715,0,1,0,0-5.429H44.408l9.678-9.678a2.909,2.909,0,0,0,0-4.114l-.213-.213a2.908,2.908,0,0,0-3.965-.138l-1.5-1.5.509-.509a2.388,2.388,0,0,0,.523-2.6l-.688-1.684A1.873,1.873,0,0,0,47.4,24.845l-1.175-1.175a.845.845,0,0,0-1.2,1.195l.578.578L32.288,38.76l-3.917-3.916L41.689,21.526l.518.518A.845.845,0,1,0,43.4,20.849l-1.115-1.115a1.873,1.873,0,0,0-1.128-1.36h0l-1.684-.688a2.388,2.388,0,0,0-2.6.523l-.509.509-1.5-1.5a2.908,2.908,0,0,0-.138-3.964l-.213-.213a2.909,2.909,0,0,0-4.114,0L19.891,23.561a2.909,2.909,0,0,0,0,4.114l.212.213a2.908,2.908,0,0,0,3.965.138l1.5,1.5-.509.509a2.388,2.388,0,0,0-.523,2.6l.688,1.684a1.872,1.872,0,0,0,1.34,1.124l-4.237,5.054a2.887,2.887,0,0,0-3.814,3.66l-1.922,1.774a.845.845,0,0,0,1.146,1.242l1.776-1.639L21.6,47.622,5.868,64.667a2.409,2.409,0,1,1-3.4-3.4L14.807,49.869a.845.845,0,1,0-1.146-1.242L1.318,60.022A4.1,4.1,0,0,0,4.1,67.132H4.18a4.064,4.064,0,0,0,2.93-1.318l5.065-5.486a9.739,9.739,0,0,0,1.359,2.9,1.968,1.968,0,0,0,1.6.823h1.424a2.71,2.71,0,0,0,2.69,3.072H54.972a2.715,2.715,0,1,0,0-5.429ZM56,49.118a1.026,1.026,0,0,1-1.025,1.025h-33.4l1.4-1.522a2.888,2.888,0,0,0,2.882-.528H54.972A1.026,1.026,0,0,1,56,49.118ZM30.5,39.365l-4.893,4.1-1.945-1.945,4.1-4.893ZM26.817,46.4a2.9,2.9,0,0,0-.176-1.594l5.054-4.237a1.873,1.873,0,0,0,1.124,1.34L34.5,42.6a2.388,2.388,0,0,0,2.6-.523l.509-.509,1.5,1.5a2.915,2.915,0,0,0-.336,3.339H26.817Zm25-13.167a1.211,1.211,0,0,1,.862.357l.213.213a1.219,1.219,0,0,1,0,1.724L42.375,46.046a1.219,1.219,0,0,1-1.724,0l-.213-.213a1.22,1.22,0,0,1,0-1.724L50.955,33.593a1.21,1.21,0,0,1,.862-.357Zm-3.108.213-8.414,8.414-1.49-1.49,8.414-8.414ZM33.4,40.042,46.888,26.551a.178.178,0,0,1,.129-.055.206.206,0,0,1,.04,0,.18.18,0,0,1,.136.113l.688,1.684a.7.7,0,0,1-.154.763L35.9,40.882a.7.7,0,0,1-.763.154l-1.684-.688a.187.187,0,0,1-.062-.305ZM22.161,27.05a1.211,1.211,0,0,1-.862-.357l-.213-.213a1.219,1.219,0,0,1,0-1.724L31.6,14.24a1.219,1.219,0,0,1,1.724,0l.213.213a1.219,1.219,0,0,1,0,1.724L23.023,26.694A1.212,1.212,0,0,1,22.161,27.05Zm3.108-.213,8.414-8.414,1.49,1.49-8.414,8.414Zm.981,4.39L38.073,19.4a.7.7,0,0,1,.763-.154l1.684.688a.187.187,0,0,1,.061.305L27.09,33.735a.187.187,0,0,1-.305-.062L26.1,31.99a.7.7,0,0,1,.154-.763Zm-6.226,11.93a1.2,1.2,0,0,1,2.04-.845l2.756,2.756a1.2,1.2,0,0,1-1.69,1.69L20.374,44a1.188,1.188,0,0,1-.35-.845ZM14.91,62.245a8.525,8.525,0,0,1-1.353-3.415l2.026-2.194c0,.042,0,.083,0,.125a11.725,11.725,0,0,0,1.311,5.6H15.135A.275.275,0,0,1,14.91,62.245Zm40.062,3.184H19.249a1.025,1.025,0,0,1,0-2.049H54.972a1.025,1.025,0,0,1,0,2.049Z" transform="translate(0.001 -12.193)"/>
              <path id="Trazado_991090" data-name="Trazado 991090" d="M203.172,417.166a.845.845,0,0,0,0,1.69h19.687a.845.845,0,0,0,0-1.69Z" transform="translate(-179.531 -371.537)"/>
            </g>
          </g>
        </g>
      </g>
    </g>
  </g>
</svg>
