<svg xmlns="http://www.w3.org/2000/svg" xmlns:xlink="http://www.w3.org/1999/xlink" width="359.914" height="331.282" viewBox="0 0 359.914 331.282">
  <defs>
    <filter id="Trazado_989622" x="3.204" y="0" width="356.71" height="331.282" filterUnits="userSpaceOnUse">
      <feOffset dy="3" input="SourceAlpha"/>
      <feGaussianBlur stdDeviation="3" result="blur"/>
      <feFlood flood-opacity="0.161"/>
      <feComposite operator="in" in2="blur"/>
      <feComposite in="SourceGraphic"/>
    </filter>
  </defs>
  <g id="_x31_5" transform="translate(-521.562 -122.147)">
    <g transform="matrix(1, 0, 0, 1, 521.56, 122.15)" filter="url(#Trazado_989622)">
      <path id="Trazado_989622-2" data-name="Trazado 989622" d="M849.52,273.328c2.365,16.293,8.529,26.458,10.568,31.265,11.688,27.537-23.9,86.812-69.7,113.644-88.822,52.045-229.581-10-236.687-64.444-1.221-9.341,2.62-9.862,4.072-26.114,4.937-55.138-36.711-76.991-34.033-114.533,3.384-47.522,74.65-76.007,81.679-78.722,52.519-20.3,109.133-6.846,143.243,18.35,11.984,8.849,7.681,9.175,27.228,25.45,42.8,35.645,70.318,39.823,74.431,62.891C852.265,251.985,846.877,255.144,849.52,273.328Z" transform="translate(-511.42 -118.56)" fill="#a530fe"/>
    </g>
    <g id="Grupo_1153399" data-name="Grupo 1153399" transform="translate(791.482 175.957)">
      <path id="Trazado_989623" data-name="Trazado 989623" d="M569.758,265.916a23.388,23.388,0,0,1-2.65-.118l1.737-14.983c.29.024.611.006.907.018a51.562,51.562,0,0,0,0-103.123,7.958,7.958,0,0,0-.919.018L567.1,132.744a23.256,23.256,0,0,1,2.65-.119,66.646,66.646,0,0,1,.006,133.291Z" transform="translate(-567.103 -132.625)" fill="#3ad1e9"/>
    </g>
    <g id="Grupo_1153401" data-name="Grupo 1153401" transform="translate(785.545 164.4)">
      <g id="Grupo_1153400" data-name="Grupo 1153400">
        <path id="Trazado_989624" data-name="Trazado 989624" d="M569.193,264.849a25.563,25.563,0,0,1-2.7-.119.435.435,0,0,1-.3-.16.425.425,0,0,1-.095-.332l1.737-14.983a.484.484,0,0,1,.474-.391,3.836,3.836,0,0,0,.569.018h.314a51.117,51.117,0,0,0-.006-102.234c-.415,0-.652-.006-.865.012a.38.38,0,0,1-.332-.095.412.412,0,0,1-.16-.3l-1.731-14.977a.446.446,0,0,1,.391-.492,22.2,22.2,0,0,1,2.7-.124,67.087,67.087,0,1,1,0,134.174Zm-2.151-.966c.747.065,1.529.071,2.151.071a66.2,66.2,0,0,0,0-132.4c-.628,0-1.41.006-2.151.071l1.63,14.124a.9.9,0,0,1,.308,0,52.006,52.006,0,1,1,.219,104.012l-.308-.006C568.678,249.759,567.042,263.883,567.042,263.883Z" transform="translate(-566.101 -130.675)"/>
      </g>
    </g>
    <g id="Grupo_1153402" data-name="Grupo 1153402" transform="translate(521.562 249.428)">
      <path id="Trazado_989625" data-name="Trazado 989625" d="M576.1,200.005a54.6,54.6,0,0,1-54.54-54.54.448.448,0,0,1,.444-.445H630.191a.448.448,0,0,1,.445.445A54.6,54.6,0,0,1,576.1,200.005Zm-53.651-54.1a53.65,53.65,0,0,0,107.3,0Z" transform="translate(-521.562 -145.021)"/>
    </g>
    <path id="Trazado_989626" data-name="Trazado 989626" d="M569.035,156.039l-34.519,19.926V136.107Z" transform="translate(63.824 60.488)"/>
    <path id="Trazado_989627" data-name="Trazado 989627" d="M608.258,171.713l-82.622,47.706V124.013Z" transform="translate(20.073 0.902)" fill="#15da7e"/>
    <g id="Grupo_1153451" data-name="Grupo 1153451" transform="translate(527.448 153.41)">
      <path id="Trazado_991091" data-name="Trazado 991091" d="M43.729,0C67.88,0,87.458,21.16,87.458,47.262S67.88,94.523,43.729,94.523,0,73.363,0,47.262,19.578,0,43.729,0Z" transform="translate(150.847 19.205)" fill="#3ad1e9"/>
      <path id="Trazado_989628" data-name="Trazado 989628" d="M528.9,278.2q15.5,3.921,30.986,7.835a371.72,371.72,0,0,0,43.06-64.835c5.541-10.621,10.26-20.928,14.284-30.749,6.087-18.415-1.47-33.713-9.477-35.645-7.107-1.713-18.208,6.211-23.637,20.264Q556.5,226.631,528.9,278.2Z" transform="translate(-491.313 -1.906)" fill="#ff7866"/>
      <path id="Trazado_989629" data-name="Trazado 989629" d="M689.251,186.251q-8.063,25.569-17.633,52.365-9.682,26.858-19.784,51.778H551.775c-.213-1.559-.432-3.171-.646-4.836-1.772-13.869-2.9-29.2-4.137-43.765-1.073-13.116-2.258-25.646-3.977-35.917-.592-3.171-1.185-6.182-1.885-8.873a66.114,66.114,0,0,1-1.019-6.828c-.913-8.333-.379-17.686,4.676-24.787,10.271-6.828,23.655-3.764,33.766-11.724a3.2,3.2,0,0,1,.486-.427,119.458,119.458,0,0,1,23.981-.213c28.011,2.152,27.851,11.291,47.2,8.873,11.344-1.452,18.012-2.418,25.433,1.879,2.418,1.4,10.106,5.589,13.5,21.989A1.81,1.81,0,0,1,689.251,186.251Z" transform="translate(-437.859 -12.062)" fill="#ff7866"/>
      <circle id="Elipse_11689" data-name="Elipse 11689" cx="21.829" cy="21.829" r="21.829" transform="translate(97.421 188.615)" fill="#ff7866"/>
      <g id="Grupo_1153404" data-name="Grupo 1153404" transform="translate(96.977 195.91)">
        <g id="Grupo_1153403" data-name="Grupo 1153403">
          <path id="Trazado_989630" data-name="Trazado 989630" d="M561.19,198.688a22.283,22.283,0,0,1-17.016-36.658.462.462,0,0,1,.634-.053.454.454,0,0,1,.053.628,21.381,21.381,0,1,0,33.493,26.553.457.457,0,0,1,.622-.095.451.451,0,0,1,.095.622A22.071,22.071,0,0,1,561.19,198.688Z" transform="translate(-538.917 -161.875)"/>
        </g>
      </g>
      <circle id="Elipse_11690" data-name="Elipse 11690" cx="21.829" cy="21.829" r="21.829" transform="translate(165.285 188.615)" fill="#ff7866"/>
      <g id="Grupo_1153406" data-name="Grupo 1153406" transform="translate(165.245 214.223)">
        <g id="Grupo_1153405" data-name="Grupo 1153405">
          <path id="Trazado_989631" data-name="Trazado 989631" d="M572.3,183.465a22.31,22.31,0,0,1-21.859-17.971.441.441,0,0,1,.35-.521.452.452,0,0,1,.522.35,21.391,21.391,0,0,0,39.622,6.365.447.447,0,1,1,.777.445A22.366,22.366,0,0,1,572.3,183.465Z" transform="translate(-550.435 -164.965)"/>
        </g>
      </g>
      <path id="Trazado_989632" data-name="Trazado 989632" d="M538.641,226.951c2.294-.071,4.587-.136,6.881-.207q74.537-2.223,149.074-4.451c.563-13.573-3.3-19.737-6.964-22.848-10.194-8.665-26.671-.391-41.613-11.812a33.293,33.293,0,0,1-6.519-6.644q-2.036-17.461-4.072-34.928l-34.258-.96a49.439,49.439,0,0,1-1.778,22.345A48.526,48.526,0,0,1,584.5,189.783c-.16.136-.308.255-.522.427-10.111,7.978-23.477,4.9-33.73,11.729a22.388,22.388,0,0,0-4.5,3.947C539.779,212.65,538.748,221.392,538.641,226.951Z" transform="translate(-443.3 -48.614)" fill="#ff7866"/>
      <path id="Trazado_989633" data-name="Trazado 989633" d="M558.757,155.429c-1.316,2.163-3.432,3.195-5.459,2.649-2.869-.771-3.965-4.256-4.042-4.51Z" transform="translate(-391 -6.892)"/>
      <path id="Trazado_989634" data-name="Trazado 989634" d="M574.525,155.536a18.1,18.1,0,0,1-2.7,1.588,15.935,15.935,0,0,1-9.513,1.191,188.085,188.085,0,0,1-18.593-3.449q8.944.462,17.893.931Z" transform="translate(-418.291 -0.497)"/>
      <path id="Trazado_989635" data-name="Trazado 989635" d="M550.859,155.536a32.477,32.477,0,0,0,4.113,1.588,35.921,35.921,0,0,0,14.45,1.191c12.636-1.067,24.307-2.833,28.242-3.449q-13.594.462-27.181.931Z" transform="translate(-383.102 -0.497)"/>
      <g id="Grupo_1153420" data-name="Grupo 1153420" transform="translate(128.125 9.932)">
        <path id="Trazado_989636" data-name="Trazado 989636" d="M544.835,191.583c-1.535,6.881-.154,12.4,1.624,19.458.314,1.262,4.19,16.234,11.285,20.638a24.556,24.556,0,0,0,5.234,2.371,22.569,22.569,0,0,0,5.571.889c2.246.095,20.063-.32,35.147-10.7,18.694-12.873,38.988-45,26.008-69.9-8.007-15.351-24.988-20.887-31.828-22.671-.753-.16-1.612-.332-2.572-.486a60.058,60.058,0,0,0-7.219-.682c-12.761-.255-20.857,5.145-20.857,5.145-7.812,5.216-11.427,14.154-13.341,21.527-.373,1.423-.676,2.792-.937,4.06-.3,1.44-.534,2.756-.741,3.894-.611,3.39-.693,5.672-1.932,10.55C548.082,184.346,546.044,186.148,544.835,191.583Z" transform="translate(-544.172 -130.497)" fill="#ff7866"/>
        <g id="Grupo_1153413" data-name="Grupo 1153413" transform="translate(70.746 54.682)">
          <path id="Trazado_989637" data-name="Trazado 989637" d="M574.117,154.1c-1.671,6.549-6.941,10.852-11.777,9.619s-7.391-7.539-5.719-14.088,6.941-10.858,11.777-9.619S575.788,147.55,574.117,154.1Z" transform="translate(-556.108 -139.349)" fill="#ff7866"/>
          <g id="Grupo_1153410" data-name="Grupo 1153410" transform="translate(2.199)">
            <g id="Grupo_1153407" data-name="Grupo 1153407" transform="translate(0 20.554)">
              <path id="Trazado_989638" data-name="Trazado 989638" d="M562.2,147.658a7.334,7.334,0,0,1-1.79-.225,7.691,7.691,0,0,1-3.811-2.365.441.441,0,1,1,.658-.587,6.7,6.7,0,0,0,3.367,2.1c2.744.676,5.79-.5,8.138-3.236a.438.438,0,0,1,.628-.047.448.448,0,0,1,.047.628A9.751,9.751,0,0,1,562.2,147.658Z" transform="translate(-556.48 -143.19)"/>
            </g>
            <g id="Grupo_1153408" data-name="Grupo 1153408" transform="translate(13.199 15.244)">
              <path id="Trazado_989639" data-name="Trazado 989639" d="M559.142,147.163c-.45-.213-.5-.492-.373-.694a15.264,15.264,0,0,0,1.855-3.858.444.444,0,0,1,.848.267,16.294,16.294,0,0,1-1.956,4.09A.441.441,0,0,1,559.142,147.163Z" transform="translate(-558.707 -142.294)"/>
            </g>
            <g id="Grupo_1153409" data-name="Grupo 1153409" transform="translate(6.529)">
              <path id="Trazado_989640" data-name="Trazado 989640" d="M567.139,153.624a.46.46,0,0,1-.438-.522c1.025-5.921-1.411-11.208-5.666-12.292a6.638,6.638,0,0,0-2.922-.059.433.433,0,0,1-.522-.35.44.44,0,0,1,.35-.522,7.285,7.285,0,0,1,3.319.071c4.706,1.2,7.426,6.917,6.324,13.3A.456.456,0,0,1,567.139,153.624Z" transform="translate(-557.581 -139.722)"/>
            </g>
          </g>
          <g id="Grupo_1153411" data-name="Grupo 1153411" transform="translate(5.561 7.535)">
            <path id="Trazado_989641" data-name="Trazado 989641" d="M557.481,151.622c-.462-.231-.5-.51-.361-.705l7.154-9.738a.442.442,0,0,1,.717.516l-7.154,9.738A.42.42,0,0,1,557.481,151.622Z" transform="translate(-557.047 -140.994)"/>
          </g>
          <g id="Grupo_1153412" data-name="Grupo 1153412" transform="translate(8.148 7.494)">
            <path id="Trazado_989642" data-name="Trazado 989642" d="M559.146,145.854a.437.437,0,0,1-.421-.314l-1.221-3.965a.441.441,0,0,1,.29-.557.414.414,0,0,1,.557.29l1.221,3.965a.441.441,0,0,1-.291.557A.41.41,0,0,1,559.146,145.854Z" transform="translate(-557.483 -140.987)"/>
          </g>
        </g>
        <path id="Trazado_989643" data-name="Trazado 989643" d="M551.392,141.987c-.468,2.365,1.4,4.783,4.185,5.405s5.405-.8,5.874-3.165-1.4-4.783-4.184-5.405S551.86,139.616,551.392,141.987Z" transform="translate(-508.951 -90.2)"/>
        <g id="Grupo_1153414" data-name="Grupo 1153414" transform="translate(39.407 47.595)">
          <path id="Trazado_989644" data-name="Trazado 989644" d="M571.6,147.91a.438.438,0,0,1-.344-.166c-4.652-5.85-10.639-8.707-14.954-7.154a7.525,7.525,0,0,0-2.857,1.956.389.389,0,0,1-.373.13.473.473,0,0,1-.338-.219l-1.855-3.26a.439.439,0,0,1,.166-.6.434.434,0,0,1,.611.166l1.564,2.75a8.313,8.313,0,0,1,2.78-1.754c4.724-1.731,10.983,1.191,15.949,7.432a.442.442,0,0,1-.071.622A.415.415,0,0,1,571.6,147.91Z" transform="translate(-550.821 -138.527)"/>
        </g>
        <path id="Trazado_989645" data-name="Trazado 989645" d="M545.455,140.595c-.468,2.365,1.4,4.783,4.185,5.405s5.405-.8,5.874-3.165-1.4-4.783-4.184-5.405S545.923,138.23,545.455,140.595Z" transform="translate(-538.202 -97.047)"/>
        <g id="Grupo_1153415" data-name="Grupo 1153415" transform="translate(4.227 39.374)">
          <path id="Trazado_989646" data-name="Trazado 989646" d="M565.657,146.512a.437.437,0,0,1-.344-.166c-4.659-5.85-10.669-8.7-14.948-7.148a7.5,7.5,0,0,0-2.862,1.95.422.422,0,0,1-.373.136.474.474,0,0,1-.338-.219l-1.849-3.254a.453.453,0,0,1,.166-.61.436.436,0,0,1,.6.166l1.559,2.744a8.212,8.212,0,0,1,2.792-1.748c4.688-1.731,10.965,1.185,15.938,7.427a.448.448,0,0,1-.344.723Z" transform="translate(-544.885 -137.14)"/>
        </g>
        <g id="Grupo_1153416" data-name="Grupo 1153416" transform="translate(43.767 29.496)">
          <path id="Trazado_989647" data-name="Trazado 989647" d="M576.785,146.956a55.157,55.157,0,0,0-13.057-4.5,54.565,54.565,0,0,0-11.99-1.15,9.791,9.791,0,0,1,.783-2.074,10.581,10.581,0,0,1,3.165-3.657c3.758.83,6.84,1.713,9.08,2.406,5.441,1.7,6.846,2.6,7.723,3.278A13.648,13.648,0,0,1,576.785,146.956Z" transform="translate(-550.663 -134.995)"/>
          <path id="Trazado_989648" data-name="Trazado 989648" d="M554.5,135.473a11.534,11.534,0,0,0-1.683,2.282c-1,1.784-1.411,3.675-1.209,3.758.225.089,1.375-2.039,1.713-2.673a12.875,12.875,0,0,1,1.76-2.768c.219-.249.409-.445.539-.575Z" transform="translate(-551.557 -135.473)"/>
        </g>
        <g id="Grupo_1153417" data-name="Grupo 1153417" transform="translate(6.156 30.369)">
          <path id="Trazado_989649" data-name="Trazado 989649" d="M545.211,135.671c-.006,1.47.042,2.869.107,4.167q2.125.1,4.463.409a54.2,54.2,0,0,1,11.694,2.9,9.457,9.457,0,0,0-.053-2.217,10.6,10.6,0,0,0-1.766-4.5c-3.817-.468-7.018-.664-9.365-.747C548.026,135.594,546.4,135.606,545.211,135.671Z" transform="translate(-545.211 -135.62)"/>
          <path id="Trazado_989650" data-name="Trazado 989650" d="M548.9,136.078a11.674,11.674,0,0,1,.83,2.709c.35,2.015.107,3.936-.112,3.947-.243.006-.616-2.383-.723-3.088a12.735,12.735,0,0,0-.741-3.2c-.124-.308-.237-.557-.32-.723Z" transform="translate(-532.302 -135.12)"/>
        </g>
        <path id="Trazado_989651" data-name="Trazado 989651" d="M554.594,143.417a8.023,8.023,0,0,0-3.568-1.879,7.9,7.9,0,0,0-4.03-.059,8.658,8.658,0,0,0,7.6,1.938Z" transform="translate(-530.259 -77.554)"/>
        <g id="Grupo_1153418" data-name="Grupo 1153418" transform="translate(14.329 83.598)">
          <path id="Trazado_989652" data-name="Trazado 989652" d="M554.259,147.184a16.7,16.7,0,0,1-4.724-.676,16.884,16.884,0,0,1-2.7-1.067.445.445,0,0,1-.2-.6.459.459,0,0,1,.592-.2,15.7,15.7,0,0,0,2.56,1.008,15.991,15.991,0,0,0,6.247.551.418.418,0,0,1,.486.391.436.436,0,0,1-.391.486A16.691,16.691,0,0,1,554.259,147.184Z" transform="translate(-546.59 -144.601)"/>
        </g>
        <path id="Trazado_989653" data-name="Trazado 989653" d="M561.4,146.384c2.086,1.583,3.147,2.383,3.366,3.728.581,3.556-4.99,9.216-10.651,8.345-5.37-.824-9.252-7.3-7.6-11.6,1.168-3.046,4.73-4.03,4.955-4.09C555.312,141.767,558.678,144.316,561.4,146.384Z" transform="translate(-534.492 -71.156)" fill="#e8493d"/>
        <g id="Grupo_1153419" data-name="Grupo 1153419" transform="translate(9.047 73.488)">
          <path id="Trazado_989654" data-name="Trazado 989654" d="M562.977,149.614a27.3,27.3,0,0,1-5.648-.581,27.878,27.878,0,0,1-11.463-5.352.442.442,0,0,1-.071-.622.458.458,0,0,1,.628-.071,26.743,26.743,0,0,0,21.835,5.222.447.447,0,0,1,.522.35.44.44,0,0,1-.35.522A27.931,27.931,0,0,1,562.977,149.614Z" transform="translate(-545.698 -142.895)"/>
        </g>
      </g>
      <path id="Trazado_989655" data-name="Trazado 989655" d="M662.223,306.452H554.642q-3.814-29.41-7.622-58.819a22.667,22.667,0,0,1-7.1-9.768c-3.266-9.027-.065-19.885,7.93-28.088a118.094,118.094,0,0,0,10.271-10.313,121.16,121.16,0,0,0,22.072-36.694q3.849-3.2,7.7-6.407a38.89,38.89,0,0,0,13.661,5.808c19.393,4.048,35.23-8.8,37.885-11.018l11.036,9.1c-2.78,9.2-11.339,41.649,5.53,72.949a85.123,85.123,0,0,0,17.319,22.2Q667.767,280.931,662.223,306.452Z" transform="translate(-443.233 -18.786)"/>
      <path id="Trazado_989656" data-name="Trazado 989656" d="M569.187,150.519q-6.063.427-12.138.859a286.986,286.986,0,0,0-4.172,106.75c1.618,10.586-2.7,32.794,10.989,46.224a33.816,33.816,0,0,0,6.97,5.228q10.846.062,21.7.13a13.892,13.892,0,0,0,1.339-1.019,14.788,14.788,0,0,0,3.935-5.465,398.433,398.433,0,0,0-8.007-44.221c-8.878-36.866-18.676-56.122-20.649-91.269A148.869,148.869,0,0,1,569.187,150.519Z" transform="translate(-388.799 -21.915)" fill="#ff7866"/>
      <path id="Trazado_989657" data-name="Trazado 989657" d="M552.1,285.315q15.825,2.2,31.656,4.4a371.089,371.089,0,0,0,35.7-69.162c4.344-11.166,7.906-21.924,10.834-32.13,4.036-18.972-5.151-33.351-13.324-34.394-7.249-.925-17.419,8.167-21.278,22.73Q573.89,231.033,552.1,285.315Z" transform="translate(-376.978 -4.951)" fill="#ff7866"/>
      <g id="Grupo_1153422" data-name="Grupo 1153422" transform="translate(119.335 190.981)">
        <g id="Grupo_1153421" data-name="Grupo 1153421" transform="translate(0 0)">
          <rect id="Rectángulo_409545" data-name="Rectángulo 409545" width="1.737" height="3.989" transform="translate(35.564 89.479) rotate(-20.236)" fill="#fedd4d"/>
          <rect id="Rectángulo_409546" data-name="Rectángulo 409546" width="10.876" height="84.341" transform="translate(0 5.782) rotate(-20.236)" fill="#f17cf3"/>
          <rect id="Rectángulo_409547" data-name="Rectángulo 409547" width="8.547" height="2.661" transform="matrix(0.938, -0.346, 0.346, 0.938, 0.061, 2.955)" fill="#f17cf3"/>
          <rect id="Rectángulo_409548" data-name="Rectángulo 409548" width="10.876" height="56.045" transform="translate(0.003 5.779) rotate(-20.236)" fill="#fff"/>
          <path id="Trazado_989658" data-name="Trazado 989658" d="M556.327,180.125l-5.156,1.9q-1.724-2-3.455-3.995l8.8-3.242C556.451,176.569,556.392,178.347,556.327,180.125Z" transform="translate(-517.927 -93.309)" fill="#fedd4d"/>
          <rect id="Rectángulo_409549" data-name="Rectángulo 409549" width="3.568" height="1.897" transform="matrix(0.938, -0.346, 0.346, 0.938, 34.094, 88.377)" fill="#fedd4d"/>
        </g>
        <path id="Trazado_989659" data-name="Trazado 989659" d="M551.333,165.146a4.107,4.107,0,1,1-5.275-2.43A4.11,4.11,0,0,1,551.333,165.146Z" transform="translate(-539.314 -154.065)" fill="#fedd4d"/>
      </g>
      <path id="Trazado_989660" data-name="Trazado 989660" d="M639.909,209.033l18.445.765q4.072-.569,8.144-1.144-1.209-8.775-2.418-17.556-11.575-5.912-23.151-11.83-11.549,5.992-23.086,11.984c-11.143-2.229-23.145-5.091-35.817-8.784-12.411-3.621-23.856-7.569-34.269-11.593A69.7,69.7,0,0,0,530.005,200.2a65.094,65.094,0,0,0-2,9.1c14.207.213,25.711.119,33.292,0,20.507-.314,52.3-1.381,69.707-.64C631.884,208.689,635.327,208.843,639.909,209.033Z" transform="translate(-495.688 78.379)" fill="#ff7866"/>
      <g id="Grupo_1153435" data-name="Grupo 1153435" transform="translate(240.737 178.101)">
        <g id="Grupo_1153424" data-name="Grupo 1153424" transform="translate(14.221 3.911)">
          <g id="Grupo_1153423" data-name="Grupo 1153423" transform="translate(0 0)">
            <rect id="Rectángulo_409550" data-name="Rectángulo 409550" width="1.5" height="3.449" transform="matrix(0.999, -0.03, 0.03, 0.999, 6.282, 80.671)" fill="#fedd4d"/>
            <rect id="Rectángulo_409551" data-name="Rectángulo 409551" width="9.4" height="72.89" transform="matrix(0.999, -0.03, 0.03, 0.999, 0, 2.71)" fill="#f17cf3"/>
            <rect id="Rectángulo_409552" data-name="Rectángulo 409552" width="7.385" height="2.3" transform="matrix(0.999, -0.03, 0.03, 0.999, 0.977, 0.222)" fill="#f17cf3"/>
            <rect id="Rectángulo_409553" data-name="Rectángulo 409553" width="9.4" height="48.435" transform="matrix(0.999, -0.03, 0.03, 0.999, 0.001, 2.711)" fill="#fff"/>
            <path id="Trazado_989661" data-name="Trazado 989661" d="M572.567,176.541l-4.748.142c-.575-1.4-1.156-2.815-1.737-4.22l8.1-.243Z" transform="translate(-563.053 -97.006)" fill="#fedd4d"/>
            <rect id="Rectángulo_409554" data-name="Rectángulo 409554" width="3.082" height="1.642" transform="translate(5.407 79.614) rotate(-1.719)" fill="#fedd4d"/>
          </g>
          <path id="Trazado_989662" data-name="Trazado 989662" d="M572.939,164.12a3.552,3.552,0,1,1-3.657-3.444A3.55,3.55,0,0,1,572.939,164.12Z" transform="translate(-564.267 -153.889)" fill="#fedd4d"/>
        </g>
        <g id="Grupo_1153426" data-name="Grupo 1153426" transform="translate(22.562 0)">
          <g id="Grupo_1153425" data-name="Grupo 1153425" transform="translate(0 0)">
            <rect id="Rectángulo_409555" data-name="Rectángulo 409555" width="1.5" height="3.449" transform="translate(3.521 80.921) rotate(5.083)" fill="#fedd4d"/>
            <rect id="Rectángulo_409556" data-name="Rectángulo 409556" width="9.4" height="72.89" transform="translate(6.473 2.169) rotate(5.095)" fill="#f17cf3"/>
            <rect id="Rectángulo_409557" data-name="Rectángulo 409557" width="7.385" height="2.3" transform="translate(7.663 0) rotate(5.095)" fill="#f17cf3"/>
            <rect id="Rectángulo_409558" data-name="Rectángulo 409558" width="9.4" height="48.435" transform="translate(6.464 2.186) rotate(5.095)" fill="#f17cf3"/>
            <path id="Trazado_989663" data-name="Trazado 989663" d="M573.055,176.348c-1.576-.142-3.153-.279-4.729-.421-.409-1.464-.812-2.934-1.221-4.4l8.073.723Q574.119,174.3,573.055,176.348Z" transform="translate(-566.359 -96.5)" fill="#fedd4d"/>
            <rect id="Rectángulo_409559" data-name="Rectángulo 409559" width="3.082" height="1.642" transform="translate(2.6 79.549) rotate(5.101)" fill="#fedd4d"/>
          </g>
          <path id="Trazado_989664" data-name="Trazado 989664" d="M575.242,163.93a3.547,3.547,0,1,1-3.219-3.852A3.544,3.544,0,0,1,575.242,163.93Z" transform="translate(-561.148 -152.995)" fill="#fedd4d"/>
        </g>
        <g id="Grupo_1153428" data-name="Grupo 1153428" transform="translate(0 7.946)">
          <g id="Grupo_1153427" data-name="Grupo 1153427" transform="translate(0 0)">
            <rect id="Rectángulo_409560" data-name="Rectángulo 409560" width="1.5" height="3.449" transform="matrix(0.932, -0.362, 0.362, 0.932, 31.717, 76.563)" fill="#fedd4d"/>
            <rect id="Rectángulo_409561" data-name="Rectángulo 409561" width="9.4" height="72.89" transform="translate(0.019 5.205) rotate(-21.192)" fill="#f17cf3"/>
            <rect id="Rectángulo_409562" data-name="Rectángulo 409562" width="7.385" height="2.3" transform="translate(0.12 2.67) rotate(-21.192)" fill="#f17cf3"/>
            <rect id="Rectángulo_409563" data-name="Rectángulo 409563" width="9.4" height="48.435" transform="translate(0 4.653) rotate(-21.192)" fill="#fedd4d"/>
            <path id="Trazado_989665" data-name="Trazado 989665" d="M575.173,176.6q-2.214.854-4.427,1.719c-1.014-1.132-2.027-2.27-3.041-3.4l7.557-2.928Q575.217,174.3,575.173,176.6Z" transform="translate(-540.84 -102.16)" fill="#fedd4d"/>
            <rect id="Rectángulo_409564" data-name="Rectángulo 409564" width="3.082" height="1.642" transform="translate(30.745 75.753) rotate(-21.192)" fill="#fedd4d"/>
          </g>
          <path id="Trazado_989666" data-name="Trazado 989666" d="M570.64,163.681a3.55,3.55,0,1,1-4.594-2.027A3.552,3.552,0,0,1,570.64,163.681Z" transform="translate(-560.193 -154.296)" fill="#fedd4d"/>
        </g>
        <g id="Grupo_1153430" data-name="Grupo 1153430" transform="translate(34.031 6.157)">
          <g id="Grupo_1153429" data-name="Grupo 1153429" transform="translate(0 0)">
            <rect id="Rectángulo_409565" data-name="Rectángulo 409565" width="1.5" height="3.449" transform="translate(3.579 80.778) rotate(5.083)" fill="#fedd4d"/>
            <rect id="Rectángulo_409566" data-name="Rectángulo 409566" width="9.4" height="72.89" transform="translate(6.473 2.169) rotate(5.095)" fill="#f17cf3"/>
            <rect id="Rectángulo_409567" data-name="Rectángulo 409567" width="7.385" height="2.3" transform="translate(7.663 0) rotate(5.095)" fill="#f17cf3"/>
            <rect id="Rectángulo_409568" data-name="Rectángulo 409568" width="9.4" height="48.435" transform="translate(6.472 2.168) rotate(5.095)" fill="#3c98e7"/>
            <path id="Trazado_989667" data-name="Trazado 989667" d="M574.99,177.387c-1.577-.142-3.153-.279-4.73-.421-.409-1.464-.812-2.928-1.221-4.4l8.073.723Q576.054,175.336,574.99,177.387Z" transform="translate(-568.293 -97.538)" fill="#fedd4d"/>
            <rect id="Rectángulo_409569" data-name="Rectángulo 409569" width="3.082" height="1.642" transform="translate(2.602 79.549) rotate(5.101)" fill="#fedd4d"/>
          </g>
          <path id="Trazado_989668" data-name="Trazado 989668" d="M577.182,164.969a3.55,3.55,0,1,1-3.219-3.853A3.546,3.546,0,0,1,577.182,164.969Z" transform="translate(-563.088 -154.033)" fill="#fedd4d"/>
        </g>
        <g id="Grupo_1153432" data-name="Grupo 1153432" transform="translate(52.956 6.713)">
          <g id="Grupo_1153431" data-name="Grupo 1153431" transform="translate(0 0)">
            <rect id="Rectángulo_409570" data-name="Rectángulo 409570" width="1.5" height="3.449" transform="translate(2.604 79.769) rotate(11.73)" fill="#fedd4d"/>
            <rect id="Rectángulo_409571" data-name="Rectángulo 409571" width="9.4" height="72.89" transform="translate(14.818 2.137) rotate(11.73)" fill="#f17cf3"/>
            <rect id="Rectángulo_409572" data-name="Rectángulo 409572" width="7.385" height="2.3" transform="translate(16.234 0) rotate(11.725)" fill="#f17cf3"/>
            <rect id="Rectángulo_409573" data-name="Rectángulo 409573" width="9.4" height="48.435" transform="translate(14.811 1.99) rotate(11.725)" fill="#f17cf3"/>
            <path id="Trazado_989669" data-name="Trazado 989669" d="M577.579,177.9c-1.547-.32-3.1-.646-4.647-.966-.237-1.5-.468-3-.705-4.51l7.936,1.648Q578.865,175.992,577.579,177.9Z" transform="translate(-571.517 -98.804)" fill="#fedd4d"/>
            <rect id="Rectángulo_409574" data-name="Rectángulo 409574" width="3.082" height="1.642" transform="translate(2.079 78.111) rotate(11.719)" fill="#fedd4d"/>
          </g>
          <path id="Trazado_989670" data-name="Trazado 989670" d="M581.553,165.493a3.55,3.55,0,1,1-2.756-4.2A3.549,3.549,0,0,1,581.553,165.493Z" transform="translate(-560.187 -153.993)" fill="#fedd4d"/>
        </g>
        <g id="Grupo_1153434" data-name="Grupo 1153434" transform="translate(51.806 0.166)">
          <g id="Grupo_1153433" data-name="Grupo 1153433">
            <rect id="Rectángulo_409575" data-name="Rectángulo 409575" width="1.5" height="3.449" transform="translate(3.852 80.69)" fill="#fedd4d"/>
            <rect id="Rectángulo_409576" data-name="Rectángulo 409576" width="9.4" height="72.89" transform="translate(0 2.3)" fill="#f17cf3"/>
            <rect id="Rectángulo_409577" data-name="Rectángulo 409577" width="7.385" height="2.3" transform="translate(1.001)" fill="#f17cf3"/>
            <rect id="Rectángulo_409578" data-name="Rectángulo 409578" width="9.4" height="48.435" transform="translate(0 2.3)" fill="#fff"/>
            <path id="Trazado_989671" data-name="Trazado 989671" d="M578.375,175.857h-4.748c-.533-1.423-1.073-2.845-1.606-4.273h8.1C579.543,173.012,578.957,174.435,578.375,175.857Z" transform="translate(-571.376 -96.394)" fill="#fedd4d"/>
            <rect id="Rectángulo_409579" data-name="Rectángulo 409579" width="3.082" height="1.642" transform="translate(3.064 79.463)" fill="#fedd4d"/>
          </g>
          <path id="Trazado_989672" data-name="Trazado 989672" d="M579.206,163.564a3.55,3.55,0,1,1-3.55-3.55A3.549,3.549,0,0,1,579.206,163.564Z" transform="translate(-570.962 -153.399)" fill="#fedd4d"/>
        </g>
        <path id="Trazado_989673" data-name="Trazado 989673" d="M607.356,228.679H583.726a19,19,0,0,1-19-19V167.039h61.641v42.638A19.008,19.008,0,0,1,607.356,228.679Z" transform="translate(-555.527 -118.622)"/>
      </g>
      <g id="Grupo_1153436" data-name="Grupo 1153436" transform="translate(0 287.228)">
        <path id="Trazado_989674" data-name="Trazado 989674" d="M839.2,189.3H523a.448.448,0,0,1-.445-.444V177.727a.448.448,0,0,1,.445-.445H839.2a.448.448,0,0,1,.445.445v11.131A.448.448,0,0,1,839.2,189.3Zm-315.753-.895H838.758V178.165H523.45Z" transform="translate(-522.555 -177.282)"/>
      </g>
      <g id="Grupo_1153437" data-name="Grupo 1153437" transform="translate(56.507 254.95)">
        <path id="Trazado_989675" data-name="Trazado 989675" d="M561.914,178.178a48.713,48.713,0,0,0-10.84-4.113,46.319,46.319,0,0,0-18.468-.735.467.467,0,0,1-.51-.373.443.443,0,0,1,.374-.51,47.015,47.015,0,0,1,29.658,4.89.447.447,0,0,1-.213.841Z" transform="translate(-532.089 -171.836)"/>
      </g>
      <g id="Grupo_1153438" data-name="Grupo 1153438" transform="translate(198.062 221.657)">
        <path id="Trazado_989676" data-name="Trazado 989676" d="M558.1,197.75a.447.447,0,0,1-.445-.456c.136-5.471.036-10.977-.3-16.382-.284-4.742-.753-9.507-1.387-14.177a.441.441,0,0,1,.379-.5c.219-.083.468.136.5.379.634,4.688,1.114,9.477,1.4,14.231.326,5.429.421,10.971.3,16.459A.444.444,0,0,1,558.1,197.75Z" transform="translate(-555.972 -166.219)"/>
      </g>
      <g id="Grupo_1153439" data-name="Grupo 1153439" transform="translate(206.551 175.224)">
        <path id="Trazado_989677" data-name="Trazado 989677" d="M557.847,184.578c-.409-.142-.51-.409-.4-.634l11.842-25.314a.482.482,0,0,1,.6-.213.453.453,0,0,1,.213.6l-11.842,25.314A.468.468,0,0,1,557.847,184.578Z" transform="translate(-557.404 -158.385)"/>
      </g>
      <g id="Grupo_1153446" data-name="Grupo 1153446" transform="translate(146.08 86.685)">
        <g id="Grupo_1153444" data-name="Grupo 1153444" transform="translate(0.598 0.437)">
          <path id="Trazado_989678" data-name="Trazado 989678" d="M565.3,182.888c-.51-5.708-1.268-11.777-2.365-18.142q-.943-5.5-2.081-10.586c-6.448-.071-9.928-2.294-11.528-3.592-.474-.385-2.335-1.9-1.986-2.738.314-.759,2.181-.462,5.951-.759,1.713-.136,3.1-.332,3.971-.474q5.432,2.036,10.87,4.066Z" transform="translate(-547.303 -128.36)" fill="#ff7866"/>
          <path id="Trazado_989679" data-name="Trazado 989679" d="M548.942,151.809a4.467,4.467,0,0,1,2.5-4.345,4.571,4.571,0,0,1,3.876.19,3.822,3.822,0,0,1,1.322-1.369,4.661,4.661,0,0,1,3.354-.332,37.384,37.384,0,0,1,6.946,2.175l7.794,2.649q.107,16.509.219,33.013-8.854,1.547-17.7,3.088Q553.1,169.338,548.942,151.809Z" transform="translate(-539.256 -132.339)" fill="#ff7866"/>
          <path id="Trazado_989680" data-name="Trazado 989680" d="M565.908,193.7q3.449-14.367,6.9-28.728L569.5,154.2a55.377,55.377,0,0,1-15.12-10.68c-1.5,2.863-1.316,4.6-.853,5.672.818,1.885,2.667,2.175,5.1,4.629a13.963,13.963,0,0,1,2.738,3.971,48.714,48.714,0,0,1-.664,13.8c-2.869,14.776-11.783,22.736-9.542,25.516C552.151,198.321,555.364,198.647,565.908,193.7Z" transform="translate(-530.048 -143.52)" fill="#ff7866"/>
          <path id="Trazado_989681" data-name="Trazado 989681" d="M551.285,147.315c-.279.344-4.6,5.684-3.4,7.089.836.978,4.333.036,6.377-2.128a7.419,7.419,0,0,0,1.654-2.833Q553.6,148.385,551.285,147.315Z" transform="translate(-545.474 -124.822)" fill="#ff7866"/>
          <g id="Grupo_1153440" data-name="Grupo 1153440" transform="translate(9.979 17.794)">
            <path id="Trazado_989682" data-name="Trazado 989682" d="M559.771,152.08c-.184-.041-10.526-4.706-10.526-4.706a.45.45,0,0,1-.219-.593.445.445,0,0,1,.593-.219l10.342,4.664a.45.45,0,0,1,.219.593A.47.47,0,0,1,559.771,152.08Z" transform="translate(-548.986 -146.522)"/>
          </g>
          <g id="Grupo_1153441" data-name="Grupo 1153441" transform="translate(4.274 23.477)">
            <path id="Trazado_989683" data-name="Trazado 989683" d="M553.578,149.911c-.124-.018-5.233-1.559-5.233-1.559a.454.454,0,0,1-.3-.557.487.487,0,0,1,.557-.3l5.1,1.541a.454.454,0,0,1,.3.557A.462.462,0,0,1,553.578,149.911Z" transform="translate(-548.024 -147.481)"/>
          </g>
          <g id="Grupo_1153442" data-name="Grupo 1153442" transform="translate(16.282 14.837)">
            <path id="Trazado_989684" data-name="Trazado 989684" d="M561.9,152.2c-.184-.042-11.587-5.328-11.587-5.328a.446.446,0,0,1-.219-.593.46.46,0,0,1,.593-.219l11.4,5.293a.446.446,0,0,1,.219.593A.464.464,0,0,1,561.9,152.2Z" transform="translate(-550.05 -146.023)"/>
          </g>
          <g id="Grupo_1153443" data-name="Grupo 1153443" transform="translate(31.026 13.003)">
            <path id="Trazado_989685" data-name="Trazado 989685" d="M552.98,147.178a.444.444,0,0,1-.2-.842l1.162-.575a.444.444,0,1,1,.4.794l-1.162.575A.5.5,0,0,1,552.98,147.178Z" transform="translate(-552.537 -145.714)"/>
          </g>
        </g>
        <g id="Grupo_1153445" data-name="Grupo 1153445">
          <path id="Trazado_989686" data-name="Trazado 989686" d="M565.642,198.862a.447.447,0,0,1-.433-.344l-6.792-28.651c-.184-.012-.308-.024-.427-.036a6.821,6.821,0,0,1-1.233,1.814,8.559,8.559,0,0,1-5.542,2.649,1.933,1.933,0,0,1-1.5-.545c-.291-.344-1.15-1.351,2.021-5.832a15.606,15.606,0,0,1-2.341-1.476c-1.748-1.4-2.442-2.472-2.116-3.254s1.31-.812,3.277-.877c.83-.024,1.838-.059,3.052-.154,1.186-.095,2.324-.219,3.467-.391a4.76,4.76,0,0,1,2.578-3.153,4.838,4.838,0,0,1,3.894.024,4.263,4.263,0,0,1,1.256-1.185,5.073,5.073,0,0,1,3.669-.379,37.3,37.3,0,0,1,7.041,2.2c1.037.35,2.1.705,3.165,1.073-.035-.747-.089-1.434-.136-2.057a13.729,13.729,0,0,0-2.62-3.781,18.55,18.55,0,0,0-2.732-2.223,5.972,5.972,0,0,1-2.46-2.543c-.7-1.588-.4-3.627.865-6.057a.443.443,0,0,1,.326-.231.387.387,0,0,1,.38.124,54.577,54.577,0,0,0,8.256,6.751,53.848,53.848,0,0,0,6.745,3.841.41.41,0,0,1,.231.273l3.307,10.763c.012.237-6.881,28.971-6.881,28.971a.457.457,0,0,1-.285.314.512.512,0,0,1-.646-.225c-.083-.207-.065-.409.119-.51l6.81-28.4-3.212-10.467a56.158,56.158,0,0,1-6.68-3.823,55.359,55.359,0,0,1-7.942-6.431c-.913,1.932-1.1,3.527-.575,4.747a5.294,5.294,0,0,0,2.157,2.169,18.8,18.8,0,0,1,2.851,2.329,14.511,14.511,0,0,1,2.827,4.09c.124,1.043.184,2,.225,2.981a.482.482,0,0,1-.178.379.526.526,0,0,1-.409.065q-1.912-.649-3.817-1.3a37.7,37.7,0,0,0-6.893-2.163,4.286,4.286,0,0,0-3.041.279,3.437,3.437,0,0,0-1.168,1.215.443.443,0,0,1-.6.166,4.089,4.089,0,0,0-3.473-.172,3.9,3.9,0,0,0-2.146,2.827.441.441,0,0,1-.368.356c-1.268.2-2.519.35-3.829.451-1.227.095-2.252.124-3.088.154-1.168.041-2.377.077-2.483.326,0,.006-.2.569,1.855,2.223a14.847,14.847,0,0,0,2.643,1.606.478.478,0,0,1,.237.3.437.437,0,0,1-.077.362c-2.305,3.159-2.715,4.753-2.371,5.156a1.1,1.1,0,0,0,.759.231,7.727,7.727,0,0,0,4.961-2.371,6.327,6.327,0,0,0,1.209-1.861.461.461,0,0,1,.474-.261c.19.036.409.047.628.065.136.012.273.018.4.036a.434.434,0,0,1,.385.338l6.869,28.965a.448.448,0,0,1-.332.539A.835.835,0,0,0,565.642,198.862Z" transform="translate(-547.202 -143.446)"/>
        </g>
      </g>
      <path id="Trazado_989687" data-name="Trazado 989687" d="M605.177,147.49c.581-1.292-26.393-23.963-44.245-16.275-15.043,6.478-23.026,34.246-13,66.483a133.953,133.953,0,0,0,5.038-15.031c.889-3.266,1.156-4.73,2.59-10.751,2.478-10.384,3.716-15.576,4.326-16.649,5.874-10.248,21.159-11.564,23.53-11.765C596.168,142.4,604.857,148.207,605.177,147.49Z" transform="translate(-419.486 -124.847)" fill="#3ad1e9"/>
      <path id="Trazado_989688" data-name="Trazado 989688" d="M555.6,133.076c-6.538,4.267,3.141,36.729,19.227,43.936,1.92.859,7.735,3.467,11.255.9,2.857-2.08,2.821-6.561,2.809-8.286C588.78,153.495,562.412,128.631,555.6,133.076Z" transform="translate(-369.91 -110.434)" fill="#3ad1e9"/>
      <path id="Trazado_989689" data-name="Trazado 989689" d="M602.713,188.116c-4.623.207-5.05-12.4-15.321-25.113-17.532-21.716-38.276-25.812-36.96-30.388,1.185-4.137,20.72-4.433,36.96,3.538,14.746,7.237,22.582,19.227,25.972,25.332C609.417,183.22,605.57,187.985,602.713,188.116Z" transform="translate(-385.502 -124.186)" fill="#3ad1e9"/>
      <path id="Trazado_989690" data-name="Trazado 989690" d="M599.82,161.6a20.359,20.359,0,1,1-20.359-20.359A20.36,20.36,0,0,1,599.82,161.6Z" transform="translate(-342.489 -67.632)" fill="#3ad1e9"/>
      <g id="Grupo_1153447" data-name="Grupo 1153447" transform="translate(234.13 71.084)">
        <path id="Trazado_989691" data-name="Trazado 989691" d="M562.682,142.568c3.556,1.061,7.112,2.116,10.627,3.307a52.975,52.975,0,0,1,9.424,3.787c5.856,3.355,8.606,11.326,8.576,17.727-.018,3.39-.474,6.769-3.005,9.246a21.678,21.678,0,0,1-8.855,4.706c-3.307,1-6.324,1.043-8.724-1.689-1.677-1.9-2.821-4.2-4.552-6.069-.776-.842-2.033.415-1.256,1.257,3,3.248,4.729,8.422,9.744,8.956,2.78.3,5.708-.753,8.221-1.814a20.713,20.713,0,0,0,6.9-4.321c3.781-3.882,3.834-10.372,2.9-15.386-.943-5.062-4.031-11.03-8.482-13.81a46.961,46.961,0,0,0-9.673-4.048c-3.758-1.292-7.575-2.43-11.38-3.562a.888.888,0,0,0-.468,1.713Z" transform="translate(-562.057 -140.814)" fill="#3c98e7"/>
      </g>
      <g id="Grupo_1153448" data-name="Grupo 1153448" transform="translate(217.039 93.554)">
        <path id="Trazado_989692" data-name="Trazado 989692" d="M559.2,145.463c-.124,6.431.124,13.638,3.366,19.387,1.245,2.2,3.319,4.339,6.039,4.261,2.993-.089,5.969-2.448,8.055-4.41,2.329-2.193,5.038-5.388,4.1-8.819a.889.889,0,0,0-1.713.474c.883,3.224-2.792,6.543-5.062,8.31a12.92,12.92,0,0,1-4.629,2.572,4.221,4.221,0,0,1-4.178-1.707c-2.122-2.477-3.011-6.093-3.568-9.228a56.218,56.218,0,0,1-.634-10.84.89.89,0,0,0-1.778,0Z" transform="translate(-559.174 -144.605)" fill="#3c98e7"/>
      </g>
      <g id="Grupo_1153449" data-name="Grupo 1153449" transform="translate(127.033)">
        <path id="Trazado_989693" data-name="Trazado 989693" d="M577.344,137.914c-3.651-.486-7.213-3.141-10.36-4.925a35.487,35.487,0,0,0-8.9-3.947c-5.785-1.4-9.614,4.131-11.623,8.843-2.561,6-2.655,12.613-2.347,19.031.284,5.921-.3,13.265,3.384,18.308.669.913,2.21.03,1.535-.895-3.42-4.676-2.839-11.469-3.117-16.981-.308-6.087-.338-12.352,1.9-18.119a18.913,18.913,0,0,1,4.736-7.2c2.958-2.655,6.674-1,9.815.51,4.83,2.317,9.548,6.431,14.971,7.148,1.138.148,1.126-1.63.006-1.778Z" transform="translate(-543.988 -128.821)" fill="#3c98e7"/>
      </g>
      <g id="Grupo_1153450" data-name="Grupo 1153450" transform="translate(182.077 22.33)">
        <path id="Trazado_989694" data-name="Trazado 989694" d="M560.286,133.055a84.665,84.665,0,0,0-6.123,18.338c-.96,5.192-1.825,11.688,1.28,16.341a15.7,15.7,0,0,0,11.481,6.443c6.081.616,11.978-1.831,17.242-4.611,1.014-.533.112-2.069-.9-1.535-4.831,2.549-10.2,4.831-15.789,4.416-4.368-.326-8.932-2.56-11.054-6.537-2.483-4.653-1.215-11.321-.1-16.2a89.007,89.007,0,0,1,5.5-15.76c.445-1.037-1.085-1.944-1.541-.895Z" transform="translate(-553.275 -132.588)" fill="#3c98e7"/>
      </g>
    </g>
    <g id="Grupo_1153452" data-name="Grupo 1153452" transform="translate(587.492 245.307)">
      <path id="Trazado_989695" data-name="Trazado 989695" d="M532.687,146.55c.083,2.057.237,4.113.462,6.158a2.388,2.388,0,0,0,.652,1.571,2.267,2.267,0,0,0,1.571.652,2.221,2.221,0,0,0,1.571-.652,2.167,2.167,0,0,0,.652-1.571c-.219-2.045-.373-4.1-.462-6.158a2.321,2.321,0,0,0-.652-1.571,2.221,2.221,0,0,0-3.793,1.571Z" transform="translate(-532.686 -144.326)"/>
    </g>
    <g id="Grupo_1153453" data-name="Grupo 1153453" transform="translate(580.213 254.848)">
      <path id="Trazado_989696" data-name="Trazado 989696" d="M531.537,148.748a33.029,33.029,0,0,0,1.049,4.9,2.223,2.223,0,0,0,2.732,1.553,2.251,2.251,0,0,0,1.328-1.019,2.275,2.275,0,0,0,.225-1.713,32.729,32.729,0,0,1-1.049-4.9,2.206,2.206,0,0,0-1.019-1.328,2.275,2.275,0,0,0-1.713-.225,2.251,2.251,0,0,0-1.328,1.019c-.077.178-.148.356-.225.533a2.215,2.215,0,0,0,0,1.18Z" transform="translate(-531.457 -145.936)"/>
    </g>
    <g id="Grupo_1153454" data-name="Grupo 1153454" transform="translate(589.242 259.236)">
      <path id="Trazado_989697" data-name="Trazado 989697" d="M532.981,148.9a17.786,17.786,0,0,0,.581,4.137,2.223,2.223,0,0,0,2.733,1.553,2.251,2.251,0,0,0,1.327-1.019,2.36,2.36,0,0,0,.226-1.713,16.468,16.468,0,0,1-.373-1.861c.03.2.053.391.077.593a16.088,16.088,0,0,1-.13-1.689,2.293,2.293,0,0,0-.652-1.571,2.267,2.267,0,0,0-1.571-.652,2.221,2.221,0,0,0-1.571.652,2.275,2.275,0,0,0-.646,1.571Z" transform="translate(-532.981 -146.676)"/>
    </g>
    <g id="Grupo_1153455" data-name="Grupo 1153455" transform="translate(601.327 261.799)">
      <path id="Trazado_989698" data-name="Trazado 989698" d="M535.311,150.45c.16.308.3.622.438.942-.077-.178-.148-.356-.225-.533a13.866,13.866,0,0,1,.794,2.6,2.222,2.222,0,0,0,2.732,1.553,2.229,2.229,0,0,0,1.328-1.019c.077-.178.148-.356.225-.533a2.213,2.213,0,0,0,0-1.179,15.6,15.6,0,0,0-1.458-4.078,2.222,2.222,0,0,0-4.06.533,2.436,2.436,0,0,0,.226,1.713Z" transform="translate(-535.02 -147.108)"/>
    </g>
    <g id="Grupo_1153456" data-name="Grupo 1153456" transform="translate(602.41 316.825)">
      <path id="Trazado_989699" data-name="Trazado 989699" d="M541.636,165.571a70.294,70.294,0,0,0-2.051-7.533,2.222,2.222,0,0,0-4.286,1.179,70.306,70.306,0,0,1,2.051,7.533,2.236,2.236,0,0,0,2.732,1.553,2.27,2.27,0,0,0,1.553-2.732Z" transform="translate(-535.203 -156.392)"/>
    </g>
    <g id="Grupo_1153457" data-name="Grupo 1153457" transform="translate(606.786 303.941)">
      <path id="Trazado_989700" data-name="Trazado 989700" d="M543.533,164.807c-.172-.385-.344-.771-.5-1.156.2.5-.047-.119-.089-.219-.077-.2-.16-.391-.237-.587-.3-.753-.593-1.511-.865-2.27q-.845-2.329-1.529-4.712a2.222,2.222,0,0,0-4.285,1.179,78.992,78.992,0,0,0,3.674,10,2.225,2.225,0,0,0,3.041.794,2.282,2.282,0,0,0,.794-3.035Z" transform="translate(-535.941 -154.219)"/>
    </g>
    <g id="Grupo_1153458" data-name="Grupo 1153458" transform="translate(610.767 294.646)">
      <path id="Trazado_989701" data-name="Trazado 989701" d="M536.9,155.986a17.889,17.889,0,0,1,1.025,2.051c-.077-.178-.148-.356-.225-.533a18.443,18.443,0,0,1,.753,2.169A2.312,2.312,0,0,0,539.477,161a2.275,2.275,0,0,0,1.713.225,2.25,2.25,0,0,0,1.328-1.019,2.332,2.332,0,0,0,.226-1.713,20.037,20.037,0,0,0-2-4.747,2.291,2.291,0,0,0-1.327-1.019,2.223,2.223,0,0,0-2.733,1.553,2.35,2.35,0,0,0,.226,1.707Z" transform="translate(-536.613 -152.65)"/>
    </g>
    <g id="Grupo_1153459" data-name="Grupo 1153459" transform="translate(716.276 141.527)">
      <path id="Trazado_989702" data-name="Trazado 989702" d="M554.692,130.159q1.867,3.734,3.491,7.581a2.229,2.229,0,0,0,1.328,1.019,2.275,2.275,0,0,0,1.713-.225,2.222,2.222,0,0,0,1.019-1.328,2.6,2.6,0,0,0-.225-1.713q-1.627-3.841-3.491-7.581a2.234,2.234,0,0,0-3.04-.794,2.281,2.281,0,0,0-.794,3.041Z" transform="translate(-554.414 -126.816)"/>
    </g>
    <g id="Grupo_1153460" data-name="Grupo 1153460" transform="translate(703.36 135.33)">
      <path id="Trazado_989703" data-name="Trazado 989703" d="M552.537,129.111a33.53,33.53,0,0,0,2.573,4.789,2.353,2.353,0,0,0,1.327,1.019,2.222,2.222,0,0,0,2.507-3.266,33.846,33.846,0,0,1-2.572-4.789,2.226,2.226,0,0,0-1.328-1.019,2.275,2.275,0,0,0-1.713.225,2.241,2.241,0,0,0-1.019,1.328c-.03.2-.053.4-.077.593a2.209,2.209,0,0,0,.3,1.12Z" transform="translate(-552.235 -125.77)"/>
    </g>
    <g id="Grupo_1153461" data-name="Grupo 1153461" transform="translate(709.82 126.916)">
      <path id="Trazado_989704" data-name="Trazado 989704" d="M553.616,127.7a55.159,55.159,0,0,1,2.578,5.293c-.077-.178-.148-.356-.225-.533.083.207.172.409.255.616a2.427,2.427,0,0,0,1.019,1.328,2.276,2.276,0,0,0,1.713.225,2.25,2.25,0,0,0,1.328-1.019,2.154,2.154,0,0,0,.225-1.713,58.579,58.579,0,0,0-3.058-6.437,2.243,2.243,0,0,0-3.04-.8,2.271,2.271,0,0,0-.794,3.041Z" transform="translate(-553.325 -124.351)"/>
    </g>
    <g id="Grupo_1153462" data-name="Grupo 1153462" transform="translate(725.161 133.388)">
      <path id="Trazado_989705" data-name="Trazado 989705" d="M556.184,128.787q2.249,4.756,4.493,9.519a2.226,2.226,0,0,0,3.041.794,2.289,2.289,0,0,0,.8-3.041q-2.249-4.756-4.493-9.519a2.233,2.233,0,0,0-3.041-.8,2.292,2.292,0,0,0-.8,3.046Z" transform="translate(-555.913 -125.443)"/>
    </g>
    <g id="Grupo_1153463" data-name="Grupo 1153463" transform="translate(832.71 283.13)">
      <path id="Trazado_989706" data-name="Trazado 989706" d="M575.938,192.965c-.859-6.057,2.122-12.672,7.593-15.623,1.624-.877,3.61-1.482,5.346-.575,2.347,1.221,1.92,3.947.771,5.891-.729,1.233-2.59,2.638-3.8.853a4.488,4.488,0,0,1-.457-2.24,11.762,11.762,0,0,1,.688-4.339,13.8,13.8,0,0,1,5.465-6.917,12.368,12.368,0,0,1,3.769-1.648c1.12-.273,5.056-.907,5.239,1.168q-1.191,2.107-2.324.652a3.877,3.877,0,0,1-.877-1.772,7.509,7.509,0,0,1-.16-2.442,16.61,16.61,0,0,1,1.683-5.494,28.572,28.572,0,0,1,5.9-8.256c.818-.806-.438-2.063-1.256-1.257a29.513,29.513,0,0,0-7.314,11.4c-1.1,3.207-1.6,8.564,2.312,10.147,2.946,1.191,4.985-2.163,3.207-4.558-2.057-2.762-6.674-1.642-9.281-.45a15.5,15.5,0,0,0-7.592,7.764c-1.162,2.626-2.276,7.326-.083,9.756,2.566,2.851,6.057-.178,7.047-2.821,1.333-3.556-.119-7.332-4.273-7.652-4.232-.332-8.191,3.135-10.437,6.389a17.584,17.584,0,0,0-2.857,12.5c.142,1.126,1.861.646,1.695-.474Z" transform="translate(-574.059 -150.707)"/>
    </g>
    <g id="Grupo_1153464" data-name="Grupo 1153464" transform="translate(620.846 123.83)">
      <path id="Trazado_989707" data-name="Trazado 989707" d="M539.781,152.125A26.555,26.555,0,0,0,544.3,142.9c1.168-3.93,1.707-8.819,4.024-12.287,3.657-5.459,11.919-1.393,14.171,3.272a10.017,10.017,0,0,1,1.037,4.475c-.077.913-.51,3.112-.593-.4-.065-2.732,1.464-5.405,3.183-7.4a16.913,16.913,0,0,1,4.961-4.06c4.084-2.1,7.207.527,9.228,3.983,1.174,2.009,2.288,4.931,1.547,7.32-.972,3.141-3.129,1.227-3.266-.848a8.481,8.481,0,0,1,1.511-4.5c2.6-3.953,7.889-4.836,12.245-5.062,4.433-.231,11.919-1.049,15.452,2.092.853.759,2.116-.492,1.257-1.256-4.3-3.829-12.417-2.964-17.7-2.555-4.747.367-10.01,1.648-12.79,5.885-1.434,2.181-3.7,10.71,1.28,10.378,4.487-.3,4.309-6.626,3.289-9.56-1.624-4.676-6.14-10.224-11.629-8.067-4.593,1.808-9.015,6.49-10.094,11.356-.373,1.7.457,9.382,3.325,5.82,1.114-1.387.587-4.321.213-5.9a11.962,11.962,0,0,0-4.273-6.7c-4.024-3.147-10.847-4.007-13.9.812-4.119,6.508-3.343,14.936-8.274,21.153-.687.9.564,2.163,1.269,1.268Z" transform="translate(-538.313 -123.83)"/>
    </g>
  </g>
</svg>
