<svg xmlns="http://www.w3.org/2000/svg" xmlns:xlink="http://www.w3.org/1999/xlink" width="451.155" height="370.776" viewBox="0 0 451.155 370.776">
  <defs>
    <filter id="Trazado_989708" x="15.599" y="0" width="435.556" height="370.776" filterUnits="userSpaceOnUse">
      <feOffset dy="3" input="SourceAlpha"/>
      <feGaussianBlur stdDeviation="3" result="blur"/>
      <feFlood flood-opacity="0.161"/>
      <feComposite operator="in" in2="blur"/>
      <feComposite in="SourceGraphic"/>
    </filter>
  </defs>
  <g id="_x31_4" transform="translate(0 6)">
    <g transform="matrix(1, 0, 0, 1, 0, -6)" filter="url(#Trazado_989708)">
      <path id="Trazado_989708-2" data-name="Trazado 989708" d="M783.771,448.682c-42.234,31.007-97.826,22.865-174.339,11.051-29.875-4.613-30.3-10.063-105.289-28.46-46.767-11.473-54.411-11.766-63.455-20.324-34.071-32.245-18-115.587,13.6-170.34,51.4-89.065,168.189-144.6,250.314-115.16,5.579,2,65.756,30.174,69.579,65.58.432,4,.614,12.46,5.867,21.595,9.316,16.192,26.346,20.18,33.324,23.992C848.871,256.021,855.362,396.123,783.771,448.682Z" transform="translate(-397.05 -111.51)" fill="#c2f1f8"/>
    </g>
    <path id="Trazado_989709" data-name="Trazado 989709" d="M434.647,121.7a62.169,62.169,0,0,1,0,124.337Z" transform="translate(-124.05 -99.342)" fill="#a530fe"/>
    <g id="Grupo_1153465" data-name="Grupo 1153465" transform="translate(299.199 20.907)">
      <path id="Trazado_989710" data-name="Trazado 989710" d="M437.033,246.574a62.574,62.574,0,0,0,0-125.149.4.4,0,0,0-.4.4V246.168A.4.4,0,0,0,437.033,246.574Zm.406-124.343a61.77,61.77,0,0,1,0,123.536Z" transform="translate(-436.632 -121.425)"/>
    </g>
    <g id="Grupo_1153466" data-name="Grupo 1153466" transform="translate(340.771 0.444)">
      <path id="Trazado_989711" data-name="Trazado 989711" d="M508.18,200.693A83.2,83.2,0,0,1,425.073,283.8V269.274a68.578,68.578,0,1,0,0-137.155V117.592A83.194,83.194,0,0,1,508.18,200.693Z" transform="translate(-425.073 -117.592)" fill="#3ad1e9"/>
    </g>
    <path id="Trazado_989712" data-name="Trazado 989712" d="M535.766,163.039,469.8,201.125V124.953Z" transform="translate(-350.649 -85.211)" fill="#3c98e7"/>
    <g id="Grupo_1153467" data-name="Grupo 1153467" transform="translate(102.123 38.946)">
      <path id="Trazado_989713" data-name="Trazado 989713" d="M473.235,201.771c.2-.053,66.168-38.139,66.168-38.139a.415.415,0,0,0,.2-.347.409.409,0,0,0-.2-.347l-65.97-38.086a.43.43,0,0,0-.4,0,.415.415,0,0,0-.2.347v76.172a.408.408,0,0,0,.2.347A.439.439,0,0,0,473.235,201.771ZM538.4,163.285l-64.763,37.392V125.893Z" transform="translate(-472.835 -124.804)"/>
    </g>
    <path id="Trazado_992306" data-name="Trazado 992306" d="M68.934,0A68.934,68.934,0,1,1,0,68.934,68.934,68.934,0,0,1,68.934,0Z" transform="translate(22.844 267.133) rotate(-99.538)" fill="#15da7e"/>
    <path id="Trazado_989714" data-name="Trazado 989714" d="M475.189,185.568,423.1,215.646V155.495Z" transform="translate(-40.778 47.3)" fill="#a530fe"/>
    <g id="Grupo_1153489" data-name="Grupo 1153489" transform="translate(19.186 1.201)">
      <g id="Grupo_1153482" data-name="Grupo 1153482" transform="translate(33.735)">
        <path id="Trazado_989715" data-name="Trazado 989715" d="M508.45,301.944l-32.475-16.331c10.6-24.846,20.5-45.272,28.156-60.327,33.281-65.42,49.185-78.478,64.112-79.647a29.193,29.193,0,0,1,6.94.294q-6.863,39.7-13.731,79.407Q534.954,263.642,508.45,301.944Z" transform="translate(-475.975 2.963)" fill="#ff7866"/>
        <path id="Trazado_989716" data-name="Trazado 989716" d="M609.107,263.937q-5.373,16.488-11.574,30.847c.534,7.6,1.062,15.157,1.548,22.764.24,3.342.486,6.684.678,10.026H480.771c.1-3.342.24-6.684.39-10.026.24-6.15.486-12.348.726-18.5-3.15-5.958-6.15-12.252-9.054-18.84a312.166,312.166,0,0,1-22.374-76.466,343.354,343.354,0,0,1-4.068-41.8,220.534,220.534,0,0,1,67.849-17.868c5.958-.534,12.156-.918,18.595-.918,1.164-.048,2.376-.048,3.582-.048,4.356.048,8.622.192,12.738.486a203.9,203.9,0,0,1,20.778,2.424,109.461,109.461,0,0,1,43.681,25.327,104.629,104.629,0,0,1,12.06,13.656A375.128,375.128,0,0,1,609.107,263.937Z" transform="translate(-368.52 -7.622)" fill="#ff7866"/>
        <path id="Trazado_989717" data-name="Trazado 989717" d="M461.833,149.348c2.162,4.458,6.593,6.241,9.5,4.954,2.419-1.068,3.171-3.993,3.3-4.543Z" transform="translate(-299.933 19.43)"/>
        <path id="Trazado_989718" data-name="Trazado 989718" d="M467.081,149.282a39.2,39.2,0,0,0,14.868,6.332,40.1,40.1,0,0,0,23.682-2.755Z" transform="translate(-358.941 19.143)"/>
        <path id="Trazado_989719" data-name="Trazado 989719" d="M451.687,153.82a39.181,39.181,0,0,0,15.872,3.054,40.11,40.11,0,0,0,22.566-7.682Z" transform="translate(-261.252 18.748)"/>
        <path id="Trazado_989720" data-name="Trazado 989720" d="M456.72,207.571l60.546,6.791q.561-36.981,1.126-73.962-23.952-2.683-47.909-5.371Q463.6,171.3,456.72,207.571Z" transform="translate(-316.388 -42.696)" fill="#ff7866"/>
        <path id="Trazado_989721" data-name="Trazado 989721" d="M457.937,160.9c-1.9,16.966,4.9,31.653,15.2,32.806s20.186-11.66,22.086-28.626-4.9-31.653-15.2-32.806S459.837,143.939,457.937,160.9Z" transform="translate(-298.332 -54.963)"/>
        <path id="Trazado_989722" data-name="Trazado 989722" d="M484.85,220.8a35.913,35.913,0,0,0,39.693-31.685l5.851-52.169a64.534,64.534,0,0,0-71.373-8.008q-2.923,26.082-5.851,52.169A35.9,35.9,0,0,0,484.85,220.8Z" transform="translate(-308.226 -100.563)" fill="#ff7866"/>
        <path id="Trazado_989723" data-name="Trazado 989723" d="M465.69,137.894c-.726,6.481,3.07,12.225,8.473,12.834s10.378-4.153,11.1-10.635-3.065-12.225-8.473-12.834S466.416,131.413,465.69,137.894Z" transform="translate(-330.766 -76.632)" fill="#ff7866"/>
        <g id="Grupo_1153468" data-name="Grupo 1153468" transform="translate(193.34 80.27)">
          <path id="Trazado_989724" data-name="Trazado 989724" d="M470.312,135.186c1.126,0,2.253-.027,3.374-.08a.4.4,0,0,0-.021-.8,71.417,71.417,0,0,1-18.461-1.527.413.413,0,0,0-.475.31.4.4,0,0,0,.31.475,72.772,72.772,0,0,0,8.008,1.26C465.459,135.063,467.894,135.186,470.312,135.186Z" transform="translate(-454.719 -132.769)"/>
        </g>
        <path id="Trazado_989725" data-name="Trazado 989725" d="M463.258,138.134a3.75,3.75,0,1,1-2.317-5.024A3.921,3.921,0,0,1,463.258,138.134Z" transform="translate(-257.245 -51.726)"/>
        <g id="Grupo_1153469" data-name="Grupo 1153469" transform="translate(159.244 76.221)">
          <path id="Trazado_989726" data-name="Trazado 989726" d="M468.29,133.8c.422,0,.849-.005,1.27-.011a73.3,73.3,0,0,0,10.6-.977.4.4,0,0,0,.326-.464.41.41,0,0,0-.4-.336,72.722,72.722,0,0,1-10.549.972,64.229,64.229,0,0,1-8.013-.31.354.354,0,0,0-.432.358.389.389,0,0,0,.358.432C463.715,133.687,466,133.8,468.29,133.8Z" transform="translate(-461.096 -132.011)"/>
        </g>
        <path id="Trazado_989727" data-name="Trazado 989727" d="M469.628,136.859a3.75,3.75,0,1,1-2.894-4.714A3.917,3.917,0,0,1,469.628,136.859Z" transform="translate(-297.024 -55.486)"/>
        <path id="Trazado_989728" data-name="Trazado 989728" d="M453.866,137.507a7.7,7.7,0,0,1-1-4.4c.144-1.858,10.608-2.771,13.4-2.787a20.813,20.813,0,0,1,7.7,1.3,6.891,6.891,0,0,1,2.733,1.548,6.232,6.232,0,0,1,1.634,3.1C477.987,136.562,462.056,136.418,453.866,137.507Z" transform="translate(-255.621 -63.127)"/>
        <path id="Trazado_989729" data-name="Trazado 989729" d="M483.236,139.43a7.7,7.7,0,0,0,1.954-4.068c.272-1.842-9.732-5.05-12.45-5.686a20.822,20.822,0,0,0-7.8-.438,6.913,6.913,0,0,0-3.011.908,6.287,6.287,0,0,0-2.28,2.659C459.922,133.168,475.49,136.552,483.236,139.43Z" transform="translate(-298.834 -68.643)"/>
        <path id="Trazado_989730" data-name="Trazado 989730" d="M468.629,138.451a7.617,7.617,0,0,1-4.922,1.276,7.788,7.788,0,0,1-5.291-2.984Z" transform="translate(-275.679 -35.259)"/>
        <g id="Grupo_1153470" data-name="Grupo 1153470" transform="translate(167.175 105.348)">
          <path id="Trazado_989731" data-name="Trazado 989731" d="M473.918,144.643a18.8,18.8,0,0,0,2.941-.224.411.411,0,0,0,.336-.459.383.383,0,0,0-.459-.336,17.62,17.62,0,0,1-11.046-1.837,16.745,16.745,0,0,1-4.954-4.169.4.4,0,0,0-.561-.064.4.4,0,0,0-.064.561,17.443,17.443,0,0,0,5.195,4.367A17.693,17.693,0,0,0,473.918,144.643Z" transform="translate(-460.027 -137.467)"/>
        </g>
        <g id="Grupo_1153471" data-name="Grupo 1153471" transform="translate(165.713 110.017)">
          <path id="Trazado_989732" data-name="Trazado 989732" d="M470.354,143.037a.4.4,0,0,0,.176-.763c-1.345-.667-2.707-1.335-4.1-2-1.345-.641-2.68-1.276-4.009-1.89a.4.4,0,0,0-.534.2.406.406,0,0,0,.2.534c1.319.614,2.653,1.239,4,1.885q2.074,1,4.089,2A.58.58,0,0,0,470.354,143.037Z" transform="translate(-461.85 -138.341)"/>
        </g>
        <path id="Trazado_989733" data-name="Trazado 989733" d="M630.054,196.953Q614.871,261.9,599.688,326.789H461.913q-8.5-61.021-17.046-122.084c.63-.582,1.212-1.164,1.842-1.746q31.815-29.854,63.781-59.665c6.54,22.518,27.168,32.5,40.195,27.264,8.67-3.486,14.334-13.8,15.5-25.327a109.462,109.462,0,0,1,43.681,25.327,104.651,104.651,0,0,1,12.06,13.656A102.958,102.958,0,0,1,630.054,196.953Z" transform="translate(-364.771 -6.836)" fill="#fff"/>
        <path id="Trazado_989734" data-name="Trazado 989734" d="M513.968,244.565q-23.351-25.073-46.7-50.141a106.15,106.15,0,0,1,101.659-50.7l-46.959,61.918Q517.97,225.108,513.968,244.565Z" transform="translate(-423.222 -7.271)" fill="#fff"/>
        <path id="Trazado_989735" data-name="Trazado 989735" d="M530.367,207.38c-1.164.811-2.328,1.628-3.492,2.44q-24.44-19.147-48.891-38.294,5.069-10.659,10.127-21.328Q509.244,178.786,530.367,207.38Z" transform="translate(-441.884 23.117)" fill="#fff"/>
        <g id="Grupo_1153472" data-name="Grupo 1153472" transform="translate(50.573 179.317)">
          <path id="Trazado_989736" data-name="Trazado 989736" d="M511.491,194.639c.416-.214.454-.47.32-.641l-32.187-42.512a.385.385,0,0,0-.555-.08.4.4,0,0,0-.08.561l32.187,42.512A.378.378,0,0,0,511.491,194.639Z" transform="translate(-478.909 -151.322)"/>
        </g>
        <g id="Grupo_1153473" data-name="Grupo 1153473" transform="translate(84.581 228.625)">
          <path id="Trazado_989737" data-name="Trazado 989737" d="M478.664,165.271a.4.4,0,0,0,.368-.246l1.628-3.908a.4.4,0,0,0-.219-.528.408.408,0,0,0-.523.214l-1.628,3.908a.4.4,0,0,0,.219.529A.423.423,0,0,0,478.664,165.271Z" transform="translate(-478.259 -160.558)"/>
        </g>
        <g id="Grupo_1153474" data-name="Grupo 1153474" transform="translate(83.953 196.106)">
          <path id="Trazado_989738" data-name="Trazado 989738" d="M481.246,180.861a.406.406,0,0,0,.4-.443l-2.664-25.593a.41.41,0,0,0-.438-.352.393.393,0,0,0-.352.438l2.664,25.594A.4.4,0,0,0,481.246,180.861Z" transform="translate(-478.184 -154.467)"/>
        </g>
        <ellipse id="Elipse_11692" data-name="Elipse 11692" cx="20.992" cy="8.264" rx="20.992" ry="8.264" transform="translate(185.219 30.651)"/>
        <path id="Trazado_989739" data-name="Trazado 989739" d="M529.71,152.367c5.84,14.783,4.816,16.859,4.266,17.527a7.994,7.994,0,0,1-.673.625c-2.1,1.885-2.979,2.152-3.854,3.107-1.26,1.372-.86,2.36-1.6,3.465-2,2.99-8.878,1.719-10.261,1.468-9.15-1.687-19.844-8.376-18.792-13.464.662-3.2,5.28-4.031,4.933-5.728-.427-2.082-7.485-1.351-15.728-2.664-14.724-2.344-18.146-8.814-23.992-6.529-8.408,3.289-7.677,19.187-9.375,19.022-2.872-.272-7.058-38.043,6.978-45.016,5.643-2.8,11.345.806,23.725-4.063,2.018-.8,7.319-3.032,7.8-2.2.454.79-4,3.369-3.4,5.4.475,1.6,3.427,2.472,5.8,2.4,3.321-.1,4.207-1.986,8.307-3.454,4.036-1.447,8.7-1.6,9.086-.545.6,1.655-9.369,6.449-8.932,7.4.507,1.089,13.512-4.847,15.6-2.168.876,1.121-1.441,2.883-.806,5.1,1.393,4.853,14.841,4.474,14.927,6.663.048,1.244-4.3,1.26-5.867,4.266C526.683,145.2,527.826,147.594,529.71,152.367Z" transform="translate(-305.807 -117.734)"/>
        <g id="Grupo_1153479" data-name="Grupo 1153479" transform="translate(155.062 77.698)">
          <g id="Grupo_1153476" data-name="Grupo 1153476" transform="translate(0)">
            <g id="Grupo_1153475" data-name="Grupo 1153475" transform="translate(1.949 1.138)">
              <path id="Trazado_989740" data-name="Trazado 989740" d="M473.81,153c6.188,0,11.58-3.433,12.562-8.339a8.4,8.4,0,0,0-1.511-6.62,13.964,13.964,0,0,0-9.5-5.376c-7.111-1-13.865,2.627-14.98,8.163a8.362,8.362,0,0,0,1.506,6.615,13.961,13.961,0,0,0,9.5,5.381A16.989,16.989,0,0,0,473.81,153Zm11.259-8.6c-.982,4.848-7.015,8.045-13.491,7.1a12.609,12.609,0,0,1-8.6-4.821,7.135,7.135,0,0,1-1.292-5.59c.982-4.848,7.009-8.029,13.485-7.1a12.617,12.617,0,0,1,8.6,4.815,7.161,7.161,0,0,1,1.3,5.595Z" transform="translate(-460.219 -132.501)"/>
            </g>
            <path id="Trazado_989741" data-name="Trazado 989741" d="M486.236,147.964q1.45-1.922,2.9-3.838V143.1a1.53,1.53,0,0,1,.742-.982c.224-.112.347-.1.449-.171.256-.192.165-.865-1.185-2.861-9.017-5.04-16.331-6.342-20.933-6.679-3.118-.23-8.051-.235-8.419.961-.155.491.577.79,1.511,2.264,1.388,2.2,1.249,3.9,1.879,3.929.491.021.571-1.02,2.05-2.306a10.944,10.944,0,0,1,1.447-1.025,12.786,12.786,0,0,1,2.611-1.271,16.073,16.073,0,0,1,9.823-.053c1.265.4,5.686,1.783,7.474,5.75A8.581,8.581,0,0,1,486.236,147.964Z" transform="translate(-459.768 -132.288)"/>
            <path id="Trazado_989742" data-name="Trazado 989742" d="M468.071,133.389c-.064.32-.929.464-1.933.315s-1.767-.523-1.7-.844.929-.459,1.933-.315S468.135,133.068,468.071,133.389Z" transform="translate(-462.328 -131.417)" fill="#fff"/>
          </g>
          <g id="Grupo_1153478" data-name="Grupo 1153478" transform="translate(35.738 6.136)">
            <g id="Grupo_1153477" data-name="Grupo 1153477" transform="translate(0.785)">
              <path id="Trazado_989743" data-name="Trazado 989743" d="M467.339,153.948c6.188,0,11.569-3.433,12.551-8.334a8.425,8.425,0,0,0-1.506-6.631,13.948,13.948,0,0,0-9.5-5.365c-7.164-1.057-13.875,2.616-14.98,8.157a8.426,8.426,0,0,0,1.506,6.631,13.936,13.936,0,0,0,9.5,5.365A16.37,16.37,0,0,0,467.339,153.948Zm-.908-19.171a15.642,15.642,0,0,1,2.264.165,12.588,12.588,0,0,1,8.59,4.81,7.117,7.117,0,0,1,1.3,5.6c-.977,4.853-6.961,8.067-13.485,7.1a12.6,12.6,0,0,1-8.59-4.81,7.118,7.118,0,0,1-1.3-5.6C456.069,137.756,460.874,134.777,466.432,134.777Z" transform="translate(-453.743 -133.437)"/>
            </g>
            <path id="Trazado_989744" data-name="Trazado 989744" d="M454.335,144.135q-.617-2.218-1.233-4.442c.134-.32.267-.646.4-.966a1.33,1.33,0,0,0-.32-1.137c-.166-.165-.294-.187-.358-.288-.165-.256.182-.865,2.237-2.365,10.474-2.215,17.885-1.383,22.353-.406,3.032.662,7.682,2.045,7.57,3.278-.048.507-.854.582-2.312,1.708-2.167,1.682-2.7,3.331-3.3,3.182-.47-.117-.139-1.121-1.036-2.755a9.252,9.252,0,0,0-.961-1.372,11.029,11.029,0,0,0-1.965-1.933,15.421,15.421,0,0,0-9.247-2.813c-1.351.016-6.059.085-9.295,3.321A8.838,8.838,0,0,0,454.335,144.135Z" transform="translate(-452.788 -133.03)"/>
            <path id="Trazado_989745" data-name="Trazado 989745" d="M453.187,134.493c-.064.32.7.7,1.7.844s1.869.005,1.933-.315-.694-.7-1.7-.844S453.251,134.173,453.187,134.493Z" transform="translate(-426.741 -130.478)" fill="#fff"/>
          </g>
          <path id="Trazado_989746" data-name="Trazado 989746" d="M467.994,137.5l-9.626-1.393.5-2.5L468.5,135Z" transform="translate(-430.352 -126.563)"/>
        </g>
        <g id="Grupo_1153480" data-name="Grupo 1153480" transform="translate(148.826 51.05)">
          <path id="Trazado_989747" data-name="Trazado 989747" d="M471.895,155.81l1.3-.315-6.711-28.2-1.308.31Z" transform="translate(-465.179 -127.296)"/>
        </g>
        <g id="Grupo_1153481" data-name="Grupo 1153481" transform="translate(217.962 73.712)">
          <path id="Trazado_989748" data-name="Trazado 989748" d="M455.319,146.308l1.319-.208-2.263-14.559-1.313.208Z" transform="translate(-453.061 -131.541)"/>
        </g>
      </g>
      <g id="Grupo_1153483" data-name="Grupo 1153483" transform="translate(118.859 173.658)">
        <rect id="Rectángulo_409580" data-name="Rectángulo 409580" width="71.754" height="5.338" transform="matrix(-0.685, -0.728, 0.728, -0.685, 49.168, 55.919)" fill="#3c98e7"/>
      </g>
      <path id="Trazado_989749" data-name="Trazado 989749" d="M595.853,203.813q14.551-12.757,29.1-25.513-22.759-11.531-45.517-23.058-6.535,3.6-13.064,7.2c-5.691,19.417-14.852,29.448-22.209,35.027-21.408,16.23-45.774,8.531-66.082,28.562a57.952,57.952,0,0,0-12.06,17.553,22.691,22.691,0,0,0-.876,11.238c2.627,14.11,18.733,19.566,19.571,19.838a94.023,94.023,0,0,0,26.565-8.884c29.971-15.439,35.582-39.618,67.854-55.485A102.882,102.882,0,0,1,595.853,203.813Z" transform="translate(-432.292 45.002)" fill="#ff7866"/>
      <g id="Grupo_1153484" data-name="Grupo 1153484" transform="translate(58.378 245.17)">
        <path id="Trazado_989750" data-name="Trazado 989750" d="M481.1,186.3a185.339,185.339,0,0,1,28.941-15.092,179.349,179.349,0,0,1,19.663-6.764.4.4,0,0,0,.278-.5.41.41,0,0,0-.5-.278,177.61,177.61,0,0,0-48.6,21.883.409.409,0,0,0-.117.561A.374.374,0,0,0,481.1,186.3Z" transform="translate(-480.709 -163.657)"/>
      </g>
      <g id="Grupo_1153487" data-name="Grupo 1153487" transform="translate(123.834 180.667)">
        <path id="Trazado_989751" data-name="Trazado 989751" d="M636.858,290.86H439.045a5.225,5.225,0,0,1-5.12-6.252l25.893-128.843a5.219,5.219,0,0,1,5.12-4.191H662.75a5.225,5.225,0,0,1,5.12,6.252L641.978,286.67A5.225,5.225,0,0,1,636.858,290.86Z" transform="translate(-433.822 -151.575)"/>
        <g id="Grupo_1153485" data-name="Grupo 1153485" transform="translate(48.589 46.388)">
          <path id="Trazado_989752" data-name="Trazado 989752" d="M461.126,252.2l1.271-.406-28.679-90.2H597.86l28.626,90.042,1.271-.406-28.92-90.971H431.892Z" transform="translate(-431.892 -160.264)" fill="#fff"/>
        </g>
        <g id="Grupo_1153486" data-name="Grupo 1153486" transform="translate(40.255 40.59)">
          <path id="Trazado_989753" data-name="Trazado 989753" d="M437.01,166.31H613.885v-7.132H437.01v7.132Zm175.54-1.335H438.345v-4.463H612.55Z" transform="translate(-437.01 -159.178)" fill="#fff"/>
        </g>
        <path id="Trazado_989754" data-name="Trazado 989754" d="M473.619,162.861a2.851,2.851,0,1,1-2.851-2.851A2.85,2.85,0,0,1,473.619,162.861Z" transform="translate(-421.497 -114.978)" fill="#fff"/>
        <path id="Trazado_989755" data-name="Trazado 989755" d="M442.837,162.8a2.851,2.851,0,1,1-2.851-2.851A2.85,2.85,0,0,1,442.837,162.8Z" transform="translate(-226.374 -115.26)" fill="#fff"/>
      </g>
      <g id="Grupo_1153488" data-name="Grupo 1153488" transform="translate(0 319.552)">
        <path id="Trazado_989756" data-name="Trazado 989756" d="M424.648,188.411h408.3a.4.4,0,0,0,.4-.4V177.99a.4.4,0,0,0-.4-.4h-408.3a.4.4,0,0,0-.4.4v10.021A.4.4,0,0,0,424.648,188.411Zm407.895-.8H425.054v-9.22H832.543Z" transform="translate(-424.248 -177.59)"/>
      </g>
    </g>
    <path id="Trazado_989757" data-name="Trazado 989757" d="M485.908,143.914a46.179,46.179,0,1,0,92.358,0Z" transform="translate(-479.166 -2.946)"/>
    <g id="Grupo_1153490" data-name="Grupo 1153490" transform="translate(128.194 111.93)">
      <path id="Trazado_989758" data-name="Trazado 989758" d="M472.344,155.549a42.945,42.945,0,0,1,5.445-10.672c1.484-2.1,3.518-5.136,6.5-4.629,3.022.512,4.954,4.314,6.123,6.775a45.738,45.738,0,0,1,3.684,11.515c.251,1.415,1.666,6.716-.988,6.721-2.376.005-3.593-3.967-3.721-5.771-.256-3.609,1.452-7.394,3.219-10.453a30.343,30.343,0,0,1,2.888-4.132c.779-.94,1.986-2.824,3.342-2.974,1.447-.16,2.5,1.73,3.246,2.68a42.388,42.388,0,0,1,3.486,5.189c1.452,2.568,4.356,7.015,2.733,9.994a.807.807,0,0,1-1.26.16c-2.888-3.1-2.99-8.932-1.767-12.77,1.409-4.41,5.36-6.865,9.38-8.633.934-.411,1.751.966.811,1.383-3.3,1.452-6.764,3.321-8.291,6.78-1.463,3.321-1.628,9.295,1,12.108l-1.26.16c.9-1.65-.737-4.415-1.42-5.851a40.986,40.986,0,0,0-2.034-3.753,39.231,39.231,0,0,0-3.182-4.474c-.39-.475-.8-1.351-1.548-1.164-.331.085-1.212,1.249-1.436,1.5a27.709,27.709,0,0,0-5.168,8.456,13.762,13.762,0,0,0-1.153,5.4c.011.278,1.041,4.986,2.023,4.185a10.789,10.789,0,0,0-.155-2.274c-.1-.934-.251-1.869-.433-2.792a46.256,46.256,0,0,0-1.361-5.152,30.935,30.935,0,0,0-4.175-8.926c-1.319-1.789-3.171-3.177-5.216-1.447a18.907,18.907,0,0,0-3.31,4.212,41.839,41.839,0,0,0-4.452,9.07c-.347.971-1.9.555-1.548-.422Z" transform="translate(-472.294 -138.475)"/>
    </g>
    <g id="Grupo_1153491" data-name="Grupo 1153491" transform="translate(272.763 90.696)">
      <path id="Trazado_989759" data-name="Trazado 989759" d="M441.658,156.459a22.444,22.444,0,0,1,9.732-9.711c3.118-1.559,7.618-3.219,10.1.224,1.655,2.3,1.425,8.093-2.008,8.83a2.2,2.2,0,0,1-2.621-1.383c-.48-1.463.982-3.267,1.821-4.314,3.272-4.073,8.638-6.476,13.346-8.419,3.171-1.308,9.305-4.5,12.658-1.965,3.134,2.376,2.68,10.063.961,13.128-1.377,2.461-4.57,2.819-5.953.133-2.1-4.1,3.337-8.723,6.118-10.805,5.258-3.94,11.643-5.83,17.863-7.645a.8.8,0,0,1,.427,1.543c-6.93,2.023-14.238,4.153-19.582,9.273a13.519,13.519,0,0,0-3.128,3.876q-1.914,3.564,1.329,2.392c1.372.443,2.045.075,2.007-1.1a9.8,9.8,0,0,0,.352-2.984c.2-2.835.2-6.049-3.144-7.058-1.367-.411-3.892.731-5.205,1.169a61.74,61.74,0,0,0-10.672,4.709,25.034,25.034,0,0,0-4.6,3.176,9.246,9.246,0,0,0-2.077,2.322c-.166.267-.331.539-.5.806.614-.256,1.228-.512,1.842-.763a3.286,3.286,0,0,0-.763-3.855,1.721,1.721,0,0,0-2.253-1.244,6.607,6.607,0,0,0-3.2.374,19.87,19.87,0,0,0-4.645,2.344,21.175,21.175,0,0,0-6.818,7.762c-.481.9-1.863.1-1.383-.817Z" transform="translate(-441.558 -134.497)"/>
    </g>
    <g id="Grupo_1153492" data-name="Grupo 1153492" transform="translate(409.725 186.726)">
      <path id="Trazado_989760" data-name="Trazado 989760" d="M433.059,155.9c-.267.315-.528.635-.779.966.107-.133.208-.272.315-.406a27.036,27.036,0,0,0-2.52,3.951c-1.047-.811-2.1-1.618-3.144-2.424a18.281,18.281,0,0,0,1.415-1.6c-.107.133-.208.272-.315.406a17.574,17.574,0,0,0,1.538-2.365,2.02,2.02,0,0,1,2.739-.721,2.044,2.044,0,0,1,.715,2.739,18.959,18.959,0,0,1-3.267,4.372,2,2,0,0,1-3.139-2.429,29.28,29.28,0,0,1,3.614-5.317,2.01,2.01,0,0,1,1.415-.587,2.033,2.033,0,0,1,1.415.587,2.007,2.007,0,0,1,.587,1.415,2.26,2.26,0,0,1-.588,1.415Z" transform="translate(-426.359 -152.485)"/>
    </g>
    <g id="Grupo_1153493" data-name="Grupo 1153493" transform="translate(413.154 198.76)">
      <path id="Trazado_989761" data-name="Trazado 989761" d="M431.928,158.731a9.909,9.909,0,0,0-1.521,1.58c.107-.133.208-.272.315-.406a10.233,10.233,0,0,0-1.169,1.938l-2.739-2.739c.048-.027-.085.075-.219.181a3.556,3.556,0,0,0,.625-.641c-.107.133-.208.272-.315.406.774-1.025,1.111-2.3,1.89-3.326a1.5,1.5,0,0,1,.518-.561,1.534,1.534,0,0,1,.683-.358,2,2,0,0,1,2.461,1.4,1.926,1.926,0,0,1-.2,1.543A14.133,14.133,0,0,0,431.015,160a7.6,7.6,0,0,1-.651,1.073,7.412,7.412,0,0,1-.662.806,6.374,6.374,0,0,1-.865.689c-.16.069-.32.133-.48.2a1.5,1.5,0,0,1-.8.037,1.907,1.907,0,0,1-1.148-.55,2.406,2.406,0,0,1-.513-.881,2.1,2.1,0,0,1,.2-1.543,10.5,10.5,0,0,1,1.169-1.938,12.229,12.229,0,0,1,1.837-1.986,2.152,2.152,0,0,1,1.415-.587,2.032,2.032,0,0,1,1.415.587,1.978,1.978,0,0,1-.011,2.824Z" transform="translate(-425.827 -154.739)"/>
    </g>
    <g id="Grupo_1153494" data-name="Grupo 1153494" transform="translate(401.862 203.496)">
      <path id="Trazado_989762" data-name="Trazado 989762" d="M433.856,158.625a21.379,21.379,0,0,0-1.591,3.064c.069-.16.133-.32.2-.48-.187.443-.358.9-.518,1.351-.822-.822-1.644-1.639-2.461-2.461-.1.043-.256.112-.416.176a3.037,3.037,0,0,0,.625-.363c-.134.107-.272.208-.406.315a4.733,4.733,0,0,0,.838-.86c-.107.133-.208.272-.315.406a6.06,6.06,0,0,0,.758-1.153c-.069.16-.133.32-.2.48a1.291,1.291,0,0,0,.08-.278c-.021.176-.048.352-.069.534a1.206,1.206,0,0,1,.075.374,2.709,2.709,0,0,1,.181.384,2.551,2.551,0,0,1,.267.32,3.4,3.4,0,0,1,.336.24,2.177,2.177,0,0,1-.966-1.228,2,2,0,0,1,1.4-2.461,2,2,0,0,1,1.543.2,2.419,2.419,0,0,1,1.094,1.452,2.665,2.665,0,0,1-.048,1.447,5.62,5.62,0,0,1-.806,1.468,8.115,8.115,0,0,1-1.084,1.3,5.553,5.553,0,0,1-1.826,1.116,2,2,0,0,1-2.461-2.461,24.006,24.006,0,0,1,2.312-4.9,2.1,2.1,0,0,1,1.2-.918,2,2,0,0,1,2.461,1.4,2.051,2.051,0,0,1-.2,1.532Z" transform="translate(-428.001 -155.626)"/>
    </g>
    <g id="Grupo_1153495" data-name="Grupo 1153495" transform="translate(407.365 217.377)">
      <path id="Trazado_989763" data-name="Trazado 989763" d="M433.349,162.42c-.326.358-.635.721-.929,1.105.107-.133.208-.272.315-.406a17.893,17.893,0,0,0-2.151,3.625l-2.739-2.739c-.064.048-.2.155-.336.262a2.968,2.968,0,0,0,.427-.432c-.107.133-.208.272-.315.406a7.365,7.365,0,0,0,.833-1.554c.278-.63.555-1.265.822-1.9-.069.16-.133.32-.2.48.219-.523.438-1.046.646-1.57a2.186,2.186,0,0,1,.918-1.2,2.049,2.049,0,0,1,1.543-.2,2.027,2.027,0,0,1,1.2.918,1.939,1.939,0,0,1,.2,1.543q-.729,1.818-1.521,3.609c-.2.464-.4.94-.646,1.377a7.032,7.032,0,0,1-.678.956,5.019,5.019,0,0,1-.875.769c-.16.069-.32.133-.48.2a1.515,1.515,0,0,1-.8.037,1.908,1.908,0,0,1-1.148-.55,2.406,2.406,0,0,1-.513-.881,2.1,2.1,0,0,1,.2-1.543,19.178,19.178,0,0,1,3.4-5.136,2,2,0,0,1,2.835,2.819Z" transform="translate(-426.841 -158.226)"/>
    </g>
    <g id="Grupo_1153496" data-name="Grupo 1153496" transform="translate(21.21 214.277)">
      <path id="Trazado_989764" data-name="Trazado 989764" d="M504.518,161.373a6.023,6.023,0,0,0-.55.614c.107-.133.208-.272.315-.406a6.165,6.165,0,0,0-.769,1.324c.069-.16.133-.32.2-.48a5.744,5.744,0,0,0-.379,1.361c-.982-.753-1.959-1.505-2.942-2.258a2.6,2.6,0,0,1-.224.181,4.478,4.478,0,0,0,.742-.747c-.107.133-.208.272-.315.406a4.832,4.832,0,0,0,.587-1c-.069.16-.134.32-.2.48a4.473,4.473,0,0,0,.31-1.121c-.021.176-.048.352-.069.534a4.649,4.649,0,0,0,.037-.609,2,2,0,0,1,2-2,2,2,0,0,1,1.415.587,2.09,2.09,0,0,1,.587,1.415,6.539,6.539,0,0,1-.763,3.038,6.47,6.47,0,0,1-2.082,2.3c-.16.069-.32.133-.48.2-.176.021-.352.048-.534.069a1.965,1.965,0,0,1-1.212-.432,1.9,1.9,0,0,1-.619-.8,1.05,1.05,0,0,1-.139-.507,1.494,1.494,0,0,1,.037-.8,7.594,7.594,0,0,1,.779-2.264,6.249,6.249,0,0,1,.5-.8,9.327,9.327,0,0,1,.934-1.116,2.066,2.066,0,0,1,1.415-.587,2.033,2.033,0,0,1,1.415.587,2.009,2.009,0,0,1,.587,1.415,2.061,2.061,0,0,1-.581,1.42Z" transform="translate(-499.399 -157.646)"/>
    </g>
    <g id="Grupo_1153497" data-name="Grupo 1153497" transform="translate(20.428 227.258)">
      <path id="Trazado_989765" data-name="Trazado 989765" d="M505.17,164.4c-.166.107-.331.224-.491.347.134-.107.272-.208.406-.315a7.947,7.947,0,0,0-1.409,1.4c.107-.133.208-.272.315-.406a7.853,7.853,0,0,0-1.036,1.772c.069-.16.133-.32.2-.48-.849-.758-1.666-1.58-2.488-2.4a3.37,3.37,0,0,0,.6-.187c-.16.069-.32.133-.48.2a3.653,3.653,0,0,0,.811-.48c-.133.107-.272.208-.406.315a5.386,5.386,0,0,0,.881-.9c-.107.133-.208.272-.315.406a12.445,12.445,0,0,0,1.452-2.605,2,2,0,0,1,3.657.48c.021.176.048.352.069.534a1.96,1.96,0,0,1-.272,1.009c-.966,2.184-2.424,4.549-4.938,5.088a2.062,2.062,0,0,1-1.949-.518,1.944,1.944,0,0,1-.513-.881,1.992,1.992,0,0,1,0-1.062,10.963,10.963,0,0,1,.721-1.516,11.118,11.118,0,0,1,.982-1.356,9.491,9.491,0,0,1,2.178-1.9,2,2,0,0,1,2.739.715,2.025,2.025,0,0,1,.2,1.543,2.162,2.162,0,0,1-.918,1.2Z" transform="translate(-499.194 -160.077)"/>
    </g>
    <g id="Grupo_1153498" data-name="Grupo 1153498" transform="translate(32.464 223.904)">
      <path id="Trazado_989766" data-name="Trazado 989766" d="M501.566,163.821c-.091.2-.176.4-.262.593.069-.16.133-.32.2-.48a12.975,12.975,0,0,0-.87,2.579c.021-.176.048-.352.069-.534-.027.027-.048-.155-.075-.331-.048-.1-.117-.256-.182-.416a4.231,4.231,0,0,1-.283-.352c-.091-.059-.224-.16-.363-.267-.1-.032-.262-.1-.422-.166-.117-.005-.294-.027-.47-.053a2.189,2.189,0,0,1-.4.069,1.99,1.99,0,0,0,.342-.117c-.16.069-.32.133-.48.2a7.754,7.754,0,0,0,1.66-.977c-.134.107-.272.208-.406.315a7.926,7.926,0,0,0,1.415-1.42c-.107.133-.208.272-.315.406a8,8,0,0,0,1.009-1.73c-.069.16-.133.32-.2.48.1-.23.176-.465.251-.7.646.844,1.287,1.687,1.933,2.536a4.831,4.831,0,0,0-.833.037c.176-.027.352-.048.534-.069a4.653,4.653,0,0,0-1.169.331c.16-.069.32-.133.48-.2a5.053,5.053,0,0,0-1.046.619c.133-.107.272-.208.406-.315a4.773,4.773,0,0,0-.753.753c.107-.133.208-.272.315-.406a2.442,2.442,0,0,1-1.335,1.105,2,2,0,0,1-2.461-1.4,1.973,1.973,0,0,1,.2-1.543,6.62,6.62,0,0,1,2.445-2.178,6.7,6.7,0,0,1,3.224-.737,1.978,1.978,0,0,1,1.57.79,1.94,1.94,0,0,1,.358,1.746,9.709,9.709,0,0,1-2.872,4.474,9.314,9.314,0,0,1-2.216,1.473,6.522,6.522,0,0,1-.918.379,2.488,2.488,0,0,1-1.842-.219,2.294,2.294,0,0,1-1.11-1.906,3.032,3.032,0,0,1,.155-1.046,22.585,22.585,0,0,1,1.255-3.331,1.987,1.987,0,0,1,1.2-.918,2,2,0,0,1,2.461,1.4c.021.176.048.352.069.534a1.943,1.943,0,0,1-.272.993Z" transform="translate(-496.697 -159.449)"/>
    </g>
  </g>
</svg>
