<svg xmlns="http://www.w3.org/2000/svg" xmlns:xlink="http://www.w3.org/1999/xlink" width="190" height="172.888" viewBox="0 0 190 172.888">
  <defs>
    <linearGradient id="linear-gradient" x1="0.232" y1="0.804" x2="0.788" y2="0.265" gradientUnits="objectBoundingBox">
      <stop offset="0" stop-color="#fff" stop-opacity="0"/>
      <stop offset="0.278" stop-color="#ebebff" stop-opacity="0.439"/>
      <stop offset="0.629" stop-color="#d6d6ff"/>
    </linearGradient>
  </defs>
  <g id="Grupo_1154438" data-name="Grupo 1154438" transform="translate(-180 -4128.008)">
    <g id="Grupo_1149706" data-name="Grupo 1149706" transform="translate(-1050 3867.495)">
      <rect id="Rect치ngulo_407965" data-name="Rect치ngulo 407965" width="190" height="75" rx="7" transform="translate(1230 315)" fill="#5a1a8a"/>
      <rect id="Rect치ngulo_407966" data-name="Rect치ngulo 407966" width="126" height="137" rx="7" transform="translate(1262 284)" fill="#a530fe"/>
    </g>
    <g id="asignar" transform="translate(182.186 4128.008)">
      <g id="Grupo_1154413" data-name="Grupo 1154413" transform="translate(7.72 0)">
        <path id="Trazado_991092" data-name="Trazado 991092" d="M174.769,123.776c-5.842-26.625-46.839-27.919-52.982-55.186-1.72-7.634.5-15.593.052-23.406C119.493,4.66,68.481-22.329,26.82,25.4,4.291,51.217-7.089,112.08,43.643,125.694c60.083,16.124,49.066,40.6,78.761,46.631C146.383,177.193,180.432,149.585,174.769,123.776Z" transform="translate(-7.72 0)" fill="url(#linear-gradient)"/>
      </g>
      <g id="Grupo_1154437" data-name="Grupo 1154437" transform="translate(20.994 10.686)">
        <g id="Grupo_1154432" data-name="Grupo 1154432" transform="translate(7.533)">
          <path id="Trazado_991093" data-name="Trazado 991093" d="M168.291,99.4A19.53,19.53,0,1,0,159,75.9a32.61,32.61,0,0,0-46.641,0A19.527,19.527,0,1,0,103.072,99.4a32.6,32.6,0,0,0,1.258,8.325c-.419-.029-.84-.05-1.267-.05a17.833,17.833,0,1,0,17.693,20.032,32.375,32.375,0,0,0,7.9,2.846v36.524A9.3,9.3,0,0,0,114.478,179l12.23,17.79A32.288,32.288,0,0,0,185.6,178.5V150.091a7.119,7.119,0,1,0-14.238,0v-3.155a7.119,7.119,0,1,0-14.238,0v-2.6a7.119,7.119,0,1,0-14.238,0V130.516a32.63,32.63,0,0,0,25.4-31.114Z" transform="translate(-72.651 -52.178)" fill="#0000c9" opacity="0.1"/>
          <g id="Grupo_1154431" data-name="Grupo 1154431">
            <g id="Grupo_1154429" data-name="Grupo 1154429" transform="translate(1.689 1.688)">
              <g id="Grupo_1154427" data-name="Grupo 1154427">
                <g id="Grupo_1154422" data-name="Grupo 1154422">
                  <g id="Grupo_1154417" data-name="Grupo 1154417" transform="translate(83.624)">
                    <g id="Grupo_1154416" data-name="Grupo 1154416">
                      <g id="Grupo_1154415" data-name="Grupo 1154415">
                        <g id="Grupo_1154414" data-name="Grupo 1154414">
                          <path id="Trazado_991110" data-name="Trazado 991110" d="M19.529,0A19.529,19.529,0,1,1,0,19.529,19.529,19.529,0,0,1,19.529,0Z" fill="#1f727f"/>
                          <path id="Trazado_991094" data-name="Trazado 991094" d="M362.939,74.177v-.006H339l0,.009a14.713,14.713,0,1,1,23.941,0Z" transform="translate(-331.437 -46.094)" fill="#fff"/>
                          <path id="Trazado_991095" data-name="Trazado 991095" d="M368.313,107.953a14.707,14.707,0,0,1-23.945,0,12.9,12.9,0,0,1,3.636-5.61,1.4,1.4,0,0,1,1.907.039,9.033,9.033,0,0,0,12.775-.062,1.4,1.4,0,0,1,1.907-.053,12.9,12.9,0,0,1,3.721,5.686Z" transform="translate(-336.812 -79.877)" fill="#3ad1e9"/>
                        </g>
                        <ellipse id="Elipse_11722" data-name="Elipse 11722" cx="6.026" cy="6.596" rx="6.026" ry="6.596" transform="translate(13.43 8.511)" fill="#3ad1e9"/>
                      </g>
                    </g>
                  </g>
                  <g id="Grupo_1154421" data-name="Grupo 1154421">
                    <g id="Grupo_1154420" data-name="Grupo 1154420">
                      <g id="Grupo_1154419" data-name="Grupo 1154419">
                        <g id="Grupo_1154418" data-name="Grupo 1154418">
                          <path id="Trazado_991109" data-name="Trazado 991109" d="M19.529,0A19.529,19.529,0,1,1,0,19.529,19.529,19.529,0,0,1,19.529,0Z" fill="#a530fe"/>
                          <path id="Trazado_991096" data-name="Trazado 991096" d="M115.286,74.177v-.006H91.342v.006a14.713,14.713,0,1,1,23.944,0Z" transform="translate(-83.785 -46.093)" fill="#fff"/>
                          <path id="Trazado_991097" data-name="Trazado 991097" d="M120.663,107.953a14.707,14.707,0,0,1-23.945,0,12.9,12.9,0,0,1,3.636-5.61,1.4,1.4,0,0,1,1.907.039,9.033,9.033,0,0,0,12.775-.062,1.4,1.4,0,0,1,1.907-.053A12.907,12.907,0,0,1,120.663,107.953Z" transform="translate(-89.162 -79.877)" fill="#e3bffe"/>
                        </g>
                        <ellipse id="Elipse_11724" data-name="Elipse 11724" cx="6.026" cy="6.596" rx="6.026" ry="6.596" transform="translate(13.43 8.511)" fill="#e3bffe"/>
                      </g>
                    </g>
                  </g>
                </g>
                <g id="Grupo_1154426" data-name="Grupo 1154426" transform="translate(28.723 3.434)">
                  <g id="Grupo_1154425" data-name="Grupo 1154425">
                    <g id="Grupo_1154424" data-name="Grupo 1154424">
                      <g id="Grupo_1154423" data-name="Grupo 1154423">
                        <circle id="Elipse_11725" data-name="Elipse 11725" cx="32.618" cy="32.618" r="32.618" fill="#8181ff"/>
                        <path id="Trazado_991098" data-name="Trazado 991098" d="M225.224,106.408V106.4H181.586v.011a26.814,26.814,0,1,1,43.638,0Z" transform="translate(-170.787 -58.201)" fill="#fff"/>
                        <path id="Trazado_991099" data-name="Trazado 991099" d="M235.023,167.964a26.8,26.8,0,0,1-43.635,0,23.507,23.507,0,0,1,6.626-10.223,2.543,2.543,0,0,1,3.475.071,16.461,16.461,0,0,0,23.279-.113,2.543,2.543,0,0,1,3.475-.1A23.527,23.527,0,0,1,235.023,167.964Z" transform="translate(-180.587 -119.77)" fill="#15da7e"/>
                      </g>
                      <ellipse id="Elipse_11726" data-name="Elipse 11726" cx="10.981" cy="12.02" rx="10.981" ry="12.02" transform="translate(21.504 12.54)" fill="#15da7e"/>
                    </g>
                  </g>
                </g>
              </g>
              <g id="Grupo_1154428" data-name="Grupo 1154428" transform="translate(38.501 50.217)">
                <path id="Trazado_991100" data-name="Trazado 991100" d="M254,215.471a7.119,7.119,0,0,0-7.119,7.119v-3.155a7.119,7.119,0,1,0-14.238,0v-2.6a7.119,7.119,0,1,0-14.238,0v-24.35a7.119,7.119,0,1,0-14.238,0v47.1A9.3,9.3,0,0,0,190,251.5l12.23,17.79A32.288,32.288,0,0,0,261.124,251V222.59A7.12,7.12,0,0,0,254,215.471Z" transform="translate(-188.361 -185.362)" fill="#ffb1b1"/>
                <path id="Trazado_991101" data-name="Trazado 991101" d="M191.084,340.78A9.3,9.3,0,0,0,190,352.63l12.23,17.79q.912,1.327,1.943,2.542V340.711A9.3,9.3,0,0,0,191.084,340.78Z" transform="translate(-188.359 -286.495)" fill="#ff9292"/>
              </g>
            </g>
            <g id="Grupo_1154430" data-name="Grupo 1154430">
              <path id="Trazado_991111" data-name="Trazado 991111" d="M17.833,0A17.833,17.833,0,1,1,0,17.833,17.833,17.833,0,0,1,17.833,0Z" transform="translate(12.579 46.72)" fill="#a0f0cb"/>
              <circle id="Elipse_11728" data-name="Elipse 11728" cx="12.339" cy="12.339" r="12.339" transform="translate(18.073 52.214)" fill="#fff"/>
              <path id="Trazado_991102" data-name="Trazado 991102" d="M145.913,97.2a1.688,1.688,0,1,0,1.481,3.035,34.289,34.289,0,0,0,19.123-27.588,21.02,21.02,0,0,0,7.664,1.434,21.218,21.218,0,1,0-19.126-30.405,34.236,34.236,0,0,0-45.373,0A21.218,21.218,0,1,0,72.045,63.23a1.689,1.689,0,0,0,2.945-1.653A17.841,17.841,0,1,1,107.109,46.2a34.173,34.173,0,0,0-9.042,22.847,17.825,17.825,0,0,1-18.457-2.1,1.689,1.689,0,0,0-2.075,2.665,21.195,21.195,0,0,0,20.681,3.039,34.378,34.378,0,0,0,.631,4.051A19.52,19.52,0,1,0,118.7,100.861a34.186,34.186,0,0,0,4.946,1.712V134.54a10.99,10.99,0,0,0-13.876,16.1L122,168.433a33.976,33.976,0,0,0,61.975-19.247V120.779a8.8,8.8,0,0,0-14.856-6.4,8.8,8.8,0,0,0-14.4-2.993,8.8,8.8,0,0,0-13.455-3.3V90.67a8.807,8.807,0,0,0-17.615,0v8.4a30.812,30.812,0,0,1-4.419-1.675c.024-.4.04-.794.04-1.2a19.547,19.547,0,0,0-16.922-19.343A30.931,30.931,0,1,1,145.913,97.2ZM127.027,90.67a5.431,5.431,0,0,1,10.862,0v33.869a1.688,1.688,0,1,0,3.377,0V115.02a5.431,5.431,0,0,1,10.862,0v9.519a1.688,1.688,0,1,0,3.377,0v-6.914a5.431,5.431,0,1,1,10.861,0v6.914a1.688,1.688,0,1,0,3.377,0v-3.76a5.431,5.431,0,1,1,10.862,0v28.407a30.6,30.6,0,0,1-55.815,17.335l-12.23-17.791a7.614,7.614,0,0,1,11.093-10.206v8.119a1.688,1.688,0,1,0,3.377,0V90.67ZM115.9,96.2A16.145,16.145,0,1,1,99.75,80.054,16.163,16.163,0,0,1,115.9,96.2Zm41.734-50A17.842,17.842,0,1,1,174.181,70.7a17.652,17.652,0,0,1-7.51-1.66A34.172,34.172,0,0,0,157.629,46.2Z" transform="translate(-69.339 -31.646)" fill="#0000c9"/>
              <path id="Trazado_991103" data-name="Trazado 991103" d="M146.72,218.618a1.683,1.683,0,0,1-1.194-.495l-2.992-2.992a1.688,1.688,0,0,1,2.388-2.387l1.8,1.8,4.163-4.162a1.688,1.688,0,0,1,2.388,2.387l-5.357,5.356A1.682,1.682,0,0,1,146.72,218.618Z" transform="translate(-117.49 -149.698)" fill="#15da7e"/>
            </g>
          </g>
        </g>
        <path id="Trazado_991104" data-name="Trazado 991104" d="M429.413,169.267h-3.377a3.381,3.381,0,0,1-3.377-3.377v-3.377a3.381,3.381,0,0,1,3.377-3.377h3.377a3.381,3.381,0,0,1,3.377,3.377v3.377A3.381,3.381,0,0,1,429.413,169.267Zm-3.377-6.753v3.377h3.379l0-3.377Z" transform="translate(-295.82 -116.087)" fill="#a530fe"/>
        <path id="Trazado_991105" data-name="Trazado 991105" d="M61.455,244.814H58.079a3.381,3.381,0,0,1-3.377-3.377v-3.377a3.381,3.381,0,0,1,3.377-3.377h3.377a3.381,3.381,0,0,1,3.377,3.377v3.377A3.381,3.381,0,0,1,61.455,244.814Zm-3.377-6.753v3.377h3.379l0-3.377Z" transform="translate(-52.111 -166.124)" fill="#6c6cff"/>
        <path id="Trazado_991106" data-name="Trazado 991106" d="M141.558,412.716h-3.377a3.381,3.381,0,0,1-3.377-3.377v-3.377a3.381,3.381,0,0,1,3.377-3.377h3.377a3.381,3.381,0,0,1,3.377,3.377v3.377A3.381,3.381,0,0,1,141.558,412.716Zm-3.377-6.753v3.377h3.379l0-3.377Z" transform="translate(-105.166 -277.33)" fill="#a530fe"/>
        <g id="Grupo_1154434" data-name="Grupo 1154434" transform="translate(0 43.051)">
          <g id="Grupo_1154433" data-name="Grupo 1154433">
            <path id="Trazado_991107" data-name="Trazado 991107" d="M52.093,169.268A1.688,1.688,0,0,1,50.4,167.58v-.674a1.014,1.014,0,0,0-1.013-1.013h-.674a1.688,1.688,0,1,1,0-3.377h.674A1.014,1.014,0,0,0,50.4,161.5v-.674a1.688,1.688,0,0,1,3.377,0v.674a1.014,1.014,0,0,0,1.013,1.013h.674a1.688,1.688,0,1,1,0,3.377h-.674a1.014,1.014,0,0,0-1.013,1.013v.674A1.688,1.688,0,0,1,52.093,169.268Z" transform="translate(-47.029 -159.141)" fill="#ff6c6c"/>
          </g>
        </g>
        <g id="Grupo_1154436" data-name="Grupo 1154436" transform="translate(113.4 57.97)">
          <g id="Grupo_1154435" data-name="Grupo 1154435">
            <path id="Trazado_991108" data-name="Trazado 991108" d="M387.921,213.448a1.688,1.688,0,0,1-1.688-1.688v-.674a1.014,1.014,0,0,0-1.013-1.013h-.674a1.688,1.688,0,1,1,0-3.377h.674a1.014,1.014,0,0,0,1.013-1.013v-.674a1.688,1.688,0,0,1,3.377,0v.674a1.014,1.014,0,0,0,1.013,1.013h.674a1.688,1.688,0,0,1,0,3.377h-.674a1.014,1.014,0,0,0-1.013,1.013v.674A1.688,1.688,0,0,1,387.921,213.448Z" transform="translate(-382.857 -203.321)" fill="#6c6cff"/>
          </g>
        </g>
      </g>
    </g>
  </g>
</svg>
