<svg xmlns="http://www.w3.org/2000/svg" xmlns:xlink="http://www.w3.org/1999/xlink" width="108" height="108" viewBox="0 0 108 108">
  <defs>
    <filter id="Trazado_982548" x="0" y="0" width="108" height="108" filterUnits="userSpaceOnUse">
      <feOffset dy="3" input="SourceAlpha"/>
      <feGaussianBlur stdDeviation="3" result="blur"/>
      <feFlood flood-opacity="0.161"/>
      <feComposite operator="in" in2="blur"/>
      <feComposite in="SourceGraphic"/>
    </filter>
  </defs>
  <g id="Grupo_1154439" data-name="Grupo 1154439" transform="translate(-618 -4482)">
    <g id="Grupo_1153337" data-name="Grupo 1153337" transform="translate(-413.5 -77)">
      <g id="Grupo_1149696" data-name="Grupo 1149696" transform="translate(1040.5 4565)">
        <g id="Grupo_1149263" data-name="Grupo 1149263" transform="translate(0 0)">
          <g transform="matrix(1, 0, 0, 1, -9, -6)" filter="url(#Trazado_982548)">
            <g id="Trazado_982548-2" data-name="Trazado 982548" transform="translate(9 6)" fill="#f6f9fc">
              <path d="M 45.00000381469727 88.5 C 39.12688064575195 88.5 33.43022918701172 87.35008239746094 28.06830406188965 85.08217620849609 C 22.88852882385254 82.89131927490234 18.23630332946777 79.75459289550781 14.24085426330566 75.7591552734375 C 10.24541664123535 71.76370239257812 7.108691215515137 67.11148071289062 4.917829036712646 61.93170547485352 C 2.64992880821228 56.56977844238281 1.500003814697266 50.87312698364258 1.500003814697266 45.00000381469727 C 1.500003814697266 39.12688064575195 2.64992880821228 33.43022918701172 4.917829036712646 28.06830406188965 C 7.108691215515137 22.88852882385254 10.24541664123535 18.23630332946777 14.24085426330566 14.24085426330566 C 18.23630332946777 10.24541664123535 22.88852882385254 7.108691215515137 28.06830406188965 4.917829036712646 C 33.43022918701172 2.64992880821228 39.12688064575195 1.500003814697266 45.00000381469727 1.500003814697266 C 50.87312698364258 1.500003814697266 56.56977844238281 2.64992880821228 61.93170547485352 4.917829036712646 C 67.11148071289062 7.108691215515137 71.76370239257812 10.24541664123535 75.7591552734375 14.24085426330566 C 79.75459289550781 18.23630332946777 82.89131927490234 22.88852882385254 85.08217620849609 28.06830406188965 C 87.35008239746094 33.43022918701172 88.5 39.12688064575195 88.5 45.00000381469727 C 88.5 50.87312698364258 87.35008239746094 56.56977844238281 85.08217620849609 61.93170547485352 C 82.89131927490234 67.11148071289062 79.75459289550781 71.76370239257812 75.7591552734375 75.7591552734375 C 71.76370239257812 79.75459289550781 67.11148071289062 82.89131927490234 61.93170547485352 85.08217620849609 C 56.56977844238281 87.35008239746094 50.87312698364258 88.5 45.00000381469727 88.5 Z" stroke="none"/>
              <path d="M 45.00000381469727 3.000007629394531 C 39.32871627807617 3.000007629394531 33.82865905761719 4.110061645507812 28.65263366699219 6.299346923828125 C 23.65166473388672 8.414573669433594 19.15969085693359 11.44334411621094 15.30152130126953 15.30152130126953 C 11.44334411621094 19.15969085693359 8.414573669433594 23.65166473388672 6.299346923828125 28.65263366699219 C 4.110061645507812 33.82865905761719 3.000007629394531 39.32871627807617 3.000007629394531 45.00000381469727 C 3.000007629394531 50.67129135131836 4.110061645507812 56.17134857177734 6.299346923828125 61.34737396240234 C 8.414573669433594 66.34834289550781 11.44334411621094 70.84031677246094 15.30152130126953 74.698486328125 C 19.15969085693359 78.55666351318359 23.65166473388672 81.58543395996094 28.65263366699219 83.70066070556641 C 33.82865905761719 85.88994598388672 39.32871627807617 87 45.00000381469727 87 C 50.67129135131836 87 56.17134857177734 85.88994598388672 61.34737396240234 83.70066070556641 C 66.34834289550781 81.58543395996094 70.84031677246094 78.55666351318359 74.698486328125 74.698486328125 C 78.55666351318359 70.84031677246094 81.58543395996094 66.34834289550781 83.70066070556641 61.34737396240234 C 85.88994598388672 56.17134857177734 87 50.67129135131836 87 45.00000381469727 C 87 39.32871627807617 85.88994598388672 33.82865905761719 83.70066070556641 28.65263366699219 C 81.58543395996094 23.65166473388672 78.55666351318359 19.15969085693359 74.698486328125 15.30152130126953 C 70.84031677246094 11.44334411621094 66.34834289550781 8.414573669433594 61.34737396240234 6.299346923828125 C 56.17134857177734 4.110061645507812 50.67129135131836 3.000007629394531 45.00000381469727 3.000007629394531 M 45.00000381469727 7.62939453125e-06 C 69.85281372070312 7.62939453125e-06 90 20.14718627929688 90 45.00000381469727 C 90 69.85281372070312 69.85281372070312 90 45.00000381469727 90 C 20.14718627929688 90 7.62939453125e-06 69.85281372070312 7.62939453125e-06 45.00000381469727 C 7.62939453125e-06 20.14718627929688 20.14718627929688 7.62939453125e-06 45.00000381469727 7.62939453125e-06 Z" stroke="none" fill="#15da7e"/>
            </g>
          </g>
        </g>
      </g>
    </g>
    <g id="educacion-en-linea_1_" data-name="educacion-en-linea (1)" transform="translate(643 4506.001)">
      <path id="Trazado_991112" data-name="Trazado 991112" d="M288,400.933h19.67a1.787,1.787,0,0,0,1.788-1.788V393.78a1.788,1.788,0,0,0-1.788-1.788H288Zm0,0" transform="translate(-255.812 -348.183)" fill="#33c0db"/>
      <path id="Trazado_991113" data-name="Trazado 991113" d="M49.129,121.052a20.564,20.564,0,0,0-41.129,0c0,.066.008.13.009.2s-.009.13-.009.2a20.564,20.564,0,1,0,41.129,0c0-.066-.009-.129-.009-.2S49.129,121.119,49.129,121.052Zm0,0" transform="translate(-7.106 -89.258)" fill="#33c0db"/>
      <path id="Trazado_991114" data-name="Trazado 991114" d="M120.385,309.357v4.471a.894.894,0,0,1-.894.894h-1.31a.894.894,0,0,1-.744-.4l-1.257-1.886a.894.894,0,0,0-.744-.4h-1.559a.9.9,0,0,0-.849.612l-2.661,7.984A20.556,20.556,0,0,0,133.8,316.97v-6.719a.9.9,0,0,0-.894-.894h-3.1a.894.894,0,0,1-.744-.4l-3.046-4.568a.894.894,0,0,0-.744-.4h-3.992a.9.9,0,0,0-.894.894v2.682" transform="translate(-98.032 -270.018)" fill="#fcb641"/>
      <path id="Trazado_991115" data-name="Trazado 991115" d="M162.8,100.95l2.3-.236A20.518,20.518,0,0,0,162.8,100.95Zm0,0" transform="translate(-144.606 -89.459)" fill="#33c0db"/>
      <path id="Trazado_991116" data-name="Trazado 991116" d="M95.022,102.955a20.113,20.113,0,0,0-7.092,3.216,20.443,20.443,0,0,1,8.368-3.347Zm0,0" transform="translate(-78.103 -91.333)" fill="#33c0db"/>
      <path id="Trazado_991117" data-name="Trazado 991117" d="M72.477,113.435a.892.892,0,0,0,.8.494h2.13a.9.9,0,0,1,.894.894v4.471a.894.894,0,0,0,.894.894h5.669a.892.892,0,0,0,.822-.542l2.218-5.175a.893.893,0,0,1,.822-.542h3.881a.894.894,0,0,0,.894-.894v-6.684a21.145,21.145,0,0,0-7.153-1.238c-.323,0-.644.009-.964.023l-2.3.228A19.709,19.709,0,0,0,70.8,110.085Zm0,0" transform="translate(-62.888 -93.366)" fill="#fcb641"/>
      <path id="Trazado_991118" data-name="Trazado 991118" d="M42.917,121.632a21.412,21.412,0,0,0-5.548-14.4l-1.325,1.2a19.651,19.651,0,0,1,.614,25.669v-4.424a1.79,1.79,0,0,0-1.788-1.788h-3.1l-3.046-4.568a1.785,1.785,0,0,0-1.488-.8H23.247a1.79,1.79,0,0,0-1.788,1.788V127h1.788v-2.682h3.992l3.046,4.568a1.785,1.785,0,0,0,1.488.8h3.1V136l-.114.109c-.358.33-.73.642-1.109.941-.114.09-.227.182-.343.27-.37.281-.75.544-1.137.8-.137.089-.274.179-.413.265-.385.237-.777.458-1.176.668-.148.078-.3.155-.447.23q-.613.3-1.246.561c-.144.059-.288.115-.434.171-.443.169-.892.324-1.347.46-.124.038-.248.072-.373.107-.485.135-.974.254-1.47.351-.095.019-.19.034-.285.051-.53.1-1.062.175-1.6.226-.057.006-.114.008-.172.014-.576.049-1.158.08-1.745.08-.341,0-.681-.009-1.019-.026-.269-.014-.536-.037-.8-.061-.064-.007-.13-.009-.194-.015-.308-.031-.613-.072-.915-.117l-.065-.009c-.3-.045-.6-.1-.891-.159l-.082-.015c-.277-.057-.551-.123-.824-.19l-.143-.035c-.246-.064-.489-.135-.731-.208l-.235-.07c-.214-.068-.427-.141-.638-.217-.107-.038-.213-.074-.318-.114-.189-.071-.375-.146-.561-.222-.126-.052-.251-.1-.377-.157-.076-.033-.15-.068-.225-.1l2.409-7.224H17.4l1.257,1.886a1.785,1.785,0,0,0,1.488.8h1.31a1.79,1.79,0,0,0,1.788-1.788v-4.471H21.458v4.471h-1.31l-1.257-1.886a1.785,1.785,0,0,0-1.488-.8H15.844a1.784,1.784,0,0,0-1.7,1.222l-2.326,6.976a19.6,19.6,0,0,1-4.157-31.1l1.122,2.243a1.776,1.776,0,0,0,1.6.989h2.13v4.471a1.79,1.79,0,0,0,1.788,1.788h5.669a1.785,1.785,0,0,0,1.644-1.084l2.217-5.175h3.881a1.79,1.79,0,0,0,1.788-1.788v-1.788H27.717v1.788H23.836a1.785,1.785,0,0,0-1.644,1.084l-2.217,5.175H14.306V110.9a1.79,1.79,0,0,0-1.788-1.788h-2.13l-1.345-2.688a19.687,19.687,0,0,1,3.242-2.182c.079-.041.156-.083.236-.124.445-.229.9-.445,1.363-.641.047-.02.1-.036.142-.055.4-.165.814-.315,1.229-.453.149-.05.3-.1.451-.144.43-.132.866-.254,1.308-.356.034-.008.068-.019.1-.026l-.131-.578-.263-1.168c-.029.006-.056.016-.085.023-.5.114-.991.252-1.48.4-.174.053-.345.112-.517.169-.38.127-.757.267-1.129.416-.136.055-.273.1-.408.162q-.766.324-1.505.708l-.066.036c-.51.267-1.008.559-1.5.867l-.025.016a21.558,21.558,0,0,0-2.687,1.994.824.824,0,0,0-.1.125,21.413,21.413,0,0,0,4.683,35.22c.013.007.021.019.033.025.05.025.1.045.151.07.18.087.362.168.544.251.3.138.61.267.917.391.184.073.367.149.553.217.215.079.432.148.648.22.138.045.276.094.416.137.224.069.45.131.675.192.137.037.272.074.41.109.226.056.454.109.682.158q.217.047.436.088c.221.043.442.083.666.119.165.027.333.049.5.072.206.028.41.056.617.079s.427.038.642.055c.165.012.33.029.5.038.387.021.775.033,1.167.033.669,0,1.328-.034,1.982-.095l.144-.01c.618-.061,1.227-.153,1.828-.265.089-.016.177-.03.265-.048.566-.114,1.122-.253,1.671-.41.124-.036.25-.069.373-.107.515-.157,1.021-.337,1.519-.532.151-.059.3-.116.452-.179.474-.2.937-.415,1.393-.644.162-.082.323-.162.483-.248.445-.239.88-.5,1.306-.764.153-.1.3-.192.455-.292.431-.287.849-.592,1.257-.909.131-.1.261-.2.389-.306.416-.339.819-.7,1.209-1.064.065-.062.137-.114.2-.178.013-.013.017-.03.03-.043a21.39,21.39,0,0,0,6.5-15.365Zm0,0" transform="translate(0 -89.446)"/>
      <path id="Trazado_991119" data-name="Trazado 991119" d="M57.379,275.113l-.975-.974a.9.9,0,0,0-.849-.235l-2.474.619a.9.9,0,0,1-.961-.371l-1.173-1.759a.891.891,0,0,0-.743-.4h-1.31a.9.9,0,0,0-.894.894V275.2a.892.892,0,0,0,.262.632l3.053,3.052a.893.893,0,0,0,.632.262h3.548a.892.892,0,0,0,.8-.494l1.253-2.506a.892.892,0,0,0-.167-1.032Zm0,0" transform="translate(-42.636 -241.594)" fill="#fcb641"/>
      <path id="Trazado_991120" data-name="Trazado 991120" d="M48.389,272.933H44.841a1.8,1.8,0,0,1-1.264-.524l-3.053-3.053A1.776,1.776,0,0,1,40,268.093V265.78a1.79,1.79,0,0,1,1.788-1.788H43.1a1.785,1.785,0,0,1,1.488.8l1.173,1.76,2.475-.619a1.794,1.794,0,0,1,1.7.471l.974.974a1.786,1.786,0,0,1,.335,2.065l-1.253,2.506a1.777,1.777,0,0,1-1.6.988Zm-6.6-7.153v2.313l3.053,3.052h3.548l1.253-2.506-.975-.974-2.475.619a1.792,1.792,0,0,1-1.92-.743L43.1,265.78Zm0,0" transform="translate(-35.53 -234.488)"/>
      <path id="Trazado_991121" data-name="Trazado 991121" d="M265.038,227.238l-1.375-2.751a.9.9,0,0,0-.8-.495H261a.892.892,0,0,0-.5.151l-1.8,1.2a.894.894,0,0,0-.3,1.143l1.319,2.638a.9.9,0,0,0,.34.367l4.035,2.421a.892.892,0,0,0,.46.128h2.435a.894.894,0,0,0,.894-.894v-2.038a.893.893,0,0,0-.612-.848l-1.719-.573a.893.893,0,0,1-.517-.448Zm0,0" transform="translate(-229.439 -198.959)" fill="#fcb641"/>
      <path id="Trazado_991122" data-name="Trazado 991122" d="M259.884,225.827H257.45a1.791,1.791,0,0,1-.92-.255l-4.035-2.421a1.791,1.791,0,0,1-.679-.733l-1.32-2.637a1.791,1.791,0,0,1,.608-2.288l1.8-1.2a1.78,1.78,0,0,1,.991-.3h1.859a1.776,1.776,0,0,1,1.6.989l1.374,2.748,0,0,1.719.573a1.787,1.787,0,0,1,1.223,1.7v2.037A1.79,1.79,0,0,1,259.884,225.827Zm-4.129-8.047H253.9l-1.8,1.2,1.32,2.637,4.034,2.421h2.435V222l-1.72-.573a1.779,1.779,0,0,1-1.033-.895h0Zm0,0" transform="translate(-222.332 -191.853)"/>
      <path id="Trazado_991123" data-name="Trazado 991123" d="M224,63.408l8.941,3.089,8.941-3.089V57.556l-3.359-1a19.666,19.666,0,0,0-11.305.026L224,57.556Zm0,0" transform="translate(-198.965 -49.511)" fill="#9c9792"/>
      <path id="Trazado_991124" data-name="Trazado 991124" d="M154.776,7.992,136,15.145l9.835,4.471V15.145l3.289-.987a19.673,19.673,0,0,1,11.3,0l3.29.987v4.471l9.835-4.471Zm0,0" transform="translate(-120.8 -7.1)" fill="#706d69"/>
      <path id="Trazado_991125" data-name="Trazado 991125" d="M456,132.463V129.78a1.788,1.788,0,1,1,3.576,0v2.682" transform="translate(-405.036 -113.688)" fill="#9bc53d"/>
      <path id="Trazado_991126" data-name="Trazado 991126" d="M453.365,125.357h-1.788v-2.682a.894.894,0,1,0-1.788,0v2.682H448v-2.682a2.682,2.682,0,0,1,5.365,0Zm0,0" transform="translate(-397.93 -106.582)"/>
      <path id="Trazado_991127" data-name="Trazado 991127" d="M464,191.992h1.788v2.682H464Zm0,0" transform="translate(-412.142 -170.535)"/>
      <path id="Trazado_991128" data-name="Trazado 991128" d="M483.086,182.477l1.549-.895,1.341,2.323-1.549.895Zm0,0" transform="translate(-429.095 -161.289)"/>
      <path id="Trazado_991129" data-name="Trazado 991129" d="M435.07,183.909l1.341-2.323,1.549.894-1.341,2.323Zm0,0" transform="translate(-386.445 -161.292)"/>
      <path id="Trazado_991130" data-name="Trazado 991130" d="M167.332,8.045c0-.01,0-.019,0-.028a.892.892,0,0,0-.575-.807L147.985.058a.9.9,0,0,0-.637,0L128.571,7.21a.894.894,0,0,0-.052,1.649l9.312,4.233V13.9a.9.9,0,0,0,.6.845l8.941,3.089a.9.9,0,0,0,.292.048.878.878,0,0,0,.292-.049l8.941-3.089a.893.893,0,0,0,.6-.845v-.807l8.047-3.658v3.083h1.788V8.045Zm-11.619,5.215-8.047,2.78-8.047-2.78V8.711l2.652-.8a18.752,18.752,0,0,1,4.029-.743c.057,0,.114,0,.172-.007.1-.006.2-.006.3-.01l0,6.256h1.788l0-6.256.151.005c.083,0,.166,0,.25.009a18.832,18.832,0,0,1,4.029.735l2.72.809Zm1.788-2.133V8.045a.894.894,0,0,0-.046-.284.972.972,0,0,0-.087-.166.831.831,0,0,0-.044-.083.843.843,0,0,0-.129-.126,1.01,1.01,0,0,0-.072-.071A.873.873,0,0,0,157,7.258a.97.97,0,0,0-.14-.069l-3.29-.987a20.628,20.628,0,0,0-4.491-.818l-.041,0c-.458-.03-.916-.049-1.376-.049l-.045,0c-.32,0-.64.02-.959.035-.167.008-.335.007-.5.02a20.563,20.563,0,0,0-4.477.828l-3.184.964-.031.009h0a.873.873,0,0,0-.2.1c-.016.01-.037.014-.052.025a.892.892,0,0,0-.379.73v3.082l-6.62-3.009,16.455-6.269,16.455,6.268Zm0,0" transform="translate(-113.691 0)"/>
      <path id="Trazado_991131" data-name="Trazado 991131" d="M392,247.992h8.941a1.788,1.788,0,0,1,1.788,1.788v5.365a1.787,1.787,0,0,1-1.788,1.788H392Zm0,0" transform="translate(-348.189 -220.277)" fill="#fcb641"/>
      <path id="Trazado_991132" data-name="Trazado 991132" d="M408,391.992h3.576v8.941H408Zm0,0" transform="translate(-362.401 -348.183)" fill="#c7ebf2"/>
      <path id="Trazado_991133" data-name="Trazado 991133" d="M392,327.992h10.729a1.788,1.788,0,0,1,1.788,1.788v3.576a1.787,1.787,0,0,1-1.788,1.788H392Zm0,0" transform="translate(-348.189 -291.335)" fill="#9bc53d"/>
      <path id="Trazado_991134" data-name="Trazado 991134" d="M432,327.992h3.576v7.153H432Zm0,0" transform="translate(-383.718 -291.335)" fill="#c5d998"/>
      <path id="Trazado_991135" data-name="Trazado 991135" d="M408,247.992h3.576v8.941H408Zm0,0" transform="translate(-362.401 -220.277)" fill="#fce0b0"/>
      <path id="Trazado_991136" data-name="Trazado 991136" d="M311.05,249.037a2.667,2.667,0,0,0,.2-1v-5.365a2.686,2.686,0,0,0-2.682-2.682h-8.941v1.788h.894v7.153h-.894v1.788H303.2v5.365h-6.259v1.788h3.576v7.153H288v1.788h19.67a2.686,2.686,0,0,0,2.682-2.682v-5.365a2.649,2.649,0,0,0-.165-.894h.165a2.686,2.686,0,0,0,2.682-2.682v-3.576A2.677,2.677,0,0,0,311.05,249.037Zm-1.591-6.363v5.365a.9.9,0,0,1-.894.894h-2.682v-7.153h2.682A.9.9,0,0,1,309.458,242.675Zm-7.153-.894h1.788v7.153h-1.788Zm2.682,8.941h1.788v5.365h-1.788Zm-2.682,14.306v-7.153h1.788v7.153Zm6.259-6.259v5.365a.9.9,0,0,1-.894.894h-1.788v-7.153h1.788A.9.9,0,0,1,308.564,258.768Zm2.682-3.576a.9.9,0,0,1-.894.894h-1.788v-5.365h1.788a.9.9,0,0,1,.894.894Zm0,0" transform="translate(-255.812 -213.171)"/>
    </g>
  </g>
</svg>
