<svg xmlns="http://www.w3.org/2000/svg" xmlns:xlink="http://www.w3.org/1999/xlink" width="108" height="108" viewBox="0 0 108 108">
  <defs>
    <filter id="Trazado_982419" x="0" y="0" width="108" height="108" filterUnits="userSpaceOnUse">
      <feOffset dy="3" input="SourceAlpha"/>
      <feGaussianBlur stdDeviation="3" result="blur"/>
      <feFlood flood-opacity="0.161"/>
      <feComposite operator="in" in2="blur"/>
      <feComposite in="SourceGraphic"/>
    </filter>
  </defs>
  <g id="Grupo_1158114" data-name="Grupo 1158114" transform="translate(-717 -886)">
    <g id="Grupo_1153317" data-name="Grupo 1153317" transform="translate(726 892)">
      <g id="Grupo_1148967" data-name="Grupo 1148967">
        <g transform="matrix(1, 0, 0, 1, -9, -6)" filter="url(#Trazado_982419)">
          <g id="Trazado_982419-2" data-name="Trazado 982419" transform="translate(9 6)" fill="#f5e9fe">
            <path d="M 45 88.5 C 39.12687683105469 88.5 33.43022537231445 87.35007476806641 28.06830024719238 85.08217620849609 C 22.88852500915527 82.89131164550781 18.23629951477051 79.75458526611328 14.2408504486084 75.75914764404297 C 10.24541282653809 71.76370239257812 7.108687400817871 67.11147308349609 4.917825222015381 61.93170166015625 C 2.649924993515015 56.56977462768555 1.5 50.87312316894531 1.5 45 C 1.5 39.12687683105469 2.649924993515015 33.43022537231445 4.917825222015381 28.06830024719238 C 7.108687400817871 22.88852500915527 10.24541282653809 18.23629951477051 14.2408504486084 14.2408504486084 C 18.23629951477051 10.24541282653809 22.88852500915527 7.108687400817871 28.06830024719238 4.917825222015381 C 33.43022537231445 2.649924993515015 39.12687683105469 1.5 45 1.5 C 50.87312316894531 1.5 56.56977462768555 2.649924993515015 61.93170166015625 4.917825222015381 C 67.11147308349609 7.108687400817871 71.76370239257812 10.24541282653809 75.75914764404297 14.2408504486084 C 79.75458526611328 18.23629951477051 82.89131164550781 22.88852500915527 85.08217620849609 28.06830024719238 C 87.35007476806641 33.43022537231445 88.5 39.12687683105469 88.5 45 C 88.5 50.87312316894531 87.35007476806641 56.56977462768555 85.08217620849609 61.93170166015625 C 82.89131164550781 67.11147308349609 79.75458526611328 71.76370239257812 75.75914764404297 75.75914764404297 C 71.76370239257812 79.75458526611328 67.11147308349609 82.89131164550781 61.93170166015625 85.08217620849609 C 56.56977462768555 87.35007476806641 50.87312316894531 88.5 45 88.5 Z" stroke="none"/>
            <path d="M 45 3 C 39.32871246337891 3 33.82865524291992 4.110054016113281 28.65262985229492 6.299339294433594 C 23.65165710449219 8.414573669433594 19.15968322753906 11.44334411621094 15.301513671875 15.301513671875 C 11.44334411621094 19.15968322753906 8.414573669433594 23.65165710449219 6.299339294433594 28.65262985229492 C 4.110054016113281 33.82865524291992 3 39.32871246337891 3 45 C 3 50.67128753662109 4.110054016113281 56.17134475708008 6.299339294433594 61.34737396240234 C 8.414573669433594 66.34834289550781 11.44334411621094 70.84031677246094 15.301513671875 74.698486328125 C 19.15968322753906 78.55665588378906 23.65165710449219 81.58542633056641 28.65262985229492 83.70066070556641 C 33.82865524291992 85.88994598388672 39.32871246337891 87 45 87 C 50.67128753662109 87 56.17134475708008 85.88994598388672 61.34737396240234 83.70066070556641 C 66.34834289550781 81.58542633056641 70.84031677246094 78.55665588378906 74.698486328125 74.698486328125 C 78.55665588378906 70.84031677246094 81.58542633056641 66.34834289550781 83.70066070556641 61.34737396240234 C 85.88994598388672 56.17134475708008 87 50.67128753662109 87 45 C 87 39.32871246337891 85.88994598388672 33.82865524291992 83.70066070556641 28.65262985229492 C 81.58542633056641 23.65165710449219 78.55665588378906 19.15968322753906 74.698486328125 15.301513671875 C 70.84031677246094 11.44334411621094 66.34834289550781 8.414573669433594 61.34737396240234 6.299339294433594 C 56.17134475708008 4.110054016113281 50.67128753662109 3 45 3 M 45 0 C 69.85281372070312 0 90 20.14718627929688 90 45 C 90 69.85281372070312 69.85281372070312 90 45 90 C 20.14718627929688 90 0 69.85281372070312 0 45 C 0 20.14718627929688 20.14718627929688 0 45 0 Z" stroke="none" fill="#a530fe"/>
          </g>
        </g>
      </g>
    </g>
    <g id="servicios_1_" data-name="servicios (1)" transform="translate(740 906)">
      <path id="Trazado_992307" data-name="Trazado 992307" d="M84.392,302.862l-12.557,8.4-3.742-.21-.146-1.473a4.782,4.782,0,0,0-4.088-4.261l-10.027-1.155a17.964,17.964,0,0,1-6.556-2.282,17.974,17.974,0,0,0-9.074-2.459H30.972v16.5l19.106,7.235a5.2,5.2,0,0,0,2.221.148l.013,0,19.235-2.773a8.506,8.506,0,0,0,4.037-1.809l12.432-11.181a2.968,2.968,0,0,0-3.627-4.683Zm0,0" transform="translate(-27.177 -262.737)" fill="#ffe8c2"/>
      <path id="Trazado_992308" data-name="Trazado 992308" d="M88.228,331.137l-12.642,8.926a8.51,8.51,0,0,1-4.037,1.809l-19.235,2.773-.013,0a5.2,5.2,0,0,1-2.221-.148l-19.106-7.235v6.489l19.106,7.235a5.2,5.2,0,0,0,2.221.148l.013,0,19.235-2.773a8.505,8.505,0,0,0,4.037-1.809l12.432-11.181a2.968,2.968,0,0,0,.483-3.889,3.031,3.031,0,0,0-.273-.344Zm0,0" transform="translate(-27.177 -290.562)" fill="#efd5af"/>
      <path id="Trazado_992309" data-name="Trazado 992309" d="M13.943,298.065H8.367a1.011,1.011,0,0,1-1.011-1.011v-22.5a1.011,1.011,0,0,1,1.011-1.011h5.576a1.011,1.011,0,0,1,1.011,1.011v22.5A1.011,1.011,0,0,1,13.943,298.065Zm0,0" transform="translate(-6.454 -240.022)" fill="#ff9248"/>
      <path id="Trazado_992310" data-name="Trazado 992310" d="M7.355,426.22a1.011,1.011,0,0,0,1.011,1.011h5.576a1.011,1.011,0,0,0,1.011-1.011v-5.478h-7.6Zm0,0" transform="translate(-6.454 -369.187)" fill="#f97c28"/>
      <path id="Trazado_992311" data-name="Trazado 992311" d="M143.18,25.069A17.714,17.714,0,1,1,125.467,7.355,17.714,17.714,0,0,1,143.18,25.069Zm0,0" transform="translate(-94.55 -6.454)" fill="#88dbfd"/>
      <path id="Trazado_992312" data-name="Trazado 992312" d="M229.084,7.355a17.8,17.8,0,0,0-3.244.3,17.716,17.716,0,0,1,0,34.832,17.715,17.715,0,1,0,3.244-35.13Zm0,0" transform="translate(-198.167 -6.454)" fill="#5abfe9"/>
      <path id="Trazado_992313" data-name="Trazado 992313" d="M119.013,37.23A18.615,18.615,0,1,0,100.4,18.615,18.636,18.636,0,0,0,119.013,37.23ZM103.5,25.085h7.2a26.916,26.916,0,0,0,1.874,6.424,14.172,14.172,0,0,0,2.018,3.328A16.89,16.89,0,0,1,103.5,25.085ZM119.013,1.8c1.721,0,3.469,1.7,4.8,4.656a24.769,24.769,0,0,1,1.691,5.686H112.526a24.769,24.769,0,0,1,1.691-5.686c1.327-2.958,3.075-4.656,4.8-4.656Zm6.761,12.145a38.523,38.523,0,0,1,0,9.335H112.252a38.589,38.589,0,0,1,0-9.335Zm10.051,4.668a16.757,16.757,0,0,1-.659,4.668h-7.577a40.274,40.274,0,0,0,0-9.335h7.577A16.753,16.753,0,0,1,135.825,18.615ZM119.013,35.427c-1.721,0-3.469-1.7-4.8-4.656a24.769,24.769,0,0,1-1.691-5.686H125.5a24.769,24.769,0,0,1-1.691,5.686c-1.327,2.958-3.075,4.656-4.8,4.656Zm-8.576-12.145H102.86a16.856,16.856,0,0,1,0-9.335h7.577a40.272,40.272,0,0,0,0,9.335Zm13,11.554a14.156,14.156,0,0,0,2.018-3.328,26.918,26.918,0,0,0,1.874-6.424h7.2a16.888,16.888,0,0,1-11.094,9.751ZM134.53,12.145h-7.2a26.923,26.923,0,0,0-1.874-6.424,14.155,14.155,0,0,0-2.018-3.328,16.889,16.889,0,0,1,11.094,9.751ZM114.59,2.393a14.165,14.165,0,0,0-2.018,3.328,26.923,26.923,0,0,0-1.875,6.424h-7.2A16.888,16.888,0,0,1,114.59,2.393Zm0,0" transform="translate(-88.096)"/>
      <path id="Trazado_992314" data-name="Trazado 992314" d="M7.489,266.184H1.913A1.915,1.915,0,0,0,0,268.1v22.5a1.915,1.915,0,0,0,1.913,1.913H7.489A1.914,1.914,0,0,0,9.4,290.6V268.1A1.914,1.914,0,0,0,7.489,266.184ZM7.6,290.6a.11.11,0,0,1-.11.11H1.913a.11.11,0,0,1-.11-.11V268.1a.11.11,0,0,1,.11-.11H7.489a.11.11,0,0,1,.11.11Zm0,0" transform="translate(0 -233.568)"/>
      <path id="Trazado_992315" data-name="Trazado 992315" d="M142.42,296.936a3.878,3.878,0,0,0-5.356-1.036l-12.306,8.236-2.671-.15-.07-.706a5.668,5.668,0,0,0-4.859-5.064l-.023,0L107.12,297.06a16.984,16.984,0,0,1-6.216-2.166,18.97,18.97,0,0,0-8.376-2.547.9.9,0,1,0-.11,1.8,17.152,17.152,0,0,1,7.576,2.3,18.783,18.783,0,0,0,6.885,2.4l.023,0L116.917,300a3.871,3.871,0,0,1,3.306,3.456l.063.629-14.2,2.3-6.163-1.512a.9.9,0,0,0-.429,1.751l6.341,1.556a.9.9,0,0,0,.359.014l15.119-2.447,3.644.2a.9.9,0,0,0,.552-.151l12.558-8.4a2.067,2.067,0,0,1,2.521,3.265l-12.415,11.166a7.615,7.615,0,0,1-3.587,1.6L105.359,316.2h-.012l-.013,0a4.251,4.251,0,0,1-1.8-.115l-10.116-3.831a.9.9,0,1,0-.639,1.686l10.154,3.845a.687.687,0,0,0,.075.024,6.252,6.252,0,0,0,1.7.242,5.837,5.837,0,0,0,.905-.071h.007l19.23-2.772.013,0a9.425,9.425,0,0,0,4.465-2l.033-.028,12.428-11.177a3.879,3.879,0,0,0,.629-5.07Zm0,0" transform="translate(-80.351 -256.523)"/>
    </g>
  </g>
</svg>
