<svg xmlns="http://www.w3.org/2000/svg" xmlns:xlink="http://www.w3.org/1999/xlink" width="369.501" height="317.553" viewBox="0 0 369.501 317.553">
  <defs>
    <filter id="Trazado_989622" x="6.813" y="0.58" width="341.24" height="316.973" filterUnits="userSpaceOnUse">
      <feOffset dy="3" input="SourceAlpha"/>
      <feGaussianBlur stdDeviation="3" result="blur"/>
      <feFlood flood-opacity="0.161"/>
      <feComposite operator="in" in2="blur"/>
      <feComposite in="SourceGraphic"/>
    </filter>
  </defs>
  <g id="Grupo_1158254" data-name="Grupo 1158254" transform="translate(-218.698 -5628.029)">
    <g transform="matrix(1, 0, 0, 1, 218.7, 5628.03)" filter="url(#Trazado_989622)">
      <path id="Trazado_989622-2" data-name="Trazado 989622" d="M834.636,266.533c2.256,15.549,8.139,25.25,10.085,29.837,11.154,26.279-22.806,82.847-66.512,108.453-84.765,49.668-219.1-9.548-225.877-61.5-1.165-8.914,2.5-9.412,3.886-24.922,4.712-52.62-35.035-73.475-32.478-109.3,3.23-45.352,71.24-72.536,77.949-75.126,50.12-19.373,104.149-6.533,136.7,17.512,11.436,8.445,7.331,8.756,25.984,24.288,40.85,34.017,67.106,38,71.031,60.019C837.255,246.165,832.113,249.18,834.636,266.533Z" transform="translate(-507.81 -117.98)" fill="#a530fe"/>
    </g>
    <g id="_x39_" transform="translate(234.51 5634.687)">
      <g id="Grupo_1153687" data-name="Grupo 1153687" transform="translate(108.937 0)">
        <path id="Trazado_990140" data-name="Trazado 990140" d="M63.482,161.52a151.584,151.584,0,0,0,42.083,29.571,148.662,148.662,0,0,0,19.247,7.479q2.837-6.382,5.67-12.765L81.09,147.821Z" transform="translate(63.887 2.399)" fill="#f17cf3"/>
        <path id="Trazado_990141" data-name="Trazado 990141" d="M63.482,161.52a151.584,151.584,0,0,0,42.083,29.571,148.662,148.662,0,0,0,19.247,7.479q2.837-6.382,5.67-12.765L81.09,147.821Z" transform="translate(63.887 2.399)" fill="#d2eaff"/>
        <path id="Trazado_990142" data-name="Trazado 990142" d="M271.344,216.671c-.992,15.274-14.19,25.608-19.665,29.488a59.2,59.2,0,0,0-12.22-1.4,58.26,58.26,0,0,0-16.417,2.159c-1.493.438-1.464.5-5.923,1.9-5.656,1.77-7.5,2.227-9.492,2.864a64.889,64.889,0,0,0-14.277,6.9,96.551,96.551,0,0,0-12.147,8.622,113.359,113.359,0,0,0-12.93,12.337c-23.93,6.288-38.883,2.534-48.011-2-10.878-5.349-12.405-11.248-24.869-15.138a38.328,38.328,0,0,0-15.751-1.629,9.812,9.812,0,0,0-1.245.092c-5.471.438-10.479,1.138-17.881-1.833-1.4-.511-19.028-7.746-22.7-22.559-1.921-7.926,2.028-9.852,2.743-28.433.447-10.757-.836-11.365.058-18.965a67.9,67.9,0,0,1,8.024-24.645,64.084,64.084,0,0,1,22.1-22.962,61.187,61.187,0,0,1,5.831-3.039c.336-.131.676-.311.958-.443,6.5-2.7,7.712-1.405,18.547-5.087,16.169-5.48,19.106-10.3,28.817-14.039s13.081-1.371,56.424,3.944c29.527,3.657,31.526,2.991,38.13,6.37a59.474,59.474,0,0,1,18.022,14.263,115.4,115.4,0,0,1,7.63,10.032c2.125,3.054,4.08,6.142,6.04,9.235,7.421,11.627,10.893,21.309,15.391,33.729C271.529,210.291,271.5,214.482,271.344,216.671Z" transform="translate(-37.29 -116.508)" fill="#d2eaff"/>
        <path id="Trazado_990143" data-name="Trazado 990143" d="M138.136,181.569c-3.127,2.329-7,3.516-14.764,5.991-6.429,2.013-10.368,3.3-14.263,3.569a21.465,21.465,0,0,1-3.71.019c-2.509-.19-6.492-.681-17.385-6.409-2.461-1.259-5.262-2.82-8.311-4.673a151.277,151.277,0,0,1-13.893-9.186A93.949,93.949,0,0,1,89.96,153.437q4.231-2.086,8.418-3.7,4.267-1.6,8.325-2.743a98.17,98.17,0,0,1,34.8-3.088,26.7,26.7,0,0,1,5.169,4.907,19.347,19.347,0,0,1,3.881,8.223C153.23,170.506,139.235,180.762,138.136,181.569Z" transform="translate(72.883 -14.256)" fill="#f17cf3"/>
        <path id="Trazado_990144" data-name="Trazado 990144" d="M138.136,181.569c-3.127,2.329-7,3.516-14.764,5.991-6.429,2.013-10.368,3.3-14.263,3.569a21.465,21.465,0,0,1-3.71.019c-2.509-.19-6.492-.681-17.385-6.409-2.461-1.259-5.262-2.82-8.311-4.673a151.277,151.277,0,0,1-13.893-9.186A93.949,93.949,0,0,1,89.96,153.437q4.231-2.086,8.418-3.7,4.267-1.6,8.325-2.743a98.17,98.17,0,0,1,34.8-3.088,26.7,26.7,0,0,1,5.169,4.907,19.347,19.347,0,0,1,3.881,8.223C153.23,170.506,139.235,180.762,138.136,181.569Z" transform="translate(72.883 -14.256)" fill="#d2eaff"/>
        <g id="Grupo_1153686" data-name="Grupo 1153686" transform="translate(137.407 127.957)">
          <path id="Trazado_990145" data-name="Trazado 990145" d="M114.12,192.884a29.372,29.372,0,0,1-3.9.569,22.351,22.351,0,0,1-3.924.015c-2.183-.165-6.3-.477-17.861-6.555-2.65-1.357-5.476-2.942-8.379-4.707a151.6,151.6,0,0,1-13.99-9.254A1.3,1.3,0,0,1,65.925,171,95.146,95.146,0,0,1,90.4,153.31c2.859-1.405,5.724-2.665,8.539-3.749,2.908-1.089,5.748-2.028,8.442-2.777a98.584,98.584,0,0,1,35.26-3.137,1.277,1.277,0,0,1,.637.238,27.934,27.934,0,0,1,5.427,5.15,20.741,20.741,0,0,1,4.143,8.787c2.7,13.631-10.28,23.9-12.925,25.827-3.185,2.373-6.905,3.56-14.311,5.918l-1.76.559C119.907,191.352,116.858,192.305,114.12,192.884ZM68.828,171.765a147.348,147.348,0,0,0,12.551,8.213c2.879,1.751,5.646,3.3,8.247,4.639,11.1,5.835,14.871,6.117,16.894,6.273a19.542,19.542,0,0,0,3.511-.019c3.56-.248,7.129-1.366,13.047-3.219l1.751-.554c7.139-2.276,10.718-3.414,13.562-5.534,1.488-1.084,14.379-10.893,11.924-23.254a18.1,18.1,0,0,0-3.633-7.678,25.832,25.832,0,0,0-4.62-4.445,96.568,96.568,0,0,0-33.982,3.078c-2.621.734-5.388,1.648-8.218,2.709-2.728,1.05-5.524,2.281-8.3,3.652A92.22,92.22,0,0,0,68.828,171.765Z" transform="translate(-65.546 -143.243)" fill="#d2eaff"/>
        </g>
        <path id="Trazado_990146" data-name="Trazado 990146" d="M265.294,194.324c.015-.992-1.512-1.1-1.546-.1-.063,4.085-4.605,4.834-7.8,5.145a33.085,33.085,0,0,0-8.238,1.658c-1.06.389-2.7,1-2.5,2.446.219,1.561,2.538,2.563,3.769,3.073,2.393.992,4.994,1.537,7.46,2.32.982.311,3.574.7,4.24,1.42,1.128,1.216-.452,2.874-1.434,3.808-4.416,4.192-11.486,3.166-16.966,4.527a.782.782,0,0,0-.413,1.279c2.777,3.083,5.8,8.408,4.484,12.745-1.6,5.305-9.974,0-12.639-1.629-2.072-1.269-7.28-5.758-10.966-5.869.759-1.794-.17-.856,2.392-3.433,3.068-3.083,1.683-1.6,4.941-1.541,6.19.1,5.32-9.2,6.341-13.485a106.766,106.766,0,0,1,5.257-16.232c1.255-3.025.973-3.428,3.336-1.614,1.58,1.211,2.757,2.947,4.415,4.1,1.619,1.133,2.684,2.329,4.367,1.036.345-.263.355-.861.53-1.211,1.974-3.968.195-8.233,4.381-11.428.793-.6-.253-1.751-1.041-1.148a10.093,10.093,0,0,0-3.769,5.879c-.584,2.169.219,6.025-3.628,5.573-1.877-.219-5.393-5.31-6.6-6.837a.785.785,0,0,0-1.308.277A114.3,114.3,0,0,0,236.924,199c-1.284,4.114-1.751,8.583-3.122,12.624-.973,2.864.311,5.758-5.033,6.711-.924.165-2.018-.5-3.03-.233-1.935.5-2.889,1.935-3.657,3.657a36.74,36.74,0,0,0-1.469,4.041,4.23,4.23,0,0,0-1.415,2.222.724.724,0,0,0,.408.88,19.444,19.444,0,0,1-3.166,6.171c-3.453,4.3-9.264,6.234-13.368,1.187a18.649,18.649,0,0,1-3.234-7.562c-.807-3.278-1.123-14.214-6.293-14.661-2.13-.185-3.526,1.935-4.522,3.419a29.845,29.845,0,0,0-1.717,3.3q-.788,5.354-5.612,1.916-.408-2.079-.666-4.177c-.778-6.458,1.118-11.719-6.725-11.189-3.885.263-12.079.763-13.222,5.758-.963,4.206,6.6,9.093-1.8,11.608-4.133,1.24-9.983-.72-14.156-2.271a6.433,6.433,0,0,0,1.036-.793c2.018-2.3,1.935-5.524.754-8.189-.579-1.313-1.828-2.169-2.4-3.36-.389-.306-.783-.613-1.172-.919.452-1.25.9-2.5,1.352-3.754,1.143-.788,6.137.394,7.708.3,7.041-.443,13.188-5.84,9.079-13.047-2.4-4.211-6.988-6.5-11-8.855a44.558,44.558,0,0,1-8.875-6.555c-2.845-2.8-3.156-2.3-.992-6.268,2.417-4.425,2.558-2.991,6.069-.661,5.349,3.545,10.056,7.926,14.948,12.055,2.086,1.76,6.341,6.959,9.648,5.84,2.47-.836,2.942-6.395,3.307-8.388a37.445,37.445,0,0,1,.52-4.265c.024-.715.044-1.43.068-2.144l3.725,1.736c1.653,2.592-.447,9.774-.841,12.551-.618,4.381-1.42,17.876,6.842,16.062,2.14-.467,3.618-2.864,4.965-4.352,1.4-1.551,2.762-3.137,4.148-4.7,1.532-1.736,2.315-4.576,4.488-1.157,1.585,2.495.559,8.029.807,10.873a21.807,21.807,0,0,0,1.6,7.11c5.262,11.729,16.879,3.555,22.992-2.689,7.81-7.985,12.814-19.218,7.844-29.809,4.124,1.537,11.019,4.527,12.026-.622.525-2.694-2.412-7.134-3.326-9.512-1.308-3.385-1.94-3.453,1.673-3.608,2.835-.122,6.035.686,8.86,1.007.992.112,1.084-1.435.1-1.546q-6.645-.759-13.29-1.507a.786.786,0,0,0-.739,1.128c1,2.587,3.579,6.755,3.642,9.434a5.058,5.058,0,0,1-4.508,4.77c-1.444.1-4.313-1.211-5.612-1.58a.784.784,0,0,0-.934,1.089c7.226,12.551-1.366,25.666-11.185,33.685-4.95,4.041-12.629,6.9-16.15-.948-1.216-2.7-1.386-5.709-1.522-8.612-.224-4.673-.277-8.87-2.436-13.135a.778.778,0,0,0-1.211-.219l-4.975,5.646c-1.318,1.5-3.214,4.761-4.975,5.646-9.813,4.941-8.111-8.675-7.26-14.214.6-3.915,2.534-13.348-1.916-16.193-3.088-1.974-4.036,1.167-4.362,3.579-.5,3.681.146,14.632-5.626,12.2-4.2-1.765-8.053-6.667-11.54-9.614C152,172.1,145.211,165.3,139.049,164.636c-4.372-.472-5.383,3.545-3.934,6.915,2.665,6.176,9.91,10.805,15.42,14.034a36.249,36.249,0,0,1,6.677,4.493c.982.914,3.054,2.592,3.355,4.026.457,2.174-2.441,8.277-4.2,9.171-4.425,2.256-9.419-.321-13.976.554-4.07.783-3.535,3.127-1.152,5.694,1.634,1.76,2.125.506,4.007,3.9.3.866.608,1.731.909,2.6l-5.369,6.638c-2.349,1.221-6.682.6-9.351.773q-8.8.569-17.613,1.143a9.8,9.8,0,0,0-1.483-6.448c-.253-.408-.462-.768-.681-1.138,5.208-.423,14.477.267,18.065-3.7,3.088-3.414.8-8.427-1.649-11.447-3.8-4.693-9.517-7.163-14.9-9.536-.6-.258-1.211-.511-1.814-.768q-7.564-1.568.574-8.826c3.219-1.3,8.413,1.473,11.078,3,3.764,2.159,7.129,4.931,10.684,7.4,2.329,1.619,8.646,7.236,12.074,4.732,3.01-2.2-.2-6.293-1.838-8.063-5.038-5.466-12.361-8.821-16.072-15.5-2.879-5.184-2.509-11.214-1.225-16.8.749-3.263,1.843-7.712,5.14-9.38a7.731,7.731,0,0,1,3.18-.8.811.811,0,0,0,.968-.024c4.381.36,8.087,4.5,10.28,7.878,2.689,4.133,5.568,12.77,10.815,14.491,4.634,1.522,5.782-3.671,7.868-6.808,3.224-4.839,9.628-9.2,15.517-5.48,5.125,3.239,5.437,10.2,4.994,15.508-.311,3.72-3.331,12.8.793,15.337,3.331,2.047,6.939-2.641,8.559-4.853a42.834,42.834,0,0,0,3.715-6.857c1.517-3.112,3.866-7.756,7.839-7.328a.571.571,0,0,0,.258.029,9.152,9.152,0,0,1,4.586,2.6c3.5,3.239,2.461,8.773,1.06,12.546-1.473,3.968-7.474,9.731-5.69,14.491,1.337,3.564,4.3,3.2,6.988,1.561,11.953-7.3,15.279-24.46,11.3-36.87-.671-2.086-3.137-5.077,1.707-3.355,1.371.486,2.412,1.989,3.832,2.538,1.648.637,3.5.948,5.009-.224a4.441,4.441,0,0,0,1.522-3.3,12.557,12.557,0,0,0-.452-3.346c-.063-.326-2.782-10.786.559-9.04.875.457,1.731-.836.846-1.3-2.791-1.459-4.367.394-4.654,3.19-.331,3.209,3.132,7.265,2.149,10.4-1.965,6.263-8.384-1.556-10.946-1.566a3.548,3.548,0,0,0-1.449.248c-2.13-2.251-1.8-5.636-2.028-8.563s-1.634-5.884-4.853-6.244a5.88,5.88,0,0,0-1.872.17,6.835,6.835,0,0,1,1.118-2.213,8.248,8.248,0,0,1,3.545-2.368,5.158,5.158,0,0,0,3.122-2.9,6.788,6.788,0,0,0,0-4.182c-.277-.953-1.794-.642-1.517.321a4.936,4.936,0,0,1-.165,3.812c-.759,1.3-2.383,1.576-3.628,2.217a8.279,8.279,0,0,0-4.211,5.908,18.1,18.1,0,0,0-4.678,3.487,11.24,11.24,0,0,0-2.709,3.881,13.974,13.974,0,0,0-.657,2.344c-.068.336-.126.676-.185,1.016a34.658,34.658,0,0,0-1.182-4.279c-1.741-4.9-5.145-8.418-9.531-11.092-.233-.141-.486-.253-.725-.389a5.278,5.278,0,0,1,3.278-3.812c2.305-1.045,4.975-.982,7.411-1.537a12.949,12.949,0,0,0,5.826-2.748c1.289-1.2,1.692-3.316.078-4.435-.822-.569-1.668.729-.846,1.3,1.011.7-.1,1.906-.739,2.373a12.383,12.383,0,0,1-2.84,1.469c-2.213.836-4.591.909-6.886,1.376-2.859.584-5.9,2.329-6.628,5.3a33.3,33.3,0,0,0-11.826-3.579c-2.465-.253-6.424-.627-8.729.9a9.755,9.755,0,0,1,.229-1.182c.54-1.8,1.96-2.558,3.521-3.409,1.77-.963,3.555-1.9,5.305-2.889a2.269,2.269,0,0,0,1.3-1.6c.112-.7-.311-1.483-.039-2.14.379-.924-1.089-1.405-1.469-.491-.311.759-.01,1.42-.01,2.183,0,.72-1.2,1.06-1.731,1.352-1.78.968-3.589,1.9-5.339,2.918a6.139,6.139,0,0,0-2.908,3.375,3.765,3.765,0,0,0-.676-1.094c-1.517-1.571-4.138-2.047-6.22-2.2-5.743-.428-11.243,2.242-15.931,5.291a52.24,52.24,0,0,0-10.854,9.492,27.9,27.9,0,0,0-4.683-2.859c-1.979-1.036-4.79-2.514-5.923-4.5-1.381-2.427,4.649-3.842,6.132-4.347a52.521,52.521,0,0,0,6.759-2.626c1.517-.768,3.477-1.814,3.735-3.7.248-1.809-1.138-3.292-2.577-4.153a15.947,15.947,0,0,0-5.655-1.819c-1.05-.17-2.106-.3-3.156-.447-.34-.049-1.853-.1-2.038-.345-.336-.433,1.264-1.542,1.5-1.692.836-.525.136-1.906-.71-1.376-1.089.681-3.482,2.733-2.076,4.129.637.632,1.945.637,2.777.763,1.2.185,2.407.311,3.608.511,2.052.34,6.39,1.138,6.793,3.73.253,1.624-1.984,2.558-3.137,3.127A37.494,37.494,0,0,1,133.248,131a55.224,55.224,0,0,0-7.4,2.782c-1.556.817-2.748,2.251-1.974,4.075.89,2.091,3.5,3.662,5.354,4.77a56.579,56.579,0,0,1,5.6,3.195,9.485,9.485,0,0,0-1.965.263c-5.869,1.488-7.333,8.223-8.223,13.383-1.041,6.04-.647,12.079,2.927,17.258a35.416,35.416,0,0,0,6.652,6.779c1.469,1.235,3,2.388,4.469,3.618,1.25,1.045,10.956,8.15,1.3,8.189-2.961.01-8.2-5.51-10.727-7.3-3.472-2.461-7.241-5.174-11.4-6.351-4.25-1.2-12-.554-12.809,5.189-.7,4.95,6.1,6.229,9.439,7.732,4.877,2.193,12.41,5.578,14.268,11.141,3.38,10.105-12.6,9.3-17.851,9.794a5.952,5.952,0,0,1-.126-4.484,19.451,19.451,0,0,0,1.24-4,9.335,9.335,0,0,0-1.892-6.458c-3.881-5.15-9.1-2.645-14.452-3.36-3.166-.423-4.639-4.133-7.97-3.851-2.013.17-3.453,1.483-4.639,3-.151-2.66-.156-5.534-.943-8.033.336-6.137,10.431-2.461,13.913-2.407,3.234.049,7.858-.374,10.081-3.093,2.081-2.543.948-6.113-.19-8.8-.87-2.057-1.955-4.007-2.986-5.981-.481-.919-3.686-6.584-3.01-7.246,1.469-1.435,9.891,5.782,11.345,6.75,2.368,1.576,4.566,1.692,5.159-1.546.656-3.623-1.313-7.635-3.2-10.582A28.235,28.235,0,0,0,109.717,151c-1.678-1.731-3.949-3.419-5.082-5.587-.443-.851-1.055-2.738-.705-3.715.34-.943,1.887-1.444,2.767-1.726,1.308-.418,2.675-.593,3.973-1.031A6.4,6.4,0,0,0,114.512,136a3.9,3.9,0,0,0,.195-3.448c-1.055-2.232-5.121-2.529-5.067-5.247.019-1-1.527-1.094-1.546-.1a3.837,3.837,0,0,0,1.546,3.278c.588.5,1.313.739,1.916,1.2a6.8,6.8,0,0,1,1.931,2.509c.306,1.527-1.751,2.592-2.8,3.054-2.709,1.191-7.285.934-8.466,4.4-1.089,3.195,2.431,6.492,4.411,8.466,3.423,3.419,6.647,7.076,7.96,11.865.3,1.084.729,2.728.258,3.812a1.532,1.532,0,0,1-2,.948,7.547,7.547,0,0,1-1.459-1.007c-1.809-1.284-3.55-2.67-5.4-3.9-1.294-.856-5.874-4.289-7.387-2.3-.71.934.049,2.519.345,3.4a40.235,40.235,0,0,0,2.611,5.816c1.887,3.618,7.241,11.515,1.717,14.282-5.456,2.733-10.791.243-16.363.126a6.053,6.053,0,0,0-5.743,3.088,7.689,7.689,0,0,0-1.989-2.256,10.535,10.535,0,0,0-8.364-1.576,2.938,2.938,0,0,0-1.274-1.828c-.778-.574-1.862-1-2.227-2a6.386,6.386,0,0,1,.063-2.762,20.21,20.21,0,0,1,1.43-5.1,8.45,8.45,0,0,1,1.566-2.782c1.668-1.444,3.36-.1,4.415,1.332,3.321,4.474,9.074,7.97,14.836,7.659,1.751-.092,4.79-.725,4.673-3.034-.068-1.318-1.06-2.7-1.663-3.822a44.113,44.113,0,0,1-2.582-5.194c-.622-1.639-1.259-3.846-.618-5.578.87-2.349,3.2-2.519,5.369-2.767a26.208,26.208,0,0,0,5-1.031c.715-.229,1.6-.428,1.955-1.177.54-1.162-.486-3.039-.832-4.133a63.362,63.362,0,0,1-1.741-6.161c-.885-4.3.384-8.471-.131-12.77-.117-.987-1.634-.666-1.517.316.443,3.71-.656,7.377-.16,11.1a36.385,36.385,0,0,0,1.386,5.782c.253.822.515,1.634.768,2.456.355,1.143,1.216,2.378-.054,3.068-2.923,1.576-6.764.384-9.6,2.217-1.892,1.225-2.388,3.54-2.183,5.651.326,3.365,2.183,6.351,3.735,9.269.511.958,1.182,1.76.885,2.845-.374,1.376-2.145,1.454-3.477,1.42a16.164,16.164,0,0,1-5.548-1.337,17.506,17.506,0,0,1-4.488-2.611,31.888,31.888,0,0,1-3.584-4.143c-1.449-1.648-3.71-2.519-5.553-.934-2.31,1.989-3.351,6.127-3.793,8.991a7.531,7.531,0,0,0,.156,4.216c.627,1.376,2.961,1.809,3.273,3.175A25.839,25.839,0,0,0,65.733,184c-.866.374-3.608,2.315-4.464,2.125-1.109-.248-1.08-2.2-1.06-2.981a19.173,19.173,0,0,1,.438-2.324c.238-1.522.652-3.759-.535-5.062a2.67,2.67,0,0,0-1.765-.793c-.953-4.707-1.858-10.6.185-15.065a9.425,9.425,0,0,1,12.838-4.581,54.487,54.487,0,0,1,5.553,4.007c1.225.875,3.083,2.378,4.659,1.425,1.454-.88,2.388-3.01,3.03-4.508a16.435,16.435,0,0,0-4.381-18.931c-.739-.652-1.9.379-1.148,1.041a15.54,15.54,0,0,1,5.091,9.346c-1.036,2.854-4.644,3.438-7.051,2.018a8.5,8.5,0,0,1-3.7-8.86.8.8,0,0,0-.491-.982.782.782,0,0,0-.982.491,10.347,10.347,0,0,0,2.611,9.3,7.175,7.175,0,0,0,7.97,1.819,5.943,5.943,0,0,0,1.8-1.269,14.824,14.824,0,0,1-.909,4.819c-.423,1.138-1.143,3.122-2.154,3.9-1.488,1.133-3.331-.744-4.411-1.566-2.174-1.658-4.3-3.53-6.964-4.357-4.741-1.464-10.217,1.4-12.488,5.66-2.529,4.746-1.673,11.155-.647,16.315-.462.058-.914.136-1.332.2a30.286,30.286,0,0,0-4.751,1.313,17.051,17.051,0,0,1-2.062.622c-1.386.267-6.536.647-4.474-3.38.452-.88-.841-1.736-1.3-.846-1.7,3.316,1.114,6.049,4.493,5.967,2.893-.073,5.548-2.276,8.413-2.159,5.976.238,2.256,5.412,2.728,8.9.7,5.14,7.7-.233,10.163-1.05,4.109-1.357,9.531-1.284,11.671,3.239,1.551,3.278.963,7.348,1.4,10.883a.781.781,0,0,0,1.405.263c1.765-2.66,3.492-5.237,7.309-2.927.579.35,1.011,1.045,1.571,1.439a8.133,8.133,0,0,0,4.454,1.367c4.693.209,9.9-1.624,12.872,3.326a8,8,0,0,1,.384,7.372c-.642,1.687-1.279,3.234-.929,5.052.408,2.14,2.047,3.735,2.966,5.636a6.8,6.8,0,0,1-2.9,9.055,24.748,24.748,0,0,0-2.057-2.237c-.88-4.989,1.43-9.677.705-14.491-.511-3.38-2.85-5.714-5.879-7.1a10.8,10.8,0,0,0-9.9.088c-4.236,2.271-6.988,6.755-11.1,9.079-3.788,2.144-4.634-3.273-5.1-6-.428-2.5-.549-5.057-1.206-7.518-.729-2.738-2.12-5.845-5.31-6.152-3.248-.311-6.2,2.3-8.286,4.459a29.753,29.753,0,0,0-3.832,4.98c-.832,1.352-1.639,3.871-2.806,5.266-.545-5.694,1.391-16.149-4.4-18.873-6.069-2.855-9.726,6.949-11.078,10.975a.775.775,0,0,0,1.469.491,28.489,28.489,0,0,1,2.869-6.662c1.255-1.911,4.114-5.364,7.1-2.572,1.041.973,1.454,2.767,1.717,4.085.943,4.7-.049,9.546.968,14.263a.787.787,0,0,0,1.114.53c2.665-1.235,3.589-5.617,5.179-7.936a26.026,26.026,0,0,1,4.2-4.809,12.552,12.552,0,0,1,2.82-1.994c1.8-.856,2.679-.8,4.3.438,3.827,2.918,2.961,9.118,4.08,13.441.506,1.96,1.619,5.641,3.924,6.2,2.354.564,4.97-2.893,6.458-4.177,3.419-2.957,7.3-7.513,12.225-7.25,5.641.3,9.351,4.411,8.928,9.93-.263,3.409-1.055,6.628-.788,10.008a11.808,11.808,0,0,0-1.678-.958c-4.853-2.232-10.377-.656-14.783,1.867-6.268,3.589-11.753,8.087-18.352,11.189-2.368,1.114-11.034,6.117-11.131,1.221-.058-2.971,1.172-5.826,1.833-8.675.759-3.282,1.177-9.06-3.025-10.309-4.61-1.371-8.048,4.484-9.687,7.746-.773,1.542-1.439,3.137-2.256,4.649-.627,1.157-.554,1.8-1.906,1.576-1.648-.277-.71-1.619-.384-2.772.812-2.85,2.446-5.422,2.981-8.364.326-1.79.326-4.654-2.028-5.1-2.373-.447-5.339,3.438-6.823,4.736-.749.656.287,1.8,1.041,1.148.608-.535,2.845-3.083,3.618-3.161.467.224.934.443,1.4.666q2.327.277,1.06,2.344c-.16.618-.389,1.23-.608,1.828-.89,2.4-2.125,4.693-2.538,7.241-.336,2.072.049,5.344,2.971,4.007,1.751-.8,2.665-3.565,3.438-5.16,1.357-2.786,2.553-5.928,4.848-8.111a7.979,7.979,0,0,1,1.653-1.284c.486-.18.973-.365,1.464-.545q1.743,1.357,3.487,2.718c.564,1.1.306,2.908.131,4.08-.389,2.65-1.435,5.159-1.916,7.79-.389,2.115-.992,7.6,2.465,7.518,2.062-.049,4.741-1.8,6.589-2.606,3.088-1.342,6.147-2.757,9.1-4.372,5.427-2.966,10.09-7.406,15.751-9.9,6.686-2.942,15.352-.992,17.185,7,1.872,8.15-9.682,13.295-15.542,16.047-5.31,2.495-10.786,4.571-13.47,10.163-.433.9,1.046,1.376,1.469.491,3.4-7.075,13-8.972,19.242-12.77,4.138-2.519,9.429-5.767,10.022-11.078a10.454,10.454,0,0,0-1.255-5.952,8.225,8.225,0,0,0,3.881-4.484c6.949-.447,13.9-.875,20.857-1.352a1.462,1.462,0,0,0-.034,1.717c.511.8,1.687,1.065,2.47,1.371,1.76.7,3.569,1.274,5.305,2.028a6.4,6.4,0,0,1,2.679,1.649c1.352,1.892.131,3.03-1.07,3.691a12.417,12.417,0,0,1-5.2,1.07c-3.681.224-7.372-.122-11.053.141-3.064.219-9.312,1.255-7.542,5.894,1.785,4.683,8.432,4.484,12.429,4.206,6.122-.423,12.288-2.013,18.445-1.167,1.041.146,3.846.365,4.668,1.294,1.653,1.862-.686,4.352-2.028,5.476-2.66,2.227-6.331,3.054-9.682,3.516-6.487.895-13.057.034-19.544-.413a77.541,77.541,0,0,0-9.449-.194c-2.252.122-5.223.053-7.1,1.5-4.479,3.457,2.811,10.017,5.082,12.332a134.377,134.377,0,0,0,16.1,13.417c.8.6,1.644-.705.846-1.3a139.674,139.674,0,0,1-14.8-12.162c-2.149-2.115-4.7-4.484-6.21-7.114-2.957-5.164,4.216-5.1,7.4-5.184,11.175-.292,23.312,3.3,34.127-.851,3.064-1.177,7.975-4.279,7.45-8.243-.515-3.915-7.96-3.876-10.737-3.856-5.913.044-11.719,1.546-17.638,1.512a14.708,14.708,0,0,1-4.2-.481c-2.261-.7-5.918-3.861-1.814-5.884,2.976-1.464,7.4-.87,10.625-.836,3.516.034,11.749.744,12.964-4.036.486-1.916-.768-3.477-2.281-4.469a17.737,17.737,0,0,0-3.336-1.5c-.822-.316-1.649-.627-2.47-.938-.374-.141-2.923-1.425-3.034-1.371a.677.677,0,0,0,.336-.924c2.529-.175,5.218-.306,7.484-1.269a41.934,41.934,0,0,0,10.732,2.616,33.289,33.289,0,0,0,6.72.219,33.873,33.873,0,0,0,5.344,9.949c.36.452.759.866,1.143,1.294a5.11,5.11,0,0,1-.457,5.417c-.832,1.055-2.193,1.517-2.986,2.6-1.3,1.78-.457,3.56,1.294,4.576,3.015,1.751,6.482,2.723,9.074,5.193,1.644,1.566,2.49,4.036.525,5.728a7.955,7.955,0,0,1-4.984,1.542c-5.038.146-13.164-3.847-16.787,1.3-1.532,2.179-2.023,5.062-2.5,7.625a50.73,50.73,0,0,0-.832,10.645c.024.992,1.571,1.094,1.546.1a49.54,49.54,0,0,1,.934-11.146c.8-3.939,1.736-8.277,6.609-8.208,5.344.073,13.028,3.584,17.448-1.07,4.775-5.023-3.6-9.847-7.275-11.656-1.391-.686-5.213-1.532-3.477-4.046.763-1.1,2.256-1.551,3.025-2.772a6.272,6.272,0,0,0,.914-3.676c1.984,1.887,4.124,3.618,6.239,5.359,2.188,1.8,4.741,4.4,7.513,2.047,1.454-1.23,2.276-3.195,3.171-4.824q1.24-2.254,2.475-4.513c.608,4.075,2.023,7.649,6.769,8.384,5.082.788,10.547-.326,13.611-4.756.078-.112.049-.214.063-.321a9.324,9.324,0,0,0,5.568-2.008c2.641-2.008,4.464-5.1,5.821-8.058a40.814,40.814,0,0,0,1.444-4.182c1.892-.583,4.795,1.561,6.171,2.534,1.974,1.391,3.983,2.738,6.083,3.929,2.864,1.629,6.842,3.968,10.295,3.049,2.782-.739,3.545-3.642,3.38-6.21A18.461,18.461,0,0,0,243.79,219.9c5.2-1.011,10.893-.588,15.381-3.783,1.542-1.1,3.409-3.02,3.613-5.038.214-2.1-2.222-2.465-3.764-2.976-2.937-.982-5.981-1.7-8.894-2.752-1.882-.681-4.381-2.1-1.08-3.151a28.319,28.319,0,0,1,4.834-1.07c4.143-.545,10.494-.841,11.233-5.972.039-.088.117-.136.122-.253A2.882,2.882,0,0,0,265.294,194.324ZM205.982,153.51a9.538,9.538,0,0,1,1.507-3.608,17.356,17.356,0,0,1,2.884-2.908,14.078,14.078,0,0,1,2.407-1.707.719.719,0,0,0,.992-.462,3.793,3.793,0,0,1,3.827.35c2.242,1.707,1.741,5.121,1.9,7.567a9.578,9.578,0,0,0,2.6,6.317,8.786,8.786,0,0,0-.029,1.279c.112,3.983,2.8,8.087,2.986,12.327a31.871,31.871,0,0,1-2.329,13.271c-1.225,3.034-4.216,9.512-7.416,10.995-.457.4-.914.812-1.376,1.216q-6.7-3.6-3.141-7.605c.321-1.026,1.619-2.811,2.076-3.8,2.514-5.422,3.642-13.013-1.848-17.1a8.612,8.612,0,0,0-3.691-1.546c-1.391-3.608-1.926-7.426-2.616-11.209a1.549,1.549,0,0,0,.248-.1C205.86,156.126,205.763,154.492,205.982,153.51Zm-28.331-17.681a31.484,31.484,0,0,1,18.1,6.725c7.98,6.361,6.847,16.65,9.925,25.433a7.339,7.339,0,0,0-3.676,1.06c-2.018,1.264-3.18,3.37-4.255,5.407-1.1,2.1-1.877,4.3-3.127,6.341-2.3,3.74-8.972,8.884-8.617.88.4-8.933,3.73-29.055-11.822-27.067a12.172,12.172,0,0,0-2.879.788.76.76,0,0,0-.768-.462c-2.222.224-3.278-2.052-3.2-3.929a13.7,13.7,0,0,1,1.274-4.459,22.451,22.451,0,0,0,1.629-7.815,1.132,1.132,0,0,0,.457-.661C171.188,135.3,175.6,135.741,177.651,135.829Zm-28.452,0c4.911-2.937,11.243-5.631,16.971-3.438a3.431,3.431,0,0,1,2.548,3.555c.034,1.293,0,2.606-.087,3.9-.19,2.874-1.221,5.237-2.154,7.907-.705,2.008-1.114,4.4-.039,6.361a4.394,4.394,0,0,0,3.01,2.261,18.39,18.39,0,0,0-5.845,5.641c-.734,1.109-1.639,4.124-2.67,4.853-4.381,3.1-7.644-2.718-9.205-5.189-2.237-3.545-3.846-7.562-6.667-10.723a15.126,15.126,0,0,0-7.922-4.907A49.886,49.886,0,0,1,149.2,135.829Zm47.364,108.84c-2.354-.287-4.095-.938-5.135-3.166a19.32,19.32,0,0,1-1.293-6.409.78.78,0,0,0-1.405-.263c-1.692,3.088-3.273,6.278-5.106,9.283a6.269,6.269,0,0,1-1.41,1.8c-1.391,1.031-2.358.438-3.487-.443-1.376-1.07-2.7-2.217-4.046-3.326-5.466-4.5-9.862-9.453-12.22-16.213a4.972,4.972,0,0,0,1.459-.579,3.831,3.831,0,0,0,1.488-3.239,6.633,6.633,0,0,0-.413-2.276c-.224-.725-.841-1.381-1.036-2.086-.72-2.572.141-5.923,2.29-7.328,1.454-.953,8.734-2.431,10.295-1.717,2.845,1.3,2.568,5.446,2.772,7.9.209,2.558.088,8.238,2,10.2,3.657,3.74,6.122-2.777,7.455-5.456.073-.146,1.162-2.884,1.58-3.039,1.415-.525,6.074,2.606,6.589,3.545,1.041,1.9.924,5.014,1.415,7.163a19.626,19.626,0,0,0,3.6,8.281,9.894,9.894,0,0,0,5.68,3.574C204.994,244.241,200.667,245.17,196.562,244.669Z" transform="translate(-35.868 -116.93)" fill="#d2eaff"/>
        <path id="Trazado_990147" data-name="Trazado 990147" d="M140.306,145.808c.987-.136.666-1.648-.321-1.517-7.421,1.011-14.924.914-22.354,1.765a83.5,83.5,0,0,0-18.7,4.386,85.685,85.685,0,0,0-31.506,20.011c-.705.7.331,1.858,1.041,1.148a84.225,84.225,0,0,1,33.213-20.477C114.339,146.984,127.279,147.578,140.306,145.808Z" transform="translate(78.197 -11.27)" fill="#d2eaff"/>
        <path id="Trazado_990148" data-name="Trazado 990148" d="M101.76,153.755c6.156-2.427,12.658-3.637,19.126-4.887a120.7,120.7,0,0,1,18.727-2.334c.987-.034,1.094-1.58.1-1.546a123.633,123.633,0,0,0-19.14,2.363c-6.609,1.274-13.241,2.524-19.519,5.023a193.979,193.979,0,0,0-19.68,9.531c-4.848,2.6-9.91,5.247-13.3,9.7-.6.793.7,1.639,1.3.846,3.764-4.941,9.91-7.742,15.3-10.533A188.444,188.444,0,0,1,101.76,153.755Z" transform="translate(80.987 -8.548)" fill="#d2eaff"/>
        <path id="Trazado_990149" data-name="Trazado 990149" d="M137.808,147.342c.987-.131.666-1.649-.316-1.517A165.407,165.407,0,0,0,69.3,171.145c-.827.54-.126,1.921.71,1.376A164.444,164.444,0,0,1,137.808,147.342Z" transform="translate(84.931 -5.344)" fill="#d2eaff"/>
        <path id="Trazado_990150" data-name="Trazado 990150" d="M135.756,146.383a142.984,142.984,0,0,0-65.707,25.5c-.812.579.233,1.721,1.041,1.148A141.415,141.415,0,0,1,136.077,147.9C137.064,147.779,136.738,146.266,135.756,146.383Z" transform="translate(88.121 -3.18)" fill="#d2eaff"/>
        <path id="Trazado_990151" data-name="Trazado 990151" d="M130.3,147.158c-1.794,1.1-2.9,2.757-4.459,4.109-2.12,1.843-5.062,2.66-7.654,3.584-5.476,1.955-11,3.754-16.529,5.563C91.378,163.779,81.117,167.2,71.2,171.535c-.914.4-.2,1.775.71,1.376,10.533-4.605,21.46-8.165,32.372-11.744,4.882-1.6,9.765-3.214,14.608-4.945a28.808,28.808,0,0,0,7-3.054c1.911-1.347,3.1-3.409,5.111-4.639C131.851,148.018,131.151,146.637,130.3,147.158Z" transform="translate(92.069 -0.609)" fill="#d2eaff"/>
        <path id="Trazado_990152" data-name="Trazado 990152" d="M120.687,149.461c-15.026,8.033-31.657,11.982-48.074,16.062-.968.238-.652,1.755.316,1.517,16.548-4.114,33.32-8.106,48.468-16.2A.775.775,0,0,0,120.687,149.461Z" transform="translate(96.892 8.36)" fill="#d2eaff"/>
      </g>
      <path id="Trazado_990153" data-name="Trazado 990153" d="M49.959,172.3c-.306.01-.229-5.821-2.227-13.173-1.172-4.318-1.95-7.041-4.343-9.439a15.409,15.409,0,0,0-9.925-4.114,17.26,17.26,0,0,0,6.322-4.167c3.175-3.336,4.041-7.1,4.989-11.223a41.262,41.262,0,0,0,.973-11.447c-.044-.827.5,11.972,7.834,18.367a18.571,18.571,0,0,0,10.134,4.163,16.9,16.9,0,0,0-9.21,6.463c-1.148,1.736-1.916,3.467-2.534,7.892C50.635,165.229,50.343,172.295,49.959,172.3Z" transform="translate(56.869 -110.082)"/>
      <path id="Trazado_990154" data-name="Trazado 990154" d="M96.6,178.877c-.306.01-.229-5.821-2.227-13.173-1.172-4.318-1.95-7.041-4.342-9.439a15.382,15.382,0,0,0-9.925-4.114,17.3,17.3,0,0,0,6.322-4.167c3.175-3.336,4.041-7.1,4.989-11.223a41.261,41.261,0,0,0,.973-11.447c-.044-.827.5,11.972,7.834,18.367a18.57,18.57,0,0,0,10.134,4.163,16.9,16.9,0,0,0-9.21,6.463c-1.148,1.736-1.916,3.467-2.534,7.892C97.282,171.8,96.985,178.868,96.6,178.877Z" transform="translate(237.039 -84.691)"/>
      <path id="Trazado_990155" data-name="Trazado 990155" d="M49.854,156.211a63.715,63.715,0,0,0-1.259-7.464c-.666-2.446-1.1-3.992-2.461-5.349a8.759,8.759,0,0,0-5.626-2.334,9.781,9.781,0,0,0,3.584-2.363c1.8-1.892,2.29-4.026,2.825-6.361a23.182,23.182,0,0,0,.549-6.487c-.024-.472.282,6.789,4.44,10.411a10.528,10.528,0,0,0,5.743,2.358,9.585,9.585,0,0,0-5.223,3.667,9.46,9.46,0,0,0-1.435,4.474C50.239,152.2,50.073,156.206,49.854,156.211Z" transform="translate(84.079 -82.546)"/>
      <g id="Grupo_1153701" data-name="Grupo 1153701" transform="translate(0 36.493)">
        <path id="Trazado_990156" data-name="Trazado 990156" d="M53.1,200.705,24.636,214.214q-3.115-24.64-6.229-49.275l44.2-37.4a28.824,28.824,0,0,1,2.227,12.3c-.793,17.433-18.109,27.353-19.831,28.307Q49.048,184.419,53.1,200.705Z" transform="translate(-1.294 -112.459)" fill="#f17cf3"/>
        <path id="Trazado_990157" data-name="Trazado 990157" d="M51.577,196.591q-15.748.445-31.5.895,7.075-23.8,14.151-47.607L89.76,133.452A28.833,28.833,0,0,1,86.842,145.6c-7.747,15.634-27.6,17.74-29.551,17.915Q54.431,180.055,51.577,196.591Z" transform="translate(5.169 -89.598)" fill="#f17cf3"/>
        <g id="Grupo_1153689" data-name="Grupo 1153689" transform="translate(0 40.994)">
          <g id="Grupo_1153688" data-name="Grupo 1153688">
            <path id="Trazado_990158" data-name="Trazado 990158" d="M128.976,137.922l-93.79,3.91-.156-3.715,93.79-3.91,3.954,1.809C131.51,136.653,130.245,137.285,128.976,137.922Z" transform="translate(62.922 -127.675)"/>
            <path id="Trazado_990159" data-name="Trazado 990159" d="M124.264,156.547l-102.372,4.27a6.281,6.281,0,0,1-6.536-6.01l-.462-11.131a6.281,6.281,0,0,1,6.01-6.536l102.372-4.27a6.281,6.281,0,0,1,6.536,6.01l.462,11.131A6.275,6.275,0,0,1,124.264,156.547Z" transform="translate(-14.888 -132.864)" fill="#fedd4d"/>
          </g>
          <rect id="Rectángulo_409585" data-name="Rectángulo 409585" width="5.865" height="10.893" transform="translate(114.919 6.394) rotate(-2.384)" fill="#fedd4d"/>
        </g>
        <path id="Trazado_990160" data-name="Trazado 990160" d="M149.284,353.77q-2.29-19.833-4.586-39.661,2.589-16.587,5.174-33.169a382.774,382.774,0,0,0-16.728-36.374c-6.395-12.186-12.974-23.118-19.359-32.8q-11.955-13.553-23.906-27.11a92.856,92.856,0,0,1-6.55-18.211c-2.932-11.933-1.6-16.845-4.644-23.565-2.339-5.169-7.523-12-20.6-17.419A271.794,271.794,0,0,1,60.075,155.8c.053,5.621-.073,11.024-.331,16.179q8.184,28.725,16.363,57.44-14.3-10.591-28.613-21.178-13.9,7-27.806,14,2.575,8.279,5.15,16.563,31.263,34.5,62.531,69,1.109,33.743,2.217,67.5c13.99-8.277,21.62-9.152,26.065-8.1a19.39,19.39,0,0,0,6.735.588c4.581-.433,7.776-2.49,10.338-4.1C136.645,361.2,141.9,358.006,149.284,353.77Z" transform="translate(3.658 -120.489)" fill="#f17cf3"/>
        <g id="Grupo_1153690" data-name="Grupo 1153690" transform="translate(41.446 67.898)">
          <path id="Trazado_990161" data-name="Trazado 990161" d="M29.738,163.093a.368.368,0,0,1-.355-.277l-5.962-23.964a.373.373,0,0,1,.267-.447.388.388,0,0,1,.443.267l5.962,23.964a.373.373,0,0,1-.267.447A.534.534,0,0,1,29.738,163.093Z" transform="translate(-23.411 -138.396)"/>
        </g>
        <g id="Grupo_1153691" data-name="Grupo 1153691" transform="translate(48.049 91.515)">
          <path id="Trazado_990162" data-name="Trazado 990162" d="M56.87,162.281c-.185-.049-31.92-18.343-31.92-18.343a.366.366,0,0,1-.131-.5.371.371,0,0,1,.5-.136l31.74,18.3a.361.361,0,0,1,.131.5A.381.381,0,0,1,56.87,162.281Z" transform="translate(-24.769 -143.253)"/>
        </g>
        <g id="Grupo_1153692" data-name="Grupo 1153692" transform="translate(62.576 21.198)">
          <path id="Trazado_990163" data-name="Trazado 990163" d="M28.121,135.7a.364.364,0,0,1-.365-.365l.015-6.181a.365.365,0,0,1,.729,0l-.015,6.181A.361.361,0,0,1,28.121,135.7Z" transform="translate(-27.756 -128.793)"/>
        </g>
        <g id="Grupo_1153693" data-name="Grupo 1153693" transform="translate(49.528 67.72)">
          <path id="Trazado_990164" data-name="Trazado 990164" d="M26.888,160.282a.366.366,0,0,1-.365-.34l-1.449-21.192a.365.365,0,0,1,.34-.389.373.373,0,0,1,.389.34l1.449,21.192a.365.365,0,0,1-.34.389Z" transform="translate(-25.073 -138.36)"/>
        </g>
        <g id="Grupo_1153694" data-name="Grupo 1153694" transform="translate(59.729 70.386)">
          <path id="Trazado_990165" data-name="Trazado 990165" d="M30.1,142.491a.373.373,0,0,1-.272-.122l-2.563-2.859a.361.361,0,0,1,.024-.511.368.368,0,0,1,.515.029l2.563,2.859a.357.357,0,0,1-.267.6Z" transform="translate(-27.171 -138.908)"/>
        </g>
        <g id="Grupo_1153695" data-name="Grupo 1153695" transform="translate(67.09 65.36)">
          <path id="Trazado_990166" data-name="Trazado 990166" d="M31.071,145.7a.358.358,0,0,1-.35-.267L28.7,138.339a.369.369,0,0,1,.253-.452.376.376,0,0,1,.452.253l2.023,7.095a.369.369,0,0,1-.253.452A.4.4,0,0,1,31.071,145.7Z" transform="translate(-28.684 -137.875)"/>
        </g>
        <path id="Trazado_990167" data-name="Trazado 990167" d="M34.117,136.562a40.545,40.545,0,0,1,1.2,12.167c-1.152.8-2.854,1.721-4.274,1.162-1.741-.691-1.848-3.365-2.893-11.924-.613-5.028-1.6-13.081-.029-13.519C29.478,124.075,32.614,130.683,34.117,136.562Z" transform="translate(32.957 -124.434)"/>
        <g id="Grupo_1153696" data-name="Grupo 1153696" transform="translate(114.598 47.491)">
          <path id="Trazado_990168" data-name="Trazado 990168" d="M39.252,145.36a.368.368,0,0,1-.365-.35l-.433-10.431a.364.364,0,0,1,.35-.379.371.371,0,0,1,.379.35l.433,10.431a.364.364,0,0,1-.35.379Z" transform="translate(-38.454 -134.2)"/>
        </g>
        <g id="Grupo_1153697" data-name="Grupo 1153697" transform="translate(7.008 47.778)">
          <path id="Trazado_990169" data-name="Trazado 990169" d="M16.694,137.225a.365.365,0,0,1-.019-.729l50.963-2.237a.365.365,0,0,1,.034.729L16.7,137.225Z" transform="translate(-16.329 -134.259)"/>
        </g>
        <g id="Grupo_1153698" data-name="Grupo 1153698" transform="translate(7.236 52.903)">
          <path id="Trazado_990170" data-name="Trazado 990170" d="M16.741,138.279a.365.365,0,0,1-.019-.729l50.963-2.237a.365.365,0,0,1,.034.73l-50.967,2.237Z" transform="translate(-16.376 -135.313)"/>
        </g>
        <g id="Grupo_1153699" data-name="Grupo 1153699" transform="translate(90.24 46.436)">
          <path id="Trazado_990171" data-name="Trazado 990171" d="M33.81,134.97a.366.366,0,0,1-.365-.36.371.371,0,0,1,.36-.37l16.145-.258a.365.365,0,0,1,.01.729l-16.149.258Z" transform="translate(-33.445 -133.983)"/>
        </g>
        <g id="Grupo_1153700" data-name="Grupo 1153700" transform="translate(92.502 50.705)">
          <path id="Trazado_990172" data-name="Trazado 990172" d="M34.275,135.848a.366.366,0,0,1-.365-.36.371.371,0,0,1,.36-.37l16.149-.258a.365.365,0,1,1,.01.729l-16.154.258Z" transform="translate(-33.91 -134.861)"/>
        </g>
      </g>
      <path id="Trazado_990173" data-name="Trazado 990173" d="M127.18,171.891a3.869,3.869,0,0,0,2.791-3.783,3.914,3.914,0,0,0-3.6-3.992,3.966,3.966,0,0,1-3.6-3.992,3.892,3.892,0,0,1,1.347-2.957,3.991,3.991,0,0,0-2.568-6.978,4.311,4.311,0,0,0-1.332.219,3.992,3.992,0,0,1-5.257-3.759,4.085,4.085,0,0,1,.374-1.678,4.005,4.005,0,0,0-3.662-5.665,3.886,3.886,0,0,0-2.655,1.08,3.99,3.99,0,0,1-6.682-2.932,3.987,3.987,0,0,0-7.64-1.663,3.97,3.97,0,0,1-7.294,0,3.985,3.985,0,0,0-7.64,1.585,3.99,3.99,0,0,1-4.012,4.056,3.888,3.888,0,0,1-2.655-1.046,4,4,0,0,0-6.7,2.879,4.143,4.143,0,0,0,.384,1.707,3.991,3.991,0,0,1-3.6,5.646,4.2,4.2,0,0,1-1.289-.209,3.99,3.99,0,0,0-5.271,3.827,3.854,3.854,0,0,0,1.366,2.932,3.919,3.919,0,0,1,1.357,2.957,3.967,3.967,0,0,1-3.618,3.992,3.989,3.989,0,0,0-.812,7.776,3.983,3.983,0,0,1,.773,7.265,3.984,3.984,0,0,0,1.887,7.455,3.889,3.889,0,0,0,.52-.034,3.99,3.99,0,0,1,4.454,3.978,3.9,3.9,0,0,1-.793,2.349,3.972,3.972,0,0,0,5.228,5.8,3.992,3.992,0,0,1,6.01,3.409,4.493,4.493,0,0,1-.1.895,3.98,3.98,0,0,0,3.958,4.863,3.823,3.823,0,0,0,3.175-1.687,3.894,3.894,0,0,1,3.219-1.678,3.964,3.964,0,0,1,3.924,3.2,3.983,3.983,0,0,0,7.81,0,3.969,3.969,0,0,1,3.924-3.2,3.894,3.894,0,0,1,3.219,1.678,4,4,0,0,0,7.246-2.227,4.1,4.1,0,0,0-.112-.948,4.005,4.005,0,0,1,3.9-4.863,3.946,3.946,0,0,1,2.018.564,4,4,0,0,0,6.03-3.428,3.916,3.916,0,0,0-.817-2.368,3.992,3.992,0,0,1,3.175-6.361,3.265,3.265,0,0,1,.486.034,3.957,3.957,0,0,0,4.445-4.012,3.833,3.833,0,0,0-2.028-3.409,3.924,3.924,0,0,1-2.028-3.462A3.85,3.85,0,0,1,127.18,171.891Zm-36.15,13.242a12.989,12.989,0,1,1,12.989-12.989A13,13,0,0,1,91.029,185.132Z" transform="translate(128.903 -53.352)"/>
      <g id="Grupo_1153702" data-name="Grupo 1153702" transform="translate(109.838 151.283)">
        <path id="Trazado_990174" data-name="Trazado 990174" d="M83.4,239.439a4.939,4.939,0,0,1-4.921-4.026,4.3,4.3,0,0,0-4.236-3.453,4.16,4.16,0,0,0-3.467,1.8,4.843,4.843,0,0,1-4.012,2.13,5.246,5.246,0,0,1-4.065-1.94,4.878,4.878,0,0,1-.919-4.187,4.49,4.49,0,0,0,.107-.963,4.3,4.3,0,0,0-2.188-3.71,4.221,4.221,0,0,0-4.289.034,5.041,5.041,0,0,1-2.587.734,5.117,5.117,0,0,1-4.493-2.845,4.836,4.836,0,0,1,.486-5.2,4.179,4.179,0,0,0,.856-2.534,4.354,4.354,0,0,0-1.478-3.263,4.25,4.25,0,0,0-3.326-1.031,5.02,5.02,0,0,1-3.039-9.361A4.3,4.3,0,0,0,41,193.787a5.026,5.026,0,0,1,1.026-9.8,4.3,4.3,0,0,0,3.9-4.308,4.181,4.181,0,0,0-1.464-3.18,4.854,4.854,0,0,1-1.726-3.705,5.248,5.248,0,0,1,2.164-4.2,4.834,4.834,0,0,1,4.484-.627,4.331,4.331,0,0,0,5-1.775,4.188,4.188,0,0,0,.277-4.085,5.21,5.21,0,0,1-.486-2.149,5.045,5.045,0,0,1,3.078-4.561,4.876,4.876,0,0,1,5.373.919,4.165,4.165,0,0,0,2.859,1.128,4.424,4.424,0,0,0,3.117-1.3,4.156,4.156,0,0,0,1.216-3.034,5.028,5.028,0,0,1,9.638-2.042,4.282,4.282,0,0,0,7.868,0,5.027,5.027,0,0,1,9.638,2.042,4.3,4.3,0,0,0,7.2,3.2,4.918,4.918,0,0,1,3.355-1.357,5.183,5.183,0,0,1,4.318,2.4,4.894,4.894,0,0,1,.3,4.751,4.4,4.4,0,0,0-.4,1.809,4.317,4.317,0,0,0,1.809,3.477,4.257,4.257,0,0,0,3.861.574,5.338,5.338,0,0,1,1.673-.277A4.985,4.985,0,0,1,123.708,171a4.9,4.9,0,0,1-1.4,5.5,4.187,4.187,0,0,0-1.449,3.18,4.3,4.3,0,0,0,3.885,4.308,5.026,5.026,0,0,1,1.031,9.8,4.294,4.294,0,0,0-.817,7.839,4.844,4.844,0,0,1,2.558,4.3A5.263,5.263,0,0,1,125.8,209.8a4.976,4.976,0,0,1-3.885,1.177,4,4,0,0,0-.525-.034,4.3,4.3,0,0,0-3.419,6.861A4.924,4.924,0,0,1,119,220.795a5.181,5.181,0,0,1-2.626,4.406,4.812,4.812,0,0,1-4.98-.088,4.375,4.375,0,0,0-5.558,1.041,4.21,4.21,0,0,0-.827,3.6,5.064,5.064,0,0,1,.136,1.182,4.982,4.982,0,0,1-3.54,4.7,4.887,4.887,0,0,1-5.6-1.882,4.158,4.158,0,0,0-3.467-1.809A4.293,4.293,0,0,0,88.3,235.4,4.9,4.9,0,0,1,83.4,239.439Zm-9.157-8.213a5.01,5.01,0,0,1,4.95,4.036,4.294,4.294,0,0,0,8.418,0,5.006,5.006,0,0,1,4.95-4.036,4.93,4.93,0,0,1,4.06,2.12,4.312,4.312,0,0,0,7.815-2.4,4.506,4.506,0,0,0-.117-1.021,4.93,4.93,0,0,1,.973-4.226,5.1,5.1,0,0,1,6.492-1.206,4.142,4.142,0,0,0,4.25.083,4.45,4.45,0,0,0,2.256-3.774,4.2,4.2,0,0,0-.88-2.553,5.034,5.034,0,0,1,4.007-8.024,3.769,3.769,0,0,1,.618.044,4.027,4.027,0,0,0,3.307-1,4.537,4.537,0,0,0,1.473-3.336,4.125,4.125,0,0,0-2.188-3.667,5.017,5.017,0,0,1,.963-9.161l.107.345-.107-.345a4.168,4.168,0,0,0,3.005-4.08,4.215,4.215,0,0,0-3.885-4.308,5.018,5.018,0,0,1-4.547-5.028,4.925,4.925,0,0,1,1.7-3.735,4.122,4.122,0,0,0,1.2-4.688,4.256,4.256,0,0,0-3.958-2.835,4.611,4.611,0,0,0-1.444.238,4.974,4.974,0,0,1-4.522-.676,5.048,5.048,0,0,1-2.115-4.07,5.118,5.118,0,0,1,.472-2.111,4.122,4.122,0,0,0-.243-4.056,4.459,4.459,0,0,0-3.705-2.062,4.2,4.2,0,0,0-2.859,1.167,5.032,5.032,0,0,1-8.427-3.7,4.3,4.3,0,0,0-8.238-1.8,5.015,5.015,0,0,1-9.21,0,4.3,4.3,0,0,0-8.243,1.707,4.985,4.985,0,0,1-1.425,3.589,5.168,5.168,0,0,1-3.637,1.522,4.9,4.9,0,0,1-3.355-1.318,4.147,4.147,0,0,0-4.586-.8,4.315,4.315,0,0,0-2.641,3.9,4.474,4.474,0,0,0,.418,1.848,4.92,4.92,0,0,1-.326,4.785,5.069,5.069,0,0,1-5.845,2.072,4.145,4.145,0,0,0-3.827.525,4.518,4.518,0,0,0-1.858,3.6,4.109,4.109,0,0,0,1.478,3.151,4.928,4.928,0,0,1,1.712,3.735,5.017,5.017,0,0,1-4.561,5.028,4.215,4.215,0,0,0-3.885,4.308,4.172,4.172,0,0,0,3.005,4.08,5.021,5.021,0,0,1,.973,9.162,4.289,4.289,0,0,0,2.592,8,4.876,4.876,0,0,1,3.9,1.206,5.106,5.106,0,0,1,1.726,3.808,4.914,4.914,0,0,1-1,2.966,4.12,4.12,0,0,0-.418,4.44,4.379,4.379,0,0,0,3.842,2.441,4.273,4.273,0,0,0,2.213-.632,4.966,4.966,0,0,1,5.023-.039A5.031,5.031,0,0,1,62.63,228.8a5.329,5.329,0,0,1-.126,1.118,4.161,4.161,0,0,0,.778,3.574,4.51,4.51,0,0,0,3.5,1.668,4.127,4.127,0,0,0,3.419-1.819A4.892,4.892,0,0,1,74.243,231.226ZM83.4,209.3a15.559,15.559,0,1,1,15.556-15.561A15.582,15.582,0,0,1,83.4,209.3Zm0-30.388a14.829,14.829,0,1,0,14.827,14.827A14.839,14.839,0,0,0,83.4,178.911Z" transform="translate(-37.475 -148.04)"/>
      </g>
      <path id="Trazado_990175" data-name="Trazado 990175" d="M112.795,145.711a4.462,4.462,0,0,1-2.271-7.012,4.48,4.48,0,0,0-3.492-7.2,4.618,4.618,0,0,0-1.556.267,4.478,4.478,0,0,1-5.967-4.221,4.469,4.469,0,0,0-8.14-2.762,4.482,4.482,0,0,1-7.377,0,4.467,4.467,0,0,0-8.155,2.5,4.5,4.5,0,0,1-4.459,4.727,4.605,4.605,0,0,1-1.507-.253,4.478,4.478,0,0,0-5.981,4.221,4.389,4.389,0,0,0,.953,2.713,4.4,4.4,0,0,1,.919,2.713,4.456,4.456,0,0,1-3.2,4.3,4.466,4.466,0,0,0,0,8.568,4.479,4.479,0,0,1,2.286,7.012,4.455,4.455,0,0,0,5.028,6.934,4.461,4.461,0,0,1,5.967,4.187,4.476,4.476,0,0,0,4.522,4.741,4.331,4.331,0,0,0,3.633-1.95,4.482,4.482,0,0,1,7.377,0,4.461,4.461,0,0,0,8.14-2.509,4.522,4.522,0,0,1,4.459-4.741,4.788,4.788,0,0,1,1.507.267,4.492,4.492,0,0,0,6-4.236,4.36,4.36,0,0,0-.953-2.7,4.462,4.462,0,0,1,2.271-7.012,4.46,4.46,0,0,0,0-8.559Zm-25.112,16.85A12.566,12.566,0,1,1,100.248,150,12.572,12.572,0,0,1,87.683,162.561Z" transform="translate(156.87 -94.148)" fill="#3c98e7"/>
      <g id="Grupo_1153706" data-name="Grupo 1153706" transform="translate(184.648 126.485)">
        <g id="Grupo_1153703" data-name="Grupo 1153703">
          <path id="Trazado_990176" data-name="Trazado 990176" d="M64.734,272.122c3.38-23.453,12.2-35.786,19.69-42.72,5.257-4.863,7.158-4.576,29.284-21.183,10.941-8.213,16.461-12.381,18.766-15.5,5.461-7.367,7.659-14.861,16.777-20.9,2.67-1.765,5.592-3.705,7.251-2.7,5.339,3.229-7.362,32.654-9.1,36.68a196.056,196.056,0,0,1-11.189,22.014Q161,218.371,185.785,208.93c8.131-21.7,15.478-38.271,20.9-49.757,3.034-6.434,7.542-15.678,10.518-15,2.485.569,2.937,7.8,3.2,11.943a65.731,65.731,0,0,1-1.634,19.408c-2.728,10.961-5.641,23.458-9.1,38.1q-2.414,8.315-4.834,16.636-47.267,26.019-94.538,52.032-3.056,13.5-6.113,27.013c-12.95,9.239-28.389,11.578-40.089,5.4a30.938,30.938,0,0,1-11.233-10.377Q58.8,288.221,64.734,272.122Z" transform="translate(-52.859 -138.302)" fill="#f17cf3"/>
          <path id="Trazado_990177" data-name="Trazado 990177" d="M81.915,161.552a40.61,40.61,0,0,1-4.265,11.462c-1.386.214-3.321.3-4.347-.832-1.259-1.386-.18-3.832,2.636-11.987,1.653-4.785,4.3-12.459,5.9-12.157C83.223,148.3,83.14,155.6,81.915,161.552Z" transform="translate(24.1 -123.281)"/>
          <path id="Trazado_990178" data-name="Trazado 990178" d="M93.2,156.1a40.639,40.639,0,0,1-1.619,12.118c-1.3.515-3.175,1.021-4.425.151-1.537-1.07-1.026-3.7-.083-12.269.554-5.033,1.439-13.1,3.064-13.164C91.539,142.887,93.076,150.035,93.2,156.1Z" transform="translate(75.835 -142.94)"/>
        </g>
        <g id="Grupo_1153704" data-name="Grupo 1153704" transform="translate(71.528 88.56)">
          <path id="Trazado_990179" data-name="Trazado 990179" d="M67.932,168.847a.373.373,0,0,1-.311-.175.361.361,0,0,1,.117-.5l11.233-6.968a.366.366,0,0,1,.506.117.361.361,0,0,1-.117.5l-11.233,6.968A.363.363,0,0,1,67.932,168.847Z" transform="translate(-67.568 -161.152)"/>
        </g>
        <g id="Grupo_1153705" data-name="Grupo 1153705" transform="translate(131.383 70.262)">
          <path id="Trazado_990180" data-name="Trazado 990180" d="M80.243,162.768c-.287-.063-.4-.263-.355-.457l1.182-4.649a.364.364,0,0,1,.705.18l-1.182,4.649A.357.357,0,0,1,80.243,162.768Z" transform="translate(-79.877 -157.389)"/>
        </g>
      </g>
    </g>
    <g id="Grupo_1153399" data-name="Grupo 1153399" transform="matrix(-0.899, 0.438, -0.438, -0.899, 298.944, 5904.394)">
      <path id="Trazado_989623" data-name="Trazado 989623" d="M1.628,81.716A14.337,14.337,0,0,1,0,81.643l1.065-9.186c.178.014.374,0,.556.011a31.611,31.611,0,0,0,0-63.221,4.882,4.882,0,0,0-.563.011L0,.073A14.257,14.257,0,0,1,1.624,0a40.858,40.858,0,0,1,0,81.716Z" transform="translate(0 0)" fill="#3ad1e9"/>
    </g>
    <g id="Grupo_1153401" data-name="Grupo 1153401" transform="matrix(-0.899, 0.438, -0.438, -0.899, 305.322, 5909.167)">
      <g id="Grupo_1153400" data-name="Grupo 1153400" transform="translate(0 0)">
        <path id="Trazado_989624" data-name="Trazado 989624" d="M1.9,82.257a15.675,15.675,0,0,1-1.653-.073.267.267,0,0,1-.182-.1.26.26,0,0,1-.058-.2L1.067,72.7a.3.3,0,0,1,.291-.24,2.347,2.347,0,0,0,.349.011H1.9a31.338,31.338,0,0,0,0-62.676c-.254,0-.4,0-.531.007a.233.233,0,0,1-.2-.058.252.252,0,0,1-.1-.182L0,.378a.273.273,0,0,1,.24-.3A13.614,13.614,0,0,1,1.9,0a41.129,41.129,0,0,1,0,82.257ZM.577,81.665c.458.04.937.044,1.319.044A40.586,40.586,0,0,0,1.9.538c-.385,0-.865,0-1.319.044l1,8.659a.548.548,0,0,1,.189,0A31.948,31.948,0,0,1,33.781,41.121,31.92,31.92,0,0,1,1.9,73.006l-.189,0C1.58,73.006.577,81.665.577,81.665Z"/>
      </g>
    </g>
    <g id="Grupo_1153463" data-name="Grupo 1153463" transform="matrix(-0.899, 0.438, -0.438, -0.899, 247.424, 5856.42)">
      <path id="Trazado_989706" data-name="Trazado 989706" d="M1.152,25.907a9.555,9.555,0,0,1,4.655-9.578,3.513,3.513,0,0,1,3.277-.352c1.439.748,1.177,2.42.472,3.612-.447.756-1.588,1.617-2.329.523a2.751,2.751,0,0,1-.28-1.373,7.212,7.212,0,0,1,.422-2.66,8.458,8.458,0,0,1,3.35-4.24,7.582,7.582,0,0,1,2.311-1.01c.687-.167,3.1-.556,3.212.716q-.73,1.292-1.424.4a2.377,2.377,0,0,1-.538-1.086,4.607,4.607,0,0,1-.1-1.5,10.183,10.183,0,0,1,1.032-3.368A17.516,17.516,0,0,1,18.829.929c.5-.494-.269-1.265-.77-.77a18.093,18.093,0,0,0-4.484,6.987c-.672,1.966-.981,5.251,1.417,6.221a1.752,1.752,0,0,0,1.966-2.794C15.7,8.88,12.867,9.567,11.268,10.3a9.5,9.5,0,0,0-4.655,4.76c-.712,1.61-1.4,4.491-.051,5.981,1.573,1.748,3.713-.109,4.32-1.73.818-2.18-.073-4.495-2.62-4.691-2.594-.2-5.022,1.922-6.4,3.917A10.78,10.78,0,0,0,.113,26.2c.087.69,1.141.4,1.039-.291Z" transform="translate(0 0)"/>
    </g>
    <path id="Trazado_989627" data-name="Trazado 989627" d="M578.383,154.466l-52.748,30.457V124.013Z" transform="translate(-25.533 5748.659)" fill="#15da7e"/>
    <path id="Trazado_989626" data-name="Trazado 989626" d="M567.458,155.129l-32.942,19.016V136.107Z" transform="translate(-6.539 5491.922)"/>
  </g>
</svg>
