<svg xmlns="http://www.w3.org/2000/svg" xmlns:xlink="http://www.w3.org/1999/xlink" width="283.322" height="251.355" viewBox="0 0 283.322 251.355">
  <defs>
    <filter id="Trazado_990583" x="0" y="0" width="283.322" height="251.355" filterUnits="userSpaceOnUse">
      <feOffset dy="3" input="SourceAlpha"/>
      <feGaussianBlur stdDeviation="3" result="blur"/>
      <feFlood flood-opacity="0.161"/>
      <feComposite operator="in" in2="blur"/>
      <feComposite in="SourceGraphic"/>
    </filter>
  </defs>
  <g id="_x32_" transform="translate(-59.331 -19.096)">
    <g transform="matrix(1, 0, 0, 1, 59.33, 19.1)" filter="url(#Trazado_990583)">
      <path id="Trazado_990583-2" data-name="Trazado 990583" d="M67.9,129.236c-15.58,39.517,42.7,103.33,55.556,97.754,4.822-2.093,1.048-12.994,8.014-17.628,9.645-6.418,27.55,7.388,46.1,18.323,24.659,14.539,80.575,41.763,98.662,26.012,12.453-10.84-2.291-33.979,13.754-49.97,12.621-12.58,27.29-4.233,35.924-15.734,11.35-15.118.644-49.428-16.71-68.762-5.884-6.555-25.108-25.4-28.033-33.588a54.883,54.883,0,0,0-6.442-12.083c-.339-.483-.685-.911-1.164-1.48-36.058-43.1-92.445-46.661-95.994-46.832-46.319-2.236-93.7,20.625-93.106,36.681.332,8.96,15.4,10.514,17.094,22.437C103.9,100.871,76.4,107.69,67.9,129.236Z" transform="translate(-56.28 -19.1)" fill="#c2f1f8"/>
    </g>
    <circle id="Elipse_11706" data-name="Elipse 11706" cx="50.387" cy="50.387" r="50.387" transform="translate(98.268 127.05) rotate(-67.5)" fill="#15da7e"/>
    <path id="Trazado_990584" data-name="Trazado 990584" d="M172.159,67.75,118.025,99.006V36.5Z" transform="translate(130.963 27.648)" fill="#3ad1e9"/>
    <g id="Grupo_1153904" data-name="Grupo 1153904" transform="translate(187.415 170.092)">
      <path id="Trazado_990585" data-name="Trazado 990585" d="M100.047,125.827a20.968,20.968,0,0,0,.1,2.319l13.128-1.524c-.021-.257-.007-.534-.014-.8a45.178,45.178,0,0,1,90.356,0,6.348,6.348,0,0,1-.017.8l13.128,1.517a21.046,21.046,0,0,0,.1-2.319,58.393,58.393,0,1,0-116.786,0Z" transform="translate(-100.047 -67.432)" fill="#a530fe"/>
    </g>
    <path id="Trazado_990586" data-name="Trazado 990586" d="M78.123,62.875a47.653,47.653,0,0,0,95.305,0Z" transform="translate(34.204 91.61)" fill="#a530fe"/>
    <g id="Grupo_1153905" data-name="Grupo 1153905" transform="translate(157.851 163.327)">
      <path id="Trazado_990587" data-name="Trazado 990587" d="M92.272,149.649a.876.876,0,0,1-.849-.966L102.2,66.2a.856.856,0,1,1,1.7.219L93.121,148.9A.859.859,0,0,1,92.272,149.649Z" transform="translate(-91.415 -65.457)"/>
    </g>
    <g id="Grupo_1153906" data-name="Grupo 1153906" transform="translate(232.942 214.054)">
      <path id="Trazado_990588" data-name="Trazado 990588" d="M117.83,125.083a.855.855,0,0,1-.846-.74c-1.021-7.525-1.849-15.169-2.466-22.721-.555-6.788-.952-13.676-1.178-20.471a.859.859,0,0,1,.829-.884.816.816,0,0,1,.884.829c.226,6.764.62,13.624,1.171,20.385.613,7.521,1.438,15.135,2.456,22.628a.852.852,0,0,1-.733.962A.7.7,0,0,1,117.83,125.083Z" transform="translate(-113.34 -80.268)"/>
    </g>
    <path id="Trazado_990589" data-name="Trazado 990589" d="M133.171,76.158q-.057,4.505-.123,9.025-.118,8.1-.253,16.172a38.227,38.227,0,0,1-27.177-31.239q1.49.416,2.973.836a89.336,89.336,0,0,0,15.648,2.819,89.494,89.494,0,0,0,9.148.342A16.635,16.635,0,0,0,133.171,76.158Z" transform="translate(100.877 109.168)"/>
    <g id="Grupo_1153907" data-name="Grupo 1153907" transform="translate(138.724 48.936)">
      <path id="Trazado_990590" data-name="Trazado 990590" d="M184.539,167.248a.857.857,0,0,1-.034-1.712c13.981-.545,23.957-3.99,24.824-8.569.4-2.1-.808-5.768-1.873-9.007-1.4-4.257-2.075-6.528-.9-7.559a3.1,3.1,0,0,1,.418-.295,2.63,2.63,0,0,0,.808-.7c.565-.747.575-1.11.562-1.206-.031-.26-.527-.867-2.185-1.5a.856.856,0,0,1,.236-1.654c1.415-.116,2.85-1.7,3.644-3.024.983-1.644.956-2.38.9-2.49a2.413,2.413,0,0,0-.445-.1,2.152,2.152,0,0,1-1.644-.918,2.364,2.364,0,0,1-.12-1.9c.274-1.11-.051-2.418-.829-4.754a.869.869,0,0,1,.072-.7.854.854,0,0,1,.575-.411,11.161,11.161,0,0,0,5.576-2.819c.863-.822,3.147-3.011,2.836-5.295-.123-.9-.548-1.308-1.867-2.452a36.893,36.893,0,0,1-2.812-2.654,21.911,21.911,0,0,1-2.428-3.134c-.664-.949-1.613-2.3-3.086-4.346-1.113-1.548-2.713-3.75-4.665-6.377a.835.835,0,0,1-.161-.62l.918-7.22a2.919,2.919,0,0,0,.137-1.062,2.548,2.548,0,0,0-.349-1.079c-.322-.555-3.754-9.826-10.213-27.584a31.875,31.875,0,0,0-3.843-6.953c-10.463-14.272-46.9-23.245-73.879-5.922C99.5,52.99,89.436,69.22,87.792,86.65c-2.976,31.571,22.087,51.295,23.156,52.12,3.617,2.805,7.309,5.432,10.977,7.805a.857.857,0,1,1-.932,1.438c-3.713-2.4-7.442-5.059-11.1-7.891-1.1-.846-26.875-21.135-23.813-53.634,1.692-17.947,12.045-34.66,27.694-44.705,27.759-17.816,65.354-8.429,76.187,6.35a33.717,33.717,0,0,1,4.062,7.353c8.857,24.341,9.967,27.077,10.093,27.334a4.154,4.154,0,0,1,.4,3.363l-.846,6.733c1.863,2.514,3.4,4.624,4.476,6.124,1.476,2.055,2.428,3.411,3.1,4.36a20.578,20.578,0,0,0,2.271,2.939,34.819,34.819,0,0,0,2.692,2.541c1.339,1.161,2.223,1.928,2.439,3.511.432,3.151-2.315,5.778-3.35,6.764a12.672,12.672,0,0,1-5.49,3.045,8.88,8.88,0,0,1,.572,4.809,1.465,1.465,0,0,0-.082.6,1.657,1.657,0,0,0,.473.123,2.258,2.258,0,0,1,1.473.7c.747.887.5,2.387-.74,4.463a9.888,9.888,0,0,1-2.9,3.12,2.885,2.885,0,0,1,1.432,1.973,3.481,3.481,0,0,1-.9,2.445,4.22,4.22,0,0,1-1.271,1.12,1.429,1.429,0,0,0-.192.127c-.3.572.719,3.682,1.394,5.74,1.13,3.432,2.411,7.326,1.928,9.857-1.253,6.637-14.481,9.5-26.44,9.963C184.563,167.248,184.549,167.248,184.539,167.248Z" transform="translate(-85.83 -32.057)"/>
    </g>
    <g id="Grupo_1153908" data-name="Grupo 1153908" transform="translate(244.793 151.967)">
      <path id="Trazado_990591" data-name="Trazado 990591" d="M117.656,64.147a.856.856,0,0,1-.017-1.712l13.306-.295a.856.856,0,1,1,.034,1.712l-13.306.295Z" transform="translate(-116.8 -62.14)"/>
    </g>
    <g id="Grupo_1153909" data-name="Grupo 1153909" transform="translate(234.722 102.947)">
      <path id="Trazado_990592" data-name="Trazado 990592" d="M114.714,58.488a.833.833,0,0,1-.466-.14.856.856,0,0,1-.25-1.185,20.752,20.752,0,0,1,7.227-6.778,20.541,20.541,0,0,1,8.316-2.552.866.866,0,0,1,.928.777.857.857,0,0,1-.781.928,18.785,18.785,0,0,0-7.627,2.339,19.07,19.07,0,0,0-6.627,6.216A.85.85,0,0,1,114.714,58.488Z" transform="translate(-113.86 -47.827)"/>
    </g>
    <path id="Trazado_990593" data-name="Trazado 990593" d="M116.692,53.825c0,3.11,1.353,5.634,3.024,5.634s3.024-2.521,3.024-5.634-1.353-5.634-3.024-5.634S116.692,50.712,116.692,53.825Z" transform="translate(127.731 56.002)"/>
    <path id="Trazado_990594" data-name="Trazado 990594" d="M101.813,63.5c-1.534,5.014-3.565,6.7-3.288,10.919.1,1.569.223,2.6.9,2.949,3.517,1.822,20.145-16.453,16.2-23.858a6.67,6.67,0,0,0-5.894-3.257c-3.082.2-5.048,3.271-5.685,4.281C102.169,57.505,103.327,58.553,101.813,63.5Z" transform="translate(83.616 60.973)"/>
    <g id="Grupo_1154012" data-name="Grupo 1154012" transform="translate(146.379 57.547)">
      <path id="Trazado_990595" data-name="Trazado 990595" d="M88.123,73.642c-.216,1.956.185,3.915,1.024,7.829.962,4.661,1.459,6.99,2.764,8.853.932,1.336,3.356,4.815,7.114,5.25a9.985,9.985,0,0,0,1.925,0,2.891,2.891,0,0,1,2.082.342c.342.25.466.435.993,1.367.185.312.4.685.685,1.117.839,1.428,1.709,2.764,2.144,3.356a13.679,13.679,0,0,0,6.586,4.661,9.913,9.913,0,0,0,2.921.435,24.818,24.818,0,0,0,4.319-.558c3.295-.651,5.874-1.151,8.076-3.076,2.36-2.052,3.014-4.661,3.541-6.774.527-2.175.962-3.541,2.329-4.1,1.243-.527,2.671-.185,4.319.188a9.528,9.528,0,0,1,2.487.962c.716.342,1.647.777,3.076,1.4,2.548,1.086,3.976,1.709,5.189,1.647,1.336-.062,2.61-.747,5.158-2.052a27.994,27.994,0,0,0,2.517-1.4,6.731,6.731,0,0,1,1.586-.839,14.944,14.944,0,0,1,2.486-.808,2.785,2.785,0,0,0,2.113-1.243,3.14,3.14,0,0,0,.092-2.425,4.088,4.088,0,0,1-.092-2.236,5.338,5.338,0,0,1,1.212-2.082c1.212-1.274,2.952-1.3,5.158-1.336a23.381,23.381,0,0,0,4.257-.312c.312-.031,7.675-1.4,10.936-6.99,2.733-4.815,1.12-10.158.527-12.179-1.367-4.63-3.976-7.175-9.1-12.3a56.9,56.9,0,0,0-13.08-10.127,43.389,43.389,0,0,0-11.991-4.754,37.091,37.091,0,0,0-10.686-.682,72.181,72.181,0,0,1-10.189-.123,20.434,20.434,0,0,0-4.473.092c-2.052.281-3.449.808-7.3,2.394-4.411,1.832-6.213,2.579-6.867,2.921a39.5,39.5,0,0,0-6.74,5,52.59,52.59,0,0,0-5.343,5,39.417,39.417,0,0,0-5.562,7.487,15.557,15.557,0,0,0-1.212,2.7c-.373.993-.932,2.548-2.113,5.439-.589,1.4-1.024,2.486-1.367,3.326C88.527,71.559,88.246,72.244,88.123,73.642Zm2.548,7.487c-.808-3.73-1.212-5.593-1.024-7.333.123-1.182.342-1.709,1.4-4.2.342-.839.808-1.928,1.367-3.326,1.182-2.891,1.771-4.473,2.144-5.47a16.124,16.124,0,0,1,1.086-2.486,36.828,36.828,0,0,1,5.374-7.206,49.411,49.411,0,0,1,5.158-4.846A40.847,40.847,0,0,1,112.7,41.42c.589-.342,2.891-1.274,6.709-2.86,3.915-1.617,5.158-2.052,6.929-2.267A16.737,16.737,0,0,1,130.4,36.2a74.7,74.7,0,0,0,10.439.123,35.1,35.1,0,0,1,10.285.651,41.327,41.327,0,0,1,11.587,4.6,54.116,54.116,0,0,1,12.737,9.881c4.939,4.908,7.425,7.394,8.7,11.621.558,1.863,2.021,6.744-.4,10.967-2.856,4.97-9.569,6.213-9.85,6.244a22.226,22.226,0,0,1-3.976.281c-2.394.031-4.63.062-6.305,1.832a7.668,7.668,0,0,0-1.586,2.764,5.916,5.916,0,0,0,.092,3.014c.154.62.25.932.062,1.243-.123.247-.25.312-1.12.527a17.117,17.117,0,0,0-2.733.87,10.43,10.43,0,0,0-1.8.932,24.655,24.655,0,0,1-2.394,1.367c-2.36,1.212-3.541,1.8-4.5,1.863a15.262,15.262,0,0,1-4.5-1.521c-1.428-.589-2.329-1.024-3.014-1.367a10.4,10.4,0,0,0-2.826-1.086,14.211,14.211,0,0,0-3.23-.5,5.482,5.482,0,0,0-1.99.373c-2.206.9-2.733,2.983-3.291,5.189-.527,2.082-1.058,4.257-3.045,5.966-1.863,1.647-4.161,2.113-7.364,2.7-2.486.5-4.288.839-6.494.188a11.957,11.957,0,0,1-5.778-4.069c-.4-.558-1.243-1.863-2.082-3.23-.25-.435-.466-.808-.62-1.117a5.325,5.325,0,0,0-1.459-1.863,4.279,4.279,0,0,0-3.106-.62,9.31,9.31,0,0,1-1.617.031c-3.076-.373-5.22-3.449-6.028-4.6C92.068,87.838,91.6,85.6,90.671,81.129Z" transform="translate(-88.065 -34.571)" fill="#a530fe"/>
      <path id="Trazado_990596" data-name="Trazado 990596" d="M88.559,72.706c-.185,1.74.216,3.6,1.024,7.333.932,4.473,1.4,6.709,2.517,8.326.808,1.151,2.952,4.226,6.028,4.6a9.324,9.324,0,0,0,1.617-.031,4.31,4.31,0,0,1,3.106.62,5.325,5.325,0,0,1,1.459,1.863c.154.312.373.685.62,1.117.839,1.367,1.678,2.671,2.082,3.23a11.929,11.929,0,0,0,5.778,4.069c2.206.651,4.007.312,6.494-.188,3.2-.589,5.5-1.055,7.364-2.7,1.986-1.709,2.517-3.884,3.045-5.966.558-2.206,1.086-4.288,3.291-5.189a5.481,5.481,0,0,1,1.99-.373,14.374,14.374,0,0,1,3.23.5,10.466,10.466,0,0,1,2.826,1.086c.685.342,1.586.777,3.014,1.367a15.294,15.294,0,0,0,4.5,1.521c.962-.062,2.144-.651,4.5-1.863a26.407,26.407,0,0,0,2.394-1.367,10.432,10.432,0,0,1,1.8-.932,17.121,17.121,0,0,1,2.733-.87c.87-.216.993-.281,1.12-.527.185-.312.092-.62-.062-1.243a5.917,5.917,0,0,1-.092-3.014A7.669,7.669,0,0,1,162.53,81.3c1.678-1.771,3.915-1.8,6.305-1.832a22.226,22.226,0,0,0,3.976-.281c.281-.031,6.99-1.274,9.85-6.244a11.144,11.144,0,0,0,1.345-5.882,18.924,18.924,0,0,0-.941-5.084c-1.274-4.226-3.761-6.709-8.7-11.621a54.207,54.207,0,0,0-12.737-9.881,41.476,41.476,0,0,0-11.587-4.6,34.855,34.855,0,0,0-10.285-.651,75.242,75.242,0,0,1-10.439-.123,16.735,16.735,0,0,0-4.069.092c-1.771.216-3.014.651-6.929,2.267-3.822,1.586-6.12,2.517-6.709,2.86a41,41,0,0,0-6.524,4.846,49.755,49.755,0,0,0-5.158,4.846,36.935,36.935,0,0,0-5.374,7.206,15.982,15.982,0,0,0-1.086,2.486c-.373.993-.962,2.579-2.144,5.47-.558,1.4-1.024,2.487-1.367,3.326C88.9,71,88.682,71.527,88.559,72.706Z" transform="translate(-86.977 -33.481)" fill="#a530fe"/>
      <g id="Grupo_1153911" data-name="Grupo 1153911" transform="translate(82.324 21.763)">
        <g id="Grupo_1153910" data-name="Grupo 1153910">
          <path id="Trazado_990597" data-name="Trazado 990597" d="M123.185,41.505c-.223.849-1.192,1.151-1.966,1.288a15.025,15.025,0,0,1-3.014.082,6.333,6.333,0,0,0-2.949.476,8.432,8.432,0,0,0-2.363,1.836c-.418.432-1.075-.229-.658-.658a7.486,7.486,0,0,1,4.562-2.545,25.921,25.921,0,0,1,2.826,0,7.036,7.036,0,0,0,1.517-.12c.356-.075,1.038-.192,1.144-.606a.468.468,0,0,1,.9.25Z" transform="translate(-112.102 -40.926)"/>
        </g>
      </g>
      <g id="Grupo_1153913" data-name="Grupo 1153913" transform="translate(82.336 25.462)">
        <g id="Grupo_1153912" data-name="Grupo 1153912">
          <path id="Trazado_990598" data-name="Trazado 990598" d="M112.813,42.058a7.352,7.352,0,0,0,2.175.37,10.424,10.424,0,0,1,1.932.483,9.227,9.227,0,0,1,3.36,2.058,7.089,7.089,0,0,1,1.853,7.244c-.2.562-1.1.319-.9-.247a6.219,6.219,0,0,0-1.945-6.648,8.424,8.424,0,0,0-3.271-1.719,10.38,10.38,0,0,0-1.836-.339,5.034,5.034,0,0,1-1.836-.4c-.545-.26-.072-1.065.466-.8Z" transform="translate(-112.105 -42.006)"/>
        </g>
      </g>
      <g id="Grupo_1153915" data-name="Grupo 1153915" transform="translate(79.106 37.255)">
        <g id="Grupo_1153914" data-name="Grupo 1153914">
          <path id="Trazado_990599" data-name="Trazado 990599" d="M123.994,46.011c-.935,2.384-3.37,3.237-5.6,4a12.654,12.654,0,0,0-6.34,4.493c-.349.479-1.158.017-.8-.469a13.027,13.027,0,0,1,5.487-4.4c2.2-.921,5.374-1.36,6.36-3.88.216-.551,1.117-.312.9.25Z" transform="translate(-111.163 -45.449)"/>
        </g>
      </g>
      <g id="Grupo_1153917" data-name="Grupo 1153917" transform="translate(73.501 34.109)">
        <g id="Grupo_1153916" data-name="Grupo 1153916">
          <path id="Trazado_990600" data-name="Trazado 990600" d="M109.862,51.7c2.493-.479,5.165-1.089,6.939-3.048a5.31,5.31,0,0,0,.942-1.445c.212-.483.336-1,.586-1.473a2.639,2.639,0,0,1,2.726-1.2c.6.024.6.956,0,.932a2.094,2.094,0,0,0-1.688.39,4.388,4.388,0,0,0-.682,1.5,6.627,6.627,0,0,1-1.822,2.541c-1.891,1.644-4.353,2.243-6.754,2.7-.586.11-.836-.788-.247-.9Z" transform="translate(-109.526 -44.53)"/>
        </g>
      </g>
      <g id="Grupo_1153919" data-name="Grupo 1153919" transform="translate(72.562 27.751)">
        <g id="Grupo_1153918" data-name="Grupo 1153918">
          <path id="Trazado_990601" data-name="Trazado 990601" d="M122.795,43.387c-.3.664-.6,1.325-.9,1.99a2.18,2.18,0,0,1-.935,1.209,1.867,1.867,0,0,1-1.319-.079c-.377-.086-.459-.051-.545.312a3.106,3.106,0,0,1-.236.74,3.412,3.412,0,0,1-2.689,1.548c-.9.13-2.706.284-2.541-1.154.068-.582.976-.606.932,0a3.274,3.274,0,0,1-5.1,2.538c-.493-.332-.027-1.14.469-.8a2.335,2.335,0,0,0,3.7-1.733h.932c-.065.575,1.528.24,1.784.188a2.779,2.779,0,0,0,1.356-.6c.551-.507.363-1.363.938-1.829a1.082,1.082,0,0,1,.808-.216c.315.031.709.319,1.024.264.414-.069.678-.99.819-1.3.233-.517.466-1.031.7-1.548.25-.538,1.051-.065.8.476Z" transform="translate(-109.252 -42.674)"/>
        </g>
      </g>
      <g id="Grupo_1153921" data-name="Grupo 1153921" transform="translate(67.648 27.917)">
        <g id="Grupo_1153920" data-name="Grupo 1153920">
          <path id="Trazado_990602" data-name="Trazado 990602" d="M108.735,50.807a1.34,1.34,0,0,1-.058-.3,1.04,1.04,0,0,1-.243-.161c-.25.092-.295.072-.137-.055.062-.065.12-.13.182-.2.12-.134.24-.267.353-.4.236-.274.462-.558.678-.849a17.119,17.119,0,0,0,1.171-1.791,3.924,3.924,0,0,0,.777-1.966,2.74,2.74,0,0,0-.973-1.565c-.418-.432.24-1.093.658-.658a3.479,3.479,0,0,1,1.247,2.291,5.716,5.716,0,0,1-1.11,2.716,18.822,18.822,0,0,1-1.706,2.38c-.267.319-.6.832-.993.986a.559.559,0,0,1-.747-.671c.137-.592,1.038-.346.9.24Z" transform="translate(-107.817 -42.722)"/>
        </g>
      </g>
      <g id="Grupo_1153923" data-name="Grupo 1153923" transform="translate(65.221 20.538)">
        <g id="Grupo_1153922" data-name="Grupo 1153922">
          <path id="Trazado_990603" data-name="Trazado 990603" d="M117.2,50.675a6.6,6.6,0,0,1-1.654-3.237,13.878,13.878,0,0,1-.267-2.093c-.045-.736.007-1.5-.1-2.23s-1.079-.753-1.671-.836c-.671-.1-1.356-.12-2.031-.151a12.685,12.685,0,0,1-4.052-.63c-.555-.212-.312-1.117.247-.9a13.426,13.426,0,0,0,4.24.616,16.949,16.949,0,0,1,2.123.209,2.841,2.841,0,0,1,1.716.692,2.642,2.642,0,0,1,.39,1.678c.027.777.045,1.555.127,2.326a6.433,6.433,0,0,0,1.586,3.9c.425.425-.233,1.086-.654.654Z" transform="translate(-107.108 -40.568)"/>
        </g>
      </g>
      <g id="Grupo_1153925" data-name="Grupo 1153925" transform="translate(72.333 16.772)">
        <g id="Grupo_1153924" data-name="Grupo 1153924">
          <path id="Trazado_990604" data-name="Trazado 990604" d="M117.618,51.975c-2.38-1.462-2.024-4.463-1.928-6.846a5.219,5.219,0,0,0-.223-2.326,2.815,2.815,0,0,0-1.569-1.13,19.1,19.1,0,0,0-4.377-1.3c-.589-.1-.339-1,.247-.9a19.648,19.648,0,0,1,4.309,1.271c1.24.524,2.257,1.11,2.469,2.545.356,2.418-1.045,6.295,1.538,7.884a.462.462,0,0,1-.466.8Z" transform="translate(-109.185 -39.468)"/>
        </g>
      </g>
      <g id="Grupo_1153927" data-name="Grupo 1153927" transform="translate(73.118 12.07)">
        <g id="Grupo_1153926" data-name="Grupo 1153926">
          <path id="Trazado_990605" data-name="Trazado 990605" d="M120.089,47.718a20.548,20.548,0,0,0-1.339-4.072,3.343,3.343,0,0,0-1.075-1.5,3.8,3.8,0,0,0-2.014-.4,9.228,9.228,0,0,1-3.6-.4,6.311,6.311,0,0,1-2.572-2.565c-.332-.5.476-.969.8-.469a4.6,4.6,0,0,0,2.969,2.421c1.3.229,2.651-.069,3.949.233a3.716,3.716,0,0,1,2.456,2.469,22.318,22.318,0,0,1,1.319,4.035c.127.586-.771.836-.9.25Z" transform="translate(-109.414 -38.096)"/>
        </g>
      </g>
      <g id="Grupo_1153929" data-name="Grupo 1153929" transform="translate(69.092 6.665)">
        <g id="Grupo_1153928" data-name="Grupo 1153928">
          <path id="Trazado_990606" data-name="Trazado 990606" d="M108.9,36.609a23.814,23.814,0,0,0,6.028,3.678c2.062.781,4.237,1.25,6.264,2.123a6.977,6.977,0,0,1,3.7,3.555c.411.856.726,1.75,1.117,2.617.288.637,1.678,3.445,2.6,1.993.319-.507,1.127-.038.8.469-1.1,1.73-2.942.332-3.672-.928-1.1-1.894-1.456-4.343-3.171-5.833-1.993-1.73-5.131-2.1-7.549-2.976a24.5,24.5,0,0,1-6.59-3.9c-.473-.356-.007-1.164.469-.8Z" transform="translate(-108.238 -36.517)"/>
        </g>
      </g>
      <g id="Grupo_1153931" data-name="Grupo 1153931" transform="translate(63.289 8.721)">
        <g id="Grupo_1153930" data-name="Grupo 1153930">
          <path id="Trazado_990607" data-name="Trazado 990607" d="M111.869,37.17a5.46,5.46,0,0,1,2.723,6.929,6.6,6.6,0,0,1-3.065,3.1,7.613,7.613,0,0,1-4.538,1.072c-.589-.068-.6-1,0-.932a6.643,6.643,0,0,0,3.908-.856,6.027,6.027,0,0,0,2.778-2.589,4.532,4.532,0,0,0-2.278-5.911c-.534-.267-.062-1.072.473-.808Z" transform="translate(-106.544 -37.118)"/>
        </g>
      </g>
      <g id="Grupo_1153933" data-name="Grupo 1153933" transform="translate(57.396 8.176)">
        <g id="Grupo_1153932" data-name="Grupo 1153932">
          <path id="Trazado_990608" data-name="Trazado 990608" d="M109.185,37.652c-1.209,2.024-2.73,4.154-3.278,6.477-.569,2.4.575,4.7,2.038,6.545.37.466-.284,1.13-.658.658-1.534-1.932-2.767-4.281-2.4-6.822.384-2.647,2.147-5.083,3.49-7.329a.467.467,0,0,1,.8.473Z" transform="translate(-104.824 -36.959)"/>
        </g>
      </g>
      <g id="Grupo_1153935" data-name="Grupo 1153935" transform="translate(50.44 13.845)">
        <g id="Grupo_1153934" data-name="Grupo 1153934">
          <path id="Trazado_990609" data-name="Trazado 990609" d="M102.794,41.779c.058-.723.911-1.134,1.466-1.473a12.292,12.292,0,0,1,2-.98,11.855,11.855,0,0,1,2.082-.6,2.7,2.7,0,0,1,2.034.164c.5.329.034,1.137-.469.8a1.981,1.981,0,0,0-1.49-.038,11.5,11.5,0,0,0-1.743.5,11.362,11.362,0,0,0-1.589.743c-.253.144-.5.3-.75.459-.13.086-.26.175-.384.267a2.14,2.14,0,0,0-.175.134c-.1.61-1.031.613-.983.014Z" transform="translate(-102.792 -38.614)"/>
        </g>
      </g>
      <g id="Grupo_1153937" data-name="Grupo 1153937" transform="translate(46.936 6.972)">
        <g id="Grupo_1153936" data-name="Grupo 1153936">
          <path id="Trazado_990610" data-name="Trazado 990610" d="M101.854,39.583a6.4,6.4,0,0,1,3.178-2.278,8.316,8.316,0,0,1,4.493-.575,4.246,4.246,0,0,1,2.853,2.483,5.034,5.034,0,0,1-.243,4.2c-.267.538-1.072.065-.8-.469a4.041,4.041,0,0,0,.127-3.517,3.269,3.269,0,0,0-2.6-1.86,8.652,8.652,0,0,0-3.582.644,5.327,5.327,0,0,0-2.62,1.849c-.342.483-1.151.017-.8-.476Z" transform="translate(-101.769 -36.607)"/>
        </g>
      </g>
      <g id="Grupo_1153939" data-name="Grupo 1153939" transform="translate(49.636 1.484)">
        <g id="Grupo_1153938" data-name="Grupo 1153938">
          <path id="Trazado_990611" data-name="Trazado 990611" d="M102.88,38.828a36.1,36.1,0,0,0,4.85-2.052,15.7,15.7,0,0,1,4.658-1.7c2.569-.373,5.518.664,6.216,3.415a.466.466,0,0,1-.9.247c-.75-2.952-4.233-3.165-6.638-2.4a31.673,31.673,0,0,0-4.014,1.8,31.094,31.094,0,0,1-3.925,1.579c-.572.188-.819-.712-.25-.9Z" transform="translate(-102.558 -35.005)"/>
        </g>
      </g>
      <g id="Grupo_1153941" data-name="Grupo 1153941" transform="translate(58.616 15.427)">
        <g id="Grupo_1153940" data-name="Grupo 1153940">
          <path id="Trazado_990612" data-name="Trazado 990612" d="M107.866,61.13a17.491,17.491,0,0,1,.736-6.706c.661-2.065,1.641-4.017,2.26-6.1.312-1.045.8-2.5.408-3.552-.373-1-1.524-1.411-2.432-1.774a7.621,7.621,0,0,1-2.052-1.058c-.709-.575-.822-1.5-1.459-2.082-.445-.4.216-1.065.658-.658.747.682.808,1.671,1.723,2.257.8.51,1.747.73,2.589,1.161,1.771.908,2.2,2.274,1.884,4.168A34.551,34.551,0,0,1,110,53.273a17.852,17.852,0,0,0-1.2,7.86c.045.593-.887.589-.932,0Z" transform="translate(-105.18 -39.076)"/>
        </g>
      </g>
      <g id="Grupo_1153943" data-name="Grupo 1153943" transform="translate(64.524 26.878)">
        <g id="Grupo_1153942" data-name="Grupo 1153942">
          <path id="Trazado_990613" data-name="Trazado 990613" d="M108.3,55.091c-1.9-1.3-1.627-4.172-.562-5.908.575-.935,1.339-1.733,1.945-2.647a7.2,7.2,0,0,0,1.2-3.668c.027-.6.959-.6.932,0a8.259,8.259,0,0,1-.73,3.079,12.435,12.435,0,0,1-1.623,2.439A7.315,7.315,0,0,0,107.947,51c-.264,1.038-.147,2.623.822,3.291.49.332.024,1.14-.469.8Z" transform="translate(-106.905 -42.419)"/>
        </g>
      </g>
      <g id="Grupo_1153945" data-name="Grupo 1153945" transform="translate(18.374 17.529)">
        <g id="Grupo_1153944" data-name="Grupo 1153944">
          <path id="Trazado_990614" data-name="Trazado 990614" d="M149.229,75.865a8.049,8.049,0,0,1-4.048-6.857c-.031-1.843.822-3.658-.654-5.343a6.837,6.837,0,0,0-2.942-1.6c-1.928-.675-3.88-1.168-5.774-1.962a44.009,44.009,0,0,1-9.607-5.7,19.3,19.3,0,0,0-2.558-1.781c-2.045-1.086-2.781-.949-4.75.346a4.591,4.591,0,0,1-2.069.836c-3.356.832-2.243.685-4.089,1.969a3.721,3.721,0,0,1-.873.524,2.274,2.274,0,0,1-2.394-.428c-1.456-1.151-.223-1.514-3.24-.548a14.929,14.929,0,0,1-1.483.62,6.117,6.117,0,0,1-3.511-.425c-1.4-.527-3.493-1.538-4.391-2.805-.188-.267-.3-.579-.466-.863A5.924,5.924,0,0,0,95.314,49.2a11.091,11.091,0,0,1-1.089-1.247c-1.7-2.651-.353-5.545,1-8.028.288-.527,1.093-.058.8.469-1.7,3.127-2.26,4.97-.055,8.148,1.014,1.459,1.521,3.6,2.9,4.654a10.387,10.387,0,0,0,2.8,1.445c2.01.706,2.524.428,4.648-.565.753-.353,1.147-.808,2.01-.545.373.113.4.267.719.435a3.153,3.153,0,0,1,.644.736q2.337.956,3.507-.671a10.467,10.467,0,0,1,2.223-1.291c1.726-.593-.414,1.483,3-.75.257-.168.428-.545.726-.671a4.389,4.389,0,0,1,2.63-.37c3.028.483,5.446,3.213,7.888,4.826a41.2,41.2,0,0,0,10.747,4.966c2.082.637,4.675,1.288,5.6,3.524.575,1.394.175,2.843.134,4.288a7.094,7.094,0,0,0,3.558,6.507c.51.315.044,1.12-.469.808Z" transform="translate(-93.43 -39.69)"/>
        </g>
      </g>
      <g id="Grupo_1153947" data-name="Grupo 1153947" transform="translate(53.413 28.328)">
        <g id="Grupo_1153946" data-name="Grupo 1153946">
          <path id="Trazado_990615" data-name="Trazado 990615" d="M105.135,49.215a11.081,11.081,0,0,1-.192-3.175,2.52,2.52,0,0,0-1.051-2.332c-.527-.284-.058-1.089.469-.8a3.172,3.172,0,0,1,1.483,2.589c.12,1.158-.168,2.346.188,3.473.185.575-.716.822-.9.25Z" transform="translate(-103.661 -42.843)"/>
        </g>
      </g>
      <g id="Grupo_1153949" data-name="Grupo 1153949" transform="translate(34.302 5.23)">
        <g id="Grupo_1153948" data-name="Grupo 1153948">
          <path id="Trazado_990616" data-name="Trazado 990616" d="M115.052,62.288c.2-1.154,1.284-2.1,2.055-2.915.493-.521,1.182-.719,1.637-1.281a3.907,3.907,0,0,0,.654-2.709,7.141,7.141,0,0,0-2-5.161c-1.178-1.041-2.7-1.582-3.949-2.517a9.38,9.38,0,0,1-2.582-3.668,24.025,24.025,0,0,0-3.048-4.743c-1.271-1.438-2.969-1.49-4.744-1.723-.706-.092-2-.664-2.63-.332-.606.315-1.2,1.685-1.5,2.271-.274.534-1.079.062-.8-.469.521-1.007,1.469-3.1,2.86-2.932a9.826,9.826,0,0,1,1.13.36,13.9,13.9,0,0,0,1.88.277,10.432,10.432,0,0,1,2.469.476c1.627.616,2.538,2.038,3.445,3.432.617.949,1.226,1.9,1.75,2.911a10.418,10.418,0,0,0,1.774,2.935c1.336,1.288,3.226,1.822,4.61,3.058A7.1,7.1,0,0,1,120.183,54c.233,1.541.346,3.3-.651,4.617-.527.7-1.315.99-1.908,1.617-.613.651-1.517,1.391-1.671,2.295-.1.6-1,.349-.9-.24Z" transform="translate(-98.081 -36.098)"/>
        </g>
      </g>
      <g id="Grupo_1153951" data-name="Grupo 1153951" transform="translate(30.881 12.399)">
        <g id="Grupo_1153950" data-name="Grupo 1153950">
          <path id="Trazado_990617" data-name="Trazado 990617" d="M97.237,51.527c2.034-1.736.1-4.881.332-7.062.253-2.4,2.308-3.949,4.333-4.922a10.291,10.291,0,0,1,7.124-1.089,7.287,7.287,0,0,1,4.613,4.3c1.2,2.812.658,5.655.788,8.6.027.6-.9.6-.932,0-.14-3.089.517-6.165-1.1-9.014a6.415,6.415,0,0,0-7.6-2.9c-2.671.712-6.384,2.456-6.319,5.7.045,2.315,1.61,5.185-.575,7.052-.459.39-1.123-.267-.664-.658Z" transform="translate(-97.082 -38.191)"/>
        </g>
      </g>
      <g id="Grupo_1153953" data-name="Grupo 1153953" transform="translate(37.051 14.297)">
        <g id="Grupo_1153952" data-name="Grupo 1153952">
          <path id="Trazado_990618" data-name="Trazado 990618" d="M106.606,54.385c-4.189-3.863-9.22-9.045-7.3-15.313.175-.572,1.075-.329.9.247-1.808,5.911,3.134,10.782,7.062,14.405.445.411-.216,1.069-.658.661Z" transform="translate(-98.883 -38.746)"/>
        </g>
      </g>
      <g id="Grupo_1153955" data-name="Grupo 1153955" transform="translate(30.857 25.659)">
        <g id="Grupo_1153954" data-name="Grupo 1153954">
          <path id="Trazado_990619" data-name="Trazado 990619" d="M97.922,42.306a7.2,7.2,0,0,0,3.151,3.076,19.216,19.216,0,0,0,4.514,1.98.466.466,0,0,1-.247.9,20.206,20.206,0,0,1-4.86-2.147,7.885,7.885,0,0,1-3.363-3.336c-.233-.541.569-1.017.8-.469Z" transform="translate(-97.075 -42.063)"/>
        </g>
      </g>
      <g id="Grupo_1153957" data-name="Grupo 1153957" transform="translate(34.504 27.115)">
        <g id="Grupo_1153956" data-name="Grupo 1153956">
          <path id="Trazado_990620" data-name="Trazado 990620" d="M98.847,44.272a1.382,1.382,0,0,0,.339.075,1.2,1.2,0,0,0,.264-.058,1.525,1.525,0,0,0,.247-.13,1.484,1.484,0,0,0,.2-.188,2.424,2.424,0,0,0,.288-.452,1.747,1.747,0,0,0,.116-.281c.048-.134.089-.267.127-.4a.465.465,0,0,1,.9.247,3.36,3.36,0,0,1-.976,1.74,1.78,1.78,0,0,1-1.98.257.472.472,0,0,1-.168-.637.488.488,0,0,1,.644-.168Z" transform="translate(-98.14 -42.488)"/>
        </g>
      </g>
      <g id="Grupo_1153959" data-name="Grupo 1153959" transform="translate(25.403 21.636)">
        <g id="Grupo_1153958" data-name="Grupo 1153958">
          <path id="Trazado_990621" data-name="Trazado 990621" d="M102.393,41.743a7.781,7.781,0,0,1-6.672.01c-.541-.257-.068-1.062.469-.8a6.761,6.761,0,0,0,5.73-.01c.541-.257,1.017.548.473.8Z" transform="translate(-95.482 -40.888)"/>
        </g>
      </g>
      <g id="Grupo_1153961" data-name="Grupo 1153961" transform="translate(25.849 22.462)">
        <g id="Grupo_1153960" data-name="Grupo 1153960">
          <path id="Trazado_990622" data-name="Trazado 990622" d="M98.056,41.35a4.28,4.28,0,0,1,.168,3.346,5.733,5.733,0,0,1-1.819,2.754.475.475,0,0,1-.658,0,.468.468,0,0,1,0-.658,4.851,4.851,0,0,0,1.551-2.26,3.443,3.443,0,0,0-.048-2.709c-.319-.514.486-.983.8-.473Z" transform="translate(-95.613 -41.13)"/>
        </g>
      </g>
      <g id="Grupo_1153963" data-name="Grupo 1153963" transform="translate(24.687 9.487)">
        <g id="Grupo_1153962" data-name="Grupo 1153962">
          <path id="Trazado_990623" data-name="Trazado 990623" d="M112.438,40.81a12.588,12.588,0,0,0-3.3-1.764,7.207,7.207,0,0,0-3.819-.719A22.854,22.854,0,0,0,98.5,40.985c-.9.476-2.452,1.274-2.12,2.548.274,1.058,1.5,1.675,1.915,2.665a2.436,2.436,0,0,1-.555,2.295,1.509,1.509,0,0,1-.9.579c-.48.082-.64-.192-1.079-.271.151-.041.3-.079.452-.12.1-.092.223.377.315.51a2.5,2.5,0,0,0,.521.538c.462.38-.2,1.038-.658.658-.493-.408-1.644-1.736-.836-2.367.377-.295.579.024.935.1.449.089.976-.757.98-1.137a2.138,2.138,0,0,0-.637-1.219c-.7-.856-1.613-1.723-1.377-2.939a3.732,3.732,0,0,1,2.062-2.36A31.87,31.87,0,0,1,101.2,38.7a15.955,15.955,0,0,1,4.309-1.332,8.4,8.4,0,0,1,4.017.839,13.745,13.745,0,0,1,3.569,1.949c.466.373-.2,1.027-.658.654Z" transform="translate(-95.273 -37.341)"/>
        </g>
      </g>
      <g id="Grupo_1153965" data-name="Grupo 1153965" transform="translate(27.181 13.023)">
        <g id="Grupo_1153964" data-name="Grupo 1153964">
          <path id="Trazado_990624" data-name="Trazado 990624" d="M101.692,41.556a14.442,14.442,0,0,1-5.483-2.295c-.49-.339-.024-1.147.469-.8a13.784,13.784,0,0,0,5.261,2.2c.589.11.342,1.007-.247.9Z" transform="translate(-96.001 -38.374)"/>
        </g>
      </g>
      <g id="Grupo_1153967" data-name="Grupo 1153967" transform="translate(20.208 5.886)">
        <g id="Grupo_1153966" data-name="Grupo 1153966">
          <path id="Trazado_990625" data-name="Trazado 990625" d="M94.077,48.131A33.2,33.2,0,0,0,97.738,42.7c.832-1.6,1.26-3.654,2.61-4.928a6.592,6.592,0,0,1,5.233-1.4,2.618,2.618,0,0,1,1.973,1.171,1.785,1.785,0,0,1-.161,2.058c-.377.466-1.034-.2-.658-.661.627-.771-.486-1.49-1.113-1.62a6.017,6.017,0,0,0-2.555.123,4.331,4.331,0,0,0-2.192,1.13,6.389,6.389,0,0,0-1.151,1.969,30.72,30.72,0,0,1-2.055,4.182,39.446,39.446,0,0,1-2.928,4.076c-.384.466-1.038-.2-.664-.661Z" transform="translate(-93.966 -36.29)"/>
        </g>
      </g>
      <g id="Grupo_1153969" data-name="Grupo 1153969" transform="translate(31.21 1.73)">
        <g id="Grupo_1153968" data-name="Grupo 1153968">
          <path id="Trazado_990626" data-name="Trazado 990626" d="M97.507,39.123a14.018,14.018,0,0,0,4.165-2.445,7.962,7.962,0,0,1,4.3-1.6c2.935-.1,6.983,1.175,8.1,4.165.212.562-.688.8-.9.247a5.259,5.259,0,0,0-3.487-2.815,8.74,8.74,0,0,0-4.963-.49c-2.627.664-4.339,3.124-6.97,3.832a.466.466,0,0,1-.25-.9Z" transform="translate(-97.178 -35.076)"/>
        </g>
      </g>
      <g id="Grupo_1153971" data-name="Grupo 1153971" transform="translate(8.29 13.4)">
        <g id="Grupo_1153970" data-name="Grupo 1153970">
          <path id="Trazado_990627" data-name="Trazado 990627" d="M90.573,54.694a13.652,13.652,0,0,0,2.312-5.233,15.129,15.129,0,0,1,1.658-5.134c1.928-3.017,5.312-4.476,8.487-5.805.551-.233.795.671.247.9-3.151,1.319-6.668,2.829-8.309,6.038-.8,1.572-.935,3.377-1.377,5.065a13.806,13.806,0,0,1-2.216,4.644c-.346.479-1.154.014-.8-.473Z" transform="translate(-90.486 -38.484)"/>
        </g>
      </g>
      <g id="Grupo_1153973" data-name="Grupo 1153973" transform="translate(8.345 26.728)">
        <g id="Grupo_1153972" data-name="Grupo 1153972">
          <path id="Trazado_990628" data-name="Trazado 990628" d="M115.792,52.536a13.823,13.823,0,0,1-8.271,1.665,3.319,3.319,0,0,1-2.7-1.74c-.226-.5-.1-1.623-.4-2-.336-.425-1.3-.11-1.791-.243a4.06,4.06,0,0,1-2.332-2.425,7.42,7.42,0,0,1-.6-1.918c-.092-.555.034-1.908-.349-2.291-.312-.312-.459-.014-.87.219-.312.178-.63.349-.949.51a19.125,19.125,0,0,1-1.88.832,12.69,12.69,0,0,1-4.7.839.466.466,0,0,1,0-.932,12.006,12.006,0,0,0,4.456-.8,18.079,18.079,0,0,0,2.233-1.038,6.123,6.123,0,0,1,1.469-.812c.822-.158,1.093.651,1.243,1.308.349,1.521.274,2.976,1.151,4.36a2.818,2.818,0,0,0,.969,1.089,2.9,2.9,0,0,0,1.462.014,1.011,1.011,0,0,1,.918.2c.986.836.288,2.449,1.312,3.312,1.2,1.01,3.295.678,4.744.486a12.053,12.053,0,0,0,4.418-1.432.464.464,0,0,1,.466.8Z" transform="translate(-90.502 -42.375)"/>
        </g>
      </g>
      <g id="Grupo_1153975" data-name="Grupo 1153975" transform="translate(8.772 37.917)">
        <g id="Grupo_1153974" data-name="Grupo 1153974">
          <path id="Trazado_990629" data-name="Trazado 990629" d="M108.048,46.09c-.082,2.336-2.26,3.432-4.312,3.764-2.593.421-5.336.075-7.716,1.394a8.354,8.354,0,0,0-4.384,5.572c-.49,3.017,2.969,4.826,5.134,6.155.51.315.041,1.12-.469.8-1.966-1.209-4.709-2.692-5.473-5.045-.743-2.288.7-4.843,2.267-6.429a10.254,10.254,0,0,1,6.374-3c2.288-.247,7.531.178,7.648-3.213.021-.6.952-.6.932,0Z" transform="translate(-90.626 -45.642)"/>
        </g>
      </g>
      <g id="Grupo_1153977" data-name="Grupo 1153977" transform="translate(4.106 31.987)">
        <g id="Grupo_1153976" data-name="Grupo 1153976">
          <path id="Trazado_990630" data-name="Trazado 990630" d="M104.227,44.36c.086,1.891-2.61,2.308-3.983,2.493-2.175.291-4.3.336-6.22,1.538a8.225,8.225,0,0,0-3.62,5.072c-.558,2.356.13,4.661.843,6.9.182.572-.719.819-.9.247a14.894,14.894,0,0,1-1.01-6.466,9.176,9.176,0,0,1,2.579-5.261,9.33,9.33,0,0,1,4.963-2.565c1.127-.2,2.274-.247,3.4-.408.836-.12,3.072-.387,3.017-1.555-.034-.6.9-.6.925,0Z" transform="translate(-89.264 -43.911)"/>
        </g>
      </g>
      <g id="Grupo_1153979" data-name="Grupo 1153979" transform="translate(0.956 29.378)">
        <g id="Grupo_1153978" data-name="Grupo 1153978">
          <path id="Trazado_990631" data-name="Trazado 990631" d="M98.683,43.724A4.716,4.716,0,0,1,95.861,46.6a13.453,13.453,0,0,0-4.617,2.9c-2.915,3.2-1.942,8.439-1.175,12.3s2.271,7.374,6.165,8.867c1.61.62,3.315.969,4.9,1.651.976.418,2.127.894,2.4,2.014.14.582-.757.832-.9.247-.394-1.623-4.2-2.2-5.545-2.63a11.719,11.719,0,0,1-4.13-2.079c-2.576-2.212-3.473-5.778-4.007-8.987-.555-3.326-1.247-7.463.517-10.542a9.39,9.39,0,0,1,2.87-3.014c1.757-1.2,4.747-1.562,5.439-3.843a.467.467,0,0,1,.9.247Z" transform="translate(-88.344 -43.149)"/>
        </g>
      </g>
      <g id="Grupo_1153981" data-name="Grupo 1153981" transform="translate(15.159 34.416)">
        <g id="Grupo_1153980" data-name="Grupo 1153980">
          <path id="Trazado_990632" data-name="Trazado 990632" d="M93.4,44.952c.243.969,1.185,1.582,1.449,2.558.343,1.277-.408,2.435-1.137,3.411a.48.48,0,0,1-.637.168.47.47,0,0,1-.168-.637c.6-.8,1.421-1.863.969-2.918-.363-.843-1.144-1.411-1.373-2.332a.466.466,0,0,1,.9-.25Z" transform="translate(-92.491 -44.62)"/>
        </g>
      </g>
      <g id="Grupo_1153983" data-name="Grupo 1153983" transform="translate(8.463 36.534)">
        <g id="Grupo_1153982" data-name="Grupo 1153982">
          <path id="Trazado_990633" data-name="Trazado 990633" d="M99.447,45.816a3.784,3.784,0,0,1-1.113,2.065c-.791.623-1.719.281-2.637.312A5.3,5.3,0,0,0,91.413,50.7c-.312.51-1.12.045-.8-.469a6.266,6.266,0,0,1,4.035-2.839,5.983,5.983,0,0,1,1.233-.13,13.532,13.532,0,0,0,1.391.089c.832-.089,1.1-1.106,1.284-1.781a.465.465,0,0,1,.9.247Z" transform="translate(-90.536 -45.238)"/>
        </g>
      </g>
      <g id="Grupo_1153985" data-name="Grupo 1153985" transform="translate(14.603 42.178)">
        <g id="Grupo_1153984" data-name="Grupo 1153984">
          <path id="Trazado_990634" data-name="Trazado 990634" d="M93.237,47.224c.158.928,1.212,1.384,1.973,1.76.86.428,1.76.774,2.637,1.168a9.025,9.025,0,0,1,3.908,2.887,5.755,5.755,0,0,1,.774,4.744c-.493,1.685-1.918,2.349-3.572,2.418-.6.024-.6-.908,0-.932a2.843,2.843,0,0,0,2.254-.88,3.484,3.484,0,0,0,.582-2.185,4.983,4.983,0,0,0-2.168-4,21.653,21.653,0,0,0-4.086-2.034c-1.192-.531-2.952-1.233-3.2-2.7-.1-.586.8-.839.9-.247Z" transform="translate(-92.329 -46.886)"/>
        </g>
      </g>
      <g id="Grupo_1153987" data-name="Grupo 1153987" transform="translate(13.292 46.998)">
        <g id="Grupo_1153986" data-name="Grupo 1153986">
          <path id="Trazado_990635" data-name="Trazado 990635" d="M101.035,48.534c.541,1.178,1.021,2.586.322,3.812a4.553,4.553,0,0,1-3.442,1.819c-2.76.291-4.966-2.206-5.932-4.535-.229-.555.671-.795.9-.247.743,1.788,2.469,3.874,4.572,3.877a4.126,4.126,0,0,0,2.925-1.141c.764-.9.281-2.182-.147-3.117-.247-.538.555-1.014.8-.469Z" transform="translate(-91.946 -48.294)"/>
        </g>
      </g>
      <g id="Grupo_1153989" data-name="Grupo 1153989" transform="translate(24.218 40.726)">
        <g id="Grupo_1153988" data-name="Grupo 1153988">
          <path id="Trazado_990636" data-name="Trazado 990636" d="M95.474,56.821c4.531-.616,8.785,2.24,13.3.788,4.041-1.3,7.973-6.192,6.24-10.586-.219-.558.682-.8.9-.247,1.661,4.213-1.531,9.138-5.23,11.045a11.015,11.015,0,0,1-6.607,1.065c-2.781-.387-5.507-1.551-8.353-1.164-.589.079-.843-.819-.25-.9Z" transform="translate(-95.136 -46.462)"/>
        </g>
      </g>
      <g id="Grupo_1153991" data-name="Grupo 1153991" transform="translate(22.314 35.017)">
        <g id="Grupo_1153990" data-name="Grupo 1153990">
          <path id="Trazado_990637" data-name="Trazado 990637" d="M115.471,45.129c1.089,4.713-1.843,9.566-6.158,11.5-2.356,1.058-4.9.682-7.288-.082-1.267-.4-2.5-.908-3.774-1.291-.346-.1-.7-.2-1.045-.284-.432-.1-.64-.229-.959.041-.452.384-.634,1.586-.757,2.161s-1.024.339-.9-.247a5.345,5.345,0,0,1,1.171-2.788c.675-.558,1.839-.041,2.565.168,2.552.743,5.024,2.034,7.737,2.062,5.336.055,9.675-5.966,8.511-11-.137-.582.76-.832.894-.247Z" transform="translate(-94.58 -44.796)"/>
        </g>
      </g>
      <g id="Grupo_1153993" data-name="Grupo 1153993" transform="translate(31.384 33.593)">
        <g id="Grupo_1153992" data-name="Grupo 1153992">
          <path id="Trazado_990638" data-name="Trazado 990638" d="M97.449,57.005a15.113,15.113,0,0,0,5.531-5.336,3.577,3.577,0,0,0,.065-3.949c-.664-.976-1.819-1.586-2.161-2.764a.466.466,0,0,1,.9-.247c.209.716.877,1.151,1.367,1.668a5.838,5.838,0,0,1,1.089,1.565,4.523,4.523,0,0,1-.353,4.014,15.767,15.767,0,0,1-5.966,5.853c-.51.315-.98-.49-.469-.8Z" transform="translate(-97.229 -44.38)"/>
        </g>
      </g>
      <g id="Grupo_1153995" data-name="Grupo 1153995" transform="translate(43.595 34.248)">
        <g id="Grupo_1153994" data-name="Grupo 1153994">
          <path id="Trazado_990639" data-name="Trazado 990639" d="M127.813,59.236a8.386,8.386,0,0,1-6.946-3.377c-1.055-1.432-1.223-3.336-2.743-4.4a13.949,13.949,0,0,0-5.041-2.363c-1.887-.36-3.716.2-5.569-.527-1.476-.575-2.332-1.736-3.6-2.6-1.319-.9-2.2.134-2.189,1.534.01,1.36,1.058,1.918,2.151,2.339,1.754.671,3.815,1,5.408,2.021.5.322.038,1.127-.469.8-2.418-1.541-8.583-1.462-7.98-5.685.219-1.545,1.144-2.911,2.808-2.226,1.73.712,2.689,2.456,4.528,3.065,2.11.7,4.326-.034,6.456.757a13.223,13.223,0,0,1,4.935,2.891c1.2,1.315,1.37,3.209,2.627,4.538a7.465,7.465,0,0,0,5.624,2.308.463.463,0,0,1,0,.925Z" transform="translate(-100.794 -44.571)"/>
        </g>
      </g>
      <g id="Grupo_1153997" data-name="Grupo 1153997" transform="translate(48.461 40.796)">
        <g id="Grupo_1153996" data-name="Grupo 1153996">
          <path id="Trazado_990640" data-name="Trazado 990640" d="M102.9,49.165a6.5,6.5,0,0,0,3.764,1.1,5.267,5.267,0,0,0,1.962-.38c.784-.346.925-.908,1.089-1.675.134-.634.325-1.757,1.188-1.73.846.024,1.521,1.161,1.843,1.812a11.024,11.024,0,0,1,.973,3.4c.178,1.373-.055,2.856.521,4.154,1.209,2.723,4.408,3.428,7.021,2.5.565-.2.812.7.247.9a6.634,6.634,0,0,1-6.894-1.271,5.528,5.528,0,0,1-1.565-2.819c-.291-1.438-.1-2.918-.428-4.36a9.143,9.143,0,0,0-.743-2.171c-.161-.308-.384-.812-.7-.98-.188-.277-.3-.284-.336-.017a1.973,1.973,0,0,0-.137.438c-.271,1.01-.366,1.98-1.38,2.531-2.1,1.147-4.973.616-6.888-.634-.5-.332-.038-1.137.466-.808Z" transform="translate(-102.215 -46.483)"/>
        </g>
      </g>
      <g id="Grupo_1153999" data-name="Grupo 1153999" transform="translate(47.41 47.49)">
        <g id="Grupo_1153998" data-name="Grupo 1153998">
          <path id="Trazado_990641" data-name="Trazado 990641" d="M119.451,58.4c-3.719,1.6-7.682-2.3-8.812-5.552-.3-.88-.274-2.976-1.634-2.647-1.11.271-2.168.952-3.257,1.322a2.807,2.807,0,0,1-2.606.031,3.542,3.542,0,0,1-1.226-2.531c-.1-.586.8-.839.9-.247.188,1.134.514,2.452,1.966,2.075a20.072,20.072,0,0,0,3.154-1.233c1.49-.668,2.8-.411,3.2,1.312a9.282,9.282,0,0,0,2.3,4.7c1.319,1.353,3.613,2.795,5.548,1.959.548-.229,1.024.572.473.808Z" transform="translate(-101.908 -48.437)"/>
        </g>
      </g>
      <g id="Grupo_1154001" data-name="Grupo 1154001" transform="translate(42.423 52.296)">
        <g id="Grupo_1154000" data-name="Grupo 1154000">
          <path id="Trazado_990642" data-name="Trazado 990642" d="M113.933,54.171c-1,.572-1.956-.257-2.315-1.182-.072-.182-.243-1.051-.4-1.106a3.892,3.892,0,0,0-.921.363c-.7.274-1.4.565-2.117.812a5.572,5.572,0,0,1-4.059-.068,13.435,13.435,0,0,1-3.511-2.373c-.459-.387.2-1.045.658-.658a12.115,12.115,0,0,0,3.206,2.178A5.086,5.086,0,0,0,108.364,52c.6-.226,1.2-.462,1.791-.7.408-.158.932-.49,1.38-.332.76.267.956,2.945,1.925,2.394a.467.467,0,0,1,.473.8Z" transform="translate(-100.452 -49.841)"/>
        </g>
      </g>
      <g id="Grupo_1154003" data-name="Grupo 1154003" transform="translate(18.871 55.088)">
        <g id="Grupo_1154002" data-name="Grupo 1154002">
          <path id="Trazado_990643" data-name="Trazado 990643" d="M117.313,51.458a5.769,5.769,0,0,1-5.148,1.712c-1.086-.185-2.709-1.521-3.682-.887a6.881,6.881,0,0,0-1.247,1.589,6.25,6.25,0,0,1-1.23,1.284,2.128,2.128,0,0,1-2.2.26c-1.26-.5-2.411-1.288-3.678-1.8-.425-.175-1.147-.545-1.6-.336a2.3,2.3,0,0,0-.558.534,6.753,6.753,0,0,1-1.127,1.062,3.116,3.116,0,0,1-2.952.39c-.555-.212-.315-1.113.247-.9,2.562.976,3-2.641,5.285-2.014a17.5,17.5,0,0,1,3.206,1.394,8.5,8.5,0,0,0,1.736.894c.89.2,1.49-.527,1.983-1.127,1.11-1.356,1.949-3.168,3.935-2.123a5.63,5.63,0,0,0,3.254.921,4.8,4.8,0,0,0,3.117-1.507c.414-.438,1.075.223.661.658Z" transform="translate(-93.575 -50.656)"/>
        </g>
      </g>
      <g id="Grupo_1154005" data-name="Grupo 1154005" transform="translate(15.437 58.473)">
        <g id="Grupo_1154004" data-name="Grupo 1154004">
          <path id="Trazado_990644" data-name="Trazado 990644" d="M121.012,52.832c-4.822-1.216-9.518,2.086-14.172,2.884a21.777,21.777,0,0,1-6.466.185c-2.4-.308-4.771-1.442-7.216-1.062-.586.092-.839-.808-.247-.9,2.3-.36,4.353.466,6.583.884a20.629,20.629,0,0,0,8.1-.2c4.538-.969,8.888-3.894,13.665-2.689a.468.468,0,0,1-.25.9Z" transform="translate(-92.572 -51.644)"/>
        </g>
      </g>
      <g id="Grupo_1154007" data-name="Grupo 1154007" transform="translate(16.744 61.277)">
        <g id="Grupo_1154006" data-name="Grupo 1154006">
          <path id="Trazado_990645" data-name="Trazado 990645" d="M119.445,53.4a20.559,20.559,0,0,0-7.59,1.678,18.207,18.207,0,0,1-5.326,1.808,16.814,16.814,0,0,1-6.192-.572c-2.264-.582-4.589-1.832-6.935-1.952-.6-.031-.6-.962,0-.932,2.154.11,4.223,1.144,6.274,1.733a16.51,16.51,0,0,0,7.2.736c2.086-.342,3.911-1.428,5.846-2.212a21,21,0,0,1,6.727-1.223c.6-.031.6.9,0,.935Z" transform="translate(-92.954 -52.463)"/>
        </g>
      </g>
      <g id="Grupo_1154009" data-name="Grupo 1154009" transform="translate(17.944 64.323)">
        <g id="Grupo_1154008" data-name="Grupo 1154008">
          <path id="Trazado_990646" data-name="Trazado 990646" d="M117.065,55.187c-4.165-.319-8.138,1.394-12.261,1.7a15.8,15.8,0,0,1-5.319-.425c-1.969-.538-3.685-1.98-5.733-2.171-.592-.055-.6-.986,0-.932,1.935.182,3.421,1.339,5.216,1.966a14.453,14.453,0,0,0,5.836.627c4.127-.3,8.083-2.017,12.261-1.7.593.048.6.98,0,.935Z" transform="translate(-93.304 -53.352)"/>
        </g>
      </g>
      <g id="Grupo_1154011" data-name="Grupo 1154011" transform="translate(20.601 67.85)">
        <g id="Grupo_1154010" data-name="Grupo 1154010">
          <path id="Trazado_990647" data-name="Trazado 990647" d="M112.118,55.958c-2.9-.593-5.884.065-8.8.2a27.129,27.129,0,0,1-4.35-.113c-.593-.069-1.185-.161-1.767-.284a5.708,5.708,0,0,0-2.545-.38.466.466,0,0,1-.247-.9c1.315-.353,2.723.363,4.024.558a25.332,25.332,0,0,0,4.887.185c3.01-.137,6.052-.777,9.049-.161.582.12.332,1.017-.253.9Z" transform="translate(-94.08 -54.382)"/>
        </g>
      </g>
    </g>
    <g id="Grupo_1154013" data-name="Grupo 1154013" transform="translate(315.79 143.925)">
      <path id="Trazado_990648" data-name="Trazado 990648" d="M139.85,60.166a7.914,7.914,0,0,0-2.271,3.326,1.284,1.284,0,0,0,1.887,1.449,1.447,1.447,0,0,0,.589-.767c.038-.1.075-.2.116-.295-.045.1-.086.205-.13.308a6.835,6.835,0,0,1,.849-1.449c-.069.086-.134.175-.2.26a6.836,6.836,0,0,1,.976-1.014,1.289,1.289,0,0,0,.377-.908,1.286,1.286,0,0,0-1.284-1.284l-.342.045a1.311,1.311,0,0,0-.565.329Z" transform="translate(-137.53 -59.792)"/>
    </g>
    <g id="Grupo_1154014" data-name="Grupo 1154014" transform="translate(309.365 145.813)">
      <path id="Trazado_990649" data-name="Trazado 990649" d="M137.138,60.72c-.37.373-.736.747-1.106,1.117a.943.943,0,0,0-.267.414,1.172,1.172,0,0,0,0,.99.943.943,0,0,0,.267.414c.086.068.171.134.26.2a1.276,1.276,0,0,0,.647.175l.343-.045a1.3,1.3,0,0,0,.569-.329l1.106-1.117a.967.967,0,0,0,.264-.414,1.334,1.334,0,0,0-.264-1.408c-.086-.065-.175-.134-.26-.2a1.276,1.276,0,0,0-.647-.175c-.113.017-.226.031-.342.045a1.323,1.323,0,0,0-.569.332Z" transform="translate(-135.654 -60.343)"/>
    </g>
    <g id="Grupo_1154015" data-name="Grupo 1154015" transform="translate(317.229 154.871)">
      <path id="Trazado_990650" data-name="Trazado 990650" d="M139.94,63.365q-.807.858-1.613,1.723a1.347,1.347,0,0,0-.377.908.988.988,0,0,0,.11.5.943.943,0,0,0,.267.414,1.282,1.282,0,0,0,1.815,0q.807-.858,1.613-1.723a1.348,1.348,0,0,0,.377-.908.987.987,0,0,0-.11-.5.943.943,0,0,0-.267-.414,1.289,1.289,0,0,0-.908-.377,1.325,1.325,0,0,0-.908.377Z" transform="translate(-137.95 -62.988)"/>
    </g>
    <g id="Grupo_1154016" data-name="Grupo 1154016" transform="translate(307.321 155.136)">
      <path id="Trazado_990651" data-name="Trazado 990651" d="M138.917,63.434a42.654,42.654,0,0,0-3.682,4.726,1.293,1.293,0,0,0,.459,1.757,1.315,1.315,0,0,0,1.757-.459c.257-.38.517-.757.784-1.13.137-.192.277-.38.418-.572.068-.089.134-.178.2-.267.651-.836,1.25-1.548,1.873-2.24a1.282,1.282,0,1,0-1.812-1.815Z" transform="translate(-135.057 -63.065)"/>
    </g>
    <g id="Grupo_1154017" data-name="Grupo 1154017" transform="translate(134.756 148.144)">
      <path id="Trazado_990652" data-name="Trazado 990652" d="M86.944,61.4a12.051,12.051,0,0,0-2.1,3.069,1.381,1.381,0,0,0-.13.99,1.284,1.284,0,0,0,1.579.9,1.256,1.256,0,0,0,.767-.589,11.157,11.157,0,0,1,1.226-2.021c-.069.086-.134.175-.2.26.212-.274.435-.538.671-.788a1.347,1.347,0,0,0,.377-.908,1.286,1.286,0,0,0-1.284-1.284,1.29,1.29,0,0,0-.9.373Z" transform="translate(-84.672 -61.024)"/>
    </g>
    <g id="Grupo_1154018" data-name="Grupo 1154018" transform="translate(139.729 155.148)">
      <path id="Trazado_990653" data-name="Trazado 990653" d="M88.806,63.446a17.6,17.6,0,0,0-2.51,3.678,1.381,1.381,0,0,0-.13.99,1.283,1.283,0,0,0,2.346.3,16.134,16.134,0,0,1,1.651-2.62c-.068.086-.134.175-.2.26.212-.274.432-.538.658-.8a1.364,1.364,0,0,0,.377-.908A1.286,1.286,0,0,0,89.71,63.07a1.261,1.261,0,0,0-.9.377Z" transform="translate(-86.124 -63.069)"/>
    </g>
    <g id="Grupo_1154019" data-name="Grupo 1154019" transform="translate(130.704 157.282)">
      <path id="Trazado_990654" data-name="Trazado 990654" d="M84.809,64.326a20.918,20.918,0,0,1-1.147,2.2,1.331,1.331,0,0,0-.13.99,1.284,1.284,0,0,0,1.579.9,1.349,1.349,0,0,0,.767-.589,20.637,20.637,0,0,0,1.151-2.2,1.436,1.436,0,0,0,.127-.986,1.284,1.284,0,0,0-1.579-.9,1.23,1.23,0,0,0-.767.586Z" transform="translate(-83.489 -63.692)"/>
    </g>
    <g id="Grupo_1154020" data-name="Grupo 1154020" transform="translate(64.018 111.932)">
      <path id="Trazado_990655" data-name="Trazado 990655" d="M64.04,51.411a35.555,35.555,0,0,0,7.775,15.532c2.528,2.918,7.127,8.11,11.357,5.274,3.668-2.456,7.364-10.08,6.2-14.515-.925-3.535-5.148-3.374-5.747.216-1.39,8.353,9.874,21.046,18.426,15.546,3.689-2.373,6.066-7.963,4.5-12.193-1.058-2.86-4.641-3.514-4.47.247.253,5.607,5.9,12.364,9.994,15.761,5.713,4.737,12.326,2.6,18.477-.089.908-.4.123-1.726-.777-1.332-5.059,2.213-10.874,4.428-15.878.856a29.877,29.877,0,0,1-8.326-10.066,22.564,22.564,0,0,1-1.394-3.158,15.134,15.134,0,0,1-.466-1.5q1.1-1.952,1.332-.205c1.569,1.661-.233,5.987-1.147,7.473-3.305,5.391-9.607,4.076-13.744.425A15.4,15.4,0,0,1,86.7,65.245c-.658-1.264-2.147-4.634-1.575-6.079q-.262-1.88,2.843-.411a9.058,9.058,0,0,1-.226,2.062,18.82,18.82,0,0,1-.7,2.665c-.647,1.925-2.223,5.976-4.165,7.038q-2.122.226-4.247.456A13.308,13.308,0,0,1,76.489,69.4c-.644-.541-1.26-1.117-1.856-1.709a32.6,32.6,0,0,1-4.065-4.88A34.308,34.308,0,0,1,65.529,51c-.223-.969-1.709-.558-1.49.408Z" transform="translate(-64.018 -50.45)"/>
    </g>
    <g id="Grupo_1154021" data-name="Grupo 1154021" transform="translate(96.405 51.704)">
      <path id="Trazado_990656" data-name="Trazado 990656" d="M87.53,32.981c-14.015,8.436-19.474,32.472-7.377,44.777,2.288,2.329,6.141,5.131,9.614,3.952,3.425-1.161,3.7-5.233,2.593-8.127-.887-2.329-3.171-5.476-6.069-4.11-3.021,1.428-3.079,6.045-2.483,8.781,2.3,10.569,15.481,14.981,24.646,17.224.962.236,1.373-1.25.411-1.486-7.531-1.846-17.286-4.88-21.728-11.8a12.315,12.315,0,0,1-2.079-6.562,6.348,6.348,0,0,1,.719-3.5c2.9-3.785,5.1,1.538,5.446,2.88.082.634.168,1.271.25,1.9Q91.6,79.56,89,79.638c-2.161.774-2.668.664-4.658-.51a16.476,16.476,0,0,1-4.771-4.439c-8.949-12.193-3.9-32.776,8.74-40.383a.769.769,0,0,0-.777-1.325Z" transform="translate(-73.474 -32.865)"/>
    </g>
    <g id="Grupo_1154022" data-name="Grupo 1154022" transform="translate(136.133 50.202)">
      <path id="Trazado_990657" data-name="Trazado 990657" d="M88.914,33.044q-1.844,4.017-3.689,8.031a1.314,1.314,0,0,0,.459,1.757,1.3,1.3,0,0,0,1.757-.459q1.844-4.017,3.689-8.031a1.317,1.317,0,0,0-.459-1.757,1.3,1.3,0,0,0-1.757.459Z" transform="translate(-85.074 -32.427)"/>
    </g>
    <g id="Grupo_1154023" data-name="Grupo 1154023" transform="translate(147.712 46.576)">
      <path id="Trazado_990658" data-name="Trazado 990658" d="M91.361,31.991a53.332,53.332,0,0,0-2.733,5.432,1.4,1.4,0,0,0-.13.99,1.284,1.284,0,0,0,2.346.308,52.642,52.642,0,0,1,2.733-5.432,1.284,1.284,0,1,0-2.216-1.3Z" transform="translate(-88.455 -31.368)"/>
    </g>
    <g id="Grupo_1154024" data-name="Grupo 1154024" transform="translate(140.99 37.821)">
      <path id="Trazado_990659" data-name="Trazado 990659" d="M88.523,29.449c-.565,1.161-1.185,2.3-1.86,3.4a1.284,1.284,0,0,0,2.216,1.3q1.012-1.654,1.86-3.4a1.366,1.366,0,0,0,.13-.99,1.284,1.284,0,0,0-1.579-.9,1.268,1.268,0,0,0-.767.589Z" transform="translate(-86.492 -28.812)"/>
    </g>
  </g>
</svg>
