<svg xmlns="http://www.w3.org/2000/svg" xmlns:xlink="http://www.w3.org/1999/xlink" width="108" height="108" viewBox="0 0 108 108">
  <defs>
    <filter id="Trazado_982419" x="0" y="0" width="108" height="108" filterUnits="userSpaceOnUse">
      <feOffset dy="3" input="SourceAlpha"/>
      <feGaussianBlur stdDeviation="3" result="blur"/>
      <feFlood flood-opacity="0.161"/>
      <feComposite operator="in" in2="blur"/>
      <feComposite in="SourceGraphic"/>
    </filter>
  </defs>
  <g id="Grupo_1158253" data-name="Grupo 1158253" transform="translate(-717 -5814)">
    <g id="Grupo_1153356" data-name="Grupo 1153356" transform="translate(726 5820)">
      <g id="Grupo_1148967" data-name="Grupo 1148967">
        <g transform="matrix(1, 0, 0, 1, -9, -6)" filter="url(#Trazado_982419)">
          <g id="Trazado_982419-2" data-name="Trazado 982419" transform="translate(9 6)" fill="#eafafc">
            <path d="M 45 88.5 C 39.12687683105469 88.5 33.43022537231445 87.35007476806641 28.06830024719238 85.08217620849609 C 22.88852500915527 82.89131164550781 18.23629951477051 79.75458526611328 14.2408504486084 75.75914764404297 C 10.24541282653809 71.76370239257812 7.108687400817871 67.11147308349609 4.917825222015381 61.93170166015625 C 2.649924993515015 56.56977462768555 1.5 50.87312316894531 1.5 45 C 1.5 39.12687683105469 2.649924993515015 33.43022537231445 4.917825222015381 28.06830024719238 C 7.108687400817871 22.88852500915527 10.24541282653809 18.23629951477051 14.2408504486084 14.2408504486084 C 18.23629951477051 10.24541282653809 22.88852500915527 7.108687400817871 28.06830024719238 4.917825222015381 C 33.43022537231445 2.649924993515015 39.12687683105469 1.5 45 1.5 C 50.87312316894531 1.5 56.56977462768555 2.649924993515015 61.93170166015625 4.917825222015381 C 67.11147308349609 7.108687400817871 71.76370239257812 10.24541282653809 75.75914764404297 14.2408504486084 C 79.75458526611328 18.23629951477051 82.89131164550781 22.88852500915527 85.08217620849609 28.06830024719238 C 87.35007476806641 33.43022537231445 88.5 39.12687683105469 88.5 45 C 88.5 50.87312316894531 87.35007476806641 56.56977462768555 85.08217620849609 61.93170166015625 C 82.89131164550781 67.11147308349609 79.75458526611328 71.76370239257812 75.75914764404297 75.75914764404297 C 71.76370239257812 79.75458526611328 67.11147308349609 82.89131164550781 61.93170166015625 85.08217620849609 C 56.56977462768555 87.35007476806641 50.87312316894531 88.5 45 88.5 Z" stroke="none"/>
            <path d="M 45 3 C 39.32871246337891 3 33.82865524291992 4.110054016113281 28.65262985229492 6.299339294433594 C 23.65165710449219 8.414573669433594 19.15968322753906 11.44334411621094 15.301513671875 15.301513671875 C 11.44334411621094 19.15968322753906 8.414573669433594 23.65165710449219 6.299339294433594 28.65262985229492 C 4.110054016113281 33.82865524291992 3 39.32871246337891 3 45 C 3 50.67128753662109 4.110054016113281 56.17134475708008 6.299339294433594 61.34737396240234 C 8.414573669433594 66.34834289550781 11.44334411621094 70.84031677246094 15.301513671875 74.698486328125 C 19.15968322753906 78.55665588378906 23.65165710449219 81.58542633056641 28.65262985229492 83.70066070556641 C 33.82865524291992 85.88994598388672 39.32871246337891 87 45 87 C 50.67128753662109 87 56.17134475708008 85.88994598388672 61.34737396240234 83.70066070556641 C 66.34834289550781 81.58542633056641 70.84031677246094 78.55665588378906 74.698486328125 74.698486328125 C 78.55665588378906 70.84031677246094 81.58542633056641 66.34834289550781 83.70066070556641 61.34737396240234 C 85.88994598388672 56.17134475708008 87 50.67128753662109 87 45 C 87 39.32871246337891 85.88994598388672 33.82865524291992 83.70066070556641 28.65262985229492 C 81.58542633056641 23.65165710449219 78.55665588378906 19.15968322753906 74.698486328125 15.301513671875 C 70.84031677246094 11.44334411621094 66.34834289550781 8.414573669433594 61.34737396240234 6.299339294433594 C 56.17134475708008 4.110054016113281 50.67128753662109 3 45 3 M 45 0 C 69.85281372070312 0 90 20.14718627929688 90 45 C 90 69.85281372070312 69.85281372070312 90 45 90 C 20.14718627929688 90 0 69.85281372070312 0 45 C 0 20.14718627929688 20.14718627929688 0 45 0 Z" stroke="none" fill="#3ad1e9"/>
          </g>
        </g>
      </g>
    </g>
    <g id="comunidades" transform="translate(739.002 5833.004)">
      <g id="Grupo_1158252" data-name="Grupo 1158252">
        <path id="Trazado_992545" data-name="Trazado 992545" d="M42.456,38.444h2V48.468h-2Z" transform="translate(-18 43.456) rotate(-45)" fill="#00cec8"/>
        <path id="Trazado_992546" data-name="Trazado 992546" d="M19.414,15.07h2V25.758h-2Z" transform="translate(-8.456 20.414) rotate(-45)" fill="#00cec8"/>
        <path id="Trazado_992547" data-name="Trazado 992547" d="M8.643,35.571H21.4v2H8.643Z" transform="matrix(0.966, -0.26, 0.26, 0.966, -8.983, 5.157)" fill="#00cec8"/>
        <path id="Trazado_992548" data-name="Trazado 992548" d="M21.024,44.693h8.258v2H21.024Z" transform="translate(-26.965 47.756) rotate(-63.435)" fill="#00cec8"/>
        <path id="Trazado_992549" data-name="Trazado 992549" d="M42.934,30.334H57.045v2H42.934Z" transform="translate(-1.128 1.876) rotate(-2.121)" fill="#00cec8"/>
        <path id="Trazado_992550" data-name="Trazado 992550" d="M35.494,17.9h7.424v2H35.494Z" transform="translate(3.75 44.139) rotate(-61.179)" fill="#00cec8"/>
      </g>
      <circle id="Elipse_11788" data-name="Elipse 11788" cx="9" cy="9" r="9" transform="translate(44 44)" fill="#18efe4"/>
      <path id="Trazado_992551" data-name="Trazado 992551" d="M53,44a8.973,8.973,0,0,0-6.334,2.608,9,9,0,0,0,14.668,9.784A9,9,0,0,0,53,44Z" fill="#99fff7"/>
      <circle id="Elipse_11789" data-name="Elipse 11789" cx="3" cy="3" r="3" transform="translate(50 47)" fill="#f8ae48"/>
      <path id="Trazado_992552" data-name="Trazado 992552" d="M48,58H58a5,5,0,0,0-10,0Z" fill="#df9743"/>
      <circle id="Elipse_11790" data-name="Elipse 11790" cx="12" cy="12" r="12" transform="translate(20 20)" fill="#18efe4"/>
      <path id="Trazado_992553" data-name="Trazado 992553" d="M32,20a11.93,11.93,0,0,0-7.419,2.581A11.988,11.988,0,0,0,41.419,39.419,11.988,11.988,0,0,0,32,20Z" fill="#99fff7"/>
      <circle id="Elipse_11791" data-name="Elipse 11791" cx="4" cy="4" r="4" transform="translate(28 24)" fill="#f96c4b"/>
      <path id="Trazado_992554" data-name="Trazado 992554" d="M26,39H38a6,6,0,0,0-12,0Z" fill="#ce4c32"/>
      <circle id="Elipse_11792" data-name="Elipse 11792" cx="9" cy="9" r="9" transform="translate(2 2)" fill="#18efe4"/>
      <path id="Trazado_992555" data-name="Trazado 992555" d="M11,2A8.973,8.973,0,0,0,4.666,4.608a9,9,0,0,0,14.668,9.784A9,9,0,0,0,11,2Z" fill="#99fff7"/>
      <circle id="Elipse_11793" data-name="Elipse 11793" cx="3" cy="3" r="3" transform="translate(8 5)" fill="#f8ae48"/>
      <path id="Trazado_992556" data-name="Trazado 992556" d="M6,16H16A5,5,0,0,0,6,16Z" fill="#df9743"/>
      <circle id="Elipse_11794" data-name="Elipse 11794" cx="5" cy="5" r="5" transform="translate(38 7)" fill="#ce4c32"/>
      <circle id="Elipse_11795" data-name="Elipse 11795" cx="6" cy="6" r="6" transform="translate(15 48)" fill="#ce4c32"/>
      <circle id="Elipse_11796" data-name="Elipse 11796" cx="4" cy="4" r="4" transform="translate(2 35)" fill="#ce4c32"/>
      <circle id="Elipse_11797" data-name="Elipse 11797" cx="3" cy="3" r="3" transform="translate(56 28)" fill="#ce4c32"/>
      <path id="Trazado_992557" data-name="Trazado 992557" d="M44.974,32.52l10.212-.378a3.972,3.972,0,1,0-.089-2l-10.188.377a13,13,0,0,0-5.792-9.387l1.911-3.474a6.008,6.008,0,1,0-1.752-.964L37.364,20.17a12.909,12.909,0,0,0-13.811,1.966l-4.814-4.814a10.016,10.016,0,1,0-1.414,1.414l4.814,4.814A12.858,12.858,0,0,0,19.232,34.4l-8.783,2.364A4.961,4.961,0,1,0,11,39c0-.1-.024-.2-.031-.3l8.789-2.366a13.052,13.052,0,0,0,5.559,6.8L23.2,47.36a7.015,7.015,0,1,0,1.788.9L27.1,44.034a12.926,12.926,0,0,0,13.347-2.173l4.814,4.814a10.013,10.013,0,1,0,1.414-1.414l-4.814-4.814a12.933,12.933,0,0,0,3.113-7.927ZM59,29a2,2,0,1,1-2,2A2,2,0,0,1,59,29ZM43,8a4,4,0,1,1-4,4A4,4,0,0,1,43,8ZM6,42a3,3,0,1,1,3-3A3,3,0,0,1,6,42ZM26,54a5,5,0,1,1-5-5A5,5,0,0,1,26,54ZM3,11a8,8,0,1,1,13.927,5.354A.977.977,0,0,0,17,16a5.958,5.958,0,0,0-1.756-4.243A6.031,6.031,0,0,0,13.9,10.745a4,4,0,1,0-5.789,0A6,6,0,0,0,5,16a1,1,0,0,0,.07.351A7.961,7.961,0,0,1,3,11Zm8-1a2,2,0,1,1,2-2A2,2,0,0,1,11,10Zm0,2a4,4,0,0,1,3.873,3H7.126A4.007,4.007,0,0,1,11,12ZM5.65,16.93A.988.988,0,0,0,6,17H16a.978.978,0,0,0,.355-.072,7.95,7.95,0,0,1-10.7,0ZM21,32A11,11,0,1,1,32,43,11,11,0,0,1,21,32ZM47.65,58.93A.988.988,0,0,0,48,59H58a.978.978,0,0,0,.355-.072,7.95,7.95,0,0,1-10.7,0ZM53,52a2,2,0,1,1,2-2A2,2,0,0,1,53,52Zm0,2a4,4,0,0,1,3.873,3H49.126A4.007,4.007,0,0,1,53,54Zm0-9a7.986,7.986,0,0,1,5.927,13.354A.977.977,0,0,0,59,58a5.958,5.958,0,0,0-1.756-4.243A6.031,6.031,0,0,0,55.9,52.745a4,4,0,1,0-5.789,0A6,6,0,0,0,47,58a1,1,0,0,0,.07.351A7.986,7.986,0,0,1,53,45Z"/>
      <path id="Trazado_992558" data-name="Trazado 992558" d="M34.319,32.4a5,5,0,1,0-4.638,0A7.007,7.007,0,0,0,25,39a1,1,0,0,0,1,1H38a1,1,0,0,0,1-1,7.007,7.007,0,0,0-4.681-6.6ZM32,25a3,3,0,1,1-3,3A3,3,0,0,1,32,25ZM27.1,38a5,5,0,0,1,9.8,0Z"/>
    </g>
  </g>
</svg>
