<svg xmlns="http://www.w3.org/2000/svg" xmlns:xlink="http://www.w3.org/1999/xlink" width="400" height="311" viewBox="0 0 400 311">
  <defs>
    <clipPath id="clip-path">
      <rect id="Rectángulo_412758" data-name="Rectángulo 412758" width="400" height="311" transform="translate(1020 7908)" fill="#fff" stroke="#707070" stroke-width="1" opacity="0.45"/>
    </clipPath>
    <filter id="Trazado_989622" x="23.876" y="-2.404" width="344.776" height="320.243" filterUnits="userSpaceOnUse">
      <feOffset dy="3" input="SourceAlpha"/>
      <feGaussianBlur stdDeviation="3" result="blur"/>
      <feFlood flood-opacity="0.161"/>
      <feComposite operator="in" in2="blur"/>
      <feComposite in="SourceGraphic"/>
    </filter>
  </defs>
  <g id="Enmascarar_grupo_1098776" data-name="Enmascarar grupo 1098776" transform="translate(-1020 -7908)" clip-path="url(#clip-path)">
    <g id="Grupo_1158110" data-name="Grupo 1158110" transform="translate(41.629 11.038)">
      <g transform="matrix(1, 0, 0, 1, 978.37, 7896.96)" filter="url(#Trazado_989622)">
        <path id="Trazado_989622-2" data-name="Trazado 989622" d="M838.037,268.086c2.281,15.719,8.228,25.526,10.2,30.163,11.276,26.566-23.055,83.753-67.239,109.639C695.3,458.1,559.5,398.236,552.646,345.716c-1.178-9.012,2.528-9.515,3.928-25.194,4.763-53.2-35.418-74.278-32.833-110.5,3.265-45.848,72.02-73.329,78.8-75.948,50.668-19.585,105.288-6.6,138.2,17.7,11.562,8.537,7.411,8.852,26.269,24.554,41.3,34.389,67.84,38.42,71.808,60.675C840.685,247.5,835.487,250.543,838.037,268.086Z" transform="translate(-490.75 -120.96)" fill="#a530fe"/>
      </g>
      <g id="Grupo_1158109" data-name="Grupo 1158109" transform="translate(978.444 7909.063)">
        <g id="_x31_2">
          <g id="Grupo_1153560" data-name="Grupo 1153560" transform="translate(211.192 43.057)">
            <path id="Trazado_989854" data-name="Trazado 989854" d="M327.775,136.011a14.127,14.127,0,0,1-5.188-.479c-1.807-.463-3.659-1.413-5.526-1.59.209.338.411.656.6.958,1.739.113,2.987,1.083,4.488,1.606a12.119,12.119,0,0,0,4.891.527c2.9-.213,5.708-1.2,8.6-1.373a9.664,9.664,0,0,0,.966-2.371,15.191,15.191,0,0,0-4.367,1.208A15.255,15.255,0,0,1,327.775,136.011Z" transform="translate(-303.941 -84.059)" fill="#3ad1e9"/>
            <path id="Trazado_989855" data-name="Trazado 989855" d="M317.353,135.029c1.8.093,3.538.958,5.257,1.453a13.805,13.805,0,0,0,6.026.616,23.5,23.5,0,0,0,4.9-1.856,14.043,14.043,0,0,1,3.864-.877,17.774,17.774,0,0,1,.511-1.707c-3.413-.02-6.758,2.049-10.079,2.616a18.251,18.251,0,0,1-5.418.153c-1.843-.237-3.671-1.014-5.543-.9.141.246.242.415.322.56C317.244,135.065,317.281,135.025,317.353,135.029Z" transform="translate(-304.516 -85.971)" fill="#3ad1e9"/>
            <path id="Trazado_989856" data-name="Trazado 989856" d="M324.084,135.193a22.92,22.92,0,0,1-3.643-.093c-.5-.056-.99-.133-1.481-.237-.262-.056-.539-.141-.813-.217a8.623,8.623,0,0,0,1.783.789c1.779.527,3.232.25,5.237-.149.543-.1,1.038-.2,1.521-.3C325.815,135.069,324.945,135.157,324.084,135.193Z" transform="translate(-300.653 -79.956)" fill="#3c98e7"/>
            <path id="Trazado_989857" data-name="Trazado 989857" d="M322.417,136.519a20.77,20.77,0,0,0,4.094.153c1.827-.081,3.667-.378,5.5-.342a6.5,6.5,0,0,0,1.518-.966,5.575,5.575,0,0,0,.68-.749c-2.689.262-5.321,1.159-8.03,1.356a13.282,13.282,0,0,1-4.456-.354c-1.51-.411-2.85-1.421-4.375-1.719.137.205.258.386.35.511a8.27,8.27,0,0,0,1.578,1.618A10.717,10.717,0,0,1,322.417,136.519Z" transform="translate(-303.079 -82.216)" fill="#3c98e7"/>
            <path id="Trazado_989858" data-name="Trazado 989858" d="M320.663,122.249a6.717,6.717,0,0,0,2.025-1.006c-.737.254-1.65.616-2.938,1.147a6.675,6.675,0,0,1,.749-.008A.3.3,0,0,1,320.663,122.249Z" transform="translate(-295.807 -120.502)" fill="#3c98e7"/>
            <path id="Trazado_989859" data-name="Trazado 989859" d="M315.493,143.587c1.332-.914,3.445-1.3,4.275-2.781a10.408,10.408,0,0,1-1.063.089.336.336,0,0,1-.306-.2.293.293,0,0,1-.036-.407,11.424,11.424,0,0,0,1.936-4.383,12.674,12.674,0,0,1,1.389-4.3c1.614-2.528,4.452-3.751,7.112-4.862.463-.193.664.56.209.753-2.637,1.1-5.587,2.371-6.964,5.06a20.151,20.151,0,0,0-1.151,4.242,11.523,11.523,0,0,1-1.477,3.26,10.158,10.158,0,0,0,3.027-.616,14.609,14.609,0,0,0,1.872-.869,5.137,5.137,0,0,1,1.232-.68c.688-.129.918.547,1.043,1.095.294,1.276.23,2.5.966,3.655a2.317,2.317,0,0,0,.813.91,2.426,2.426,0,0,0,1.224.012.855.855,0,0,1,.769.169c.825.7.242,2.053,1.1,2.777,1,.845,2.757.568,3.973.407a10.115,10.115,0,0,0,3.7-1.2.39.39,0,0,1,.394.672,11.675,11.675,0,0,1-6.287,1.421c-.185,1.815-1.908,2.7-3.562,2.971a42.454,42.454,0,0,0-5.184.672,3.34,3.34,0,0,0,1.5,1.131c.72.358,1.473.648,2.21.978a10.668,10.668,0,0,1,1.92,1.1,3.827,3.827,0,0,1,.906-2c.564-.467,1.542-.036,2.149.141,1.534.447,3.035,1.119,4.6,1.477a13.145,13.145,0,0,0,4.681-4.536,3,3,0,0,0,.056-3.309c-.555-.817-1.526-1.328-1.811-2.314-.165-.2-.346-.242-.531-.386-1.22-.966-.185-1.268-2.713-.459a12.54,12.54,0,0,1-1.244.519,5.13,5.13,0,0,1-2.942-.354,8.639,8.639,0,0,1-3.679-2.351c-.157-.225-.258-.487-.39-.721a4.973,4.973,0,0,0-.894-2.222,9.06,9.06,0,0,1-.914-1.047c-1.421-2.222-.294-4.645.837-6.726a.343.343,0,0,1,.246-.185,27.179,27.179,0,0,0,2.95-4.4c.656-1.26,1.034-2.834,2.009-3.9-1.155.483-1.936.817-2.21.978a33.1,33.1,0,0,0-5.261,3.908,40.2,40.2,0,0,0-4.158,3.908,29.787,29.787,0,0,0-4.335,5.812,12.632,12.632,0,0,0-.877,2c-.3.8-.777,2.081-1.727,4.408-.3.753-.552,1.356-.777,1.9A8.121,8.121,0,0,1,315.493,143.587Z" transform="translate(-312.908 -118.575)" fill="#3ad1e9"/>
            <path id="Trazado_989860" data-name="Trazado 989860" d="M317.772,133.545a10.436,10.436,0,0,1-3.115-1.526,6.537,6.537,0,0,0,4,2.592,7.743,7.743,0,0,0,1.3-.024,6.588,6.588,0,0,1,1.2,0A24.888,24.888,0,0,0,317.772,133.545Z" transform="translate(-311.211 -87.903)" fill="#3c98e7"/>
            <path id="Trazado_989861" data-name="Trazado 989861" d="M371.9,145.422a13,13,0,0,1-.668-1.67,7.008,7.008,0,0,1-5.659-2.818c-.882-1.2-1.022-2.793-2.3-3.691a11.644,11.644,0,0,0-4.222-1.98c-1.582-.3-3.112.165-4.665-.443-1.236-.483-1.956-1.453-3.015-2.178-1.1-.753-1.84.113-1.831,1.284.008,1.139.886,1.606,1.8,1.96,1.469.564,3.2.841,4.532,1.691.423.27.032.946-.395.676-2.025-1.288-7.193-1.228-6.686-4.766.185-1.3.958-2.439,2.355-1.864,1.449.6,2.25,2.057,3.792,2.568,1.767.584,3.623-.028,5.41.636a11.069,11.069,0,0,1,4.134,2.419c1.006,1.1,1.147,2.689,2.2,3.8a6.209,6.209,0,0,0,4.436,1.912,6.983,6.983,0,0,1-.137-.93c-.024-1.542.688-3.063-.547-4.476a5.7,5.7,0,0,0-2.468-1.34c-1.614-.568-3.252-.978-4.838-1.646a33.046,33.046,0,0,1-4.681-2.475c-1.187-.749-2.294-1.485-3.365-2.3a16.09,16.09,0,0,0-2.145-1.493c-1.26-.668-1.928-.773-2.846-.358a7.973,7.973,0,0,0-1.135.648,3.829,3.829,0,0,1-1.735.7c-2.809.7-1.88.572-3.425,1.65a3.159,3.159,0,0,1-.733.439,2.082,2.082,0,0,1-.572.06,5.9,5.9,0,0,0,.99,1.159,4.764,4.764,0,0,1,.91,1.312,3.8,3.8,0,0,1-.294,3.365,12.47,12.47,0,0,1-4.335,4.46,7.234,7.234,0,0,0,.781.089c4.472.044,8.107-5,7.133-9.214-.113-.487.64-.7.753-.205.914,3.949-1.542,8.014-5.16,9.64a8.436,8.436,0,0,1-6.106-.068c-1.063-.338-2.093-.761-3.164-1.079-.29-.089-.584-.169-.878-.238-.362-.085-.535-.193-.805.036-.378.322-.531,1.328-.636,1.811.193.306.479.5.676.777a4.792,4.792,0,0,1,.781,2.29c3.671-.338,7.137,1.856,10.807.676,3.385-1.091,6.682-5.188,5.229-8.871-.185-.467.572-.672.753-.209,1.389,3.53-1.284,7.656-4.383,9.254a9.229,9.229,0,0,1-5.535.894c-2.278-.318-4.516-1.244-6.847-.978a4.423,4.423,0,0,1-.153.918,2.922,2.922,0,0,1-2.991,2.025c-.5.02-.5-.761,0-.781a2.388,2.388,0,0,0,1.888-.737,2.922,2.922,0,0,0,.487-1.831,4.045,4.045,0,0,0-1.071-2.689,2.8,2.8,0,0,1-.072,2.314,3.826,3.826,0,0,1-2.886,1.526c-2.314.242-4.162-1.848-4.971-3.8-.193-.463.564-.668.753-.209.62,1.5,2.069,3.244,3.832,3.248a3.459,3.459,0,0,0,2.451-.954c.64-.757.234-1.827-.125-2.608a.373.373,0,0,1,0-.334,21.245,21.245,0,0,0-3.156-1.554,4.768,4.768,0,0,1-2.5-1.839c-.185.081-.382.117-.568.217a7.013,7.013,0,0,0-3.675,4.669c-.411,2.528,2.488,4.045,4.3,5.156.427.262.036.938-.394.676-1.646-1.014-3.945-2.254-4.585-4.226-.624-1.916.588-4.057,1.9-5.386a8.334,8.334,0,0,1,3.1-1.964,9.632,9.632,0,0,1,2.246-.551c1.888-.205,6.151.125,6.38-2.572a2.717,2.717,0,0,1-2.15-1.421c-.189-.423-.084-1.36-.334-1.678-.282-.358-1.091-.093-1.5-.2a2.579,2.579,0,0,1-1.369-1.047,3.331,3.331,0,0,1-2.31,1.212,6.843,6.843,0,0,0,.974,1.614.328.328,0,0,1,.085.189,1.677,1.677,0,0,1,.145.326,3.421,3.421,0,0,1-.954,2.858.406.406,0,0,1-.535.141.4.4,0,0,1-.141-.535,6.964,6.964,0,0,0,.664-1.018c-.757.644-1.538.358-2.3.386a4.449,4.449,0,0,0-3.59,2.1c-.262.427-.938.036-.676-.395a5.25,5.25,0,0,1,3.377-2.379,4.96,4.96,0,0,1,1.034-.109,10.245,10.245,0,0,0,1.163.072c.62-.064.861-.741,1.018-1.288a7.706,7.706,0,0,1-1.03-1.771c-1.9.189-3.679.225-5.285,1.232a6.907,6.907,0,0,0-3.035,4.251c-.467,1.976.109,3.9.7,5.784.153.479-.6.684-.753.205a12.5,12.5,0,0,1-.845-5.418,7.676,7.676,0,0,1,2.161-4.407,7.847,7.847,0,0,1,4.158-2.149c.942-.169,1.9-.205,2.854-.342.7-.1,2.572-.322,2.528-1.3a15.444,15.444,0,0,1-.5-1.852c-.076-.467.028-1.6-.294-1.92-.262-.262-.386-.012-.729.185-.262.149-.527.29-.8.427a15.772,15.772,0,0,1-1.578.7,11.4,11.4,0,0,1-1.94.539,4.025,4.025,0,0,1-2.27,2.25,11.275,11.275,0,0,0-3.868,2.427c-1.952,2.145-1.819,5.365-1.361,8.227.085.394.161.765.262,1.224.169.8.314,1.493.455,2.133.721,2.7,2.013,5.064,4.826,6.146,1.348.519,2.777.809,4.11,1.381.817.35,1.783.749,2.009,1.687a26.266,26.266,0,0,1,5.2.922,17.277,17.277,0,0,0,6.786-.169c3.256-.7,6.4-2.58,9.753-2.475a3.51,3.51,0,0,1,1.852-1.767,4.417,4.417,0,0,1,1.6-.3,11.43,11.43,0,0,1,2.6.4,8.4,8.4,0,0,1,2.278.877c.551.274,1.276.628,2.431,1.1a12.245,12.245,0,0,0,3.631,1.228c.777-.048,1.731-.527,3.631-1.5a20.962,20.962,0,0,0,1.928-1.1,8.749,8.749,0,0,1,1.453-.753,13.548,13.548,0,0,1,2.206-.7c.7-.177.8-.225.9-.427.149-.25.076-.5-.048-1A5.03,5.03,0,0,1,371.9,145.422Zm-23.974,4.186a4.819,4.819,0,0,1-4.315,1.433c-.91-.153-2.27-1.272-3.083-.745a5.688,5.688,0,0,0-1.043,1.332,5.218,5.218,0,0,1-1.03,1.075,1.777,1.777,0,0,1-1.844.217c-1.055-.423-2.021-1.079-3.083-1.513-.354-.145-.962-.459-1.344-.282a1.835,1.835,0,0,0-.467.451,5.657,5.657,0,0,1-.946.89,2.61,2.61,0,0,1-2.475.326c-.463-.177-.262-.934.209-.753,2.145.817,2.516-2.214,4.428-1.691a14.849,14.849,0,0,1,2.685,1.167,7.1,7.1,0,0,0,1.453.749c.749.165,1.248-.439,1.662-.946.93-1.135,1.63-2.653,3.3-1.779a4.749,4.749,0,0,0,2.725.773,4.024,4.024,0,0,0,2.612-1.264C347.725,148.694,348.277,149.246,347.931,149.608Zm11.137.62c-.841.479-1.638-.213-1.94-.99-.06-.153-.205-.881-.338-.926-.1-.036-.656.258-.773.3-.588.229-1.175.471-1.775.68a4.679,4.679,0,0,1-3.4-.056,11.343,11.343,0,0,1-2.942-1.988c-.382-.326.169-.873.551-.551a9.957,9.957,0,0,0,2.685,1.823,4.29,4.29,0,0,0,3.264-.113c.5-.189,1-.386,1.5-.584.342-.133.781-.411,1.159-.278.636.221.8,2.467,1.614,2.009A.39.39,0,0,1,359.068,150.228Zm7.583.692c-3.115,1.344-6.436-1.928-7.382-4.653-.254-.737-.229-2.5-1.369-2.218-.93.225-1.815.8-2.729,1.107a2.37,2.37,0,0,1-2.186.028,2.956,2.956,0,0,1-1.026-2.121c-.081-.491.672-.7.753-.209.157.95.431,2.057,1.646,1.739A16.917,16.917,0,0,0,357,143.558c1.248-.56,2.347-.342,2.677,1.1a7.731,7.731,0,0,0,1.932,3.941c1.1,1.135,3.027,2.343,4.649,1.642C366.716,150.051,367.114,150.723,366.651,150.92Zm2.343-3.256a5.554,5.554,0,0,1-5.776-1.067,4.649,4.649,0,0,1-1.312-2.363c-.246-1.2-.085-2.443-.358-3.655a7.6,7.6,0,0,0-.624-1.819c-.137-.258-.322-.68-.588-.821-.157-.233-.25-.237-.282-.016a1.677,1.677,0,0,0-.117.366c-.225.849-.306,1.658-1.155,2.121a5.939,5.939,0,0,1-5.768-.531c-.419-.274-.028-.95.394-.676a5.484,5.484,0,0,0,3.152.926,4.4,4.4,0,0,0,1.642-.318c.66-.29.777-.761.914-1.4.113-.531.27-1.469.994-1.449.708.02,1.276.974,1.546,1.522a9.254,9.254,0,0,1,.813,2.85c.149,1.151-.048,2.395.435,3.482,1.01,2.282,3.7,2.874,5.885,2.1C369.264,146.746,369.465,147.5,368.994,147.664Z" transform="translate(-313.801 -105.879)" fill="#3ad1e9"/>
            <path id="Trazado_989862" data-name="Trazado 989862" d="M320.145,123.427a.371.371,0,0,1-.157-.322c-.684.407-1.393.986-1.179,1.8.229.886,1.252,1.4,1.606,2.234a2.034,2.034,0,0,1-.467,1.92,1.251,1.251,0,0,1-.757.483.63.63,0,0,1-.326-.044,1.777,1.777,0,0,0,.431.523,5.647,5.647,0,0,0,4.508-.056,9.258,9.258,0,0,1-.326-2.552,3.982,3.982,0,0,1,.99-2.149A12.044,12.044,0,0,1,320.145,123.427Z" transform="translate(-298.767 -114.869)" fill="#3ad1e9"/>
            <path id="Trazado_989863" data-name="Trazado 989863" d="M326.384,128.189a2.254,2.254,0,0,0-.737-1.779c-.511.539-1.252,1.151-1.377,1.9a15.51,15.51,0,0,0,2.037,1.63A11.165,11.165,0,0,0,326.384,128.189Z" transform="translate(-282.127 -104.871)" fill="#3c98e7"/>
            <path id="Trazado_989864" data-name="Trazado 989864" d="M378.647,142.791a13.539,13.539,0,0,0-2.813-4.947l-.608-.012a5.269,5.269,0,0,0-2.468.4,6.483,6.483,0,0,0-1.63,1.212c.459.113.954.137,1.413.209a8.583,8.583,0,0,1,1.618.407,7.649,7.649,0,0,1,2.813,1.727,5.937,5.937,0,0,1,1.554,6.07c-.165.471-.922.27-.753-.205a5.208,5.208,0,0,0-1.63-5.571,7.1,7.1,0,0,0-2.741-1.441,8.331,8.331,0,0,0-1.537-.282,4.126,4.126,0,0,1-1.538-.338.309.309,0,0,1-.157-.407.342.342,0,0,1,.06-.394,6.276,6.276,0,0,1,3.824-2.133,9.806,9.806,0,0,1,1.087-.032c-.966-1.075-2.069-2.21-3.5-3.631-.157-.157-.354-.342-.519-.5a18.38,18.38,0,0,1,.982,3.011c.109.491-.644.7-.753.209a17.261,17.261,0,0,0-1.123-3.409,2.754,2.754,0,0,0-.9-1.256,3.118,3.118,0,0,0-1.687-.33,7.7,7.7,0,0,1-3.015-.338,5.274,5.274,0,0,1-2.153-2.149c-.278-.419.4-.813.676-.394a3.843,3.843,0,0,0,2.487,2.029c.93.161,1.884.052,2.818.157a39.421,39.421,0,0,0-3.615-2.842,20.23,20.23,0,0,1-5.543-3.232,30.737,30.737,0,0,0-7.269-2.62,24.577,24.577,0,0,0-4.182-.572c-.447.221-.894.447-1.345.664a26.321,26.321,0,0,1-3.288,1.32c-.479.157-.684-.6-.209-.753a26.922,26.922,0,0,0,3.075-1.26c-.761.008-1.526.032-2.347.068-1.031.048-2.133.089-3.373.1a4.258,4.258,0,0,1,1.091,1.59c.177.471-.58.676-.753.209a3.556,3.556,0,0,0-1.723-1.815c-1.1-.02-2.274-.064-3.659-.177a13.651,13.651,0,0,0-3.281.076c-.125.016-.246.044-.366.064a26.742,26.742,0,0,1-3.083,1.94,1.787,1.787,0,0,1,.874.733,1.5,1.5,0,0,1-.133,1.723c-.318.39-.865-.165-.551-.551.523-.648-.407-1.248-.934-1.36a5,5,0,0,0-2.141.1,3.63,3.63,0,0,0-1.835.946,5.394,5.394,0,0,0-.966,1.65,25.194,25.194,0,0,1-1.723,3.5,32.874,32.874,0,0,1-2.455,3.417c-1.449,2.56-1.86,4.1-.056,6.7.849,1.224,1.272,3.019,2.427,3.9a8.718,8.718,0,0,0,2.347,1.212c1.687.588,2.113.358,3.892-.475.632-.294.962-.676,1.683-.455.314.1.33.221.6.362a2.629,2.629,0,0,1,.539.616q1.956.8,2.938-.563c.117-.072.2-.133.3-.2a16.663,16.663,0,0,1-3.546-1.61,6.6,6.6,0,0,1-2.818-2.793.382.382,0,0,1,0-.241,3.2,3.2,0,0,0,.845-2.894,6.439,6.439,0,0,1-2.85.471,3.983,3.983,0,0,1-.036,2.375,4.811,4.811,0,0,1-1.522,2.306.4.4,0,0,1-.551,0,.392.392,0,0,1,0-.551,4.076,4.076,0,0,0,1.3-1.892,2.886,2.886,0,0,0-.04-2.27,10.923,10.923,0,0,1-1.542-.547.289.289,0,0,1-.181-.286c-.435-.479-.926-1.252-.386-1.67.314-.246.483.02.785.08.378.072.821-.632.821-.95a1.815,1.815,0,0,0-.531-1.022c-.588-.716-1.352-1.445-1.151-2.459a3.13,3.13,0,0,1,1.727-1.976,26.784,26.784,0,0,1,3.087-1.477,13.315,13.315,0,0,1,3.611-1.115,7.084,7.084,0,0,1,3.365.7,11.535,11.535,0,0,1,2.991,1.63.305.305,0,0,1,.121.286,6.1,6.1,0,0,1,4,3.623c1,2.359.552,4.738.66,7.2.024.5-.757.5-.781,0-.117-2.588.431-5.168-.918-7.551a5.37,5.37,0,0,0-6.372-2.431c-2.238.6-5.349,2.057-5.293,4.778.036,1.868,1.22,4.15-.314,5.716a6.266,6.266,0,0,0,2.407,2.31.371.371,0,0,1,.366-.016c1.018-.431,1.075-.527,1.127-.628a5.248,5.248,0,0,0,.205-.576.39.39,0,1,1,.753.205,2.819,2.819,0,0,1-.817,1.457,1.782,1.782,0,0,1-.427.193,16.058,16.058,0,0,0,2.648,1.071c.3-.076.515-.213.829-.322,1.445-.5-.346,1.244,2.512-.628.193-.129.338-.382.547-.511-3.357-3.168-6.992-7.289-5.482-12.224.145-.479.9-.274.753.209-1.461,4.778,2.334,8.735,5.559,11.733a3.5,3.5,0,0,1,1.433-.076,8.948,8.948,0,0,1,3.9,1.984,6.143,6.143,0,0,1,1.642-2.218c.415-.435.99-.6,1.373-1.075a3.285,3.285,0,0,0,.547-2.27,5.982,5.982,0,0,0-1.678-4.323c-.986-.873-2.258-1.324-3.309-2.109A7.883,7.883,0,0,1,340.6,129a20.07,20.07,0,0,0-2.552-3.973c-1.067-1.2-2.488-1.248-3.977-1.445-.592-.076-1.674-.555-2.206-.278-.507.266-1,1.413-1.256,1.9-.229.447-.906.052-.676-.394.435-.841,1.232-2.592,2.4-2.459a8.082,8.082,0,0,1,.946.3,12.891,12.891,0,0,0,1.574.233,8.63,8.63,0,0,1,2.069.4,6.363,6.363,0,0,1,2.886,2.878c.515.793,1.026,1.594,1.465,2.439a8.742,8.742,0,0,0,1.485,2.459,6.075,6.075,0,0,0,.865.672,3.8,3.8,0,0,1,1.014-.753,10.422,10.422,0,0,1,1.674-.821,10.035,10.035,0,0,1,1.743-.5,5.048,5.048,0,0,1,.56-.06.381.381,0,0,1-.129-.487,3.368,3.368,0,0,0,.1-2.946,2.756,2.756,0,0,0-2.174-1.562,7.273,7.273,0,0,0-3,.539,4.478,4.478,0,0,0-2.2,1.55c-.286.411-.962.02-.676-.394A5.355,5.355,0,0,1,343.2,124.4a7.008,7.008,0,0,1,3.768-.483A3.558,3.558,0,0,1,349.356,126a4.206,4.206,0,0,1-.205,3.518,2.247,2.247,0,0,0,.5.266,26.833,26.833,0,0,1,2.56-4.77.392.392,0,0,1,.676.394,20.5,20.5,0,0,0-2.745,5.426c-.475,2.013.483,3.941,1.707,5.486.31.39-.242.946-.551.551a7.625,7.625,0,0,1-2.009-5.716c.032-.221.121-.435.173-.652a1.868,1.868,0,0,0-1.348-.048,9.622,9.622,0,0,0-1.461.419,9.485,9.485,0,0,0-1.328.62q-.32.181-.628.386c-.109.072-.217.145-.322.225a22.617,22.617,0,0,1,2.246,1.534,5.986,5.986,0,0,1,1.783,3.723,5.072,5.072,0,0,1-.544,3.868,4.37,4.37,0,0,1-1.022.89,2.868,2.868,0,0,1,.894,1.807,18.9,18.9,0,0,0,.141,2.745,33.411,33.411,0,0,0,4.641,2.343,14.548,14.548,0,0,1,.612-5.261c.555-1.731,1.377-3.365,1.9-5.108a5.183,5.183,0,0,0,.342-2.975c-.314-.833-1.276-1.183-2.037-1.485a6.505,6.505,0,0,1-1.719-.886c-.592-.483-.688-1.26-1.224-1.747-.37-.338.181-.89.552-.551.624.572.676,1.4,1.445,1.892a23.059,23.059,0,0,0,2.137.958,5.714,5.714,0,0,0,3.309-.729,5.027,5.027,0,0,0,2.327-2.17A3.793,3.793,0,0,0,358.244,126c-.451-.221-.056-.894.394-.672a4.577,4.577,0,0,1,2.282,5.8,5.557,5.557,0,0,1-2.568,2.6,6.888,6.888,0,0,1-2.866.825,2.4,2.4,0,0,1,.471.7.3.3,0,0,1,.31-.036,11.145,11.145,0,0,0,3.554.515,14.629,14.629,0,0,1,1.779.173,2.372,2.372,0,0,1,1.437.58,2.213,2.213,0,0,1,.326,1.4c.024.648.036,1.3.109,1.948A5.4,5.4,0,0,0,364.8,143.1c.35.362-.2.914-.551.551a5.541,5.541,0,0,1-1.385-2.713,12.192,12.192,0,0,1-.225-1.751c-.036-.616.008-1.26-.085-1.868s-.906-.632-1.4-.7c-.564-.08-1.135-.1-1.7-.125a10.817,10.817,0,0,1-3.309-.507,4.381,4.381,0,0,1-.016,1.373,28.988,28.988,0,0,1-1.831,5.434,15.034,15.034,0,0,0-1,6.521c.765.294,1.514.62,2.3.869a4.312,4.312,0,0,1,.314-4.021c.483-.785,1.123-1.453,1.63-2.218a6.026,6.026,0,0,0,1-3.075c.024-.5.805-.5.781,0a6.883,6.883,0,0,1-.612,2.58,10.363,10.363,0,0,1-1.361,2.041,6.1,6.1,0,0,0-1.264,2.19,2.706,2.706,0,0,0,.688,2.757.35.35,0,0,1,.1.165c1.51.475,3.079,1.111,3.715,2.649.483,1.167.145,2.383.113,3.59a6.152,6.152,0,0,0,.568,2.741,5.791,5.791,0,0,1,.825-1.2c1.353-1.429,3.156-1.453,5.084-1.477.153,0,.318-.012.475-.012a.323.323,0,0,1-.157-.511,10.886,10.886,0,0,1,4.6-3.683c1.84-.773,4.5-1.139,5.329-3.252.181-.463.938-.262.753.209-.785,2-2.822,2.713-4.693,3.353a10.617,10.617,0,0,0-5.313,3.768.381.381,0,0,1-.173.109,15.152,15.152,0,0,0,2.391-.205c.225-.024,5.635-1.026,7.942-5.035C380.278,148.229,379.1,144.3,378.647,142.791Zm-16.62-10.019c-.5-.089-.286-.841.209-.753a16.539,16.539,0,0,1,3.611,1.063c1.038.439,1.892.93,2.069,2.133.3,2.025-.877,5.273,1.288,6.605.427.262.036.938-.394.672-1.992-1.228-1.695-3.739-1.614-5.736a4.3,4.3,0,0,0-.189-1.948,2.349,2.349,0,0,0-1.312-.946A15.959,15.959,0,0,0,362.028,132.772Zm-1.3,12.888a15.49,15.49,0,0,1-1.429,1.992c-.225.266-.5.7-.833.825a.471.471,0,0,1-.628-.564.339.339,0,0,1,.415-.262c.225-.242.322-.354.419-.467q.3-.344.568-.712a14.793,14.793,0,0,0,.982-1.5,3.342,3.342,0,0,0,.652-1.646,2.307,2.307,0,0,0-.813-1.312c-.35-.362.2-.914.551-.551a2.906,2.906,0,0,1,1.043,1.92A4.711,4.711,0,0,1,360.724,145.661Zm11.661,1.666a1.758,1.758,0,0,0-1.417.326,3.711,3.711,0,0,0-.572,1.256,5.581,5.581,0,0,1-1.526,2.129,11.68,11.68,0,0,1-5.659,2.266c-.491.093-.7-.66-.209-.753,2.089-.4,4.327-.914,5.816-2.556a4.4,4.4,0,0,0,.789-1.212c.177-.407.282-.841.491-1.232a2.206,2.206,0,0,1,2.286-1C372.883,146.566,372.888,147.347,372.384,147.327Zm.9-5.514c-.254.555-.5,1.111-.757,1.666a1.833,1.833,0,0,1-.781,1.014,1.559,1.559,0,0,1-1.1-.064c-.314-.072-.383-.04-.459.262a2.59,2.59,0,0,1-.2.62,2.851,2.851,0,0,1-2.254,1.3,3.379,3.379,0,0,1-1.57-.085,2.717,2.717,0,0,1-4.049,1.244c-.415-.278-.024-.958.394-.676a1.959,1.959,0,0,0,3.1-1.453c.056-.487.817-.507.781,0-.056.483,1.28.2,1.5.157a2.3,2.3,0,0,0,1.135-.5c.463-.427.306-1.143.785-1.53a.906.906,0,0,1,.676-.181c.266.024.592.266.857.221.346-.06.568-.829.684-1.091.2-.431.391-.865.588-1.3C372.815,140.963,373.487,141.358,373.282,141.813Z" transform="translate(-302.709 -121.059)" fill="#3ad1e9"/>
            <path id="Trazado_989865" data-name="Trazado 989865" d="M323.68,126.62a9.091,9.091,0,0,1,2.069-1.369,10.061,10.061,0,0,1,4.424-1.131,13.156,13.156,0,0,0-2.037-1.014,6.049,6.049,0,0,0-3.2-.6,19.251,19.251,0,0,0-5.716,2.226,11.443,11.443,0,0,0,4.363,1.823C323.632,126.564,323.644,126.6,323.68,126.62Z" transform="translate(-297.407 -116.827)" fill="#3ad1e9"/>
          </g>
          <path id="Trazado_989866" data-name="Trazado 989866" d="M313.28,128.354a3.835,3.835,0,0,0-3.466-2.153v-7.982H298.177a3.876,3.876,0,1,0-6.195,0H280.342v8.014a3.8,3.8,0,0,1,3.011,2.117,3.875,3.875,0,0,1-1.767,5.164,4.007,4.007,0,0,1-1.244.366v8.7h11.552a3.851,3.851,0,1,0,6.65.471,4.152,4.152,0,0,0-.29-.467h11.56V133.9a3.843,3.843,0,0,0,3.465-5.543Z" transform="translate(-203.826 -105.165)" fill="#e3bffe"/>
          <g id="Grupo_1153594" data-name="Grupo 1153594" transform="translate(14.228 25.173)">
            <path id="Trazado_989867" data-name="Trazado 989867" d="M306.3,140.33c-19.079,9.471-23.044,15.9-22.509,20.2.761,6.171,10.852,8.622,11.053,16.58.133,5.184-4.081,6.766-4.122,11.254-.081,9.387,18.23,16.632,20.7,17.586,29.834,11.5,60.981-3.872,74.565-16.282,2.363-2.157,8.348-8.022,6.835-11.254-1.807-3.856-12.981-1.228-13.867-4.122-.906-2.946,10.65-5.744,12.462-13.565,1.61-6.959-5.341-14.237-10.751-19.9-4.854-5.08-10.167-8.481-20.6-15.074-5.555-3.51-10.264-6.263-13.565-8.139Z" transform="translate(-207.749 -113.591)"/>
            <path id="Trazado_989868" data-name="Trazado 989868" d="M319.393,158.461c.572-.564,1.662-.113,2.206.117.358.213,1.57.773,3.055,4.065a26.978,26.978,0,0,1,1.815,5.394c.869,1.53,1.751,1.771,2.318,1.775.737-.064,2.995-.958,7.986-16.737,0,0,1.6-4.987,3.292-9.757.1-.68,1.32-8.618,3.808-8.763a1.558,1.558,0,0,1,1.022.362c.624,2.1.294,4.174-.382,6.633s-1.7,5.309-2.411,9.044a59.138,59.138,0,0,0-.894,7.616,2.084,2.084,0,0,0,1.308.2c2.246-.584,3.135-5.555,6.484-13.058,1.373-3.232,4.46-10.087,6.291-9.741.616.089.914,1.055,1.054,1.413,1.437,3.667-1.437,7.636-3.731,11.81a72.568,72.568,0,0,0-5.575,13.118q3.52-5.005,7.068-10.381,2.934-4.456,5.631-8.8a2.544,2.544,0,0,1,1.654.857c1.006,1.256.479,3.876-1.682,6.227q-4.746,8.066-9.491,16.129c.676.749,1.28,1.477,1.88,2.2a81.943,81.943,0,0,0,7.3-8.743c1.666-2.27,3.3-4.705,4.323-4.343.725.278.761,1.9.721,2.045.1,1.892-.91,3.719-2.761,6.166-4.452,4.862-7.619,8.5-8.235,9.3-.6.781-1.127,1.558-1.127,1.558-.113.165-.266.4-.459.7-.109.177-.507.821-.9,1.594-.491.974-.539,1.3-.95,2.222a25.16,25.16,0,0,1-1.187,2.254c-6.279,10.747-21.482,9.532-20.323,7.382-1.328-4.275-6.96-16.753-6.96-16.753C318.025,163.7,318.745,159.157,319.393,158.461Z" transform="translate(-101.542 -62.353)" fill="#ff7866"/>
            <path id="Trazado_989869" data-name="Trazado 989869" d="M405.745,188.166q-61.711-.368-123.422-.733c.841-4.158,2.685-9.785,7.261-14.213,9.169-8.875,20.693-4.488,30-11.46,4.915-3.683,10.123-11.1,10.8-27.484.632-.032,1.252-.085,1.872-.137q5.651-.393,11.278-.789,5.621.392,11.258.789c.632.052,1.24.1,1.872.137.684,16.382,5.873,23.8,10.8,27.484,9.258,6.923,20.371,2.709,29.987,11.46C402.5,177.818,404.687,183.755,405.745,188.166Z" transform="translate(-212.062 -65.987)" fill="#ff7866"/>
            <path id="Trazado_989870" data-name="Trazado 989870" d="M316.88,143.638a11.049,11.049,0,1,1-11.049-11.049A11.049,11.049,0,0,1,316.88,143.638Z" transform="translate(-174.371 -68.296)" fill="#210b04"/>
            <path id="Trazado_989871" data-name="Trazado 989871" d="M316.734,118.612a50.729,50.729,0,0,0-6.472.338,21.561,21.561,0,0,0-19.047,21.414v22.2a32.285,32.285,0,0,0,11.6,18.978A30.909,30.909,0,0,0,316.05,187.4c.193,0,.382-.008.572-.02.189.012.378.02.572.02a30.927,30.927,0,0,0,13.235-5.857,32.285,32.285,0,0,0,11.6-18.978v-22.2a21.567,21.567,0,0,0-19.043-21.414A49.331,49.331,0,0,0,316.734,118.612Z" transform="translate(-185.162 -110.585)" fill="#ff7866"/>
            <g id="Grupo_1153561" data-name="Grupo 1153561" transform="translate(98.679 40.014)">
              <ellipse id="Elipse_11694" data-name="Elipse 11694" cx="5.969" cy="8.091" rx="5.969" ry="8.091" fill="#ff7866"/>
              <path id="Trazado_989872" data-name="Trazado 989872" d="M314.645,134.647c0,4.468-2.673,8.09-5.969,8.09s-5.969-3.623-5.969-8.09,2.673-8.09,5.969-8.09S314.645,130.18,314.645,134.647Z" transform="translate(-249.079 -126.557)" fill="#ff7866"/>
            </g>
            <path id="Trazado_989873" data-name="Trazado 989873" d="M296.884,129.821a5.73,5.73,0,0,1,5.185,0,5.73,5.73,0,0,1-5.185,0Z" transform="translate(-168.013 -78.545)" fill="#210b04"/>
            <path id="Trazado_989874" data-name="Trazado 989874" d="M367.493,148.007a2.184,2.184,0,0,1,1.4.439,2.5,2.5,0,0,1,.616,2.806H286.737a2,2,0,0,1,2.194-2.805,70.3,70.3,0,0,1,25.427-2.194c4.786.5,6.026,1.191,11.311,1.445,9.4.455,13.512-1.332,21.176-1.839A63.4,63.4,0,0,1,367.493,148.007Z" transform="translate(-199.168 -28.541)" fill="#fff"/>
            <g id="Grupo_1153562" data-name="Grupo 1153562" transform="translate(96.694 101.051)">
              <path id="Trazado_989875" data-name="Trazado 989875" d="M296.295,142.949a4.841,4.841,0,0,0,4.734,1.755,5.077,5.077,0,0,0,3.506-2.983Z" transform="translate(-266.489 -141.721)" fill="#210b04"/>
              <path id="Trazado_989876" data-name="Trazado 989876" d="M298.474,143.424a21.145,21.145,0,0,0,2.717,1.051,23.8,23.8,0,0,0,9.556.789c8.356-.7,16.076-1.872,18.677-2.278q-8.99.308-17.976.612Z" transform="translate(-259.897 -137.897)" fill="#210b04"/>
              <path id="Trazado_989877" data-name="Trazado 989877" d="M319.843,143.424a21.147,21.147,0,0,1-2.717,1.051,23.81,23.81,0,0,1-9.56.789c-8.356-.7-16.076-1.872-18.677-2.278q8.99.308,17.976.612Z" transform="translate(-288.89 -137.897)" fill="#210b04"/>
            </g>
            <path id="Trazado_989878" data-name="Trazado 989878" d="M299.712,195.686q4.577,23.813,9.157,47.633A103.875,103.875,0,0,0,284.352,285.9a77.769,77.769,0,0,0,22.2,5.51c10.115.773,20.073-1.707,30.052-2.914a71.114,71.114,0,0,1,15.259-.306c5.188.483,10.336,1.316,15.513,1.928a79.831,79.831,0,0,0,15.4.632,66.011,66.011,0,0,0,6.573-.869,104.033,104.033,0,0,0-25.6-46.563q4.577-23.819,9.157-47.633a17.609,17.609,0,0,0,9.87-15.666,17.217,17.217,0,0,0-4.613-11.7l2.415-12.57a33.218,33.218,0,0,0-10.489-8.292c-15.215-7.583-31.106-.25-33.662.974-2.8-1.228-18.689-8.557-33.9-.974a33.266,33.266,0,0,0-10.49,8.292l2.415,12.57a17.236,17.236,0,0,0-4.613,11.7A17.631,17.631,0,0,0,299.712,195.686Z" transform="translate(-205.923 -33.574)" fill="#ff7866"/>
            <path id="Trazado_989879" data-name="Trazado 989879" d="M337.626,227.261l16.7-12.949A245.688,245.688,0,0,0,338.1,165.467c-3.276-7.213-6.722-13.867-10.2-19.969a15.8,15.8,0,0,0-15.952,1.6,15.422,15.422,0,0,0-5.551,9.383Q322.012,191.876,337.626,227.261Z" transform="translate(-139.229 -33.575)" fill="#ff7866"/>
            <path id="Trazado_989880" data-name="Trazado 989880" d="M343.733,143.867q3.888,1.032,7.776,2.061A189.764,189.764,0,0,1,341.032,215.8a182.583,182.583,0,0,1-7.318,17.706,13,13,0,0,1-13.287,1.5,12.869,12.869,0,0,1-6.271-7.133,94.965,94.965,0,0,1,2.777-16.068c6.287-23.764,18.6-32.265,24.69-56.742A97.61,97.61,0,0,0,343.733,143.867Z" transform="translate(-115.763 -34.178)" fill="#ff7866"/>
            <g id="Grupo_1153563" data-name="Grupo 1153563" transform="translate(127.033 63.587)">
              <path id="Trazado_989881" data-name="Trazado 989881" d="M301.192,134c-.109,0-.217,0-.326,0a11.223,11.223,0,0,1-4.263-1,.3.3,0,0,1-.149-.4.31.31,0,0,1,.4-.149,10.434,10.434,0,0,0,4.029.946c.1,0,.205,0,.306,0a10.432,10.432,0,0,0,4.118-.849.308.308,0,0,1,.4.161.3.3,0,0,1-.157.4A11.15,11.15,0,0,1,301.192,134Z" transform="translate(-296.427 -132.413)"/>
            </g>
            <g id="Grupo_1153564" data-name="Grupo 1153564" transform="translate(121.824 56.986)">
              <path id="Trazado_989882" data-name="Trazado 989882" d="M304.519,134.333a16.835,16.835,0,0,1-9.254-2.842.3.3,0,0,1,.338-.5,15.828,15.828,0,0,0,18.033-.161.3.3,0,0,1,.419.076.3.3,0,0,1-.077.423,16.516,16.516,0,0,1-8.529,2.983C305.135,134.321,304.825,134.333,304.519,134.333Z" transform="translate(-295.133 -130.774)"/>
            </g>
            <path id="Trazado_989883" data-name="Trazado 989883" d="M307.828,132.119a11.254,11.254,0,0,1-11.81.145,16.906,16.906,0,0,1,11.81-.145Z" transform="translate(-170.632 -72.724)" fill="#fff"/>
            <path id="Trazado_989884" data-name="Trazado 989884" d="M311.889,134.512a4.523,4.523,0,0,1-.934.636c-2.19,1.111-3.667-.475-6.835-.568-3.325-.1-4.669,1.566-7.422.5a6.614,6.614,0,0,1-1.207-.62,9.01,9.01,0,0,1,4.428-3.868,9.261,9.261,0,0,1,3.715-.547,9.448,9.448,0,0,1,6.158,1.823A7.876,7.876,0,0,1,311.889,134.512Z" transform="translate(-172.227 -76.018)"/>
            <path id="Trazado_989885" data-name="Trazado 989885" d="M300.172,127.311a2.989,2.989,0,1,0,3.518-1.976A2.876,2.876,0,0,0,300.172,127.311Z" transform="translate(-158.267 -90.505)" fill="#210b04"/>
            <g id="Grupo_1153565" data-name="Grupo 1153565" transform="translate(139.165 34.598)">
              <path id="Trazado_989886" data-name="Trazado 989886" d="M299.742,130.651c-.258-.076-.342-.25-.282-.407a7.913,7.913,0,0,1,5.221-4.826,7.677,7.677,0,0,1,8.1,3.276.307.307,0,0,1-.08.419.3.3,0,0,1-.423-.085A7.024,7.024,0,0,0,304.825,126a7.3,7.3,0,0,0-4.8,4.444A.292.292,0,0,1,299.742,130.651Z" transform="translate(-299.441 -125.212)"/>
            </g>
            <path id="Trazado_989887" data-name="Trazado 989887" d="M299.818,127.451a2.989,2.989,0,1,1-3.518-1.976A2.877,2.877,0,0,1,299.818,127.451Z" transform="translate(-176.872 -90.082)" fill="#210b04"/>
            <g id="Grupo_1153566" data-name="Grupo 1153566" transform="translate(112.299 35.165)">
              <path id="Trazado_989888" data-name="Trazado 989888" d="M305.853,130.789a.3.3,0,0,1-.282-.2,7.3,7.3,0,0,0-4.8-4.444,7.087,7.087,0,0,0-7.454,3.027.3.3,0,0,1-.419.085.3.3,0,0,1-.08-.423,7.689,7.689,0,0,1,8.1-3.276,7.941,7.941,0,0,1,5.221,4.826.3.3,0,0,1-.181.386A.343.343,0,0,1,305.853,130.789Z" transform="translate(-292.767 -125.352)"/>
            </g>
            <g id="Grupo_1153567" data-name="Grupo 1153567" transform="translate(136.694 24.681)">
              <path id="Trazado_989889" data-name="Trazado 989889" d="M315.976,126.552a31.948,31.948,0,0,0-16.934,1.477,8.5,8.5,0,0,1,.093-1.666,8.6,8.6,0,0,1,1.288-3.337c2.536-.238,4.657-.286,6.211-.278,3.768.016,4.83.358,5.518.648A9.22,9.22,0,0,1,315.976,126.552Z" transform="translate(-298.2 -122.748)" fill="#210b04"/>
              <path id="Trazado_989890" data-name="Trazado 989890" d="M299.626,123a9.477,9.477,0,0,0-.62,2.017,6.2,6.2,0,0,0-.032,2.975,9.411,9.411,0,0,0,.564-2.3,10.8,10.8,0,0,1,.576-2.387c.089-.229.173-.415.229-.531Z" transform="translate(-298.827 -122.678)" fill="#210b04"/>
            </g>
            <g id="Grupo_1153568" data-name="Grupo 1153568" transform="translate(109.603 27.978)">
              <path id="Trazado_989891" data-name="Trazado 989891" d="M292.1,127.371a31.947,31.947,0,0,1,16.934,1.477,8.5,8.5,0,0,0-.093-1.666,8.6,8.6,0,0,0-1.288-3.337c-2.536-.237-4.657-.286-6.207-.278-3.767.016-4.83.358-5.518.648A9.268,9.268,0,0,0,292.1,127.371Z" transform="translate(-292.097 -123.567)" fill="#210b04"/>
              <path id="Trazado_989892" data-name="Trazado 989892" d="M296.854,123.82a9.476,9.476,0,0,1,.62,2.017,6.2,6.2,0,0,1,.032,2.975,9.415,9.415,0,0,1-.564-2.3,10.8,10.8,0,0,0-.576-2.387c-.089-.229-.173-.411-.229-.531Z" transform="translate(-279.876 -123.494)" fill="#210b04"/>
            </g>
            <path id="Trazado_989893" data-name="Trazado 989893" d="M311.759,131.2c.688.821-2.914,7.773-8.288,7.66-5.144-.109-8.513-6.617-7.821-7.455.531-.644,3.228,2.314,7.893,2.331C308.4,133.753,311.236,130.573,311.759,131.2Z" transform="translate(-172.016 -72.744)"/>
            <path id="Trazado_989894" data-name="Trazado 989894" d="M371.207,257.467a77.816,77.816,0,0,1-65.271-.873,81.966,81.966,0,0,1-9.507-12.5c-13.231-21.4-13.3-43.8-12.361-55.47q10.041-23.553,20.077-47.1,16.791,25.509,33.586,51.018,18.161-25.527,36.319-51.055l12.86,49.8c2.017,9.813,5.229,32.889-7.269,54.617A67.145,67.145,0,0,1,371.207,257.467Z" transform="translate(-207.829 -41.39)" fill="#15da7e"/>
            <path id="Trazado_989895" data-name="Trazado 989895" d="M349.784,199.32q5.047-10.729,10.1-21.462,2.18-7.849,4.355-15.7l13.891,7q-1.684,6.406-3.369,12.816c2.109,9.435,5.523,31.183-5.023,53.764-2.862,6.122-12.844,27.463-25.66,27.52s-26.433-21.663-31.871-54.1V171.482q-3.019-14.146-6.042-28.293c2.673-1.139,9.95-3.792,17.8-1.1,10.586,3.631,17.9,15.5,17.336,29.4Q345.532,185.391,349.784,199.32Z" transform="translate(-139.939 -43.085)" fill="#15da7e"/>
            <path id="Trazado_989896" data-name="Trazado 989896" d="M309.931,158.461c-.572-.564-1.662-.113-2.206.117-.358.213-1.57.773-3.055,4.065a26.983,26.983,0,0,0-1.815,5.394c-.869,1.53-1.751,1.771-2.318,1.775-.737-.064-2.995-.958-7.986-16.737,0,0-1.6-4.987-3.293-9.757-.1-.68-1.32-8.618-3.808-8.763a1.558,1.558,0,0,0-1.022.362c-.628,2.1-.294,4.174.382,6.633s1.7,5.309,2.411,9.044a59.151,59.151,0,0,1,.893,7.616,2.084,2.084,0,0,1-1.308.2c-2.246-.584-3.136-5.555-6.484-13.058-1.373-3.232-4.46-10.087-6.291-9.741-.616.089-.914,1.055-1.055,1.413-1.437,3.667,1.437,7.636,3.731,11.81a72.306,72.306,0,0,1,5.571,13.118q-3.52-5.005-7.064-10.381-2.934-4.456-5.631-8.8a2.544,2.544,0,0,0-1.654.857c-1.006,1.256-.479,3.876,1.682,6.227q4.746,8.066,9.5,16.129c-.676.749-1.28,1.477-1.88,2.2a81.935,81.935,0,0,1-7.3-8.743c-1.666-2.27-3.3-4.705-4.327-4.343-.724.278-.761,1.9-.72,2.045-.1,1.892.91,3.719,2.761,6.166,4.452,4.862,7.62,8.5,8.235,9.3.6.781,1.127,1.558,1.127,1.558.113.165.266.4.459.7.109.177.507.821.9,1.594.491.974.539,1.3.95,2.222a24.736,24.736,0,0,0,1.191,2.254c6.279,10.747,21.482,9.532,20.323,7.382,1.328-4.275,6.959-16.753,6.959-16.753C311.3,163.7,310.575,159.157,309.931,158.461Z" transform="translate(-264.867 -62.353)" fill="#ff7866"/>
            <path id="Trazado_989897" data-name="Trazado 989897" d="M279.483,143.867q-3.888,1.032-7.777,2.061A189.765,189.765,0,0,0,282.184,215.8,182.591,182.591,0,0,0,289.5,233.5a13,13,0,0,0,13.287,1.5,12.87,12.87,0,0,0,6.271-7.133,95.4,95.4,0,0,0-2.777-16.068c-6.287-23.764-18.6-32.265-24.69-56.742A97.551,97.551,0,0,1,279.483,143.867Z" transform="translate(-244.542 -34.178)" fill="#ff7866"/>
            <path id="Trazado_989898" data-name="Trazado 989898" d="M299.352,199.32q-5.048-10.729-10.1-21.462-2.18-7.849-4.351-15.7l-13.891,7q1.684,6.406,3.369,12.816c-2.109,9.435-5.526,31.183,5.023,53.764,2.862,6.122,12.844,27.463,25.66,27.52s26.433-21.663,31.871-54.1V171.482q3.019-14.146,6.042-28.293c-2.673-1.139-9.95-3.792-17.8-1.1-10.586,3.631-17.9,15.5-17.336,29.4Q303.6,185.391,299.352,199.32Z" transform="translate(-246.282 -43.085)" fill="#15da7e"/>
            <g id="Grupo_1153569" data-name="Grupo 1153569" transform="translate(29.808 134.67)">
              <path id="Trazado_989899" data-name="Trazado 989899" d="M272.576,154.8a.3.3,0,0,1-.024-.6,22.489,22.489,0,0,0,6.943-1.683,22.092,22.092,0,0,0,4.263-2.383.3.3,0,1,1,.35.5A22.847,22.847,0,0,1,272.6,154.8Z" transform="translate(-272.273 -150.073)"/>
            </g>
            <g id="Grupo_1153570" data-name="Grupo 1153570" transform="translate(221.473 134.946)">
              <path id="Trazado_989900" data-name="Trazado 989900" d="M331.744,154.526a19.773,19.773,0,0,1-11.729-3.84.3.3,0,1,1,.35-.487,19,19,0,0,0,4.677,2.524,19.5,19.5,0,0,0,7.422,1.187.3.3,0,0,1,.024.6C332.244,154.522,331.99,154.526,331.744,154.526Z" transform="translate(-319.89 -150.142)"/>
            </g>
            <g id="Grupo_1153571" data-name="Grupo 1153571" transform="translate(82.265 185.063)">
              <path id="Trazado_989901" data-name="Trazado 989901" d="M286.641,170.406a.3.3,0,0,1-.3-.258l-1.034-7.2a.3.3,0,0,1,.254-.342.288.288,0,0,1,.342.258l1.034,7.205a.3.3,0,0,1-.258.342Z" transform="translate(-285.305 -162.593)"/>
            </g>
            <g id="Grupo_1153572" data-name="Grupo 1153572" transform="translate(76.537 158.688)">
              <path id="Trazado_989902" data-name="Trazado 989902" d="M287.2,177.6a.3.3,0,0,1-.3-.258L283.885,156.4a.3.3,0,0,1,.258-.342c.185-.064.318.093.342.258l3.015,20.943a.3.3,0,0,1-.258.342Z" transform="translate(-283.882 -156.04)"/>
            </g>
            <g id="Grupo_1153573" data-name="Grupo 1153573" transform="translate(177.983 184.009)">
              <path id="Trazado_989903" data-name="Trazado 989903" d="M309.386,167.6c-.254-.068-.338-.237-.286-.4l1.509-4.653a.294.294,0,0,1,.382-.193.307.307,0,0,1,.193.382l-1.509,4.653A.311.311,0,0,1,309.386,167.6Z" transform="translate(-309.085 -162.331)"/>
            </g>
            <g id="Grupo_1153574" data-name="Grupo 1153574" transform="translate(180.696 150.999)">
              <path id="Trazado_989904" data-name="Trazado 989904" d="M310.06,182.02a.316.316,0,0,1-.294-.37l6.183-27.282a.3.3,0,0,1,.362-.229.309.309,0,0,1,.229.362l-6.187,27.282A.3.3,0,0,1,310.06,182.02Z" transform="translate(-309.759 -154.13)"/>
            </g>
            <g id="Grupo_1153575" data-name="Grupo 1153575" transform="translate(98.85 203.011)">
              <path id="Trazado_989905" data-name="Trazado 989905" d="M295.151,178.657a.3.3,0,0,1-.27-.169l-5.426-11a.3.3,0,0,1,.543-.27l5.426,11a.307.307,0,0,1-.137.407A.339.339,0,0,1,295.151,178.657Z" transform="translate(-289.425 -167.052)"/>
            </g>
            <g id="Grupo_1153576" data-name="Grupo 1153576" transform="translate(110.305 205.416)">
              <path id="Trazado_989906" data-name="Trazado 989906" d="M294.138,174.136a.3.3,0,0,1-.29-.225l-1.566-5.881a.3.3,0,0,1,.213-.37.3.3,0,0,1,.37.213l1.566,5.881a.3.3,0,0,1-.213.37A.28.28,0,0,1,294.138,174.136Z" transform="translate(-292.271 -167.649)"/>
            </g>
            <g id="Grupo_1153577" data-name="Grupo 1153577" transform="translate(117.689 187.933)">
              <path id="Trazado_989907" data-name="Trazado 989907" d="M294.408,186.668a.307.307,0,0,1-.3-.314l.753-22.758a.3.3,0,0,1,.3-.29.307.307,0,0,1,.3.314l-.753,22.758A.3.3,0,0,1,294.408,186.668Z" transform="translate(-294.106 -163.306)"/>
            </g>
            <g id="Grupo_1153578" data-name="Grupo 1153578" transform="translate(128.672 207.83)">
              <path id="Trazado_989908" data-name="Trazado 989908" d="M297.134,172.322c-.27-.085-.342-.262-.278-.419l1.417-3.466a.3.3,0,0,1,.395-.165.3.3,0,0,1,.165.395l-1.417,3.466A.309.309,0,0,1,297.134,172.322Z" transform="translate(-296.835 -168.249)"/>
            </g>
            <g id="Grupo_1153579" data-name="Grupo 1153579" transform="translate(139.097 199.991)">
              <path id="Trazado_989909" data-name="Trazado 989909" d="M299.725,177.912c-.241-.06-.334-.225-.29-.386l3.111-11a.3.3,0,0,1,.374-.209.309.309,0,0,1,.209.374l-3.111,11A.309.309,0,0,1,299.725,177.912Z" transform="translate(-299.424 -166.302)"/>
            </g>
            <g id="Grupo_1153580" data-name="Grupo 1153580" transform="translate(158.092 188.674)">
              <path id="Trazado_989910" data-name="Trazado 989910" d="M304.443,185.66c-.282-.1-.346-.282-.27-.431l10.4-21.571a.309.309,0,0,1,.4-.141.3.3,0,0,1,.141.4l-10.4,21.571A.313.313,0,0,1,304.443,185.66Z" transform="translate(-304.144 -163.49)"/>
            </g>
            <g id="Grupo_1153581" data-name="Grupo 1153581" transform="translate(53.928 156.273)">
              <path id="Trazado_989911" data-name="Trazado 989911" d="M284.294,184.287a.308.308,0,0,1-.3-.322,53.569,53.569,0,0,0-5.7-28.083.306.306,0,0,1,.133-.407.3.3,0,0,1,.407.129A54.193,54.193,0,0,1,284.6,184,.3.3,0,0,1,284.294,184.287Z" transform="translate(-278.265 -155.44)"/>
            </g>
            <g id="Grupo_1153582" data-name="Grupo 1153582" transform="translate(205.24 157.175)">
              <path id="Trazado_989912" data-name="Trazado 989912" d="M316.791,187.731a.3.3,0,0,1-.3-.266,70.478,70.478,0,0,1,2.93-31.589.3.3,0,0,1,.382-.193.305.305,0,0,1,.193.382,69.782,69.782,0,0,0-2.906,31.319.3.3,0,0,1-.258.338A.094.094,0,0,1,316.791,187.731Z" transform="translate(-315.857 -155.664)"/>
            </g>
            <g id="Grupo_1153583" data-name="Grupo 1153583" transform="translate(69.961 130.316)">
              <path id="Trazado_989913" data-name="Trazado 989913" d="M283.9,154.427a.3.3,0,0,1-.29-.221l-1.352-4.83a.3.3,0,1,1,.58-.165l1.352,4.83a.306.306,0,0,1-.209.374A.26.26,0,0,1,283.9,154.427Z" transform="translate(-282.248 -148.992)"/>
            </g>
            <g id="Grupo_1153584" data-name="Grupo 1153584" transform="translate(74.108 139.692)">
              <path id="Trazado_989914" data-name="Trazado 989914" d="M286.375,156.892a.3.3,0,0,1-.262-.153l-2.8-4.963a.3.3,0,0,1,.117-.411.294.294,0,0,1,.411.113l2.8,4.963a.3.3,0,0,1-.117.411A.276.276,0,0,1,286.375,156.892Z" transform="translate(-283.279 -151.321)"/>
            </g>
            <g id="Grupo_1153585" data-name="Grupo 1153585" transform="translate(186.067 125.628)">
              <path id="Trazado_989915" data-name="Trazado 989915" d="M311.393,168.327a.306.306,0,0,1-.3-.33l1.819-19.9a.3.3,0,0,1,.3-.274.305.305,0,0,1,.3.33l-1.819,19.9A.3.3,0,0,1,311.393,168.327Z" transform="translate(-311.094 -147.827)"/>
            </g>
            <path id="Trazado_989916" data-name="Trazado 989916" d="M306.532,214.347c8.574,1.187,16.64.4,30.072-.906,7.31-.708,10.063-1.3,16.354-1.28,6.71.016,10.461-.129,15.678.68,7.193,1.111,9.95,2.725,15,1.735a20.611,20.611,0,0,0,8.107-3.623,86.362,86.362,0,0,0-21.4-40,89.073,89.073,0,0,1-16.6,4.416c-20.947,3.441-38.525-1.437-48.676-5.285a93.66,93.66,0,0,0-21.064,36.556A64.293,64.293,0,0,0,306.532,214.347Z" transform="translate(-206.967 45.129)" fill="#d2eaff"/>
            <g id="Grupo_1153586" data-name="Grupo 1153586" transform="translate(96.289 219.732)">
              <path id="Trazado_989917" data-name="Trazado 989917" d="M323.489,179.353a82.244,82.244,0,0,1-14.1-1.211,83.392,83.392,0,0,1-20.423-6.356.3.3,0,0,1,.254-.551,82.51,82.51,0,0,0,20.275,6.307,86.51,86.51,0,0,0,46.116-4.959.323.323,0,0,1,.394.173.31.31,0,0,1-.173.395A89.671,89.671,0,0,1,323.489,179.353Z" transform="translate(-288.789 -171.206)"/>
            </g>
            <g id="Grupo_1153587" data-name="Grupo 1153587" transform="translate(132.687 227.279)">
              <path id="Trazado_989918" data-name="Trazado 989918" d="M298.134,199.707a.3.3,0,0,1-.3-.3V173.383a.3.3,0,0,1,.6,0v26.022A.3.3,0,0,1,298.134,199.707Z" transform="translate(-297.832 -173.081)"/>
            </g>
            <g id="Grupo_1153588" data-name="Grupo 1153588" transform="translate(96.286 228.229)">
              <path id="Trazado_989919" data-name="Trazado 989919" d="M324.606,181.625q-2.675,0-5.337-.165a86.524,86.524,0,0,1-30.3-7.563.307.307,0,0,1-.153-.4.3.3,0,0,1,.4-.149,85.9,85.9,0,0,0,30.1,7.507,86.806,86.806,0,0,0,36.677-5.708.319.319,0,0,1,.394.173.31.31,0,0,1-.173.395A87.937,87.937,0,0,1,324.606,181.625Z" transform="translate(-288.788 -173.317)"/>
            </g>
            <g id="Grupo_1153589" data-name="Grupo 1153589" transform="translate(137.235 239.688)">
              <path id="Trazado_989920" data-name="Trazado 989920" d="M301.276,180.789a2.312,2.312,0,1,1,2.31-2.314A2.317,2.317,0,0,1,301.276,180.789Zm0-4.021a1.709,1.709,0,1,0,1.707,1.707A1.708,1.708,0,0,0,301.276,176.768Z" transform="translate(-298.962 -176.164)"/>
            </g>
            <path id="Trazado_989921" data-name="Trazado 989921" d="M337.363,123.358c.833,4.669-5.961,10.876-12.361,11.254-7,.415-11.258-6.3-14.571-4.323-2.608,1.558-.366,5.961-3.82,9.749a10.637,10.637,0,0,1-10.606,2.874c-.294-.089-5.386-1.7-6.179-5.587-1.135-5.563,7.571-10.755,8.743-11.455,3.792-2.262,4.734-1.425,12.059-3.92,9.507-3.236,10.385-5.486,15.074-5.325C330.521,116.793,336.659,119.4,337.363,123.358Z" transform="translate(-189.671 -116.616)"/>
            <path id="Trazado_989922" data-name="Trazado 989922" d="M319.221,127.174c6.4,8.686,13.943,18.9,10.55,23.519-2.306,3.14-9.25,3.1-13.508.346-2.8-1.815-3.747-4.355-5.261-7.732-7.072-15.786-13.21-20.053-11.081-23.064,1.807-2.556,7.72-1.582,11-.306C314.516,121.338,316.73,123.8,319.221,127.174Z" transform="translate(-160.121 -110.486)"/>
            <path id="Trazado_989923" data-name="Trazado 989923" d="M308.884,139.8c-.2,5.313,2.508,10.228.978,11.109-1.063.612-2.6-1.642-5.526-3-7.76-3.6-15.77,3.554-17.912,1.264-2.045-2.186,2.628-11.488,10.023-18.391,10.256-9.572,23.78-12.687,25.024-10.55C322.779,122.477,309.307,128.418,308.884,139.8Z" transform="translate(-201.113 -107.612)"/>
            <g id="Grupo_1153590" data-name="Grupo 1153590" transform="translate(73.642 21.848)">
              <path id="Trazado_989924" data-name="Trazado 989924" d="M308.224,122.459c-.515,1.505-2.17,2.62-3.321,3.615-1.095.942-2.206,1.864-3.341,2.753a93.7,93.7,0,0,1-7.833,5.527c-4.082,2.58-9.242,4.311-10.345,9.576-.938,4.472,1.2,8.791,4.468,11.761a23.963,23.963,0,0,0,6.4,4.009c2.56,1.143,6.472,1.7,8.078,4.17.423.648,1.469.044,1.043-.608-1.127-1.735-2.87-2.435-4.746-3.124a37.991,37.991,0,0,1-7.463-3.437c-4.713-3.015-8.751-8.94-5.873-14.587,1.344-2.636,4.162-3.776,6.581-5.2q3.574-2.107,6.955-4.528,3.146-2.246,6.106-4.746c1.63-1.373,3.739-2.757,4.452-4.85.254-.741-.914-1.059-1.163-.326Z" transform="translate(-283.163 -122.044)"/>
            </g>
            <g id="Grupo_1153591" data-name="Grupo 1153591" transform="translate(78.354 60.324)">
              <path id="Trazado_989925" data-name="Trazado 989925" d="M303.471,131.91c-1.216,2.427-3.542,4.045-5.736,5.526-2.218,1.5-4.548,2.814-6.855,4.162-1.852,1.079-4.222,2.109-5.534,3.872-1.26,1.695-1.151,3.965-.7,5.925.978,4.259,4.556,6.633,8.517,7.861a41.015,41.015,0,0,0,15.791,1.373c.769-.072.773-1.28,0-1.208a41.279,41.279,0,0,1-14.68-1.1c-4.335-1.179-8.119-3.623-8.674-8.425a5.331,5.331,0,0,1,.543-3.47,7.921,7.921,0,0,1,2.753-2.25c2-1.22,4.045-2.363,6.054-3.562,3.425-2.049,7.7-4.383,9.56-8.095.358-.7-.684-1.308-1.035-.612Z" transform="translate(-284.333 -131.603)"/>
            </g>
            <g id="Grupo_1153592" data-name="Grupo 1153592" transform="translate(150.006 14.327)">
              <path id="Trazado_989926" data-name="Trazado 989926" d="M302.325,121.2a47.373,47.373,0,0,0,13.186,8.408c4.951,2.158,10.155,3.353,15.263,5.044,3.212,1.063,6.046,2.355,7.777,5.422,1.578,2.8,2.262,6.126.745,9.1a17.833,17.833,0,0,1-5.446,5.78c-2.459,1.852-5.06,3.478-8.159,3.916-.765.109-.439,1.272.322,1.163,3.208-.451,5.9-2.121,8.449-4.037a21.6,21.6,0,0,0,5.3-5.217c2.926-4.472,1.5-10.771-2.451-14.221-2.182-1.9-5.184-2.789-7.9-3.607-3.063-.922-6.162-1.711-9.181-2.781a49.309,49.309,0,0,1-17.042-9.829c-.575-.515-1.433.334-.857.861Z" transform="translate(-302.135 -120.175)"/>
            </g>
            <g id="Grupo_1153593" data-name="Grupo 1153593" transform="translate(154.724 59.246)">
              <path id="Trazado_989927" data-name="Trazado 989927" d="M314.361,140.709c5.12-2.741,10.417-6.062,16.068-7.559a10.568,10.568,0,0,1,2.7-.507c.9.016.713,0,1,.724a20.737,20.737,0,0,1,.886,5.261c.286,2.85.543,6.058-.841,8.678a14.343,14.343,0,0,1-5.406,5.124,41.6,41.6,0,0,1-7.829,3.8,42.089,42.089,0,0,1-7.515,1.984c-2.484.407-7.5,1.139-8.992-1.534-.378-.68-1.421-.072-1.043.608,2.166,3.892,9.1,2.427,12.55,1.658a42.529,42.529,0,0,0,14.474-6.146,14.92,14.92,0,0,0,4.565-4.468,12.512,12.512,0,0,0,1.429-6.984,40.97,40.97,0,0,0-1.111-8.308c-.145-.6-.233-1.212-.817-1.517-.849-.443-2.339.008-3.236.189a35.066,35.066,0,0,0-8.348,3.2c-3.083,1.513-6.114,3.136-9.141,4.754-.684.37-.077,1.413.608,1.047Z" transform="translate(-303.307 -131.335)"/>
            </g>
            <circle id="Elipse_11695" data-name="Elipse 11695" cx="2.789" cy="2.789" r="2.789" transform="translate(100.208 52.818)" fill="#fff"/>
            <circle id="Elipse_11696" data-name="Elipse 11696" cx="2.789" cy="2.789" r="2.789" transform="translate(156.287 53.405)" fill="#fff"/>
          </g>
          <g id="Grupo_1153599" data-name="Grupo 1153599" transform="translate(36.5 52.636)">
            <g id="Grupo_1153595" data-name="Grupo 1153595" transform="translate(0.03 11.259)">
              <path id="Trazado_989928" data-name="Trazado 989928" d="M295.412,128.1a5.162,5.162,0,0,0,1.839,1.264L273.374,152l-2.967-3.132,23.877-22.629A4.679,4.679,0,0,0,295.412,128.1Z" transform="translate(-270.408 -126.236)" fill="#210b04"/>
            </g>
            <g id="Grupo_1153596" data-name="Grupo 1153596" transform="translate(0 31.487)">
              <rect id="Rectángulo_409581" data-name="Rectángulo 409581" width="3.486" height="11.838" transform="translate(0 2.398) rotate(-43.464)" fill="#210b04"/>
            </g>
            <g id="Grupo_1153597" data-name="Grupo 1153597" transform="translate(4.818 27.018)">
              <rect id="Rectángulo_409582" data-name="Rectángulo 409582" width="3.486" height="11.838" transform="translate(0 2.398) rotate(-43.456)" fill="#210b04"/>
            </g>
            <g id="Grupo_1153598" data-name="Grupo 1153598" transform="translate(19.652)">
              <path id="Trazado_989929" data-name="Trazado 989929" d="M278.19,126.023a9.349,9.349,0,0,0-1.63,11.5,9.756,9.756,0,0,0,1.276,1.727,7.586,7.586,0,0,0,1.727,1.369,9.261,9.261,0,0,0,11.5-1.014,9.355,9.355,0,1,0-12.868-13.581Zm10.188,10.751a5.433,5.433,0,0,1-5.873,1.055,5.125,5.125,0,0,1-1.839-1.264,4.8,4.8,0,0,1-1.127-1.868,5.463,5.463,0,1,1,8.839,2.077Z" transform="translate(-275.283 -123.439)" fill="#210b04"/>
            </g>
          </g>
          <path id="Trazado_989930" data-name="Trazado 989930" d="M302.053,140.5q-.507-10.94-1.018-21.877-11.055,3.146-22.11,6.3l7,4.717c-2.053,2.568-4.025,5.2-5.869,7.905a130.652,130.652,0,0,0-14.9,29.158l10.3,3.731a119.749,119.749,0,0,1,13.649-26.719c1.86-2.721,3.872-5.353,5.957-7.925Z" transform="translate(-249.744 -85.365)" fill="#15da7e"/>
          <path id="Trazado_989931" data-name="Trazado 989931" d="M329.782,149.688l21.869,1.171-4.057-22.629-5.394,6.5c-2.351-2.3-4.774-4.524-7.281-6.629a130.669,130.669,0,0,0-27.528-17.735l-4.738,9.874a119.719,119.719,0,0,1,25.221,16.249c2.524,2.121,4.939,4.387,7.289,6.718Z" transform="translate(-136.332 -110.362)"/>
          <path id="Trazado_989932" data-name="Trazado 989932" d="M293.395,145.055l5.623-.209q-5.476-6.823-10.956-13.641-5.651,7.239-11.307,14.474l5.635-.209c-.113,2.624-.141,5.249-.056,7.861a105.49,105.49,0,0,0,4.154,26.107l10.518-3.059a94.41,94.41,0,0,1-3.727-23.394C293.189,150.349,293.254,147.7,293.395,145.055Z" transform="translate(-214.677 -47.309)" fill="#e3bffe"/>
          <g id="Grupo_1153600" data-name="Grupo 1153600" transform="translate(117.505 8.998)">
            <path id="Trazado_989933" data-name="Trazado 989933" d="M291.663,126.3c2.628-4.206,7.974-6.855,12.2-9.226,1.964-1.1,6.243-4.452,8.147-1.779.556.777.56,3.522.628,4.218.145,1.473.193,2.942.205,4.424a.614.614,0,0,0,.91.523c2.206-1.091,4.391-2.27,6.633-3.28,1.642-.741,3.534-1.92,5.084.507.242.378.205.95.459,1.34,1.63,2.488,4.359-.6,6.307-.918,3.445-.572,2.975,2.2,4.886,3.429,1.043.672,1.964.427,3.119.338,1.425-.113,2.677-.6,4.021.225a9.153,9.153,0,0,1,1.8,1.747,14.5,14.5,0,0,0,3.124,2.894c.664.411,1.272-.636.608-1.043-2.858-1.763-4.082-5.547-7.905-5.365-1.453.068-3.043,1.107-4.46-.085-.656-.555-.918-1.6-1.493-2.238a3.554,3.554,0,0,0-3.123-1.236,6.3,6.3,0,0,0-1.755.471c-.567.254-1.119.527-1.662.829q-2.536,1.129-2.765-.712c-.716-.708-.628-1.517-1.791-2.049-1.445-.656-2.983-.113-4.339.467-2.5,1.075-4.919,2.427-7.362,3.635.3.173.6.346.91.519a48.755,48.755,0,0,0-.346-5.683c-.177-1.393-.161-3.47-1.01-4.673-1.139-1.622-2.894-.906-4.371-.205a92.963,92.963,0,0,0-10.421,5.877c-2.781,1.791-5.5,3.59-7.285,6.44-.415.656.632,1.264,1.043.608Z" transform="translate(-290.525 -112.598)"/>
          </g>
          <g id="Grupo_1153601" data-name="Grupo 1153601" transform="translate(214.551 13.314)">
            <path id="Trazado_989934" data-name="Trazado 989934" d="M315.218,114.915a19.25,19.25,0,0,1,14.39,5.7,18.417,18.417,0,0,1,4.8,6.738,4.036,4.036,0,0,1-.02,3.51q-.4,2.276-1.324.02-1.624-1.117-.411-1.224c.906-.8,3.8-.6,4.967-.6a17.254,17.254,0,0,1,8.292,1.8c.777.435,1.473,1.59,2.149,1.852q.441,1.165,1.131-.1a1.385,1.385,0,0,1,1.537-.7c1.481-.254,3.156.415,4.585.809,5.273,1.461,10.534,3.184,14.619,6.98.568.527,1.425-.322.853-.853a28.653,28.653,0,0,0-10.6-5.921c-3.027-1.022-8.3-3.486-11.452-1.779-1.526.825-3.321,4.214-.805,5.1,2.548.9,2.145-2.677,1.364-3.912-1.912-3.027-6-3.993-9.314-4.351-2.773-.3-8.578-.6-10.365,2.165-1.373,2.125.648,4.222,2.886,3.884,2.966-.447,3.993-3.659,3.349-6.223-1.023-4.081-4.762-7.9-8.078-10.28a19.535,19.535,0,0,0-12.562-3.828c-.765.052-.769,1.26.008,1.216Z" transform="translate(-314.635 -113.67)"/>
          </g>
          <g id="Grupo_1153602" data-name="Grupo 1153602" transform="translate(206.588 104.305)">
            <path id="Trazado_989935" data-name="Trazado 989935" d="M330.134,170.233c-3.224-4.3-6.485-8.586-9.58-12.985a63.972,63.972,0,0,1-3.961-6.255c-1.26-2.314-3.3-5.683-2.632-8.421.576-2.367,3.035-3.675,5.1-4.552,1.61-.68,3.224-.906,4.569.455a6.568,6.568,0,0,1,1.538,4.307,3.512,3.512,0,0,1,.028.845c-.149.636.229.564-.64.6s-1.228-.821-1.425-1.618a3.724,3.724,0,0,1,1.711-4.041c2.653-1.558,5.873.576,8.284,1.666,4.094,1.856,9.052,2.419,12.941-.209.64-.435.036-1.481-.608-1.043-3.043,2.057-6.787,1.968-10.168.825-3-1.014-5.945-3.413-9.286-2.9a4.954,4.954,0,0,0-4.186,4.919c.028,1.485,1.6,5.184,3.683,3.977,1.783-1.03.8-4.931.2-6.328a4.846,4.846,0,0,0-6.291-2.878c-2.379.845-5.1,2.254-6.243,4.637-1.3,2.713.141,5.78,1.316,8.272,3.651,7.74,9.511,14.531,14.611,21.341.459.612,1.505.012,1.039-.612Z" transform="translate(-312.657 -136.276)"/>
          </g>
          <g id="Grupo_1153603" data-name="Grupo 1153603" transform="translate(50.753 89.517)">
            <path id="Trazado_989936" data-name="Trazado 989936" d="M277.325,159.29c-.616-2.475-2.717-4.939-2.053-7.587a4.956,4.956,0,0,1,2.427-3.152.934.934,0,0,1,1.368.326c.2.254.708,1.276.547,1.55-.475.141-.95.278-1.425.419-.1-.089-.193-.181-.286-.27a3.275,3.275,0,0,1-.725-.99c-1.485-2.677-.479-5.9.58-8.537a32.608,32.608,0,0,1,4.343-7.583c.471-.62-.576-1.22-1.042-.608-2.729,3.582-5.362,8.191-5.792,12.76a7.494,7.494,0,0,0,1.421,5.4c.89,1.115,2.532,2.186,3.655.741.958-1.232.254-3.466-.89-4.383-1.159-.93-2.862.294-3.707,1.131a6,6,0,0,0-1.763,4.967c.27,2.182,1.642,4.029,2.169,6.142a.608.608,0,0,0,1.171-.322Z" transform="translate(-273.941 -132.601)"/>
          </g>
          <g id="Grupo_1153604" data-name="Grupo 1153604" transform="translate(0 57.15)">
            <path id="Trazado_989937" data-name="Trazado 989937" d="M264.016,171.335a7.013,7.013,0,0,0,7.137-7.873c-.725-5.861-6.9-8.779-8.465-14.217a6.044,6.044,0,0,1,.555-5.035c1.087-1.683,4.2-2.713,5.462-.531q1.268,1.3-2.008.076a7.2,7.2,0,0,1,.29-1.006,16.5,16.5,0,0,1,.882-2.1,23.629,23.629,0,0,1,2.149-3.518c3.405-4.657,8.207-8.1,12.848-11.419.628-.447.024-1.5-.608-1.043-4.637,3.313-9.371,6.734-12.868,11.3-1.566,2.045-7.137,10.526-1.743,11.729,1.771.394,2.971-1.3,2.822-2.926a4.226,4.226,0,0,0-3.526-3.474c-5.241-.954-6.541,5.8-5.007,9.419,1.441,3.4,4.412,5.724,6.376,8.775,1.248,1.94,2.161,4.4,1.449,6.7a5.911,5.911,0,0,1-5.744,3.937.6.6,0,0,0,0,1.2Z" transform="translate(-261.332 -124.56)"/>
          </g>
        </g>
        <g id="Grupo_1157896" data-name="Grupo 1157896" transform="translate(249.881 174.858)">
          <path id="Trazado_991766" data-name="Trazado 991766" d="M170.494,120.886c1.334,1.39,4.651.29,6.283-.247a14.4,14.4,0,0,0,4.271-2.268c-1.662,7.451-1.633,9.233-1.236,9.34.737.2,3.039-5.3,3.231-5.759,1.023-2.443,1.526-3.679,1.189-4.459-1.351-3.142-12.264-1.662-13.206-1.53C169.855,117.863,169.535,119.888,170.494,120.886Z" transform="translate(-114.724 -73.155)" fill="#01010f"/>
          <path id="Trazado_991767" data-name="Trazado 991767" d="M171.044,122.375c-2,.149-3.572-2.758-4.344-4.19a12.162,12.162,0,0,1-1.373-4.357c-4.412,6.433-5.776,7.7-6.143,7.52-.682-.328,1.8-5.759,2-6.211,1.1-2.413,1.667-3.623,2.5-3.973,3.342-1.4,10.09,6.633,10.67,7.328C173.78,120.6,172.489,122.264,171.044,122.375Z" transform="translate(-150.169 -87.838)" fill="#01010f"/>
          <g id="Grupo_1157891" data-name="Grupo 1157891" transform="translate(57.223 14.387)">
            <path id="Trazado_991768" data-name="Trazado 991768" d="M171.478,127.319a11.665,11.665,0,0,0,9.958-6.4,10.3,10.3,0,0,0-.661-9.344,10.773,10.773,0,0,0-4.825,1.185c-3.875,2.05-5.934,6.616-5.486,11.671Z" transform="translate(-170.403 -100.34)" fill="#01010f"/>
            <path id="Trazado_991769" data-name="Trazado 991769" d="M175.759,122.147a38.368,38.368,0,0,0-1.189-6.582,14.96,14.96,0,0,1-.286-6.624,6.716,6.716,0,0,0-1.1,2.869c-.32-.085-.635-.166-.955-.252a3.316,3.316,0,0,1,.333,1.492c-.051-.145-.3-.149-.4-.034a.44.44,0,0,0-.055.435,3.094,3.094,0,0,1,.153.435.37.37,0,0,1-.158.4,2.385,2.385,0,0,0,.755,1.8c-.2-.055-.358.2-.3.392a3.333,3.333,0,0,0,.315.507c.09.179.051.448-.158.49a.818.818,0,0,1,.358.955,2.612,2.612,0,0,0-.153,1.074,3.428,3.428,0,0,0,.584.951,3.467,3.467,0,0,1,.32,2.016c.226-.107.456-.213.682-.324Z" transform="translate(-164.978 -108.941)" fill="#01010f"/>
          </g>
          <g id="Grupo_1157892" data-name="Grupo 1157892" transform="translate(20.602 3.828)">
            <path id="Trazado_991770" data-name="Trazado 991770" d="M164.9,125.484a10.1,10.1,0,0,1-2.357-10.968c1.948-4.689,6.906-6.143,7.511-6.313a9.208,9.208,0,0,1,2.587,3.934c1.245,3.952-.7,8.555-4.834,11.914Z" transform="translate(-161.812 -100.79)" fill="#01010f"/>
            <path id="Trazado_991771" data-name="Trazado 991771" d="M163.327,115.036a44.3,44.3,0,0,1,5.814-3.981,17.1,17.1,0,0,0,5.2-4.591,6.829,6.829,0,0,1-1.36,2.771c.29.145.584.286.878.431a4.014,4.014,0,0,0-1.364.861.243.243,0,0,1,.32.234.469.469,0,0,1-.286.35,4.635,4.635,0,0,0-.439.213.374.374,0,0,0-.188.392,2.814,2.814,0,0,1-1.9.814c.188.09.1.375-.081.477a4,4,0,0,1-.61.166c-.2.072-.371.29-.252.452a.961.961,0,0,0-.98.46,2.888,2.888,0,0,1-.695.87,3.973,3.973,0,0,1-1.138.311,3.992,3.992,0,0,0-1.748,1.249c-.081-.222-.166-.443-.247-.669Z" transform="translate(-156.868 -106.464)" fill="#01010f"/>
          </g>
          <path id="Trazado_991772" data-name="Trazado 991772" d="M172.074,114.087c-1.364,0-6.3.171-10.047,3.564-6.4,5.793-3.8,15.99-2.323,16.169.691.085,1.965-1.931,4.527-11.505q3.146-1.688,6.292-3.38Q171.3,116.51,172.074,114.087Z" transform="translate(-153.936 -77.764)" fill="#01010f"/>
          <path id="Trazado_991773" data-name="Trazado 991773" d="M162.337,117.855a32.57,32.57,0,0,0-1.535,5.755c-1.074,5.546-1.786,11.19-3.824,16.5a21.4,21.4,0,0,1,3.743-4.241,2.35,2.35,0,0,0,.7-.823.721.721,0,0,0-.3-.925c-.2-.09-.494-.132-.5-.333s.315-.26.546-.29a1.245,1.245,0,0,0,.976-.729,1.084,1.084,0,0,0-.226-1.138.775.775,0,0,0,.789-.362.651.651,0,0,0-.162-.8,1.519,1.519,0,0,0,1.151-1.13,1.41,1.41,0,0,0-.644-1.432l.763-.367a2.913,2.913,0,0,1-.789-1.019.951.951,0,0,1,.311-1.142c.392-.247,1.083-.251,1.134-.686.034-.307-.341-.58-.252-.878.068-.226.358-.315.541-.477a1.261,1.261,0,0,0,.2-1.211c-.158-.865-.32-1.731-.477-2.6a1.531,1.531,0,0,0-.345-.848.643.643,0,0,0-.878-.051l-.141-.627Z" transform="translate(-156.979 -65.47)" fill="#01010f"/>
          <path id="Trazado_991774" data-name="Trazado 991774" d="M174.678,117.339c.98.874,4.412,4.148,4.557,8.982.247,8.257-9.3,13.948-10.5,13.138-.563-.379.038-2.647,5.4-11.181q-1-3.229-1.991-6.454Q173.414,119.579,174.678,117.339Z" transform="translate(-119.176 -67.153)" fill="#01010f"/>
          <path id="Trazado_991775" data-name="Trazado 991775" d="M167.888,120.357a.9.9,0,0,0,.554,1.2,1.034,1.034,0,0,0,1.3-.512.9.9,0,0,0-.554-1.2A1.03,1.03,0,0,0,167.888,120.357Z" transform="translate(-121.625 -59.195)" fill="#01010f"/>
          <path id="Trazado_991776" data-name="Trazado 991776" d="M169.486,118.2a.952.952,0,0,0,.588,1.27,1.1,1.1,0,0,0,1.381-.541.952.952,0,0,0-.588-1.27A1.093,1.093,0,0,0,169.486,118.2Z" transform="translate(-116.423 -66.353)" fill="#01010f"/>
          <g id="Grupo_1157895" data-name="Grupo 1157895" transform="translate(11.528)">
            <path id="Trazado_991777" data-name="Trazado 991777" d="M182.515,121.02a6.682,6.682,0,0,0,1.552-4.851c-.665-4.6-7.967-8.491-13.274-6.369-3.939,1.577-5.077,5.789-5.247,6.454Z" transform="translate(-140.558 -93.691)" fill="#01010f"/>
            <path id="Trazado_991778" data-name="Trazado 991778" d="M162.146,127.8c-4.156,9.5-2.869,19.536,2.485,26.233a20.348,20.348,0,0,0,8.888,6.411,21.732,21.732,0,0,0,7.1,1.339c10.32.209,20.879-6.65,25.675-17.605,5.908-13.5.814-28.117-11.373-32.64S168.054,114.3,162.146,127.8Z" transform="translate(-159.683 -90.457)" fill="#e3bffe"/>
            <path id="Trazado_991779" data-name="Trazado 991779" d="M160.844,144.2a20.348,20.348,0,0,0,8.888,6.411,21.732,21.732,0,0,0,7.1,1.338c0-.179-.013-.371-.026-.563l9.293-38.173q-12.226,15.41-24.451,30.828C161.513,144.061,161.228,144.112,160.844,144.2Z" transform="translate(-155.896 -80.622)" fill="#01010f"/>
            <g id="Grupo_1157893" data-name="Grupo 1157893" transform="translate(30.848 3.648)">
              <path id="Trazado_991780" data-name="Trazado 991780" d="M168.106,120.417a.426.426,0,0,1-.426-.4l-.759-13.142a.427.427,0,1,1,.853-.051l.759,13.142a.431.431,0,0,1-.4.452Z" transform="translate(-166.92 -106.422)" fill="#01010f"/>
            </g>
            <path id="Trazado_991781" data-name="Trazado 991781" d="M166.273,107.552a3.1,3.1,0,0,0,1.91,4.131,3.557,3.557,0,0,0,4.489-1.756,3.1,3.1,0,0,0-1.91-4.131A3.557,3.557,0,0,0,166.273,107.552Z" transform="translate(-139.001 -105.566)" fill="#01010f"/>
            <g id="Grupo_1157894" data-name="Grupo 1157894" transform="translate(39.923 10.891)">
              <path id="Trazado_991782" data-name="Trazado 991782" d="M169.476,117.96a.428.428,0,0,1-.281-.75l10.444-8.986a.426.426,0,0,1,.559.644l-10.444,8.99A.421.421,0,0,1,169.476,117.96Z" transform="translate(-169.049 -108.121)" fill="#01010f"/>
            </g>
            <path id="Trazado_991783" data-name="Trazado 991783" d="M177.733,111.8a3.558,3.558,0,0,1-4.489,1.761,3.1,3.1,0,0,1-1.91-4.131,3.552,3.552,0,0,1,4.489-1.756A3.086,3.086,0,0,1,177.733,111.8Z" transform="translate(-122.485 -99.437)" fill="#01010f"/>
            <path id="Trazado_991784" data-name="Trazado 991784" d="M169.029,115.5a1.37,1.37,0,0,0,.848,1.829,1.573,1.573,0,0,0,1.987-.78,1.37,1.37,0,0,0-.848-1.829A1.579,1.579,0,0,0,169.029,115.5Z" transform="translate(-129.553 -76.027)" fill="#01010f"/>
            <path id="Trazado_991785" data-name="Trazado 991785" d="M167.861,118.167a1.5,1.5,0,0,0,.929,2.008,1.725,1.725,0,0,0,2.178-.853,1.5,1.5,0,0,0-.929-2.008A1.726,1.726,0,0,0,167.861,118.167Z" transform="translate(-133.398 -67.602)" fill="#01010f"/>
            <path id="Trazado_991786" data-name="Trazado 991786" d="M167.231,117.159a1.952,1.952,0,0,0,1.2,2.6,2.246,2.246,0,0,0,2.83-1.108,1.952,1.952,0,0,0-1.2-2.6A2.239,2.239,0,0,0,167.231,117.159Z" transform="translate(-135.572 -71.833)" fill="#01010f"/>
            <path id="Trazado_991787" data-name="Trazado 991787" d="M163.285,112.95a.474.474,0,0,0,.294.635.543.543,0,0,0,.686-.269.474.474,0,0,0-.294-.635A.537.537,0,0,0,163.285,112.95Z" transform="translate(-148.06 -82.471)" fill="#01010f"/>
            <path id="Trazado_991788" data-name="Trazado 991788" d="M163.873,114.594a.77.77,0,0,0,.473,1.027.887.887,0,0,0,1.117-.439.767.767,0,0,0-.473-1.027A.887.887,0,0,0,163.873,114.594Z" transform="translate(-146.214 -77.729)" fill="#01010f"/>
            <path id="Trazado_991789" data-name="Trazado 991789" d="M161.51,116.989a2.084,2.084,0,0,0,1.283,2.779,2.391,2.391,0,0,0,3.018-1.185,2.084,2.084,0,0,0-1.283-2.779A2.389,2.389,0,0,0,161.51,116.989Z" transform="translate(-154.273 -72.673)" fill="#01010f"/>
            <path id="Trazado_991790" data-name="Trazado 991790" d="M161.017,115.029a1.426,1.426,0,0,0,.878,1.9,1.629,1.629,0,0,0,2.063-.81,1.426,1.426,0,0,0-.878-1.9A1.638,1.638,0,0,0,161.017,115.029Z" transform="translate(-155.707 -77.674)" fill="#01010f"/>
            <path id="Trazado_991791" data-name="Trazado 991791" d="M166.358,120.179a2.218,2.218,0,0,0,1.368,2.963,2.55,2.55,0,0,0,3.218-1.262,2.223,2.223,0,0,0-1.373-2.967A2.541,2.541,0,0,0,166.358,120.179Z" transform="translate(-138.493 -62.56)" fill="#01010f"/>
            <path id="Trazado_991792" data-name="Trazado 991792" d="M165.347,112.781a1.107,1.107,0,0,0,.682,1.479,1.273,1.273,0,0,0,1.607-.631,1.107,1.107,0,0,0-.682-1.479A1.272,1.272,0,0,0,165.347,112.781Z" transform="translate(-141.498 -84.353)" fill="#01010f"/>
            <path id="Trazado_991793" data-name="Trazado 991793" d="M166.6,112.3a1.158,1.158,0,0,0,.716,1.547,1.335,1.335,0,0,0,1.684-.661,1.158,1.158,0,0,0-.716-1.547A1.338,1.338,0,0,0,166.6,112.3Z" transform="translate(-137.429 -86.038)" fill="#01010f"/>
            <path id="Trazado_991794" data-name="Trazado 991794" d="M165.086,111.814a1.534,1.534,0,0,0,.942,2.042,1.753,1.753,0,0,0,2.217-.87,1.53,1.53,0,0,0-.942-2.042A1.757,1.757,0,0,0,165.086,111.814Z" transform="translate(-142.456 -88.39)" fill="#01010f"/>
            <path id="Trazado_991795" data-name="Trazado 991795" d="M161.3,118.359a.685.685,0,0,0,.422.916.788.788,0,0,0,.993-.388.687.687,0,0,0-.422-.916A.788.788,0,0,0,161.3,118.359Z" transform="translate(-154.585 -65.258)" fill="#01010f"/>
          </g>
          <path id="Trazado_991796" data-name="Trazado 991796" d="M179.193,122.387a34.355,34.355,0,0,1-3.227,5.128c-3.4,4.681-7.14,9.2-9.668,14.331a19.548,19.548,0,0,0,.5-5.448,2.149,2.149,0,0,1,.111-1.04.823.823,0,0,1,.912-.473c.209.06.456.222.614.081s-.034-.388-.175-.558a1.084,1.084,0,0,1-.158-1.147,1.258,1.258,0,0,1,1.019-.678.662.662,0,0,1-.294-.763.745.745,0,0,1,.716-.469,1.368,1.368,0,0,1,.021-1.552,1.652,1.652,0,0,1,1.543-.622c-.09-.252-.183-.5-.273-.75a3.444,3.444,0,0,0,1.338-.23.992.992,0,0,0,.635-1.019c-.1-.426-.593-.87-.3-1.215.2-.243.682-.2.844-.473.124-.2-.021-.456-.03-.691-.017-.426.392-.75.763-1,.767-.52,1.53-1.044,2.3-1.564a1.833,1.833,0,0,1,.887-.392c.333-.017.7.217.669.524.192-.119.379-.243.571-.362Z" transform="translate(-126.573 -52.465)" fill="#01010f"/>
        </g>
        <g id="Grupo_1157901" data-name="Grupo 1157901" transform="matrix(0.616, -0.788, 0.788, 0.616, 284.688, 153.927)">
          <path id="Trazado_991797" data-name="Trazado 991797" d="M26.007,44.3C35.842,33.567,38.344,19.832,32.8,10.59,28.625,3.629,19.221-1.9,13.428.62c-3.568,1.552-2.95,4.936-9.6,21.889C.52,30.962-.435,32.16.171,34.867,1.957,42.855,14.084,49.5,22.422,46.419A12.13,12.13,0,0,0,26.007,44.3Z" transform="translate(8.29 0)" fill="#ecd4fe"/>
          <path id="Trazado_991798" data-name="Trazado 991798" d="M32.643,9.31c1.564,6.275-7.289,18.428-18.428,16.974C2.48,24.754-2.414,9.335,1.133,3.858,5.924-3.538,30.444.481,32.643,9.31Z" transform="translate(0 36.176)" fill="#15da7e"/>
          <path id="Trazado_991799" data-name="Trazado 991799" d="M2.292,11.465C12.25.842,25.754-2.7,35.4,2.113,42.661,5.74,48.9,14.688,46.83,20.656c-1.275,3.679-4.693,3.316-21.1,11.241-8.176,3.952-9.3,4.992-12.042,4.6C5.587,35.324-1.971,23.742.463,15.2A11.9,11.9,0,0,1,2.292,11.465Z" transform="translate(35.445 36.024)" fill="#ecd4fe"/>
          <path id="Trazado_991800" data-name="Trazado 991800" d="M15.819.082C9.437-1-2,8.761.3,19.75c2.43,11.578,18.181,15.274,23.373,11.318C30.683,25.731,24.792,1.6,15.819.082Z" transform="translate(20.866 49.142)" fill="#15da7e"/>
          <path id="Trazado_991801" data-name="Trazado 991801" d="M5.268,5.889c-3.738,4.037-6,8.023-5.051,8.9S4.966,13.11,8.7,9.073s6-8.023,5.051-8.9S9.011,1.852,5.268,5.889Z" transform="translate(20.001 48.16)" fill="#01010f"/>
          <path id="Trazado_991802" data-name="Trazado 991802" d="M1.2,11.1a7.139,7.139,0,0,0,3.773.324c4.668-.938,8.146-7.161,6.535-9.787C10.351-.242,6.42-.549,3.722.952A7.952,7.952,0,0,0,.256,9.869Z" transform="translate(31.227 39.525)" fill="#01010f"/>
          <path id="Trazado_991803" data-name="Trazado 991803" d="M.833.978c-.9.968-1.1,2.238-.456,2.835s1.9.3,2.792-.674S4.269.9,3.625.3,1.732.01.833.978Z" transform="translate(40.993 36.493)" fill="#01010f"/>
          <path id="Trazado_991804" data-name="Trazado 991804" d="M4.725.363C4.3.55,4.61.512,2.124,2.728.871,3.85.3,4.3.061,5.175A4.29,4.29,0,0,0,.172,7.145c.4,1.948.776,3.794,2.161,4.6.716.418.882.081,2.677.695,1.321.456,1.326.669,1.952.789,1.662.315,3.423-.865,4.369-1.969a5.81,5.81,0,0,0,1.3-4.45c-.017-.085-.021-.094-.281-.87-1.181-3.564-1.117-3.5-1.223-3.692C10.1.384,6.826-.571,4.725.363ZM4.584,5.009a2.686,2.686,0,0,1,3.751.256,2.683,2.683,0,0,1,.537,3.713A2.683,2.683,0,0,1,5.13,8.726,2.687,2.687,0,0,1,4.584,5.009Z" transform="translate(61.965 45.673)" fill="#5f3799"/>
          <path id="Trazado_991805" data-name="Trazado 991805" d="M4.725.361C4.3.548,4.61.51,2.124,2.727.871,3.848.3,4.3.061,5.173A4.288,4.288,0,0,0,.172,7.143c.4,1.948.776,3.794,2.161,4.6.716.418.882.081,2.677.695,1.321.456,1.326.669,1.952.789,1.662.315,3.423-.865,4.369-1.969a5.81,5.81,0,0,0,1.3-4.45c-.017-.085-.021-.094-.281-.87-1.181-3.564-1.117-3.5-1.223-3.692C10.1.382,6.83-.569,4.725.361ZM4.588,5.011a2.686,2.686,0,0,1,3.751.256A2.683,2.683,0,0,1,8.877,8.98a2.687,2.687,0,0,1-3.743-.252A2.687,2.687,0,0,1,4.588,5.011Z" transform="translate(20.233 6.811)" fill="#5f3799"/>
          <g id="Grupo_1157898" data-name="Grupo 1157898" transform="translate(42.873 16.341)">
            <g id="Grupo_1157897" data-name="Grupo 1157897" transform="translate(0 2.417)">
              <path id="Trazado_991806" data-name="Trazado 991806" d="M.428,18.632A.426.426,0,0,1,.1,17.937C1.178,16.59,6.472,9.429,4.3.528a.428.428,0,0,1,.831-.2C7.4,9.616,1.89,17.067.764,18.47A.44.44,0,0,1,.428,18.632Z" transform="translate(0 0)" fill="#01010f"/>
            </g>
            <path id="Trazado_991807" data-name="Trazado 991807" d="M.268.046C-.145.264-.073,1.21.43,2.161S1.675,3.7,2.089,3.482s.341-1.164-.162-2.114S.682-.175.268.046Z" transform="translate(2.875 0)" fill="#01010f"/>
          </g>
          <g id="Grupo_1157900" data-name="Grupo 1157900" transform="translate(44.135 31.831)">
            <g id="Grupo_1157899" data-name="Grupo 1157899" transform="translate(0 0)">
              <path id="Trazado_991808" data-name="Trazado 991808" d="M.428,6.727A.44.44,0,0,1,.116,6.6a.425.425,0,0,1,.017-.6C1.442,4.762,8.459-1.3,17.9.252a.426.426,0,0,1,.354.49.431.431,0,0,1-.49.354C8.714-.391,1.975,5.436.717,6.617A.44.44,0,0,1,.428,6.727Z" fill="#01010f"/>
            </g>
            <path id="Trazado_991809" data-name="Trazado 991809" d="M3.595,1.875c-.188.431-1.134.431-2.119,0S-.152.753.031.323s1.134-.431,2.119,0S3.778,1.444,3.595,1.875Z" transform="translate(17.149 0.143)" fill="#01010f"/>
          </g>
        </g>
        <g id="Grupo_1157856" data-name="Grupo 1157856" transform="translate(330.106 90.917) rotate(115)">
          <path id="Trazado_991693" data-name="Trazado 991693" d="M25.522,18.427l.333-.972a.9.9,0,0,0-.418-.929L1.134.136C.806-.086.457-.03.359.259l-.332.972a.9.9,0,0,0,.418.929l24.3,16.39C25.07,18.773,25.419,18.717,25.522,18.427Z" transform="translate(18.337 16.05)" fill="#01010f"/>
          <path id="Trazado_991694" data-name="Trazado 991694" d="M7.506,20.687c5.618,3.79,11.573,2.732,13.3-2.353s-1.4-12.273-7.025-16.062S2.212-.461.477,4.625,1.892,16.9,7.506,20.687ZM8.32,18.3c-4.156-2.8-6.488-8.133-5.2-11.9s5.7-4.544,9.856-1.743,6.5,8.138,5.209,11.9S12.476,21.1,8.32,18.3Z" transform="translate(0 0)" fill="#01010f"/>
        </g>
        <g id="Grupo_1158108" data-name="Grupo 1158108" transform="translate(13.636 259.032) rotate(-69)">
          <path id="Trazado_991766-2" data-name="Trazado 991766" d="M.284,2.713c.672.7,2.342.146,3.165-.125A7.252,7.252,0,0,0,5.6,1.446C4.763,5.2,4.778,6.1,4.978,6.15c.371.1,1.531-2.669,1.627-2.9C7.12,2.019,7.374,1.4,7.2,1,6.523-.579,1.027.166.553.233-.038,1.191-.2,2.21.284,2.713Z" transform="translate(27.805 21.327)" fill="#01010f"/>
          <path id="Trazado_991767-2" data-name="Trazado 991767" d="M6.033,5.729C5.023,5.8,4.233,4.34,3.845,3.619a6.125,6.125,0,0,1-.691-2.194C.931,4.664.244,5.3.06,5.212c-.344-.165.906-2.9,1.009-3.128.554-1.215.84-1.825,1.258-2C4.01-.624,7.409,3.423,7.7,3.773,7.411,4.836,6.76,5.673,6.033,5.729Z" transform="translate(4.481 11.666)" fill="#01010f"/>
          <g id="Grupo_1157891-2" data-name="Grupo 1157891" transform="translate(28.821 7.246)">
            <path id="Trazado_991768-2" data-name="Trazado 991768" d="M.541,7.929A5.875,5.875,0,0,0,5.557,4.706,5.186,5.186,0,0,0,5.224,0a5.426,5.426,0,0,0-2.43.6A5.858,5.858,0,0,0,.03,6.475Z" transform="translate(0 5.66)" fill="#01010f"/>
            <path id="Trazado_991769-2" data-name="Trazado 991769" d="M1.86,6.651a19.326,19.326,0,0,0-.6-3.315A7.535,7.535,0,0,1,1.117,0,3.383,3.383,0,0,0,.561,1.445L.08,1.318a1.67,1.67,0,0,1,.167.751C.222,2,.1,1.995.044,2.053a.221.221,0,0,0-.028.219,1.556,1.556,0,0,1,.077.219.186.186,0,0,1-.079.2,1.2,1.2,0,0,0,.38.906c-.1-.028-.18.1-.152.2A1.68,1.68,0,0,0,.4,4.051c.045.09.026.225-.079.247a.412.412,0,0,1,.18.481,1.316,1.316,0,0,0-.077.541A1.727,1.727,0,0,0,.718,5.8,1.746,1.746,0,0,1,.879,6.815c.114-.054.23-.107.344-.163Z" transform="translate(3.57 0)" fill="#01010f"/>
          </g>
          <g id="Grupo_1157892-2" data-name="Grupo 1157892" transform="translate(10.376 1.928)">
            <path id="Trazado_991770-2" data-name="Trazado 991770" d="M1.555,8.7A5.089,5.089,0,0,1,.367,3.18,5.956,5.956,0,0,1,4.15,0a4.638,4.638,0,0,1,1.3,1.982c.627,1.99-.354,4.309-2.435,6Z" transform="translate(0 3.734)" fill="#01010f"/>
            <path id="Trazado_991771-2" data-name="Trazado 991771" d="M0,4.318A22.312,22.312,0,0,1,2.928,2.312,8.614,8.614,0,0,0,5.546,0a3.439,3.439,0,0,1-.685,1.4c.146.073.294.144.442.217a2.022,2.022,0,0,0-.687.434.122.122,0,0,1,.161.118.236.236,0,0,1-.144.176,2.337,2.337,0,0,0-.221.107.188.188,0,0,0-.094.2,1.417,1.417,0,0,1-.958.41c.094.045.051.189-.041.24a2.017,2.017,0,0,1-.307.084c-.1.037-.187.146-.127.228a.484.484,0,0,0-.494.232,1.454,1.454,0,0,1-.35.438,2,2,0,0,1-.573.157,2.011,2.011,0,0,0-.88.629C.547,4.951.5,4.839.464,4.726Z" transform="translate(3.253 0)" fill="#01010f"/>
          </g>
          <path id="Trazado_991772-2" data-name="Trazado 991772" d="M7.133,0a7.762,7.762,0,0,0-5.06,1.795C-1.15,4.713.16,9.848.9,9.938c.348.043.99-.973,2.28-5.795l3.169-1.7Q6.744,1.221,7.133,0Z" transform="translate(2.002 18.295)" fill="#01010f"/>
          <path id="Trazado_991773-2" data-name="Trazado 991773" d="M2.7,0a16.4,16.4,0,0,0-.773,2.9A48.678,48.678,0,0,1,0,11.21,10.775,10.775,0,0,1,1.885,9.073a1.184,1.184,0,0,0,.354-.414.363.363,0,0,0-.15-.466c-.1-.045-.249-.067-.253-.167s.159-.131.275-.146A.627.627,0,0,0,2.6,7.512a.546.546,0,0,0-.114-.573.39.39,0,0,0,.4-.182.328.328,0,0,0-.082-.4.765.765,0,0,0,.58-.569.71.71,0,0,0-.324-.721l.384-.185a1.468,1.468,0,0,1-.4-.513A.479.479,0,0,1,3.2,3.792c.2-.125.545-.127.571-.346C3.792,3.291,3.6,3.154,3.648,3c.034-.114.18-.159.273-.24a.635.635,0,0,0,.1-.61c-.079-.436-.161-.872-.24-1.308A.771.771,0,0,0,3.609.419.324.324,0,0,0,3.167.393L3.1.077Z" transform="translate(0 26.385)" fill="#01010f"/>
          <path id="Trazado_991774-2" data-name="Trazado 991774" d="M3.079,0a6.609,6.609,0,0,1,2.3,4.524C5.5,8.683.689,11.549.086,11.141-.2,10.95.105,9.808,2.8,5.509q-.5-1.626-1-3.251Q2.442,1.128,3.079,0Z" transform="translate(24.875 25.277)" fill="#01010f"/>
          <path id="Trazado_991775-2" data-name="Trazado 991775" d="M.037.292A.451.451,0,0,0,.316.9.521.521,0,0,0,.973.637a.452.452,0,0,0-.279-.6A.519.519,0,0,0,.037.292Z" transform="translate(23.264 30.514)" fill="#01010f"/>
          <path id="Trazado_991776-2" data-name="Trazado 991776" d="M.039.308a.479.479,0,0,0,.3.64.552.552,0,0,0,.7-.273.479.479,0,0,0-.3-.64A.551.551,0,0,0,.039.308Z" transform="translate(26.687 25.804)" fill="#01010f"/>
          <g id="Grupo_1157895-2" data-name="Grupo 1157895" transform="translate(5.806 0)">
            <path id="Trazado_991777-2" data-name="Trazado 991777" d="M8.547,5.95a3.365,3.365,0,0,0,.782-2.443C8.994,1.193,5.316-.77,2.643.3A4.821,4.821,0,0,0,0,3.55Z" transform="translate(12.585 7.814)" fill="#01010f"/>
            <path id="Trazado_991778-2" data-name="Trazado 991778" d="M1.24,8.866C-.853,13.649-.2,18.705,2.492,22.078a10.248,10.248,0,0,0,4.477,3.229,10.946,10.946,0,0,0,3.575.674c5.2.105,10.516-3.349,12.931-8.867,2.976-6.8.41-14.162-5.728-16.44S4.216,2.066,1.24,8.866Z" transform="translate(0 9.942)" fill="#e3bffe"/>
            <path id="Trazado_991779-2" data-name="Trazado 991779" d="M0,15.607a10.249,10.249,0,0,0,4.477,3.229,10.946,10.946,0,0,0,3.575.674c0-.09-.006-.187-.013-.283L12.719,0Q6.561,7.761.4,15.527C.337,15.538.193,15.564,0,15.607Z" transform="translate(2.492 16.414)" fill="#01010f"/>
            <g id="Grupo_1157893-2" data-name="Grupo 1157893" transform="translate(15.537 1.837)">
              <path id="Trazado_991780-2" data-name="Trazado 991780" d="M.6,7.049a.214.214,0,0,1-.215-.2L0,.228A.217.217,0,0,1,.2,0,.218.218,0,0,1,.43.2L.812,6.821a.217.217,0,0,1-.2.228Z" transform="translate(0 0)" fill="#01010f"/>
            </g>
            <path id="Trazado_991781-2" data-name="Trazado 991781" d="M.126,1a1.559,1.559,0,0,0,.962,2.08A1.792,1.792,0,0,0,3.349,2.2,1.559,1.559,0,0,0,2.387.116,1.792,1.792,0,0,0,.126,1Z" transform="translate(13.61 0)" fill="#01010f"/>
            <g id="Grupo_1157894-2" data-name="Grupo 1157894" transform="translate(20.108 5.485)">
              <path id="Trazado_991782-2" data-name="Trazado 991782" d="M.215,4.956a.216.216,0,0,1-.142-.378L5.333.052a.216.216,0,0,1,.3.021.216.216,0,0,1-.021.3L.355,4.9A.212.212,0,0,1,.215,4.956Z" transform="translate(0 0)" fill="#01010f"/>
            </g>
            <path id="Trazado_991783-2" data-name="Trazado 991783" d="M3.349,2.2a1.792,1.792,0,0,1-2.261.887A1.56,1.56,0,0,1,.126,1,1.789,1.789,0,0,1,2.387.117,1.554,1.554,0,0,1,3.349,2.2Z" transform="translate(24.478 4.033)" fill="#01010f"/>
            <path id="Trazado_991784-2" data-name="Trazado 991784" d="M.056.443a.69.69,0,0,0,.427.921.792.792,0,0,0,1-.393A.69.69,0,0,0,1.056.05.8.8,0,0,0,.056.443Z" transform="translate(19.827 19.438)" fill="#01010f"/>
            <path id="Trazado_991785-2" data-name="Trazado 991785" d="M.061.486A.758.758,0,0,0,.529,1.5a.869.869,0,0,0,1.1-.429A.758.758,0,0,0,1.158.057.869.869,0,0,0,.061.486Z" transform="translate(17.297 24.982)" fill="#01010f"/>
            <path id="Trazado_991786-2" data-name="Trazado 991786" d="M.079.632A.983.983,0,0,0,.685,1.944a1.131,1.131,0,0,0,1.426-.558A.983.983,0,0,0,1.505.074,1.128,1.128,0,0,0,.079.632Z" transform="translate(15.866 22.197)" fill="#01010f"/>
            <path id="Trazado_991787-2" data-name="Trazado 991787" d="M.02.154a.239.239,0,0,0,.148.32A.273.273,0,0,0,.514.338.239.239,0,0,0,.365.018.27.27,0,0,0,.02.154Z" transform="translate(7.649 15.197)" fill="#01010f"/>
            <path id="Trazado_991788-2" data-name="Trazado 991788" d="M.031.25A.388.388,0,0,0,.269.767.447.447,0,0,0,.832.546.386.386,0,0,0,.594.029.447.447,0,0,0,.031.25Z" transform="translate(8.863 18.318)" fill="#01010f"/>
            <path id="Trazado_991789-2" data-name="Trazado 991789" d="M.085.676a1.05,1.05,0,0,0,.646,1.4,1.2,1.2,0,0,0,1.52-.6A1.05,1.05,0,0,0,1.6.079,1.2,1.2,0,0,0,.085.676Z" transform="translate(3.56 21.645)" fill="#01010f"/>
            <path id="Trazado_991790-2" data-name="Trazado 991790" d="M.058.461A.718.718,0,0,0,.5,1.418.821.821,0,0,0,1.54,1.01.718.718,0,0,0,1.1.053.825.825,0,0,0,.058.461Z" transform="translate(2.616 18.354)" fill="#01010f"/>
            <path id="Trazado_991791-2" data-name="Trazado 991791" d="M.091.721A1.117,1.117,0,0,0,.78,2.214,1.284,1.284,0,0,0,2.4,1.578,1.12,1.12,0,0,0,1.71.084,1.28,1.28,0,0,0,.091.721Z" transform="translate(13.944 28.3)" fill="#01010f"/>
            <path id="Trazado_991792-2" data-name="Trazado 991792" d="M.045.359A.558.558,0,0,0,.389,1.1.641.641,0,0,0,1.2.787.558.558,0,0,0,.855.042.641.641,0,0,0,.045.359Z" transform="translate(11.966 13.959)" fill="#01010f"/>
            <path id="Trazado_991793-2" data-name="Trazado 991793" d="M.048.376a.583.583,0,0,0,.361.779A.673.673,0,0,0,1.256.822.583.583,0,0,0,.9.043.674.674,0,0,0,.048.376Z" transform="translate(14.644 12.85)" fill="#01010f"/>
            <path id="Trazado_991794-2" data-name="Trazado 991794" d="M.062.5A.773.773,0,0,0,.536,1.524a.883.883,0,0,0,1.116-.438A.77.77,0,0,0,1.178.057.885.885,0,0,0,.062.5Z" transform="translate(11.336 11.303)" fill="#01010f"/>
            <path id="Trazado_991795-2" data-name="Trazado 991795" d="M.028.221A.345.345,0,0,0,.241.683a.4.4,0,0,0,.5-.2A.346.346,0,0,0,.528.026.4.4,0,0,0,.028.221Z" transform="translate(3.355 26.524)" fill="#01010f"/>
          </g>
          <path id="Trazado_991796-2" data-name="Trazado 991796" d="M6.495.275A17.306,17.306,0,0,1,4.869,2.858,51.565,51.565,0,0,0,0,10.076,9.845,9.845,0,0,0,.251,7.332a1.082,1.082,0,0,1,.056-.524A.414.414,0,0,1,.767,6.57c.105.03.23.112.309.041s-.017-.2-.088-.281a.546.546,0,0,1-.079-.578.634.634,0,0,1,.513-.341.333.333,0,0,1-.148-.384.375.375,0,0,1,.361-.236.689.689,0,0,1,.011-.782A.832.832,0,0,1,2.422,3.7c-.045-.127-.092-.251-.137-.378A1.735,1.735,0,0,0,2.959,3.2a.5.5,0,0,0,.32-.513c-.049-.215-.3-.438-.15-.612.1-.122.344-.1.425-.238.062-.1-.011-.23-.015-.348-.009-.215.2-.378.384-.5C4.309.724,4.693.46,5.08.2A.923.923,0,0,1,5.526,0c.167-.009.354.11.337.264.1-.06.191-.122.288-.182Z" transform="translate(20.008 34.942)" fill="#01010f"/>
        </g>
      </g>
    </g>
  </g>
</svg>
