<svg xmlns="http://www.w3.org/2000/svg" xmlns:xlink="http://www.w3.org/1999/xlink" width="108" height="108" viewBox="0 0 108 108">
  <defs>
    <filter id="Trazado_982548" x="0" y="0" width="108" height="108" filterUnits="userSpaceOnUse">
      <feOffset dy="3" input="SourceAlpha"/>
      <feGaussianBlur stdDeviation="3" result="blur"/>
      <feFlood flood-opacity="0.161"/>
      <feComposite operator="in" in2="blur"/>
      <feComposite in="SourceGraphic"/>
    </filter>
  </defs>
  <g id="Grupo_1158247" data-name="Grupo 1158247" transform="translate(-620 -3034)">
    <g id="Grupo_1153335" data-name="Grupo 1153335" transform="translate(629 3040)">
      <g id="Grupo_1149263" data-name="Grupo 1149263" transform="translate(0)">
        <g transform="matrix(1, 0, 0, 1, -9, -6)" filter="url(#Trazado_982548)">
          <g id="Trazado_982548-2" data-name="Trazado 982548" transform="translate(9 6)" fill="#f6f9fc">
            <path d="M 45 88.5 C 39.12687683105469 88.5 33.43022537231445 87.35007476806641 28.06830024719238 85.08217620849609 C 22.88852500915527 82.89131164550781 18.23629951477051 79.75458526611328 14.2408504486084 75.75914764404297 C 10.24541282653809 71.76370239257812 7.108687400817871 67.11147308349609 4.917825222015381 61.93170166015625 C 2.649924993515015 56.56977462768555 1.5 50.87312316894531 1.5 45 C 1.5 39.12687683105469 2.649924993515015 33.43022537231445 4.917825222015381 28.06830024719238 C 7.108687400817871 22.88852500915527 10.24541282653809 18.23629951477051 14.2408504486084 14.2408504486084 C 18.23629951477051 10.24541282653809 22.88852500915527 7.108687400817871 28.06830024719238 4.917825222015381 C 33.43022537231445 2.649924993515015 39.12687683105469 1.5 45 1.5 C 50.87312316894531 1.5 56.56977462768555 2.649924993515015 61.93170166015625 4.917825222015381 C 67.11147308349609 7.108687400817871 71.76370239257812 10.24541282653809 75.75914764404297 14.2408504486084 C 79.75458526611328 18.23629951477051 82.89131164550781 22.88852500915527 85.08217620849609 28.06830024719238 C 87.35007476806641 33.43022537231445 88.5 39.12687683105469 88.5 45 C 88.5 50.87312316894531 87.35007476806641 56.56977462768555 85.08217620849609 61.93170166015625 C 82.89131164550781 67.11147308349609 79.75458526611328 71.76370239257812 75.75914764404297 75.75914764404297 C 71.76370239257812 79.75458526611328 67.11147308349609 82.89131164550781 61.93170166015625 85.08217620849609 C 56.56977462768555 87.35007476806641 50.87312316894531 88.5 45 88.5 Z" stroke="none"/>
            <path d="M 45 3 C 39.32871246337891 3 33.82865524291992 4.110054016113281 28.65262985229492 6.299339294433594 C 23.65165710449219 8.414573669433594 19.15968322753906 11.44334411621094 15.301513671875 15.301513671875 C 11.44334411621094 19.15968322753906 8.414573669433594 23.65165710449219 6.299339294433594 28.65262985229492 C 4.110054016113281 33.82865524291992 3 39.32871246337891 3 45 C 3 50.67128753662109 4.110054016113281 56.17134475708008 6.299339294433594 61.34737396240234 C 8.414573669433594 66.34834289550781 11.44334411621094 70.84031677246094 15.301513671875 74.698486328125 C 19.15968322753906 78.55665588378906 23.65165710449219 81.58542633056641 28.65262985229492 83.70066070556641 C 33.82865524291992 85.88994598388672 39.32871246337891 87 45 87 C 50.67128753662109 87 56.17134475708008 85.88994598388672 61.34737396240234 83.70066070556641 C 66.34834289550781 81.58542633056641 70.84031677246094 78.55665588378906 74.698486328125 74.698486328125 C 78.55665588378906 70.84031677246094 81.58542633056641 66.34834289550781 83.70066070556641 61.34737396240234 C 85.88994598388672 56.17134475708008 87 50.67128753662109 87 45 C 87 39.32871246337891 85.88994598388672 33.82865524291992 83.70066070556641 28.65262985229492 C 81.58542633056641 23.65165710449219 78.55665588378906 19.15968322753906 74.698486328125 15.301513671875 C 70.84031677246094 11.44334411621094 66.34834289550781 8.414573669433594 61.34737396240234 6.299339294433594 C 56.17134475708008 4.110054016113281 50.67128753662109 3 45 3 M 45 0 C 69.85281372070312 0 90 20.14718627929688 90 45 C 90 69.85281372070312 69.85281372070312 90 45 90 C 20.14718627929688 90 0 69.85281372070312 0 45 C 0 20.14718627929688 20.14718627929688 0 45 0 Z" stroke="none" fill="#a530fe"/>
          </g>
        </g>
      </g>
    </g>
    <g id="tecnologia_3_" data-name="tecnologia (3)" transform="translate(646 3057)">
      <g id="Grupo_1158245" data-name="Grupo 1158245" transform="translate(0.894 0.894)">
        <g id="Grupo_1158234" data-name="Grupo 1158234" transform="translate(36.641)">
          <path id="Trazado_992515" data-name="Trazado 992515" d="M50.937,1V8.149H42V1Z" transform="translate(-42 -1)" fill="#f0d0b4"/>
        </g>
        <g id="Grupo_1158235" data-name="Grupo 1158235" transform="translate(8.043)">
          <path id="Trazado_992516" data-name="Trazado 992516" d="M18.937,1V8.149H10V1Z" transform="translate(-10 -1)" fill="#f0d0b4"/>
        </g>
        <g id="Grupo_1158236" data-name="Grupo 1158236" transform="translate(22.342)">
          <path id="Trazado_992517" data-name="Trazado 992517" d="M34.937,1V8.149H26V1Z" transform="translate(-26 -1)" fill="#f0d0b4"/>
        </g>
        <g id="Grupo_1158237" data-name="Grupo 1158237" transform="translate(3.575 12.511)">
          <path id="Trazado_992518" data-name="Trazado 992518" d="M51.471,48.96H5V18.575A3.575,3.575,0,0,1,8.575,15H47.9a3.575,3.575,0,0,1,3.575,3.575Z" transform="translate(-5 -15)" fill="#ccd1d9"/>
        </g>
        <g id="Grupo_1158238" data-name="Grupo 1158238" transform="translate(7.149 16.086)">
          <path id="Trazado_992519" data-name="Trazado 992519" d="M47.428,45.81H9.894A.894.894,0,0,1,9,44.917V19.894A.894.894,0,0,1,9.894,19H47.428a.894.894,0,0,1,.894.894V44.917A.894.894,0,0,1,47.428,45.81Z" transform="translate(-9 -19)" fill="#69d6f4"/>
        </g>
        <g id="Grupo_1158239" data-name="Grupo 1158239" transform="translate(0 46.471)">
          <path id="Trazado_992520" data-name="Trazado 992520" d="M52.833,53H2.787a1.747,1.747,0,0,0-1.26.527A1.747,1.747,0,0,0,1,54.787a5.366,5.366,0,0,0,5.362,5.362h42.9a5.37,5.37,0,0,0,5.362-5.362A1.793,1.793,0,0,0,52.833,53Z" transform="translate(-1 -53)" fill="#969faa"/>
        </g>
        <g id="Grupo_1158240" data-name="Grupo 1158240" transform="translate(44.684 50.046)">
          <path id="Trazado_992521" data-name="Trazado 992521" d="M51,57h3.575v3.575H51Z" transform="translate(-51 -57)" fill="#ff826e"/>
        </g>
        <g id="Grupo_1158241" data-name="Grupo 1158241" transform="translate(37.534 50.046)">
          <path id="Trazado_992522" data-name="Trazado 992522" d="M43,57h3.575v3.575H43Z" transform="translate(-43 -57)" fill="#ff826e"/>
        </g>
        <g id="Grupo_1158242" data-name="Grupo 1158242" transform="translate(20.555 46.471)">
          <path id="Trazado_992523" data-name="Trazado 992523" d="M36.511,53v1.787a1.793,1.793,0,0,1-1.787,1.787H25.787A1.793,1.793,0,0,1,24,54.787V53Z" transform="translate(-24 -53)" fill="#ff826e"/>
        </g>
        <g id="Grupo_1158243" data-name="Grupo 1158243" transform="translate(12.511 25.917)">
          <path id="Trazado_992524" data-name="Trazado 992524" d="M43.6,41.618V46.98H37.833v-.027A8.937,8.937,0,1,0,20.362,44.3a8.855,8.855,0,0,0,.411,2.681H15V41.618l2.27-.724a12.984,12.984,0,0,1,1.108-2.7l-1.09-2.109,3.8-3.8,2.109,1.09a12.984,12.984,0,0,1,2.7-1.108L26.618,30H31.98l.724,2.27a12.984,12.984,0,0,1,2.7,1.108l2.109-1.09,3.8,3.8L40.22,38.2a12.984,12.984,0,0,1,1.108,2.7Z" transform="translate(-15 -30)" fill="#ffc729"/>
        </g>
        <g id="Grupo_1158244" data-name="Grupo 1158244" transform="translate(17.874 31.279)">
          <path id="Trazado_992525" data-name="Trazado 992525" d="M38.874,44.937a8.958,8.958,0,0,1-.4,2.654v.027H32.3a3.529,3.529,0,0,0,1.215-2.681,3.575,3.575,0,0,0-7.149,0,3.529,3.529,0,0,0,1.215,2.681H21.411a8.937,8.937,0,1,1,17.462-2.681Z" transform="translate(-21 -36)" fill="#fcd770"/>
        </g>
      </g>
      <g id="Grupo_1158246" data-name="Grupo 1158246">
        <path id="Trazado_992526" data-name="Trazado 992526" d="M52.727,47.96h-.894V18.468A4.473,4.473,0,0,0,47.365,14H44.684v1.787h2.681a2.684,2.684,0,0,1,2.681,2.681V47.96H5.362V18.468a2.684,2.684,0,0,1,2.681-2.681h2.681V14H8.043a4.473,4.473,0,0,0-4.468,4.468V47.96H2.681A2.684,2.684,0,0,0,0,50.641,6.264,6.264,0,0,0,6.256,56.9h42.9a6.264,6.264,0,0,0,6.256-6.256A2.684,2.684,0,0,0,52.727,47.96ZM22.342,49.747H33.066v.894a.894.894,0,0,1-.894.894H23.236a.894.894,0,0,1-.894-.894Zm18.767,5.362H39.322V53.322h1.787Zm7.149,0H46.471V53.322h1.787Zm1.787-.09V51.534H44.684v3.575H42.9V51.534H37.534v3.575H6.256a4.473,4.473,0,0,1-4.468-4.468.894.894,0,0,1,.894-.894H20.555v.894a2.684,2.684,0,0,0,2.681,2.681h8.937a2.684,2.684,0,0,0,2.681-2.681v-.894H52.727a.894.894,0,0,1,.894.894,4.477,4.477,0,0,1-3.575,4.378Z" transform="translate(0 -1.489)"/>
        <path id="Trazado_992527" data-name="Trazado 992527" d="M20.511,19.787V18H9.787A1.789,1.789,0,0,0,8,19.787V44.81A1.789,1.789,0,0,0,9.787,46.6H47.322a1.789,1.789,0,0,0,1.787-1.787V19.787A1.789,1.789,0,0,0,47.322,18H36.6v1.787H47.322V44.81H43.747V39.69L41.3,38.908a13.459,13.459,0,0,0-.821-1.992l1.173-2.278-4.713-4.713L34.664,31.1a13.5,13.5,0,0,0-1.992-.821l-.785-2.445H25.221l-.783,2.443a13.459,13.459,0,0,0-1.992.821l-2.278-1.173-4.713,4.713,1.173,2.278a13.5,13.5,0,0,0-.821,1.992l-2.444.785v5.12H9.787V19.787Zm0,23.236A8.044,8.044,0,1,1,36.375,44.81H32.647a4.468,4.468,0,1,0-8.184,0H20.735A8.049,8.049,0,0,1,20.511,43.023Zm5.362,0a2.681,2.681,0,1,1,4.658,1.787H26.577a2.672,2.672,0,0,1-.7-1.787Zm-10.724-2.03,2.106-.674.13-.462a11.519,11.519,0,0,1,1.03-2.5l.234-.419-1.01-1.961,2.87-2.87,1.961,1.01.419-.234a11.519,11.519,0,0,1,2.5-1.03l.462-.13.673-2.1h4.058l.674,2.106.462.13a11.519,11.519,0,0,1,2.5,1.03l.419.234,1.961-1.01,2.87,2.87-1.01,1.961.234.419a11.519,11.519,0,0,1,1.03,2.5l.13.462,2.106.673V44.81H38.216a9.83,9.83,0,1,0-19.323,0H15.149Z" transform="translate(-0.851 -1.914)"/>
        <path id="Trazado_992528" data-name="Trazado 992528" d="M13,4h3.575V5.787H13Z" transform="translate(-1.382 -0.425)"/>
        <path id="Trazado_992529" data-name="Trazado 992529" d="M29,4h3.575V5.787H29Z" transform="translate(-3.083 -0.425)"/>
        <path id="Trazado_992530" data-name="Trazado 992530" d="M45,4h3.575V5.787H45Z" transform="translate(-4.785 -0.425)"/>
        <path id="Trazado_992531" data-name="Trazado 992531" d="M29.468,24.129h1.787V8.937h4.468V0H25V8.937h4.468ZM26.787,1.787h7.149V7.149H26.787Z" transform="translate(-2.658)"/>
        <path id="Trazado_992532" data-name="Trazado 992532" d="M44.937,12.511H36V24.129h1.787V14.3h8.937V8.937h4.468V0H40.468V8.937h4.468ZM42.256,1.787h7.149V7.149H42.256Z" transform="translate(-3.828)"/>
        <path id="Trazado_992533" data-name="Trazado 992533" d="M13.468,14.3h8.937v9.83h1.787V12.511H15.256V8.937h4.468V0H9V8.937h4.468ZM10.787,1.787h7.149V7.149H10.787Z" transform="translate(-0.957)"/>
      </g>
    </g>
  </g>
</svg>
