<svg xmlns="http://www.w3.org/2000/svg" xmlns:xlink="http://www.w3.org/1999/xlink" width="108" height="108" viewBox="0 0 108 108">
  <defs>
    <filter id="Trazado_982547" x="0" y="0" width="108" height="108" filterUnits="userSpaceOnUse">
      <feOffset dy="3" input="SourceAlpha"/>
      <feGaussianBlur stdDeviation="3" result="blur"/>
      <feFlood flood-opacity="0.161"/>
      <feComposite operator="in" in2="blur"/>
      <feComposite in="SourceGraphic"/>
    </filter>
  </defs>
  <g id="Grupo_1158113" data-name="Grupo 1158113" transform="translate(-204 -11585)">
    <g id="Grupo_1153311" data-name="Grupo 1153311" transform="translate(12 1399)">
      <g id="Grupo_1149261" data-name="Grupo 1149261" transform="translate(-83 6759)">
        <g id="Grupo_1147065" data-name="Grupo 1147065" transform="translate(-341 -556)">
          <g transform="matrix(1, 0, 0, 1, 616, 3983)" filter="url(#Trazado_982547)">
            <g id="Trazado_982547-2" data-name="Trazado 982547" transform="translate(9 6)" fill="#f5e9fe">
              <path d="M 45 88.5 C 39.12687683105469 88.5 33.43022537231445 87.35007476806641 28.06830024719238 85.08217620849609 C 22.88852500915527 82.89131164550781 18.23629951477051 79.75458526611328 14.2408504486084 75.75914764404297 C 10.24541282653809 71.76370239257812 7.108687400817871 67.11147308349609 4.917825222015381 61.93170166015625 C 2.649924993515015 56.56977462768555 1.5 50.87312316894531 1.5 45 C 1.5 39.12687683105469 2.649924993515015 33.43022537231445 4.917825222015381 28.06830024719238 C 7.108687400817871 22.88852500915527 10.24541282653809 18.23629951477051 14.2408504486084 14.2408504486084 C 18.23629951477051 10.24541282653809 22.88852500915527 7.108687400817871 28.06830024719238 4.917825222015381 C 33.43022537231445 2.649924993515015 39.12687683105469 1.5 45 1.5 C 50.87312316894531 1.5 56.56977462768555 2.649924993515015 61.93170166015625 4.917825222015381 C 67.11147308349609 7.108687400817871 71.76370239257812 10.24541282653809 75.75914764404297 14.2408504486084 C 79.75458526611328 18.23629951477051 82.89131164550781 22.88852500915527 85.08217620849609 28.06830024719238 C 87.35007476806641 33.43022537231445 88.5 39.12687683105469 88.5 45 C 88.5 50.87312316894531 87.35007476806641 56.56977462768555 85.08217620849609 61.93170166015625 C 82.89131164550781 67.11147308349609 79.75458526611328 71.76370239257812 75.75914764404297 75.75914764404297 C 71.76370239257812 79.75458526611328 67.11147308349609 82.89131164550781 61.93170166015625 85.08217620849609 C 56.56977462768555 87.35007476806641 50.87312316894531 88.5 45 88.5 Z" stroke="none"/>
              <path d="M 45 3 C 39.32871246337891 3 33.82865524291992 4.110054016113281 28.65262985229492 6.299339294433594 C 23.65165710449219 8.414573669433594 19.15968322753906 11.44334411621094 15.301513671875 15.301513671875 C 11.44334411621094 19.15968322753906 8.414573669433594 23.65165710449219 6.299339294433594 28.65262985229492 C 4.110054016113281 33.82865524291992 3 39.32871246337891 3 45 C 3 50.67128753662109 4.110054016113281 56.17134475708008 6.299339294433594 61.34737396240234 C 8.414573669433594 66.34834289550781 11.44334411621094 70.84031677246094 15.301513671875 74.698486328125 C 19.15968322753906 78.55665588378906 23.65165710449219 81.58542633056641 28.65262985229492 83.70066070556641 C 33.82865524291992 85.88994598388672 39.32871246337891 87 45 87 C 50.67128753662109 87 56.17134475708008 85.88994598388672 61.34737396240234 83.70066070556641 C 66.34834289550781 81.58542633056641 70.84031677246094 78.55665588378906 74.698486328125 74.698486328125 C 78.55665588378906 70.84031677246094 81.58542633056641 66.34834289550781 83.70066070556641 61.34737396240234 C 85.88994598388672 56.17134475708008 87 50.67128753662109 87 45 C 87 39.32871246337891 85.88994598388672 33.82865524291992 83.70066070556641 28.65262985229492 C 81.58542633056641 23.65165710449219 78.55665588378906 19.15968322753906 74.698486328125 15.301513671875 C 70.84031677246094 11.44334411621094 66.34834289550781 8.414573669433594 61.34737396240234 6.299339294433594 C 56.17134475708008 4.110054016113281 50.67128753662109 3 45 3 M 45 0 C 69.85281372070312 0 90 20.14718627929688 90 45 C 90 69.85281372070312 69.85281372070312 90 45 90 C 20.14718627929688 90 0 69.85281372070312 0 45 C 0 20.14718627929688 20.14718627929688 0 45 0 Z" stroke="none" fill="#a530fe"/>
            </g>
          </g>
        </g>
      </g>
    </g>
    <g id="biodiversidad_1_" data-name="biodiversidad (1)" transform="translate(226.003 11604.346)">
      <path id="Trazado_992283" data-name="Trazado 992283" d="M20.65,7.03a7.542,7.542,0,0,0-8.12,8.93h0a7.542,7.542,0,0,0,8.12-8.93Z" fill="#36b385"/>
      <path id="Trazado_992284" data-name="Trazado 992284" d="M12.26,15.97A7.542,7.542,0,0,1,4.14,7.04h0A7.542,7.542,0,0,1,12.26,15.97Z" fill="#3abf8e"/>
      <ellipse id="Elipse_11762" data-name="Elipse 11762" cx="25" cy="23" rx="25" ry="23" transform="translate(7 16)" fill="#4db4ff"/>
      <ellipse id="Elipse_11763" data-name="Elipse 11763" cx="21" cy="19" rx="21" ry="19" transform="translate(11 20)" fill="#5ebbff"/>
      <ellipse id="Elipse_11764" data-name="Elipse 11764" cx="19" cy="17" rx="19" ry="17" transform="translate(13 22)" fill="#73c3ff"/>
      <path id="Trazado_992285" data-name="Trazado 992285" d="M22.43,17.75l-1.15,2.01a5.313,5.313,0,0,0-.32,4.63,5.441,5.441,0,0,1,.38,1.98,5.313,5.313,0,0,1-.9,2.97l-1.57,2.35a1.935,1.935,0,0,0,.24,2.42,1.934,1.934,0,0,1,.57,1.36,1.907,1.907,0,0,1-1.07,1.72l-1.09.55a5.526,5.526,0,0,0-2.98,4.04l-.13.78a5.511,5.511,0,0,0,1.14,4.37,5.558,5.558,0,0,1,.37,6.4l-1.35,2.15A22.059,22.059,0,0,1,7,39c0-9.58,6.37-17.8,15.43-21.25Z" fill="#3ecc98"/>
      <path id="Trazado_992286" data-name="Trazado 992286" d="M49.31,55.59a4,4,0,0,0-2.1-1.05l-1.54-.26a2.461,2.461,0,0,1-2-1.94,2.46,2.46,0,0,0-3.63-1.65l-3.47,1.99a2.469,2.469,0,0,1-1.22.32H31.91a3.077,3.077,0,0,0-2.76,1.71l-.3.58A3.077,3.077,0,0,1,26.09,57a3.1,3.1,0,0,0-2.87,1.94l-.56,1.39c.62.24,1.26.45,1.91.63h.02A26.9,26.9,0,0,0,32,61.99a26.1,26.1,0,0,0,17.31-6.41Z" fill="#3ecc98"/>
      <path id="Trazado_992287" data-name="Trazado 992287" d="M55.69,46.35l-7.67-3.84A1.832,1.832,0,0,1,47,40.86V35.65a1.827,1.827,0,0,0-.4-1.15l-2.97-3.71a1.839,1.839,0,0,0-1.64-.68l-7.11.79a1.844,1.844,0,0,1-1.51-.53L31.3,28.3a1.835,1.835,0,0,1,0-2.6,1.846,1.846,0,0,0,.51-1.67l-.7-3.47a1.865,1.865,0,0,1,.12-1.09l1.48-3.45C46.19,16.36,57,26.52,57,39a21.218,21.218,0,0,1-1.31,7.35Z" fill="#3ecc98"/>
      <path id="Trazado_992288" data-name="Trazado 992288" d="M21.28,19.76a5.313,5.313,0,0,0-.32,4.63,4.883,4.883,0,0,1,.2.65A16.552,16.552,0,0,0,13,39a15.66,15.66,0,0,0,3.55,9.88,5.576,5.576,0,0,1,.21,1.52,5.463,5.463,0,0,1-.84,2.93l-1.35,2.15A22.059,22.059,0,0,1,7,39c0-9.58,6.37-17.8,15.43-21.25Z" fill="#3abf8e"/>
      <path id="Trazado_992289" data-name="Trazado 992289" d="M49.31,55.59A26.1,26.1,0,0,1,32,62a26.9,26.9,0,0,1-7.41-1.03c-.01,0-.01-.01-.02-.01-.65-.18-1.29-.39-1.91-.63l.56-1.39A3.1,3.1,0,0,1,26.09,57a3.034,3.034,0,0,0,2.49-1.28A20.832,20.832,0,0,0,43.69,52.4a2.446,2.446,0,0,0,1.98,1.88l1.54.26a4,4,0,0,1,2.1,1.05Z" fill="#3abf8e"/>
      <path id="Trazado_992290" data-name="Trazado 992290" d="M57,39a21.218,21.218,0,0,1-1.31,7.35l-5.41-2.71A15.214,15.214,0,0,0,51,39c0-9.39-8.51-17-19-17-.2,0-.4,0-.6.01l-.29-1.45a1.865,1.865,0,0,1,.12-1.09l1.48-3.45C46.19,16.36,57,26.52,57,39Z" fill="#3abf8e"/>
      <g id="Grupo_1158112" data-name="Grupo 1158112">
        <path id="Trazado_992291" data-name="Trazado 992291" d="M21.28,19.76a5.34,5.34,0,0,0-.67,3.28A18.6,18.6,0,0,0,11,39a17.964,17.964,0,0,0,5.56,12.87,5.239,5.239,0,0,1-.64,1.46l-1.35,2.15A22.059,22.059,0,0,1,7,39c0-9.58,6.37-17.8,15.43-21.25Z" fill="#36b385"/>
        <path id="Trazado_992292" data-name="Trazado 992292" d="M49.31,55.59A26.1,26.1,0,0,1,32,62a26.9,26.9,0,0,1-7.41-1.03c-.01,0-.01-.01-.02-.01-.65-.18-1.29-.39-1.91-.63l.56-1.39a3.075,3.075,0,0,1,2.28-1.87A23.1,23.1,0,0,0,32,58a22.318,22.318,0,0,0,12.88-4,2.4,2.4,0,0,0,.79.28l1.54.26A4,4,0,0,1,49.31,55.59Z" fill="#36b385"/>
        <path id="Trazado_992293" data-name="Trazado 992293" d="M57,39a21.218,21.218,0,0,1-1.31,7.35l-3.6-1.8A17.4,17.4,0,0,0,53,39c0-10.49-9.4-19-21-19-.3,0-.6.01-.9.02a1.766,1.766,0,0,1,.13-.55l1.48-3.45C46.19,16.36,57,26.52,57,39Z" fill="#36b385"/>
        <path id="Trazado_992294" data-name="Trazado 992294" d="M44.42,2.03a5.863,5.863,0,0,0-6.31,6.95h0a5.863,5.863,0,0,0,6.31-6.95Z" fill="#36b385"/>
        <path id="Trazado_992295" data-name="Trazado 992295" d="M37.89,8.97a5.863,5.863,0,0,1-6.31-6.95h0A5.863,5.863,0,0,1,37.89,8.97Z" fill="#36b385"/>
        <path id="Trazado_992296" data-name="Trazado 992296" d="M41.87,36.53a6.71,6.71,0,0,0-7.22,7.94h0A6.71,6.71,0,0,0,41.87,36.53Z" fill="#36b385"/>
        <path id="Trazado_992297" data-name="Trazado 992297" d="M34.41,44.47a6.71,6.71,0,0,1-7.22-7.94h0A6.71,6.71,0,0,1,34.41,44.47Z" fill="#36b385"/>
        <path id="Trazado_992298" data-name="Trazado 992298" d="M59.87,10.53a6.71,6.71,0,0,0-7.22,7.94h0a6.71,6.71,0,0,0,7.22-7.94Z" fill="#36b385"/>
        <path id="Trazado_992299" data-name="Trazado 992299" d="M52.41,18.47a6.71,6.71,0,0,1-7.22-7.94h0A6.71,6.71,0,0,1,52.41,18.47Z" fill="#36b385"/>
      </g>
      <path id="Trazado_992300" data-name="Trazado 992300" d="M37,9.98V21a1,1,0,0,0,2,0V9.98a6.752,6.752,0,0,0,4.74-2.23A6.8,6.8,0,0,0,45.4,1.84a1,1,0,0,0-.89-.81,6.792,6.792,0,0,0-5.73,2.22,7.379,7.379,0,0,0-.79,1.07,6.818,6.818,0,0,0-6.52-3.29,1.008,1.008,0,0,0-.89.81,6.827,6.827,0,0,0,1.66,5.91,6.752,6.752,0,0,0,4.74,2.23Zm3.27-5.39a4.832,4.832,0,0,1,3.26-1.58A4.769,4.769,0,0,1,42.26,6.4,4.832,4.832,0,0,1,39,7.98a4.854,4.854,0,0,1,1.27-3.4Zm-4.54,0A4.837,4.837,0,0,1,37,7.99a4.875,4.875,0,0,1-4.53-4.97A4.832,4.832,0,0,1,35.73,4.6Z"/>
      <path id="Trazado_992301" data-name="Trazado 992301" d="M33.53,45.49V56a1,1,0,0,0,2,0V45.49a7.7,7.7,0,0,0,7.33-9.14,1,1,0,0,0-.89-.81,7.666,7.666,0,0,0-6.43,2.49,7.942,7.942,0,0,0-1.01,1.39,7.46,7.46,0,0,0-1.01-1.39,7.666,7.666,0,0,0-6.43-2.49,1.008,1.008,0,0,0-.89.81,7.7,7.7,0,0,0,7.33,9.14Zm3.49-6.12a5.644,5.644,0,0,1,3.97-1.86,5.708,5.708,0,0,1-5.45,5.99A5.677,5.677,0,0,1,37.02,39.37Zm-4.97,0a5.647,5.647,0,0,1,1.48,4.13,5.708,5.708,0,0,1-5.45-5.99A5.662,5.662,0,0,1,32.05,39.37Z"/>
      <path id="Trazado_992302" data-name="Trazado 992302" d="M44.21,10.34a7.7,7.7,0,0,0,7.33,9.14V34.99a1,1,0,0,0,2,0V19.48a7.7,7.7,0,0,0,7.33-9.14,1,1,0,0,0-.89-.81,7.666,7.666,0,0,0-6.43,2.49,7.942,7.942,0,0,0-1.01,1.39,7.46,7.46,0,0,0-1.01-1.39A7.666,7.666,0,0,0,45.1,9.53a1.008,1.008,0,0,0-.89.81Zm10.81,3.03a5.644,5.644,0,0,1,3.97-1.86,5.708,5.708,0,0,1-5.45,5.99A5.677,5.677,0,0,1,55.02,13.37Zm-4.97,0a5.647,5.647,0,0,1,1.48,4.13,5.708,5.708,0,0,1-5.45-5.99A5.662,5.662,0,0,1,50.05,13.37Z"/>
      <path id="Trazado_992303" data-name="Trazado 992303" d="M11.4,16.99V32a1,1,0,0,0,2,0V16.99A8.538,8.538,0,0,0,21.64,6.84a1,1,0,0,0-.89-.81,8.471,8.471,0,0,0-7.13,2.76,9.07,9.07,0,0,0-1.23,1.75,8.654,8.654,0,0,0-1.23-1.75A8.46,8.46,0,0,0,4.03,6.03a1.008,1.008,0,0,0-.89.81,8.538,8.538,0,0,0,8.24,10.15Zm3.7-6.85A6.481,6.481,0,0,1,19.77,8a6.55,6.55,0,0,1-6.36,6.99,6.46,6.46,0,0,1,1.69-4.85ZM5.02,8a6.55,6.55,0,0,1,6.36,6.99A6.55,6.55,0,0,1,5.02,8Z"/>
      <path id="Trazado_992304" data-name="Trazado 992304" d="M10.4,25.66A22.526,22.526,0,0,0,6,39C6,52.23,17.66,63,32,63S58,52.23,58,39a22.4,22.4,0,0,0-3.47-11.96v4.39a20.179,20.179,0,0,1,.57,13.52l-6.86-3.34a.829.829,0,0,1-.47-.75V35.65a2.746,2.746,0,0,0-.64-1.77l-3.05-3.71a2.933,2.933,0,0,0-2.61-1.05l-7.31.79a.886.886,0,0,1-.72-.24L31.31,27.6a.844.844,0,0,1-.26-.59.834.834,0,0,1,.25-.59,2.821,2.821,0,0,0,.81-2.58l-.72-3.46a.86.86,0,0,1,.06-.5l1.25-2.84a25.46,25.46,0,0,1,3.29.28V15.3a27.8,27.8,0,0,0-4-.29,27.14,27.14,0,0,0-17.6,6.35v2.72a23.883,23.883,0,0,1,5.69-4.16,6.275,6.275,0,0,0-.06,4.85,4.357,4.357,0,0,1,.31,1.62,4.274,4.274,0,0,1-.73,2.41l-1.58,2.36a2.935,2.935,0,0,0,.37,3.68.918.918,0,0,1,.28.65.909.909,0,0,1-.52.83l-1.09.55a6.54,6.54,0,0,0-3.52,4.77l-.13.78a6.473,6.473,0,0,0,1.35,5.16,4.546,4.546,0,0,1,.3,5.24l-.7,1.11A20.963,20.963,0,0,1,7.98,39.02a20.339,20.339,0,0,1,2.4-9.58V25.68ZM16.33,46.3a4.483,4.483,0,0,1-.93-3.58l.13-.78a4.555,4.555,0,0,1,2.44-3.31l1.08-.55a2.907,2.907,0,0,0,1.63-2.62,2.939,2.939,0,0,0-.86-2.07.95.95,0,0,1-.12-1.16l1.57-2.35a6.3,6.3,0,0,0,1.07-3.53A6.45,6.45,0,0,0,21.89,24a4.293,4.293,0,0,1,.26-3.76l.96-1.69a25.771,25.771,0,0,1,7.35-1.52l-.89,2.03a2.771,2.771,0,0,0-.19,1.68l.72,3.46a.83.83,0,0,1-.24.77A2.8,2.8,0,0,0,29,26.98a2.762,2.762,0,0,0,.86,2.01l2.13,2.07a3.012,3.012,0,0,0,2.4.82l7.32-.79a.892.892,0,0,1,.77.31l3.06,3.72a.783.783,0,0,1,.18.52v5.21a2.792,2.792,0,0,0,1.62,2.54l7.09,3.45a21.937,21.937,0,0,1-5.17,7.43,5.029,5.029,0,0,0-1.86-.73l-1.54-.26a1.472,1.472,0,0,1-1.19-1.15,3.468,3.468,0,0,0-5.11-2.32l-3.01,1.73v2.23a2.581,2.581,0,0,0,.54-.23l3.46-1.99a1.444,1.444,0,0,1,1.34-.06,1.428,1.428,0,0,1,.82,1.04,3.488,3.488,0,0,0,2.81,2.73l1.54.26a2.668,2.668,0,0,1,.57.16,25.166,25.166,0,0,1-15.61,5.31A25.8,25.8,0,0,1,24,59.72l.17-.42a2.1,2.1,0,0,1,1.94-1.31,4.063,4.063,0,0,0,3.65-2.25l.31-.6a2.054,2.054,0,0,1,1.86-1.15h.62v-2h-.62a4.063,4.063,0,0,0-3.65,2.25l-.31.6a2.054,2.054,0,0,1-1.86,1.15,4.083,4.083,0,0,0-3.8,2.57l-.19.46a24.312,24.312,0,0,1-6.23-3.75l.89-1.42a6.56,6.56,0,0,0-.43-7.57Z"/>
      <path id="Trazado_992305" data-name="Trazado 992305" d="M50.53,25.04V22.18A26.408,26.408,0,0,0,40,16.17v2.09A24.219,24.219,0,0,1,50.53,25.04Z"/>
    </g>
  </g>
</svg>
