<svg xmlns="http://www.w3.org/2000/svg" xmlns:xlink="http://www.w3.org/1999/xlink" width="98" height="98" viewBox="0 0 98 98">
  <defs>
    <filter id="Trazado_982548" x="0" y="0" width="98" height="98" filterUnits="userSpaceOnUse">
      <feOffset dy="3" input="SourceAlpha"/>
      <feGaussianBlur stdDeviation="3" result="blur"/>
      <feFlood flood-opacity="0.161"/>
      <feComposite operator="in" in2="blur"/>
      <feComposite in="SourceGraphic"/>
    </filter>
  </defs>
  <g id="Grupo_1154394" data-name="Grupo 1154394" transform="translate(-612 -2096)">
    <g id="Grupo_1149898" data-name="Grupo 1149898" transform="translate(0 -2463)">
      <g id="Grupo_1149695" data-name="Grupo 1149695" transform="translate(411 4104)">
        <g id="Grupo_1149263" data-name="Grupo 1149263" transform="translate(210 461)">
          <g transform="matrix(1, 0, 0, 1, -9, -6)" filter="url(#Trazado_982548)">
            <g id="Trazado_982548-2" data-name="Trazado 982548" transform="translate(9 6)" fill="#f6f9fc">
              <path d="M 40 78.5 C 34.80187606811523 78.5 29.76003265380859 77.48227691650391 25.01452255249023 75.47509765625 C 20.43014526367188 73.53606414794922 16.31264495849609 70.75986480712891 12.77638912200928 67.22360992431641 C 9.240133285522461 63.68735504150391 6.46393346786499 59.56985473632812 4.524899959564209 54.98547744750977 C 2.517722129821777 50.23996734619141 1.5 45.19812393188477 1.5 40 C 1.5 34.80187606811523 2.517722129821777 29.76003265380859 4.524899959564209 25.01452255249023 C 6.46393346786499 20.43014526367188 9.240133285522461 16.31264495849609 12.77638912200928 12.77638912200928 C 16.31264495849609 9.240133285522461 20.43014526367188 6.46393346786499 25.01452255249023 4.524899959564209 C 29.76003265380859 2.517722129821777 34.80187606811523 1.5 40 1.5 C 45.19812393188477 1.5 50.23996734619141 2.517722129821777 54.98547744750977 4.524899959564209 C 59.56985473632812 6.46393346786499 63.68735504150391 9.240133285522461 67.22360992431641 12.77638912200928 C 70.75986480712891 16.31264495849609 73.53606414794922 20.43014526367188 75.47509765625 25.01452255249023 C 77.48227691650391 29.76003265380859 78.5 34.80187606811523 78.5 40 C 78.5 45.19812393188477 77.48227691650391 50.23996734619141 75.47509765625 54.98547744750977 C 73.53606414794922 59.56985473632812 70.75986480712891 63.68735504150391 67.22360992431641 67.22360992431641 C 63.68735504150391 70.75986480712891 59.56985473632812 73.53606414794922 54.98547744750977 75.47509765625 C 50.23996734619141 77.48227691650391 45.19812393188477 78.5 40 78.5 Z" stroke="none"/>
              <path d="M 40 3 C 35.00370788574219 3 30.15846633911133 3.977851867675781 25.59885406494141 5.906410217285156 C 21.19326782226562 7.769813537597656 17.23602676391602 10.43806457519531 13.83704376220703 13.83705139160156 C 10.43806457519531 17.23603820800781 7.769813537597656 21.19327926635742 5.906410217285156 25.59885406494141 C 3.977851867675781 30.15846633911133 3 35.00370788574219 3 40 C 3 44.99629211425781 3.977851867675781 49.84153366088867 5.906410217285156 54.40114593505859 C 7.769813537597656 58.80672073364258 10.43806457519531 62.76396179199219 13.83704376220703 66.16294860839844 C 17.23602676391602 69.56193542480469 21.19326782226562 72.23018646240234 25.59885406494141 74.09358978271484 C 30.15846633911133 76.02214813232422 35.00370788574219 77 40 77 C 44.99629211425781 77 49.84153366088867 76.02214813232422 54.40114593505859 74.09358978271484 C 58.80672073364258 72.23018646240234 62.76396179199219 69.56193542480469 66.16294860839844 66.16294860839844 C 69.56193542480469 62.76396179199219 72.23018646240234 58.80672073364258 74.09358978271484 54.40114593505859 C 76.02214813232422 49.84153366088867 77 44.99629211425781 77 40 C 77 35.00370788574219 76.02214813232422 30.15846633911133 74.09358978271484 25.59885406494141 C 72.23018646240234 21.19327926635742 69.56193542480469 17.23603820800781 66.16294860839844 13.83705139160156 C 62.76396179199219 10.43806457519531 58.80672073364258 7.769813537597656 54.40114593505859 5.906410217285156 C 49.84153366088867 3.977851867675781 44.99629211425781 3 40 3 M 40 0 C 62.09138488769531 0 80 17.90861511230469 80 40 C 80 62.09138488769531 62.09138488769531 80 40 80 C 17.90859985351562 80 0 62.09138488769531 0 40 C 0 17.90861511230469 17.90859985351562 0 40 0 Z" stroke="none" fill="#15da7e"/>
            </g>
          </g>
        </g>
      </g>
    </g>
    <g id="analisis_4_" data-name="analisis (4)" transform="translate(634 2115)">
      <g id="Grupo_1154392" data-name="Grupo 1154392" transform="translate(1.846 8.618)">
        <g id="Grupo_1154381" data-name="Grupo 1154381" transform="translate(29.625 5.079)">
          <ellipse id="Elipse_11713" data-name="Elipse 11713" cx="2" cy="1.5" rx="2" ry="1.5" transform="translate(-0.471 0.303)" fill="#ff826e"/>
        </g>
        <g id="Grupo_1154382" data-name="Grupo 1154382" transform="translate(27.932 20.314)">
          <path id="Trazado_990997" data-name="Trazado 990997" d="M55.314,34v5.079H35V34H55.314Z" transform="translate(-35 -34)" fill="#ffeaa7"/>
        </g>
        <g id="Grupo_1154383" data-name="Grupo 1154383" transform="translate(27.932 32.164)">
          <path id="Trazado_990998" data-name="Trazado 990998" d="M35,48H55.314v5.079H35Z" transform="translate(-35 -48)" fill="#ffeaa7"/>
        </g>
        <g id="Grupo_1154384" data-name="Grupo 1154384" transform="translate(25.393 37.243)">
          <path id="Trazado_990999" data-name="Trazado 990999" d="M57.393,55.693v3.386A1.7,1.7,0,0,1,55.7,60.771H33.693A1.7,1.7,0,0,1,32,59.079V55.693A1.7,1.7,0,0,1,33.693,54H55.7A1.7,1.7,0,0,1,57.393,55.693Z" transform="translate(-32 -54)" fill="#ff826e"/>
        </g>
        <g id="Grupo_1154385" data-name="Grupo 1154385" transform="translate(25.393 25.393)">
          <path id="Trazado_991000" data-name="Trazado 991000" d="M32,45.079V41.693A1.7,1.7,0,0,1,33.693,40H55.7a1.7,1.7,0,0,1,1.693,1.693v3.386A1.7,1.7,0,0,1,55.7,46.771H33.693A1.7,1.7,0,0,1,32,45.079Z" transform="translate(-32 -40)" fill="#ff826e"/>
        </g>
        <g id="Grupo_1154386" data-name="Grupo 1154386" transform="translate(25.681 16.031)">
          <path id="Trazado_991001" data-name="Trazado 991001" d="M34.591,33.223h-.846a1.673,1.673,0,0,1-1.405-.753,13.79,13.79,0,0,0,1.007-2.742c.491-.22,1.007-.482,1.54-.787l.008.025c.77,2.624,1.871,4.258,3.081,4.258Z" transform="translate(-32.34 -28.94)" fill="#ff826e"/>
        </g>
        <g id="Grupo_1154387" data-name="Grupo 1154387" transform="translate(31.318 13.543)">
          <path id="Trazado_991002" data-name="Trazado 991002" d="M55.929,32.771H39c1.219,0,2.319-1.651,3.089-4.283,3.208,1.8,5.95,2.3,7.212,1.041.736-.736.872-1.981.5-3.53h6.975a1.7,1.7,0,0,1,1.693,1.693v3.386a1.7,1.7,0,0,1-1.693,1.693Z" transform="translate(-39 -26)" fill="#ff826e"/>
        </g>
        <g id="Grupo_1154388" data-name="Grupo 1154388" transform="translate(10.157 30.471)">
          <path id="Trazado_991003" data-name="Trazado 991003" d="M19.079,46a1.7,1.7,0,0,1,1.693,1.693v8.464a3.386,3.386,0,1,1-6.771,0V47.693A1.7,1.7,0,0,1,15.693,46h3.386Z" transform="translate(-14 -46)" fill="#969faa"/>
        </g>
        <g id="Grupo_1154389" data-name="Grupo 1154389" transform="translate(11.004 26.84)">
          <path id="Trazado_991004" data-name="Trazado 991004" d="M20.079,41.71v1.938a1.692,1.692,0,0,1-1.693,1.693H16.693A1.692,1.692,0,0,1,15,43.648v-1.93a13.959,13.959,0,0,0,2.539.237A13.18,13.18,0,0,0,20.079,41.71Z" transform="translate(-15 -41.71)" fill="#ccd1d9"/>
        </g>
        <g id="Grupo_1154390" data-name="Grupo 1154390">
          <path id="Trazado_991005" data-name="Trazado 991005" d="M23.465,12.556A24.91,24.91,0,0,0,26.1,16.771a23.859,23.859,0,0,0-1.5,2.167,10.155,10.155,0,1,0,.186,8.828,8.886,8.886,0,0,0,3.9-.948,13.79,13.79,0,0,1-1.007,2.742,13.546,13.546,0,0,1-9.6,7.279,13.181,13.181,0,0,1-2.539.245A13.959,13.959,0,0,1,13,36.849,13.544,13.544,0,1,1,23.457,12.556Z" transform="translate(-2 -10)" fill="#fcd770"/>
        </g>
        <g id="Grupo_1154391" data-name="Grupo 1154391" transform="translate(3.386 3.386)">
          <path id="Trazado_991006" data-name="Trazado 991006" d="M16.157,14a10.153,10.153,0,0,1,9.057,5.553c-2.235,3.6-2.962,6.754-1.583,8.134a2.583,2.583,0,0,0,1.769.694A10.159,10.159,0,1,1,16.157,14Z" transform="translate(-6 -14)" fill="#69d6f4"/>
        </g>
      </g>
      <g id="Grupo_1154393" data-name="Grupo 1154393" transform="translate(1 1)">
        <path id="Trazado_991007" data-name="Trazado 991007" d="M38.539,20.079A2.539,2.539,0,1,0,36,17.539,2.542,2.542,0,0,0,38.539,20.079Zm0-3.386a.846.846,0,1,1-.846.846A.847.847,0,0,1,38.539,16.693Z" transform="translate(-6.375 -3.15)"/>
        <path id="Trazado_991008" data-name="Trazado 991008" d="M53.479,27.239V23.854a2.542,2.542,0,0,0-2.539-2.539H44.614a21.574,21.574,0,0,0-3.177-5.925c3.12-4.31,4.76-8.765,2.626-10.9-1.538-1.54-4.289-1.107-7.32.42C35.9,2.55,34.7,1,33.164,1,31.725,1,30.5,2.353,29.586,4.911c-3.03-1.526-5.781-1.959-7.32-.421-1.081,1.08-1.193,2.757-.637,4.707A14.382,14.382,0,1,0,12,36.131V37.4a2.511,2.511,0,0,0,.339,1.245,2.534,2.534,0,0,0-1.186,2.141v8.463a4.232,4.232,0,1,0,8.464,0V40.783a2.534,2.534,0,0,0-1.186-2.141,2.511,2.511,0,0,0,.339-1.245V36.142a14.348,14.348,0,0,0,8.992-6.65,2.53,2.53,0,0,0,1.165.287v3.386A2.542,2.542,0,0,0,26.393,35.7v3.386a2.542,2.542,0,0,0,2.539,2.539v3.386a2.542,2.542,0,0,0-2.539,2.539v3.386a2.542,2.542,0,0,0,2.539,2.539H50.939a2.542,2.542,0,0,0,2.539-2.539V47.554a2.542,2.542,0,0,0-2.539-2.539V41.629a2.542,2.542,0,0,0,2.539-2.539V35.7a2.542,2.542,0,0,0-2.539-2.539V29.779a2.542,2.542,0,0,0,2.539-2.539Zm-2.539-4.232a.847.847,0,0,1,.846.846v3.386a.847.847,0,0,1-.846.846H35.677a10.409,10.409,0,0,0,1.064-2.213,11.043,11.043,0,0,0,4.714,1.381,3.544,3.544,0,0,0,2.608-.967,3.847,3.847,0,0,0,.913-3.281h5.963ZM31.092,25.042c.688-.414,1.381-.879,2.072-1.379.692.5,1.387.967,2.076,1.382-.649,1.946-1.43,3.04-2.076,3.04C32.621,28.086,31.8,27.129,31.092,25.042Zm-8.827,1.246a3.1,3.1,0,0,0,1.083.7,9.324,9.324,0,1,1,.112-9.429c-2.13,3.571-2.972,6.958-1.2,8.733Zm1.2-1.2c-1.116-1.116-.233-4.407,2.494-8.3A38.1,38.1,0,0,0,28.7,19.851,38.4,38.4,0,0,0,31.765,22.6C27.869,25.323,24.577,26.207,23.462,25.091ZM36.42,12.117c.081,1.026.13,2.114.13,3.272s-.049,2.246-.13,3.272a36.853,36.853,0,0,1-3.255,2.9A37.047,37.047,0,0,1,29.9,18.653a36.912,36.912,0,0,1-2.907-3.264,37.873,37.873,0,0,1,6.172-6.171A36.834,36.834,0,0,1,36.42,12.117ZM34.562,8.18c.39-.273.775-.533,1.151-.769q.229.964.406,2.1C35.609,9.052,35.09,8.6,34.562,8.18Zm3.661,5.87c.392.45.766.9,1.114,1.339-.348.442-.722.889-1.114,1.339q.02-.668.02-1.339t-.02-1.339Zm-2.1,7.227q-.175,1.125-.4,2.084-.565-.354-1.151-.764c.526-.423,1.045-.863,1.554-1.32Zm6.748,3.814c-.847.847-2.951.54-5.62-.848a31.34,31.34,0,0,0,.811-4.839c.812-.839,1.592-1.715,2.315-2.615,2.727,3.894,3.61,7.186,2.494,8.3ZM41.431,5.214a1.971,1.971,0,0,1,1.435.473c1.116,1.116.233,4.407-2.494,8.3-.723-.9-1.5-1.776-2.315-2.615a31.373,31.373,0,0,0-.813-4.843,9.848,9.848,0,0,1,4.187-1.317ZM33.164,2.693c.646,0,1.427,1.1,2.077,3.043-.69.416-1.386.879-2.078,1.381-.691-.5-1.384-.963-2.072-1.377.705-2.09,1.529-3.047,2.073-3.047Zm-9.7,2.995A1.969,1.969,0,0,1,24.9,5.214c1.593,0,4.076,1.009,6.869,2.965a38.013,38.013,0,0,0-5.81,5.81c-2.726-3.894-3.609-7.186-2.494-8.3ZM17.929,49.246a2.539,2.539,0,1,1-5.079,0V40.783a.847.847,0,0,1,.846-.846h3.386a.847.847,0,0,1,.846.846ZM17.082,37.4a.847.847,0,0,1-.846.846H14.543A.847.847,0,0,1,13.7,37.4v-.956a14.506,14.506,0,0,0,1.693.108,14.541,14.541,0,0,0,1.693-.111Zm-1.693-2.54a12.7,12.7,0,1,1,7.27-23.1,26.523,26.523,0,0,0,2.233,3.632c-.14.193-.275.385-.409.578a11.006,11.006,0,1,0,.664,11.271,8.353,8.353,0,0,0,2.031-.377A12.665,12.665,0,0,1,15.389,34.857Zm13.16-6.865a14.5,14.5,0,0,0,.686-1.946c.117-.056.234-.115.352-.174a10.369,10.369,0,0,0,1.065,2.213H28.932A.845.845,0,0,1,28.55,27.993ZM51.786,47.554v3.386a.847.847,0,0,1-.846.846H28.932a.847.847,0,0,1-.846-.846V47.554a.847.847,0,0,1,.846-.846H50.939A.847.847,0,0,1,51.786,47.554Zm-2.539-2.539H30.625V41.629H49.246ZM51.786,35.7v3.386a.847.847,0,0,1-.846.846H28.932a.847.847,0,0,1-.846-.846V35.7a.847.847,0,0,1,.846-.846H50.939A.847.847,0,0,1,51.786,35.7Zm-2.539-2.539H30.625V29.779H49.246Z" transform="translate(-1 -1)"/>
        <path id="Trazado_991009" data-name="Trazado 991009" d="M49,57h1.693v1.693H49Z" transform="translate(-8.371 -9.6)"/>
        <path id="Trazado_991010" data-name="Trazado 991010" d="M57,57h1.693v1.693H57Z" transform="translate(-9.6 -9.6)"/>
        <path id="Trazado_991011" data-name="Trazado 991011" d="M53,57h1.693v1.693H53Z" transform="translate(-8.986 -9.6)"/>
        <path id="Trazado_991012" data-name="Trazado 991012" d="M39,43h1.693v1.693H39Z" transform="translate(-6.836 -7.45)"/>
        <path id="Trazado_991013" data-name="Trazado 991013" d="M43,43h1.693v1.693H43Z" transform="translate(-7.45 -7.45)"/>
        <path id="Trazado_991014" data-name="Trazado 991014" d="M35,43h1.693v1.693H35Z" transform="translate(-6.221 -7.45)"/>
        <path id="Trazado_991015" data-name="Trazado 991015" d="M9,25h1.693v1.693H9Z" transform="translate(-2.229 -4.686)"/>
        <path id="Trazado_991016" data-name="Trazado 991016" d="M17,25h1.693v1.693H17Z" transform="translate(-3.457 -4.686)"/>
        <path id="Trazado_991017" data-name="Trazado 991017" d="M13,25h1.693v1.693H13Z" transform="translate(-2.843 -4.686)"/>
        <path id="Trazado_991018" data-name="Trazado 991018" d="M21,25h1.693v1.693H21Z" transform="translate(-4.071 -4.686)"/>
      </g>
    </g>
  </g>
</svg>
