<svg xmlns="http://www.w3.org/2000/svg" xmlns:xlink="http://www.w3.org/1999/xlink" width="98" height="98" viewBox="0 0 98 98">
  <defs>
    <filter id="Trazado_982548" x="0" y="0" width="98" height="98" filterUnits="userSpaceOnUse">
      <feOffset dy="3" input="SourceAlpha"/>
      <feGaussianBlur stdDeviation="3" result="blur"/>
      <feFlood flood-opacity="0.161"/>
      <feComposite operator="in" in2="blur"/>
      <feComposite in="SourceGraphic"/>
    </filter>
  </defs>
  <g id="Grupo_1158251" data-name="Grupo 1158251" transform="translate(-192 -4912.437)">
    <g id="Grupo_1153339" data-name="Grupo 1153339" transform="translate(0 353.437)">
      <g id="Grupo_1149694" data-name="Grupo 1149694" transform="translate(-9 4104)">
        <g id="Grupo_1149263" data-name="Grupo 1149263" transform="translate(210 461)">
          <g transform="matrix(1, 0, 0, 1, -9, -6)" filter="url(#Trazado_982548)">
            <g id="Trazado_982548-2" data-name="Trazado 982548" transform="translate(9 6)" fill="#f6f9fc">
              <path d="M 40 78.5 C 34.80187606811523 78.5 29.76003265380859 77.48227691650391 25.01452255249023 75.47509765625 C 20.43014526367188 73.53606414794922 16.31264495849609 70.75986480712891 12.77638912200928 67.22360992431641 C 9.240133285522461 63.68735504150391 6.46393346786499 59.56985473632812 4.524899959564209 54.98547744750977 C 2.517722129821777 50.23996734619141 1.5 45.19812393188477 1.5 40 C 1.5 34.80187606811523 2.517722129821777 29.76003265380859 4.524899959564209 25.01452255249023 C 6.46393346786499 20.43014526367188 9.240133285522461 16.31264495849609 12.77638912200928 12.77638912200928 C 16.31264495849609 9.240133285522461 20.43014526367188 6.46393346786499 25.01452255249023 4.524899959564209 C 29.76003265380859 2.517722129821777 34.80187606811523 1.5 40 1.5 C 45.19812393188477 1.5 50.23996734619141 2.517722129821777 54.98547744750977 4.524899959564209 C 59.56985473632812 6.46393346786499 63.68735504150391 9.240133285522461 67.22360992431641 12.77638912200928 C 70.75986480712891 16.31264495849609 73.53606414794922 20.43014526367188 75.47509765625 25.01452255249023 C 77.48227691650391 29.76003265380859 78.5 34.80187606811523 78.5 40 C 78.5 45.19812393188477 77.48227691650391 50.23996734619141 75.47509765625 54.98547744750977 C 73.53606414794922 59.56985473632812 70.75986480712891 63.68735504150391 67.22360992431641 67.22360992431641 C 63.68735504150391 70.75986480712891 59.56985473632812 73.53606414794922 54.98547744750977 75.47509765625 C 50.23996734619141 77.48227691650391 45.19812393188477 78.5 40 78.5 Z" stroke="none"/>
              <path d="M 40 3 C 35.00370788574219 3 30.15846633911133 3.977851867675781 25.59885406494141 5.906410217285156 C 21.19326782226562 7.769813537597656 17.23602676391602 10.43806457519531 13.83704376220703 13.83705139160156 C 10.43806457519531 17.23603820800781 7.769813537597656 21.19327926635742 5.906410217285156 25.59885406494141 C 3.977851867675781 30.15846633911133 3 35.00370788574219 3 40 C 3 44.99629211425781 3.977851867675781 49.84153366088867 5.906410217285156 54.40114593505859 C 7.769813537597656 58.80672073364258 10.43806457519531 62.76396179199219 13.83704376220703 66.16294860839844 C 17.23602676391602 69.56193542480469 21.19326782226562 72.23018646240234 25.59885406494141 74.09358978271484 C 30.15846633911133 76.02214813232422 35.00370788574219 77 40 77 C 44.99629211425781 77 49.84153366088867 76.02214813232422 54.40114593505859 74.09358978271484 C 58.80672073364258 72.23018646240234 62.76396179199219 69.56193542480469 66.16294860839844 66.16294860839844 C 69.56193542480469 62.76396179199219 72.23018646240234 58.80672073364258 74.09358978271484 54.40114593505859 C 76.02214813232422 49.84153366088867 77 44.99629211425781 77 40 C 77 35.00370788574219 76.02214813232422 30.15846633911133 74.09358978271484 25.59885406494141 C 72.23018646240234 21.19327926635742 69.56193542480469 17.23603820800781 66.16294860839844 13.83705139160156 C 62.76396179199219 10.43806457519531 58.80672073364258 7.769813537597656 54.40114593505859 5.906410217285156 C 49.84153366088867 3.977851867675781 44.99629211425781 3 40 3 M 40 0 C 62.09138488769531 0 80 17.90861511230469 80 40 C 80 62.09138488769531 62.09138488769531 80 40 80 C 17.90859985351562 80 0 62.09138488769531 0 40 C 0 17.90861511230469 17.90859985351562 0 40 0 Z" stroke="none" fill="#15da7e"/>
            </g>
          </g>
        </g>
      </g>
    </g>
    <g id="diseno-editorial" transform="translate(216.306 4933.74)">
      <path id="Trazado_992534" data-name="Trazado 992534" d="M18.489,53.217H10V14.246A4.244,4.244,0,0,1,14.244,10h0a4.244,4.244,0,0,1,4.244,4.244Z" transform="translate(-9.035 -9.035)" fill="#ffb954"/>
      <path id="Trazado_992535" data-name="Trazado 992535" d="M98,54h26.623a1.929,1.929,0,0,1,1.929,1.929V92.973H98" transform="translate(-88.547 -48.791)" fill="#fff"/>
      <path id="Trazado_992536" data-name="Trazado 992536" d="M18.489,418.246A4.244,4.244,0,0,0,14.244,414h0A4.244,4.244,0,0,0,10,418.246h0a4.244,4.244,0,0,0,4.244,4.244H39.85a1.929,1.929,0,0,0,1.929-1.929v-2.315Z" transform="translate(-9.035 -374.065)" fill="#feda9b"/>
      <rect id="Rectángulo_412767" data-name="Rectángulo 412767" width="21.058" height="6.409" transform="translate(12.818 9.158)" fill="#fff"/>
      <rect id="Rectángulo_412768" data-name="Rectángulo 412768" width="11.902" height="9.156" transform="translate(12.818 20.145)" fill="#72d8ff"/>
      <rect id="Rectángulo_412769" data-name="Rectángulo 412769" width="21.058" height="6.409" transform="translate(12.818 9.158)" fill="#ff5d5d"/>
      <path id="Trazado_992537" data-name="Trazado 992537" d="M265.458,259.81l17.207,17.207a1.732,1.732,0,0,1,0,2.449l-3.2,3.2a1.732,1.732,0,0,1-2.449,0L259.81,265.458Z" transform="translate(-234.748 -234.746)" fill="#4dbaf6"/>
      <path id="Trazado_992538" data-name="Trazado 992538" d="M408.426,414.075l2.871,2.871a1.732,1.732,0,0,0,2.449,0l3.2-3.2a1.732,1.732,0,0,0,0-2.449l-2.871-2.871Z" transform="translate(-369.029 -369.028)" fill="#ffb954"/>
      <path id="Trazado_992539" data-name="Trazado 992539" d="M223.669,223.669l9.134,3.486-5.648,5.648Z" transform="translate(-202.094 -202.092)" fill="#d8d8e4"/>
      <path id="Trazado_992540" data-name="Trazado 992540" d="M88.965,358a.965.965,0,1,0,.682.283A.971.971,0,0,0,88.965,358Z" transform="translate(-79.511 -323.467)"/>
      <path id="Trazado_992541" data-name="Trazado 992541" d="M384.965,272a.965.965,0,1,0,.682.283A.971.971,0,0,0,384.965,272Z" transform="translate(-346.959 -245.762)"/>
      <path id="Trazado_992542" data-name="Trazado 992542" d="M150.765,84.967A.965.965,0,0,0,149.8,84H128.965a.965.965,0,0,0-.965.965V91.14a.965.965,0,0,0,.965.965H149.8a.965.965,0,0,0,.965-.965Zm-1.929,5.209H129.929V85.931h18.906Z" transform="translate(-115.653 -75.897)"/>
      <path id="Trazado_992543" data-name="Trazado 992543" d="M300.691,196h-4.727a.965.965,0,0,0,0,1.929h4.727a.965.965,0,1,0,0-1.929Z" transform="translate(-266.544 -177.094)"/>
      <path id="Trazado_992544" data-name="Trazado 992544" d="M48.6,41.589,31.392,24.381a.964.964,0,0,0-.338-.219l-9.134-3.486a.965.965,0,0,0-1.245,1.245l2.385,6.248H14.276V20.838H19a.965.965,0,0,0,0-1.929H13.312a.965.965,0,0,0-.965.965v9.26a.965.965,0,0,0,.965.965H23.8l.365.957a.966.966,0,0,0,.219.338L25.785,32.8H13.312a.965.965,0,1,0,0,1.929h14.4l2.7,2.7h-17.1a.965.965,0,1,0,0,1.929H32.344L36.2,43.217H10.328a5.205,5.205,0,0,0-8.4-3.078V5.211a3.28,3.28,0,0,1,6.559,0v26.1a.965.965,0,1,0,1.929,0V6.176H36.077a.966.966,0,0,1,.965.965V23.76a.965.965,0,1,0,1.929,0V7.14a2.9,2.9,0,0,0-2.894-2.894H10.327A5.208,5.208,0,0,0,0,5.211V44.181A5.215,5.215,0,0,0,5.209,49.39H30.815A2.9,2.9,0,0,0,33.709,46.5v-1.35h4.3a.957.957,0,0,0,.118-.008L41.587,48.6a2.7,2.7,0,0,0,3.813,0l3.2-3.2a2.7,2.7,0,0,0,0-3.813ZM31.779,46.5a.966.966,0,0,1-.965.965H5.209a3.28,3.28,0,1,1,3.28-3.28.965.965,0,0,0,.965.965H31.779ZM26.426,30.711l4.284-4.284L43.681,39.4,39.4,43.683Zm2.549-5.278-3.543,3.543-2.187-5.73Zm18.26,18.6-3.2,3.2a.768.768,0,0,1-1.085,0l-2.189-2.189,4.284-4.284,2.189,2.189a.767.767,0,0,1,0,1.085Z"/>
    </g>
  </g>
</svg>
