<svg xmlns="http://www.w3.org/2000/svg" xmlns:xlink="http://www.w3.org/1999/xlink" width="98" height="98" viewBox="0 0 98 98">
  <defs>
    <filter id="Trazado_982548" x="0" y="0" width="98" height="98" filterUnits="userSpaceOnUse">
      <feOffset dy="3" input="SourceAlpha"/>
      <feGaussianBlur stdDeviation="3" result="blur"/>
      <feFlood flood-opacity="0.161"/>
      <feComposite operator="in" in2="blur"/>
      <feComposite in="SourceGraphic"/>
    </filter>
  </defs>
  <g id="Grupo_1154396" data-name="Grupo 1154396" transform="translate(-1032 -2096)">
    <g id="Grupo_1149914" data-name="Grupo 1149914" transform="translate(0.5 -2463)">
      <g id="Grupo_1149696" data-name="Grupo 1149696" transform="translate(830.5 4104)">
        <g id="Grupo_1149263" data-name="Grupo 1149263" transform="translate(210 461)">
          <g transform="matrix(1, 0, 0, 1, -9, -6)" filter="url(#Trazado_982548)">
            <g id="Trazado_982548-2" data-name="Trazado 982548" transform="translate(9 6)" fill="#f6f9fc">
              <path d="M 40 78.5 C 34.80187606811523 78.5 29.76003265380859 77.48227691650391 25.01452255249023 75.47509765625 C 20.43014526367188 73.53606414794922 16.31264495849609 70.75986480712891 12.77638912200928 67.22360992431641 C 9.240133285522461 63.68735504150391 6.46393346786499 59.56985473632812 4.524899959564209 54.98547744750977 C 2.517722129821777 50.23996734619141 1.5 45.19812393188477 1.5 40 C 1.5 34.80187606811523 2.517722129821777 29.76003265380859 4.524899959564209 25.01452255249023 C 6.46393346786499 20.43014526367188 9.240133285522461 16.31264495849609 12.77638912200928 12.77638912200928 C 16.31264495849609 9.240133285522461 20.43014526367188 6.46393346786499 25.01452255249023 4.524899959564209 C 29.76003265380859 2.517722129821777 34.80187606811523 1.5 40 1.5 C 45.19812393188477 1.5 50.23996734619141 2.517722129821777 54.98547744750977 4.524899959564209 C 59.56985473632812 6.46393346786499 63.68735504150391 9.240133285522461 67.22360992431641 12.77638912200928 C 70.75986480712891 16.31264495849609 73.53606414794922 20.43014526367188 75.47509765625 25.01452255249023 C 77.48227691650391 29.76003265380859 78.5 34.80187606811523 78.5 40 C 78.5 45.19812393188477 77.48227691650391 50.23996734619141 75.47509765625 54.98547744750977 C 73.53606414794922 59.56985473632812 70.75986480712891 63.68735504150391 67.22360992431641 67.22360992431641 C 63.68735504150391 70.75986480712891 59.56985473632812 73.53606414794922 54.98547744750977 75.47509765625 C 50.23996734619141 77.48227691650391 45.19812393188477 78.5 40 78.5 Z" stroke="none"/>
              <path d="M 40 3 C 35.00370788574219 3 30.15846633911133 3.977851867675781 25.59885406494141 5.906410217285156 C 21.19326782226562 7.769813537597656 17.23602676391602 10.43806457519531 13.83704376220703 13.83705139160156 C 10.43806457519531 17.23603820800781 7.769813537597656 21.19327926635742 5.906410217285156 25.59885406494141 C 3.977851867675781 30.15846633911133 3 35.00370788574219 3 40 C 3 44.99629211425781 3.977851867675781 49.84153366088867 5.906410217285156 54.40114593505859 C 7.769813537597656 58.80672073364258 10.43806457519531 62.76396179199219 13.83704376220703 66.16294860839844 C 17.23602676391602 69.56193542480469 21.19326782226562 72.23018646240234 25.59885406494141 74.09358978271484 C 30.15846633911133 76.02214813232422 35.00370788574219 77 40 77 C 44.99629211425781 77 49.84153366088867 76.02214813232422 54.40114593505859 74.09358978271484 C 58.80672073364258 72.23018646240234 62.76396179199219 69.56193542480469 66.16294860839844 66.16294860839844 C 69.56193542480469 62.76396179199219 72.23018646240234 58.80672073364258 74.09358978271484 54.40114593505859 C 76.02214813232422 49.84153366088867 77 44.99629211425781 77 40 C 77 35.00370788574219 76.02214813232422 30.15846633911133 74.09358978271484 25.59885406494141 C 72.23018646240234 21.19327926635742 69.56193542480469 17.23603820800781 66.16294860839844 13.83705139160156 C 62.76396179199219 10.43806457519531 58.80672073364258 7.769813537597656 54.40114593505859 5.906410217285156 C 49.84153366088867 3.977851867675781 44.99629211425781 3 40 3 M 40 0 C 62.09138488769531 0 80 17.90861511230469 80 40 C 80 62.09138488769531 62.09138488769531 80 40 80 C 17.90859985351562 80 0 62.09138488769531 0 40 C 0 17.90861511230469 17.90859985351562 0 40 0 Z" stroke="none" fill="#15da7e"/>
            </g>
          </g>
        </g>
      </g>
    </g>
    <g id="Fill_Outline" data-name="Fill Outline" transform="translate(1053.001 2115)">
      <g id="Color" transform="translate(2.841 2.847)">
        <path id="Trazado_991019" data-name="Trazado 991019" d="M26.73,21.865A11.878,11.878,0,0,1,15.373,33.718c-.17.012-.332.012-.509.012A11.861,11.861,0,0,1,8.8,11.673,11.685,11.685,0,0,1,14.865,10,11.865,11.865,0,0,1,26.73,21.865Z" transform="translate(-2.994 -4.068)" fill="#ade8f4"/>
        <path id="Trazado_991020" data-name="Trazado 991020" d="M26.73,22.245A11.884,11.884,0,0,1,15.373,34.1c-.161.008-.331.008-.509.008a11.706,11.706,0,0,1-6.416-1.89A11.851,11.851,0,0,1,5.636,14.8a12.791,12.791,0,0,0-.093,1.517,11.846,11.846,0,0,0,5.112,9.747A14.38,14.38,0,0,1,21.62,12.49a11.89,11.89,0,0,1,5.11,9.755Z" transform="translate(-2.994 -4.447)" fill="#48cae4"/>
        <path id="Trazado_991021" data-name="Trazado 991021" d="M7.746,25.726l3.559,3.559L8.446,32.144A11.858,11.858,0,0,1,8.8,11.974l3.69,3.073L8.932,18.607l1.186,3.559Z" transform="translate(-2.994 -4.369)" fill="#95d5b2"/>
        <path id="Trazado_991022" data-name="Trazado 991022" d="M22.915,11.709l-4.936,1.851-2.337-3.5c.38-.036.763-.059,1.151-.059a11.7,11.7,0,0,1,6.122,1.709Z" transform="translate(-4.922 -4.068)" fill="#95d5b2"/>
        <path id="Trazado_991023" data-name="Trazado 991023" d="M11.305,29.778,8.449,32.635A11.851,11.851,0,0,1,5.636,15.21a12.791,12.791,0,0,0-.093,1.517A11.806,11.806,0,0,0,8.7,24.778l-.958,1.441Z" transform="translate(-2.994 -4.862)" fill="#52b788"/>
        <path id="Trazado_991024" data-name="Trazado 991024" d="M56.917,52.917a2.453,2.453,0,0,1-3.53-.063L38.939,37.336l2.4-2.4L56.854,49.387a2.458,2.458,0,0,1,.063,3.53Z" transform="translate(-8.475 -7.871)" fill="#fcea42"/>
        <path id="Trazado_991025" data-name="Trazado 991025" d="M56.915,52.915a2.447,2.447,0,0,1-3.526-.059L38.94,37.338l2.4-2.4,3.848,3.576a13.989,13.989,0,0,1-1.237,1.653L53.39,50.314a2.447,2.447,0,0,0,3.526.059,2.063,2.063,0,0,0,.356-.466,2.434,2.434,0,0,1-.356,3.009Z" transform="translate(-8.475 -7.871)" fill="#fdc741"/>
        <circle id="Elipse_11714" data-name="Elipse 11714" cx="14.407" cy="14.407" r="14.407" transform="translate(10.176 6.78)" fill="#fffa48"/>
        <path id="Trazado_991026" data-name="Trazado 991026" d="M42.823,31.394A14.407,14.407,0,1,1,19.381,15.8a14.238,14.238,0,0,0-.992,5.254A14.4,14.4,0,0,0,42.823,31.394Z" transform="translate(-4.823 -4.952)" fill="#fcea42"/>
        <circle id="Elipse_11715" data-name="Elipse 11715" cx="11.017" cy="11.017" r="11.017" transform="translate(13.566 10.17)" fill="#e9f1f2"/>
        <path id="Trazado_991027" data-name="Trazado 991027" d="M33.407,36.886a14.181,14.181,0,0,0,2.958-.322A11.012,11.012,0,0,1,19.271,25.14,14.379,14.379,0,0,0,33.407,36.886Z" transform="translate(-5.434 -6.376)" fill="#d0d8da"/>
        <path id="Trazado_991028" data-name="Trazado 991028" d="M41.47,26.017A10.957,10.957,0,0,1,37.342,34.6,11,11,0,0,0,21.85,19.144a11.012,11.012,0,0,1,19.62,6.873Z" transform="translate(-5.868 -4.83)" fill="#d0d8da"/>
        <path id="Trazado_991029" data-name="Trazado 991029" d="M55,12h5.085v5.085H55Z" transform="translate(-10.924 -4.373)" fill="#95d5b2"/>
        <path id="Trazado_991030" data-name="Trazado 991030" d="M40,3h3.39V6.39H40Z" transform="translate(-8.636 -3)" fill="#ade8f4"/>
        <path id="Trazado_991031" data-name="Trazado 991031" d="M44,3h3.39V6.39H44Z" transform="translate(-9.246 -3)" fill="#48cae4"/>
        <path id="Trazado_991032" data-name="Trazado 991032" d="M48,3h3.39V6.39H48Z" transform="translate(-9.856 -3)" fill="#0096c7"/>
        <g id="Grupo_1154395" data-name="Grupo 1154395" transform="translate(18.651 39.832)">
          <path id="Trazado_991033" data-name="Trazado 991033" d="M25,57h3.39v3.39H25Z" transform="translate(-25 -51.068)" fill="#ade8f4"/>
          <path id="Trazado_991034" data-name="Trazado 991034" d="M33,54h3.39v5.932H33Z" transform="translate(-26.22 -50.61)" fill="#ade8f4"/>
          <path id="Trazado_991035" data-name="Trazado 991035" d="M41,50h3.39v9.322H41Z" transform="translate(-27.44 -50)" fill="#ade8f4"/>
        </g>
        <path id="Trazado_991036" data-name="Trazado 991036" d="M41,50h1.695v9.322H41Z" transform="translate(-8.789 -10.168)" fill="#48cae4"/>
        <path id="Trazado_991037" data-name="Trazado 991037" d="M33,54h1.695v5.932H33Z" transform="translate(-7.569 -10.778)" fill="#48cae4"/>
        <path id="Trazado_991038" data-name="Trazado 991038" d="M25,57h1.695v3.39H25Z" transform="translate(-6.349 -11.235)" fill="#48cae4"/>
        <circle id="Elipse_11716" data-name="Elipse 11716" cx="7.627" cy="7.627" r="7.627" transform="translate(0.006 33.9)" fill="#fcf2ad"/>
        <path id="Trazado_991039" data-name="Trazado 991039" d="M17.042,54.768A7.627,7.627,0,1,1,9.3,43.14a7.529,7.529,0,0,0-1.212,4.119,7.619,7.619,0,0,0,8.958,7.509Z" transform="translate(-2.993 -9.121)" fill="#f9dbaf"/>
        <circle id="Elipse_11717" data-name="Elipse 11717" cx="1.695" cy="1.695" r="1.695" transform="translate(4.244 34.747)" fill="#f9dbaf"/>
        <circle id="Elipse_11718" data-name="Elipse 11718" cx="1.695" cy="1.695" r="1.695" transform="translate(8.481 40.68)" fill="#f9dbaf"/>
        <path id="Trazado_991040" data-name="Trazado 991040" d="M8.176,56.542a2.542,2.542,0,0,1-1.415,2.28,7.572,7.572,0,0,1-3.161-3.8A2.5,2.5,0,0,1,5.634,54,2.542,2.542,0,0,1,8.176,56.542Z" transform="translate(-3.085 -10.778)" fill="#edb88e"/>
        <path id="Trazado_991041" data-name="Trazado 991041" d="M11.39,45.7a1.7,1.7,0,0,1-1,1.542,1.734,1.734,0,0,0,.153-.695A1.7,1.7,0,0,0,9.28,44.907a7.389,7.389,0,0,0-.424,2.263A1.695,1.695,0,1,1,11.39,45.7Z" transform="translate(-3.756 -9.253)" fill="#edb88e"/>
        <path id="Trazado_991042" data-name="Trazado 991042" d="M16.417,52.7a1.7,1.7,0,0,1-1,1.542,1.6,1.6,0,0,0,.153-.695,1.7,1.7,0,0,0-1.695-1.695A1.6,1.6,0,0,0,13.18,52a1.695,1.695,0,0,1,3.237.695Z" transform="translate(-4.546 -10.321)" fill="#edb88e"/>
        <path id="Trazado_991043" data-name="Trazado 991043" d="M8.176,56.542A2.506,2.506,0,0,1,6.956,58.7a2.475,2.475,0,0,0,.373-1.314,2.542,2.542,0,0,0-2.542-2.542,2.45,2.45,0,0,0-1.144.271.454.454,0,0,1-.042-.093A2.5,2.5,0,0,1,5.634,54,2.542,2.542,0,0,1,8.176,56.542Z" transform="translate(-3.085 -10.778)" fill="#da9367"/>
        <path id="Trazado_991044" data-name="Trazado 991044" d="M35.95,26.475a8.484,8.484,0,0,1-8.111,8.467c-.119.008-.237.008-.364.008a8.475,8.475,0,1,1,8.475-8.475Z" transform="translate(-5.434 -5.288)" fill="#ade8f4"/>
        <path id="Trazado_991045" data-name="Trazado 991045" d="M35.747,28.585a8.5,8.5,0,0,1-7.907,6.636c-.119.008-.237.008-.364.008a8.475,8.475,0,0,1-4.882-15.4,8.265,8.265,0,0,0-.2,1.839,8.475,8.475,0,0,0,8.475,8.475c.127,0,.246,0,.364-.008a8.364,8.364,0,0,0,4.517-1.551Z" transform="translate(-5.435 -5.567)" fill="#48cae4"/>
        <path id="Trazado_991046" data-name="Trazado 991046" d="M37.322,27.237A8.484,8.484,0,0,1,29.212,35.7l.483-3.382L28,29.78l1.695-.847-.847-2.542,4.237-.847L32.237,23h3.949a8.446,8.446,0,0,1,1.136,4.237Z" transform="translate(-6.806 -6.05)" fill="#95d5b2"/>
        <path id="Trazado_991047" data-name="Trazado 991047" d="M22.39,29.233l2.542,2.542L22.89,33.817a8.471,8.471,0,0,1,.254-14.407l2.636,2.2-2.542,2.542.847,2.542Z" transform="translate(-5.434 -5.503)" fill="#95d5b2"/>
        <path id="Trazado_991048" data-name="Trazado 991048" d="M33.225,19.22,29.7,20.542l-1.67-2.5c.271-.025.542-.042.822-.042A8.359,8.359,0,0,1,33.225,19.22Z" transform="translate(-6.811 -5.288)" fill="#95d5b2"/>
        <path id="Trazado_991049" data-name="Trazado 991049" d="M37.119,30.16A8.5,8.5,0,0,1,29.212,36.8l.483-3.382L28,30.872l.28-.136a8.4,8.4,0,0,0,3.958.983c.127,0,.246,0,.364-.008a8.364,8.364,0,0,0,4.517-1.551Z" transform="translate(-6.806 -7.142)" fill="#52b788"/>
        <path id="Trazado_991050" data-name="Trazado 991050" d="M24.933,31.839l-2.042,2.042a8.475,8.475,0,0,1-.3-14.052,8.265,8.265,0,0,0-.2,1.839,8.412,8.412,0,0,0,1.695,5.085L22.391,29.3Z" transform="translate(-5.434 -5.567)" fill="#52b788"/>
        <path id="Trazado_991051" data-name="Trazado 991051" d="M28.39,36.029c-.186.017-.364.034-.551.042-.119.008-.237.008-.364.008A8.475,8.475,0,0,1,19,27.605a8.567,8.567,0,0,1,.288-2.2,14.43,14.43,0,0,0,9.1,10.619Z" transform="translate(-5.434 -6.418)" fill="#00b4d8"/>
        <path id="Trazado_991052" data-name="Trazado 991052" d="M29.989,37.9c-.186.017-.373.034-.559.042l.034-.254a4,4,0,0,0,.525.212Z" transform="translate(-7.024 -8.29)" fill="#40916c"/>
        <path id="Trazado_991053" data-name="Trazado 991053" d="M24.11,33.5l-1.22,1.22a8.5,8.5,0,0,1-3.873-6.56c-.008-.186-.017-.381-.017-.568,0-.212.008-.415.017-.619a8.9,8.9,0,0,1,.288-1.644A14.348,14.348,0,0,0,24.11,33.5Z" transform="translate(-5.434 -6.405)" fill="#40916c"/>
        <path id="Trazado_991054" data-name="Trazado 991054" d="M55,12h2.542v5.085H55Z" transform="translate(-10.924 -4.373)" fill="#52b788"/>
      </g>
      <g id="Outline_copy" data-name="Outline copy" transform="translate(1.998 2)">
        <path id="Trazado_991055" data-name="Trazado 991055" d="M17.914,48.621a.847.847,0,0,0-.727.953,6.648,6.648,0,0,1,.068.9,6.788,6.788,0,0,1-5.521,6.658.836.836,0,0,0,.436-.725.847.847,0,1,0-1.695,0,.835.835,0,0,0,.678.813,6.624,6.624,0,0,1-.678.035A6.717,6.717,0,0,1,8.058,56.8a3.39,3.39,0,0,0-4.244-5.085A6.573,6.573,0,0,1,3.819,49.2a.836.836,0,0,0,.723.428.847.847,0,1,0,0-1.695.82.82,0,0,0-.386.105,6.8,6.8,0,0,1,2.1-2.863c-.007.072-.022.142-.022.215a2.542,2.542,0,1,0,4.434-1.683,6.76,6.76,0,0,1,5.462,3.039.847.847,0,1,0,1.415-.932,8.475,8.475,0,1,0,1.4,4.661,8.314,8.314,0,0,0-.085-1.128A.847.847,0,0,0,17.914,48.621ZM8.78,46.238a.847.847,0,1,1,.847-.847A.848.848,0,0,1,8.78,46.238ZM4.356,53.376a1.663,1.663,0,0,1,1.034-.358,1.695,1.695,0,0,1,1.133,2.955,6.811,6.811,0,0,1-2.167-2.6Z" transform="translate(-1.998 -8.101)" fill="#323232"/>
        <path id="Trazado_991056" data-name="Trazado 991056" d="M12,52.542A2.542,2.542,0,1,0,14.542,50,2.542,2.542,0,0,0,12,52.542Zm3.39,0a.847.847,0,1,1-.847-.847A.848.848,0,0,1,15.39,52.542Z" transform="translate(-3.524 -9.32)" fill="#323232"/>
        <circle id="Elipse_11719" data-name="Elipse 11719" cx="0.847" cy="0.847" r="0.847" transform="translate(11.019 38.137)" fill="#323232"/>
        <circle id="Elipse_11720" data-name="Elipse 11720" cx="0.847" cy="0.847" r="0.847" transform="translate(5.934 40.68)" fill="#323232"/>
        <path id="Trazado_991057" data-name="Trazado 991057" d="M52,10.7H46.917a.847.847,0,0,0-.847.847v.847H42.68a.847.847,0,0,0-.62.27l-2.732,2.926A15.285,15.285,0,0,0,37.2,13.393a.847.847,0,0,0-1.086,1.3,13.689,13.689,0,0,1,2.057,2.138L36.98,18.1A11.865,11.865,0,1,0,31.35,36.291a.847.847,0,1,0-.561-1.6,10.039,10.039,0,0,1-7.918-.508,9.339,9.339,0,0,0,2.012.243c.148,0,.286,0,.4-.009a9.25,9.25,0,0,0,8.8-10.728l2.594-2.779a10.117,10.117,0,0,1-3.136,12.3.848.848,0,1,0,1.023,1.352,11.824,11.824,0,0,0,3.35-14.98l1.213-1.3a13.6,13.6,0,1,1-5.7-5.323.848.848,0,0,0,.753-1.519,15.17,15.17,0,0,0-12.617-.419A12.7,12.7,0,0,0,5.6,12.853a.847.847,0,1,0,1.218,1.178A10.848,10.848,0,0,1,8.6,12.582l2.487,2.07-2.9,2.9a.847.847,0,0,0-.2.867l1.058,3.166L6.888,24.8a.847.847,0,0,0,.106,1.07l2.96,2.96L8.211,30.576a10.987,10.987,0,0,1-3.25-14,.848.848,0,0,0-1.5-.795A12.712,12.712,0,0,0,7.834,32.392a12.568,12.568,0,0,0,6.878,2.034h.181c.127,0,.254,0,.37-.008a.821.821,0,0,0,.09-.023A15.191,15.191,0,0,0,36.1,37.633L47.133,49.477a3.271,3.271,0,0,0,2.357,1.052h.061A3.305,3.305,0,0,0,51.8,44.812L39.953,33.784A15.182,15.182,0,0,0,40.333,17l2.715-2.909H46.07v2.542a.847.847,0,0,0,.847.847H52a.847.847,0,0,0,.847-.847V11.544A.848.848,0,0,0,52,10.7Zm-28.35,6.89,1.372,2.055a.847.847,0,0,0,.705.377.838.838,0,0,0,.3-.054l3.11-1.166a7.661,7.661,0,0,1,1.4,1.22h-2.27a.847.847,0,0,0-.8,1.115l.543,1.632-3.3.659a.847.847,0,0,0-.637,1.1l.614,1.846-1.037.518a.847.847,0,0,0-.326,1.229l1.515,2.273L24.511,32.7a7.779,7.779,0,0,1-2.82-.669l1.244-1.244a.847.847,0,0,0,0-1.2l-2.051-2.051,1.309-1.965a.847.847,0,0,0,.1-.738l-.678-2.046,2.172-2.172a.847.847,0,0,0-.057-1.251L22.1,18.015a7.492,7.492,0,0,1,1.551-.428Zm2-.058a7.627,7.627,0,0,1,1.356.26l-.942.353ZM20.5,18.884l1.431,1.191-1.887,1.887a.848.848,0,0,0-.2.867l.715,2.149-1.464,2.2a.848.848,0,0,0,.106,1.07l1.943,1.944-.932.932A7.586,7.586,0,0,1,20.5,18.888ZM26.238,32.6l.327-2.288a.847.847,0,0,0-.134-.593l-1.159-1.742.836-.418a.847.847,0,0,0,.424-1.026L25.989,24.9l3.3-.659a.848.848,0,0,0,.637-1.1l-.478-1.424H31.7a7.6,7.6,0,0,1,.56,1.451L30.2,25.373a.847.847,0,1,0,1.239,1.156L32.5,25.393A7.6,7.6,0,0,1,26.238,32.6Zm7.328-10.842a9.206,9.206,0,0,0-10.686-5.74A10.125,10.125,0,0,1,35.8,19.359ZM18.711,11.448l-2.48.932-1.114-1.667A10.942,10.942,0,0,1,18.711,11.448ZM9.677,31.507l2.075-2.075a.847.847,0,0,0,0-1.2L8.684,25.166l1.987-2.981a.847.847,0,0,0,.1-.738L9.754,18.383l3.189-3.189a.848.848,0,0,0-.057-1.25l-2.712-2.262a10.783,10.783,0,0,1,2.978-.873l2.05,3.07a.847.847,0,0,0,1,.323l.983-.369a15.161,15.161,0,0,0-2.965,18.881,10.9,10.9,0,0,1-4.546-1.208ZM50.646,46.053a1.608,1.608,0,1,1-2.273,2.272L37.441,36.584a15.223,15.223,0,0,0,1.46-1.46Zm.508-30.272h-3.39v-3.39h3.39Z" transform="translate(-1.999 -3.069)" fill="#323232"/>
        <path id="Trazado_991058" data-name="Trazado 991058" d="M60.237,21h-3.39a.847.847,0,1,0,0,1.695h3.39a.847.847,0,1,0,0-1.695Z" transform="translate(-10.234 -4.898)" fill="#323232"/>
        <path id="Trazado_991059" data-name="Trazado 991059" d="M60.39,25H57.847a.847.847,0,0,0,0,1.695H60.39a.847.847,0,1,0,0-1.695Z" transform="translate(-10.386 -5.508)" fill="#323232"/>
        <path id="Trazado_991060" data-name="Trazado 991060" d="M60.542,29H58.847a.847.847,0,1,0,0,1.695h1.695a.847.847,0,1,0,0-1.695Z" transform="translate(-10.539 -6.118)" fill="#323232"/>
        <path id="Trazado_991061" data-name="Trazado 991061" d="M39.847,7.085h10.17a.847.847,0,0,0,.847-.847V2.847A.847.847,0,0,0,50.017,2H39.847A.847.847,0,0,0,39,2.847v3.39A.847.847,0,0,0,39.847,7.085ZM49.17,5.39H47.475V3.695H49.17Zm-3.39,0H44.085V3.695H45.78ZM40.695,3.695H42.39V5.39H40.695Z" transform="translate(-7.641 -2)" fill="#323232"/>
        <path id="Trazado_991062" data-name="Trazado 991062" d="M28.237,56h-3.39a.848.848,0,0,0-.847.847v3.39a.848.848,0,0,0,.847.847h3.39a.848.848,0,0,0,.847-.847v-3.39A.848.848,0,0,0,28.237,56Zm-.847,3.39H25.695V57.695H27.39Z" transform="translate(-5.354 -10.235)" fill="#323232"/>
        <path id="Trazado_991063" data-name="Trazado 991063" d="M36.237,53h-3.39a.848.848,0,0,0-.847.847V59.78a.848.848,0,0,0,.847.847h3.39a.848.848,0,0,0,.847-.847V53.847A.848.848,0,0,0,36.237,53Zm-.847,5.932H33.695V54.695H35.39Z" transform="translate(-6.574 -9.778)" fill="#323232"/>
        <path id="Trazado_991064" data-name="Trazado 991064" d="M44.237,49h-3.39a.847.847,0,0,0-.847.847V59.17a.848.848,0,0,0,.847.847h3.39a.847.847,0,0,0,.847-.847V49.847A.847.847,0,0,0,44.237,49Zm-.847,9.322H41.695V50.695H43.39Z" transform="translate(-7.794 -9.168)" fill="#323232"/>
      </g>
    </g>
  </g>
</svg>
